<svg width="493" height="438" viewBox="0 0 493 438" fill="none" xmlns="http://www.w3.org/2000/svg">
<g clip-path="url(#clip0_4490_311)">
<mask id="mask0_4490_311" style="mask-type:luminance" maskUnits="userSpaceOnUse" x="0" y="0" width="493" height="438">
<path d="M0 0H493V438H0V0Z" fill="white"/>
</mask>
<g mask="url(#mask0_4490_311)">
<path d="M448.609 319.407C440.44 320.99 469.872 309.591 461.708 311.174C466.546 299.93 447.282 301.825 451.633 290.453C439.159 290.253 424.574 275.73 423.437 285.847C450.352 244.153 416.749 251.381 408.554 223.595C407.55 220.183 405.167 216.177 400.857 216.126C397.967 216.095 395.584 217.97 393.974 219.927C380.563 236.253 398.925 258.584 392.965 277.615C388.404 278.353 384.996 274.47 382.341 271.36C379.692 268.25 374.398 265.223 370.882 267.707C368.458 269.418 368.93 272.538 369.729 275.069C373.578 287.184 380.384 298.675 389.629 308.669C385.713 310.893 380.589 308.152 376.781 305.811C372.973 303.47 366.757 301.713 364.118 304.945C362.611 306.794 363.349 309.269 364.348 311.333C367.321 317.46 372.225 322.957 378.467 327.158C388.732 334.063 375.033 334.463 375.387 340.697C375.782 347.618 381.521 348.73 380.127 356.839C378.364 367.064 369.032 373.965 387.03 375.24C398.863 376.08 413.177 368.201 421.074 361.88C428.1 356.26 433.783 348.807 438.334 341.742C439.836 339.411 447.492 319.627 448.609 319.407Z" fill="#00E13F"/>
<path fill-rule="evenodd" clip-rule="evenodd" d="M388.798 376.741C388.167 376.741 387.542 376.721 386.922 376.675C380.337 376.208 376.903 375.01 375.438 372.674C373.849 370.143 375.064 367.115 376.468 363.617C377.313 361.511 378.266 359.129 378.702 356.598C379.393 352.587 378.152 350.599 376.714 348.297L376.709 348.289L376.701 348.278C375.499 346.354 374.135 344.174 373.941 340.779C373.757 337.5 376.345 335.59 378.431 334.053C379.568 333.218 380.855 332.265 380.839 331.604C380.834 331.343 380.588 330.329 377.652 328.351C371.189 324.002 366.136 318.336 363.041 311.963L363.038 311.958C362.436 310.712 360.615 306.949 362.99 304.038C366.336 299.935 373.516 302.117 377.523 304.586C380.691 306.538 384.211 308.377 387.076 308.014C378.482 298.291 372.025 287.097 368.34 275.509C366.997 271.293 367.571 268.276 370.031 266.534C374.361 263.476 380.465 266.97 383.417 270.433C386.046 273.517 388.675 276.273 391.832 276.273H391.837C393.899 268.585 391.976 260.127 390.113 251.932L390.105 251.893C387.512 240.521 384.836 228.759 392.841 219.02C395.137 216.228 397.946 214.691 400.764 214.691H400.851C404.972 214.738 408.359 217.914 409.917 223.19C412.746 232.785 418.824 238.113 424.189 242.816C433.327 250.823 441.306 257.815 428.089 280.955C430.436 281.36 433.27 282.676 436.525 284.198C441.296 286.421 446.702 288.936 451.637 289.018L453.692 289.054L452.96 290.975C451.289 295.34 453.513 297.025 457.577 299.638L457.578 299.638C460.909 301.775 464.967 304.377 463.686 309.755C464.05 309.909 464.347 310.191 464.506 310.677C465.034 312.316 463.978 312.803 455.75 316.601L455.742 316.605L455.712 316.618C453.23 317.764 449.977 319.266 448.706 320.011L448.865 320.826C449.215 320.756 449.416 320.577 449.467 320.523C448.688 321.464 445.835 328.187 443.879 332.795L443.771 333.049C441.562 338.264 440.179 341.507 439.517 342.526C433.762 351.45 428.012 358.15 421.945 363.007C415.405 368.258 401.369 376.741 388.798 376.741ZM449.467 320.523C449.471 320.518 449.476 320.513 449.48 320.508C449.48 320.509 449.477 320.513 449.471 320.519C449.47 320.52 449.469 320.522 449.467 320.523ZM368.524 304.633C367.115 304.633 365.926 305.001 365.229 305.857C364.706 306.497 364.179 307.696 365.639 310.703C368.509 316.615 373.219 321.891 379.266 325.959C382.31 328.008 383.683 329.729 383.724 331.538C383.77 333.69 381.933 335.046 380.153 336.361L380.142 336.368C378.077 337.89 376.729 339.007 376.821 340.61C376.975 343.274 378.031 344.964 379.153 346.757C380.685 349.206 382.423 351.983 381.541 357.08C381.054 359.908 380.04 362.443 379.143 364.682L379.142 364.683C378.031 367.459 377.072 369.851 377.882 371.142C378.753 372.53 381.864 373.427 387.127 373.801C397.756 374.549 411.377 367.792 420.172 360.753C425.993 356.096 431.538 349.621 437.124 340.963C437.677 340.099 439.437 335.95 441.143 331.932V331.931L441.147 331.922C443.73 325.831 445.211 322.445 446.174 320.539C446.016 320.38 445.887 320.175 445.8 319.909C445.273 318.27 446.327 317.783 454.547 313.987L454.559 313.982L454.776 313.881C456.497 313.086 458.553 312.136 460.047 311.39L460.385 310.606C462.24 306.297 460.057 304.627 456.04 302.051C452.678 299.894 448.573 297.261 449.741 291.769C444.791 291.211 439.794 288.885 435.33 286.805C431.882 285.197 428.31 283.547 426.48 283.711C425.901 284.659 425.291 285.632 424.645 286.631L421.314 291.785L422.001 285.688C422.237 283.588 423.036 282.143 424.369 281.395C424.44 281.354 424.507 281.319 424.579 281.283C438.062 258.794 431.379 252.928 422.303 244.977L422.295 244.97C416.639 240.013 410.228 234.394 407.165 224.005C406.596 222.084 404.849 217.617 400.831 217.57C398.258 217.601 396.321 219.338 395.076 220.844C387.97 229.494 390.375 240.059 392.921 251.243L392.923 251.253C394.953 260.156 397.049 269.367 394.327 278.05L394.061 278.901L393.179 279.044C387.737 279.93 383.822 275.335 381.234 272.297C378.974 269.644 374.392 266.985 371.702 268.886C370.846 269.49 369.857 270.74 371.092 274.633C374.853 286.477 381.628 297.911 390.674 307.691L391.909 309.023L390.33 309.919C385.913 312.424 380.619 309.863 376.017 307.035C373.695 305.606 370.815 304.633 368.524 304.633ZM448.532 319.022L448.598 319.366C448.593 319.258 448.573 319.14 448.532 319.022Z" fill="#1A4A67"/>
<path d="M381.834 386.551C417.856 380.035 452.545 367.469 483.642 349.667C486.655 347.941 489.756 346.055 491.498 343.223C493.241 340.39 493.128 336.343 490.309 334.36C488.075 332.792 484.964 332.956 482.156 333.192C473.849 333.889 465.541 334.591 457.239 335.287C466.367 327.019 475.038 318.321 483.196 309.248C485.246 306.968 487.26 303.51 485.041 301.369C483.821 300.191 481.848 300.068 480.075 300.017C475.617 299.899 471.158 299.776 466.7 299.658C471.384 293.526 475.186 286.841 477.984 279.818C479.204 276.749 480.249 273.455 479.512 270.258C478.774 267.067 475.688 264.101 472.122 264.352C470.225 264.485 468.534 265.463 466.997 266.483C454.375 274.884 446.226 288.629 445.437 302.86C445.114 308.695 444.802 316.22 438.719 318.064C436.541 318.725 434.163 318.372 431.877 318.597C423.103 319.468 418.127 328.341 416.877 336.307C415.632 344.268 416.364 352.823 412.085 359.851C410.266 362.838 407.637 365.358 405.756 368.309C403.875 371.265 402.799 374.989 404.398 378.078C405.997 381.167 411.112 382.658 413.653 380.148" fill="#08EA47"/>
<path d="M400.237 363.668C400.18 363.668 400.129 363.663 400.073 363.658C399.283 363.571 398.715 362.853 398.802 362.065L408.918 272.687C409.005 271.898 409.723 271.324 410.512 271.416C411.301 271.504 411.87 272.221 411.783 273.01L401.667 362.387C401.585 363.125 400.959 363.668 400.237 363.668Z" fill="#1A4A67"/>
<path d="M404.003 330.38C403.675 330.38 403.347 330.272 403.081 330.042C402.471 329.529 402.389 328.623 402.901 328.013L425.896 300.55C426.409 299.94 427.316 299.863 427.925 300.37C428.535 300.883 428.617 301.789 428.105 302.399L405.11 329.862C404.823 330.205 404.413 330.38 404.003 330.38Z" fill="#1A4A67"/>
<path d="M406.506 308.259C406.07 308.259 405.639 308.065 405.358 307.691L391.224 289.034C390.742 288.398 390.865 287.497 391.5 287.015C392.136 286.529 393.038 286.662 393.519 287.292L407.654 305.949C408.135 306.584 408.012 307.486 407.377 307.967C407.115 308.162 406.808 308.259 406.506 308.259Z" fill="#1A4A67"/>
<path d="M424.759 375.881C424.538 375.881 424.313 375.83 424.103 375.722C423.395 375.358 423.119 374.487 423.482 373.78L454.062 314.551C454.426 313.844 455.292 313.567 455.999 313.931C456.706 314.294 456.983 315.165 456.619 315.872L426.04 375.102C425.783 375.599 425.281 375.881 424.759 375.881Z" fill="white"/>
<path d="M441.809 342.864C441.22 342.864 440.671 342.5 440.456 341.916L435.89 329.432C435.618 328.684 436.003 327.859 436.746 327.588C437.494 327.322 438.319 327.701 438.591 328.449L443.157 340.933C443.428 341.681 443.044 342.506 442.301 342.777C442.137 342.833 441.973 342.864 441.809 342.864Z" fill="white"/>
<path d="M56.9829 340.656C56.4192 336.512 56.537 331.405 60.1397 329.284C65.4336 326.164 70.9683 332.537 76.1494 335.846C77.3383 336.604 78.7067 337.229 80.1057 337.076C81.4996 336.922 82.7091 336.005 83.6162 334.934C86.8037 331.19 86.9421 325.77 86.4296 320.877C85.9172 315.99 84.9281 310.934 86.404 306.247C87.8748 301.559 92.9534 297.538 97.5503 299.254C107.897 303.122 108.241 288.911 112.955 283.332C114.944 280.981 118.024 279.316 121.052 279.844C124.025 280.366 126.28 282.82 127.822 285.412C131.333 291.314 132.65 299.654 130.077 306.185C127.658 312.327 120.294 316.052 120.765 323.505C121.093 328.633 125.639 332.962 125.27 338.085C124.963 342.362 121.303 345.723 120.509 349.934C119.443 355.61 123.784 361.373 122.364 366.972C121.442 370.61 118.249 373.325 117.234 376.941C115.984 381.398 118.285 385.983 118.946 390.563C120.361 400.373 113.263 411.146 103.029 412.289C94.2807 413.267 88.3002 404.215 83.0934 398.191C69.1439 382.044 59.8579 361.824 56.9829 340.656Z" fill="#08EA47"/>
<path d="M99.4816 388.109C99.4559 388.109 99.4252 388.109 99.3996 388.109C98.6052 388.063 97.9954 387.382 98.0415 386.588L100.983 334.468C101.029 333.674 101.772 333.08 102.5 333.111C103.294 333.157 103.904 333.838 103.858 334.632L100.916 386.751C100.875 387.515 100.24 388.109 99.4816 388.109Z" fill="white"/>
<path d="M101.203 357.628C100.865 357.628 100.527 357.51 100.255 357.269L87.0539 345.733C86.4543 345.21 86.3928 344.298 86.9156 343.704C87.4383 343.105 88.3505 343.043 88.945 343.566L102.146 355.102C102.746 355.625 102.807 356.537 102.285 357.131C102.003 357.464 101.603 357.628 101.203 357.628Z" fill="white"/>
<path d="M95.8231 417.683C91.5696 416.817 87.1777 413.856 82.8831 411.581C73.4997 406.612 71.5113 398.17 32.4147 399.461C14.2424 400.06 23.4208 378.565 10.6704 365.533C6.64239 361.419 2.6246 356.778 1.72265 351.091C0.820691 345.405 4.46438 338.653 10.2143 338.346C13.6684 338.161 16.7791 340.216 19.9975 341.476C23.2158 342.736 27.5616 342.88 29.4424 339.98C26.8902 336.548 23.2414 334.12 20.1666 331.143C17.0969 328.167 14.4576 324.186 14.8983 319.934C15.5799 313.362 21.9602 316.108 23.8205 313.096C26.3163 309.054 23.6668 300.145 25.0761 294.986C28.3764 282.891 46.805 274.772 56.3934 285.217C67.4884 297.312 65.9254 317.276 65.0234 333.73C63.7679 356.609 86.9624 359.554 97.0735 373.145C104.366 382.94 115.845 401.029 106.734 413.052C103.31 417.565 99.6205 418.456 95.8231 417.683Z" fill="#00E13F"/>
<path fill-rule="evenodd" clip-rule="evenodd" d="M95.5304 419.092C96.4426 419.276 97.3241 419.368 98.1748 419.368C101.921 419.368 105.114 417.57 107.876 413.907C115.02 404.487 111.771 390.481 98.226 372.274C94.5567 367.346 89.2577 363.776 84.133 360.323C74.642 353.935 65.6788 347.895 66.4527 333.802L66.5551 331.968L66.5562 331.953C67.4422 316.075 68.5451 296.325 57.4485 284.234C53.2308 279.639 46.9735 277.938 40.2704 279.562C32.2758 281.498 25.6085 287.538 23.6816 294.592C23 297.097 23.1742 300.268 23.3485 303.332C23.5483 306.836 23.7482 310.452 22.5951 312.327C22.2159 312.932 21.3242 313.162 19.8893 313.465L19.8783 313.467C17.5311 313.969 13.9847 314.727 13.4628 319.776C12.9299 324.94 16.2661 329.366 19.1616 332.168C20.2685 333.239 21.4472 334.243 22.59 335.211L22.6667 335.276C24.4478 336.794 26.1464 338.242 27.5661 339.924C25.8955 341.292 22.8872 341.051 20.5196 340.124C19.7048 339.806 18.8951 339.437 18.0854 339.063L18.0097 339.028C15.5531 337.902 13.0283 336.744 10.1369 336.901C7.48227 337.04 4.99675 338.382 3.14672 340.667C0.809841 343.561 -0.281726 347.639 0.29737 351.312C1.29157 357.567 5.64249 362.449 9.63978 366.537C14.7748 371.788 16.1841 378.657 17.4243 384.723L17.46 384.898C19.1886 393.352 20.81 401.282 32.4551 400.895C63.4393 399.881 70.6908 405.014 77.0762 409.553C78.6547 410.68 80.2894 411.843 82.201 412.852C83.2157 413.39 84.2355 413.964 85.2553 414.543C88.6069 416.433 92.0712 418.385 95.5304 419.092ZM105.59 412.176C102.854 415.782 99.9326 417.048 96.1146 416.269C93.1115 415.657 89.8645 413.834 86.7328 412.075L86.6851 412.048L86.4653 411.924C85.4936 411.376 84.5266 410.831 83.5642 410.321C81.8217 409.399 80.3304 408.344 78.7571 407.222C72.0027 402.422 64.331 396.982 32.3731 398.037C23.1511 398.318 22.0063 392.727 20.2661 384.228L20.2531 384.164L20.2502 384.151C18.9288 377.705 17.4304 370.395 11.7051 364.544C8.01524 360.774 4.0128 356.301 3.15185 350.882C2.70087 348.033 3.58233 344.744 5.3965 342.501C6.33945 341.338 7.95374 339.924 10.3009 339.801C12.4994 339.683 14.6313 340.662 16.8964 341.701C17.7573 342.096 18.6184 342.49 19.4844 342.828C23.3946 344.355 28.3707 344.314 30.6615 340.774L31.2047 339.934L30.6051 339.13C28.8654 336.788 26.664 334.912 24.5322 333.096L24.4657 333.039C23.3587 332.096 22.2159 331.123 21.1756 330.119C18.7413 327.757 15.9278 324.105 16.3429 320.088C16.6504 317.117 18.1827 316.789 20.5042 316.297C22.1493 315.949 24.0096 315.549 25.0601 313.854C26.6898 311.21 26.4643 307.133 26.2388 303.188C26.08 300.355 25.916 297.42 26.4746 295.371C28.1042 289.392 34.0592 284.054 40.9622 282.379C44.2779 281.575 50.566 280.996 55.3371 286.196C65.6122 297.394 64.5924 315.683 63.6904 331.82L63.5879 333.653C62.7321 349.381 72.7971 356.163 82.5341 362.72L82.5438 362.727C87.6906 366.193 92.5499 369.465 95.925 374.001C108.614 391.055 111.863 403.897 105.59 412.176Z" fill="#1A4A67"/>
<path d="M105.519 421.223C105.099 421.223 104.684 421.038 104.402 420.69L53.4776 357.684C52.9754 357.065 53.0728 356.158 53.6929 355.661C54.3078 355.164 55.2201 355.256 55.7172 355.876L106.642 418.881C107.144 419.501 107.047 420.408 106.426 420.905C106.16 421.12 105.837 421.223 105.519 421.223Z" fill="white"/>
<path d="M80.4475 391.674C80.2835 391.674 80.1196 391.649 79.9556 391.587L49.7606 380.604C49.0124 380.332 48.628 379.508 48.8996 378.76C49.1712 378.012 49.9963 377.628 50.7445 377.899L80.9395 388.882C81.6877 389.154 82.0721 389.979 81.8005 390.727C81.5904 391.311 81.0369 391.674 80.4475 391.674Z" fill="white"/>
<path d="M66.1096 372.705C65.9456 372.705 65.7816 372.679 65.6176 372.618L35.4227 361.634C34.6745 361.363 34.2901 360.538 34.5617 359.79C34.8334 359.042 35.6584 358.658 36.4067 358.929L66.6016 369.913C67.3498 370.184 67.7341 371.009 67.4625 371.757C67.2524 372.346 66.6989 372.705 66.1096 372.705Z" fill="white"/>
<path d="M90.9752 404.702C90.1757 404.702 89.5352 404.051 89.5352 403.257L89.6069 376.711C89.6069 375.917 90.2526 375.276 91.047 375.276H91.0521C91.8464 375.276 92.4921 375.927 92.487 376.721L92.4153 403.267C92.4153 404.061 91.7695 404.702 90.9752 404.702Z" fill="white"/>
<path d="M204.492 343.643C204.799 342.695 205.122 341.758 205.461 340.82C217.201 308.326 246.669 285.402 277.489 269.767C288.123 264.373 299.387 259.393 307.433 250.597C325.748 230.567 320.168 197.525 296.343 184.59C307.407 190.594 339.421 178.187 322.192 165.544C318.118 162.552 312.983 161.476 308.432 159.278C303.881 157.081 299.52 152.931 299.833 147.885C299.971 145.682 300.996 143.628 302.236 141.799C307.668 133.808 317.231 129.274 322.356 121.083C323.488 119.269 324.406 117.2 324.226 115.068C323.939 111.687 320.895 109.065 317.626 108.163C285.104 99.2083 260.044 138.72 227.851 135.124C226.011 134.919 224.043 134.597 222.403 135.452C220.497 136.451 219.677 138.71 219.128 140.79C215.321 155.124 216.448 170.723 222.285 184.36C227.133 195.691 235.302 206.608 234.072 218.872C232.97 229.85 224.361 239.307 224.591 250.336C224.653 253.272 225.345 256.268 224.591 259.106C223.453 263.384 219.364 266.145 215.403 268.123C196.133 277.738 173.692 277.887 152.717 282.764C151.236 283.107 149.683 283.517 148.607 284.587C146.731 286.447 146.977 289.474 147.238 292.102C149.288 312.578 144.394 333.044 139.536 353.038C134.17 375.123 128.805 397.207 123.439 419.292C122.87 421.628 122.388 424.368 123.941 426.202C124.792 427.211 126.094 427.708 127.339 428.144C134.565 430.669 142.021 432.519 149.585 433.666C155.581 434.578 161.834 435.024 167.614 433.185C176.598 430.326 183.06 422.36 187.263 413.923C198.04 392.264 197.005 366.629 204.492 343.643Z" fill="white"/>
<path fill-rule="evenodd" clip-rule="evenodd" d="M149.367 435.09C152.252 435.526 155.388 435.9 158.606 435.9C161.727 435.9 164.93 435.546 168.031 434.547C178.393 431.243 184.896 421.853 188.535 414.553C194.91 401.751 197.242 387.438 199.497 373.591L199.509 373.517C201.109 363.704 202.764 353.558 205.851 344.084C206.154 343.151 206.472 342.224 206.805 341.302C216.808 313.623 240.802 289.987 278.131 271.043C279.397 270.397 280.668 269.762 281.944 269.127L281.96 269.118C291.431 264.388 301.222 259.496 308.485 251.555C317.509 241.684 321.378 228.247 319.103 214.692C317.268 203.749 311.672 194.195 303.406 187.556C312.328 187.725 323.459 183.535 327.231 177.587C328.871 175.005 330.506 169.852 323.034 164.37C320.301 162.36 317.143 161.177 314.098 160.035L314.086 160.031C312.4 159.401 310.658 158.746 309.048 157.972C305.102 156.071 300.987 152.439 301.264 147.967C301.366 146.343 302.074 144.591 303.421 142.604C305.938 138.9 309.356 135.99 312.979 132.911C316.828 129.643 320.805 126.257 323.567 121.841C325.145 119.32 325.827 117.061 325.647 114.946C325.289 110.653 321.542 107.748 317.996 106.77C300.244 101.882 284.608 110.975 269.485 119.771L269.436 119.8C256.296 127.445 242.721 135.342 227.995 133.69L227.534 133.639L227.529 133.638C225.695 133.423 223.612 133.179 221.723 134.171C219.324 135.427 218.356 138.034 217.72 140.416C213.815 155.124 214.958 170.928 220.949 184.918C222.215 187.872 223.719 190.832 225.175 193.696L225.208 193.76C229.471 202.141 233.494 210.056 232.628 218.718C232.148 223.544 230.059 228.243 228.039 232.788L228.026 232.816C225.556 238.364 223.009 244.102 223.137 250.357C223.156 251.212 223.228 252.077 223.3 252.938C223.305 253.005 223.311 253.072 223.317 253.138C223.491 255.121 223.65 256.996 223.188 258.727C222.379 261.786 219.693 264.357 214.748 266.826C202.098 273.139 187.699 275.36 173.768 277.509L173.709 277.518L173.439 277.56C166.491 278.633 159.311 279.742 152.38 281.355C150.679 281.754 148.905 282.251 147.583 283.563C145.169 285.96 145.549 289.741 145.8 292.241C147.844 312.698 142.906 333.028 138.13 352.687L138.128 352.695L122.031 418.948C121.324 421.863 120.929 424.875 122.836 427.129C123.902 428.395 125.408 428.994 126.859 429.501C134.151 432.052 141.726 433.927 149.367 435.09ZM223.065 136.728C223.639 136.425 224.311 136.328 225.044 136.328C225.725 136.328 226.458 136.415 227.206 136.523L227.683 136.579C243.339 138.326 257.381 130.171 270.941 122.287L270.943 122.285C286.224 113.397 300.65 105.008 317.238 109.572C319.739 110.263 322.542 112.318 322.788 115.212C322.911 116.682 322.373 118.362 321.133 120.34C318.607 124.376 314.969 127.469 311.122 130.741L311.119 130.744C307.511 133.813 303.785 136.984 301.044 141.01C299.393 143.433 298.527 145.662 298.394 147.813C298.03 153.71 303.017 158.279 307.803 160.59C309.524 161.417 311.321 162.091 313.063 162.744L313.082 162.752L313.133 162.771C316.117 163.891 318.938 164.949 321.343 166.717C325.596 169.842 326.765 172.987 324.807 176.071C320.569 182.746 303.949 187.095 297.031 183.335L295.652 185.866C306.624 191.823 314.137 202.51 316.269 215.194C318.401 227.873 314.793 240.429 306.368 249.639C299.473 257.181 289.931 261.948 280.701 266.559L280.668 266.575C280.347 266.736 280.027 266.895 279.707 267.055C278.746 267.534 277.787 268.012 276.834 268.497C238.829 287.784 214.364 311.958 204.104 340.349C203.766 341.302 203.438 342.255 203.125 343.218C199.963 352.926 198.287 363.207 196.668 373.15C194.449 386.782 192.148 400.88 185.967 413.293C182.58 420.091 176.569 428.83 167.17 431.822C161.42 433.651 155.168 433.067 149.797 432.252C142.33 431.12 134.935 429.281 127.807 426.791C126.69 426.397 125.634 425.987 125.034 425.28C123.958 424.004 124.301 421.817 124.829 419.635L140.926 353.381L140.933 353.351C145.764 333.463 150.76 312.895 148.665 291.959C148.393 289.27 148.275 286.939 149.613 285.612C150.402 284.828 151.683 284.48 153.036 284.167C159.938 282.562 167.142 281.452 174.106 280.379L174.155 280.371L174.186 280.367C188.341 278.186 202.981 275.93 216.039 269.413C219.647 267.615 224.608 264.624 225.976 259.48C226.566 257.262 226.376 255.044 226.192 252.903V252.902C226.115 252.037 226.038 251.171 226.022 250.311C225.905 244.703 228.21 239.515 230.651 234.021L230.66 234L230.664 233.99C232.78 229.229 234.966 224.309 235.498 219.015C236.451 209.513 232.044 200.845 227.78 192.464C226.335 189.621 224.844 186.685 223.604 183.791C217.869 170.39 216.772 155.247 220.513 141.159C220.985 139.381 221.656 137.465 223.065 136.728Z" fill="#1A4A67"/>
<path d="M147.665 295.693C146.84 290.063 146.568 283.645 147.183 276.852C149.387 252.385 151.703 243.943 160.523 220.634C164.295 210.675 169.168 201.142 172.453 191.009C175.092 182.864 176.671 174.411 177.978 165.948C180.366 150.513 180.376 134.94 181.011 119.331C189.001 123.034 198.154 131.779 199.512 140.478C200.865 149.176 197.995 158.033 197.047 166.788C194.715 188.391 194.054 211.977 207.122 229.338C212.062 235.9 218.494 241.197 223.66 247.58C226.242 250.772 234.929 275.043 236.389 278.886" fill="white"/>
<path d="M147.665 297.133C146.963 297.133 146.348 296.615 146.24 295.903C145.328 289.674 145.164 283.224 145.748 276.724C147.998 251.735 150.458 243.169 159.18 220.127C160.738 216.008 162.511 211.905 164.223 207.94C166.657 202.305 169.174 196.475 171.085 190.568C173.837 182.07 175.395 173.243 176.558 165.733C178.439 153.556 178.844 141.031 179.239 128.915C179.341 125.703 179.444 122.491 179.577 119.279L179.664 117.123L181.622 118.029C189.903 121.871 199.486 130.964 200.937 140.262C201.905 146.476 200.798 152.747 199.732 158.812C199.261 161.491 198.774 164.263 198.482 166.947C196.104 188.985 195.648 211.695 208.275 228.477C210.884 231.94 214 235.132 217.018 238.215C219.647 240.905 222.363 243.687 224.787 246.678C226.847 249.224 231.926 262.6 236.62 275.346C237.133 276.734 237.522 277.794 237.743 278.378C238.024 279.121 237.65 279.951 236.907 280.238C236.159 280.52 235.334 280.146 235.047 279.403C234.821 278.814 234.427 277.743 233.914 276.345C231.362 269.418 224.582 251.012 222.543 248.492C220.206 245.603 217.536 242.872 214.953 240.229C211.873 237.078 208.69 233.82 205.969 230.209C192.737 212.632 193.173 189.267 195.612 166.64C195.914 163.853 196.412 161.035 196.893 158.31C197.923 152.475 198.984 146.446 198.087 140.703C196.945 133.372 189.529 125.637 182.365 121.641C182.272 124.1 182.196 126.554 182.114 129.007C181.719 141.21 181.314 153.827 179.403 166.173C178.224 173.796 176.64 182.766 173.822 191.454C171.864 197.489 169.322 203.38 166.862 209.082C165.161 213.016 163.408 217.089 161.871 221.146C153.261 243.892 150.837 252.349 148.618 276.985C148.055 283.26 148.213 289.485 149.095 295.488C149.208 296.277 148.664 297.005 147.88 297.123C147.809 297.128 147.737 297.133 147.665 297.133Z" fill="#1A4A67"/>
<path d="M286.483 29.0054H199.112C189.175 29.0054 181.047 37.1301 181.047 47.0633V134.668C219.534 100.13 258.769 66.4275 299.674 34.8095C296.374 31.2594 291.685 29.0054 286.483 29.0054Z" fill="#EFF0FC"/>
<path d="M299.674 34.8096C258.769 66.4275 219.539 100.13 181.047 134.668V211.377V260.833C181.047 270.761 189.175 278.891 199.112 278.891H286.483C296.42 278.891 304.548 270.766 304.548 260.833V47.0582C304.548 42.4169 302.759 38.1855 299.854 34.9786C299.797 34.9274 299.731 34.871 299.674 34.8096Z" fill="white"/>
<path fill-rule="evenodd" clip-rule="evenodd" d="M199.112 29.0103H286.483C296.42 29.0103 304.548 37.135 304.548 47.0681V260.843C304.548 270.776 296.42 278.901 286.483 278.901H199.112C189.175 278.901 181.047 270.776 181.047 260.843V47.0681C181.047 37.135 189.175 29.0103 199.112 29.0103ZM278.648 255.582C288.584 255.582 296.712 247.457 296.712 237.524V55.4593C296.712 45.5262 288.579 37.4014 278.648 37.4014H206.947C197.01 37.4014 188.883 45.5262 188.883 55.4593V237.524C188.883 247.457 197.01 255.582 206.947 255.582H278.648Z" fill="#E6E7E8"/>
<path fill-rule="evenodd" clip-rule="evenodd" d="M199.112 280.33H286.484C297.241 280.33 305.989 271.585 305.989 260.833V47.058C305.989 36.3052 297.241 27.5605 286.484 27.5605H199.112C188.355 27.5605 179.607 36.3104 179.607 47.058V260.833C179.607 271.585 188.355 280.33 199.112 280.33ZM182.488 47.0682C182.488 37.9035 189.944 30.4498 199.112 30.4498H286.484C295.652 30.4498 303.109 37.9086 303.109 47.0682V260.843C303.109 270.008 295.652 277.461 286.484 277.461H199.112C189.944 277.461 182.488 270.003 182.488 260.843V47.0682ZM278.648 257.021H206.948C196.191 257.021 187.443 248.277 187.443 237.524V55.4594C187.443 44.7118 196.191 35.9619 206.948 35.9619H278.648C289.405 35.9619 298.153 44.7066 298.153 55.4594V237.524C298.153 248.272 289.405 257.021 278.648 257.021ZM190.323 55.4594C190.323 46.2947 197.78 38.841 206.948 38.841H278.648C287.816 38.841 295.273 46.2998 295.273 55.4594V237.524C295.273 246.689 287.816 254.142 278.648 254.142H206.948C197.78 254.142 190.323 246.684 190.323 237.524V55.4594Z" fill="#1A4A67"/>
<path d="M254.919 34.722H230.669C230.372 34.722 230.131 34.4812 230.131 34.1841V33.2005C230.131 32.9034 230.372 32.6626 230.669 32.6626H254.919C255.216 32.6626 255.457 32.9034 255.457 33.2005V34.1841C255.457 34.4812 255.216 34.722 254.919 34.722Z" fill="#E3E5FC"/>
<path d="M242.795 272.866C246.333 272.866 249.201 269.999 249.201 266.463C249.201 262.926 246.333 260.059 242.795 260.059C239.256 260.059 236.389 262.926 236.389 266.463C236.389 269.999 239.256 272.866 242.795 272.866Z" fill="#1A4A67"/>
<path opacity="0.36" d="M245.275 175.948C264.207 175.948 279.555 160.606 279.555 141.682C279.555 122.757 264.207 107.415 245.275 107.415C226.344 107.415 210.996 122.757 210.996 141.682C210.996 160.606 226.344 175.948 245.275 175.948Z" fill="#00E13F"/>
<path opacity="0.36" d="M245.275 167.628C259.611 167.628 271.232 156.011 271.232 141.681C271.232 127.351 259.611 115.734 245.275 115.734C230.94 115.734 219.318 127.351 219.318 141.681C219.318 156.011 230.94 167.628 245.275 167.628Z" fill="#08EA47" fill-opacity="0.7"/>
<path d="M245.275 155.687C253.013 155.687 259.286 149.417 259.286 141.682C259.286 133.947 253.013 127.676 245.275 127.676C237.537 127.676 231.264 133.947 231.264 141.682C231.264 149.417 237.537 155.687 245.275 155.687Z" fill="#00E13F"/>
<path d="M328.502 36.4896C327.707 36.4896 327.062 35.8441 327.062 35.0501C327.062 17.5301 312.805 3.27843 295.278 3.27843C294.484 3.27843 293.838 2.63296 293.838 1.83892C293.838 1.04489 294.484 0.399414 295.278 0.399414C314.393 0.399414 329.942 15.9471 329.942 35.0501C329.942 35.8441 329.296 36.4896 328.502 36.4896Z" fill="#1A4A67"/>
<path d="M317.734 36.4896C316.94 36.4896 316.294 35.8441 316.294 35.0501C316.294 24.1949 307.459 15.358 296.594 15.358C295.8 15.358 295.154 14.7125 295.154 13.9185C295.154 13.1245 295.8 12.479 296.594 12.479C309.042 12.479 319.174 22.6068 319.174 35.0501C319.174 35.8441 318.528 36.4896 317.734 36.4896Z" fill="#1A4A67"/>
<path d="M396.369 60.4899H347.218C345.624 60.4899 344.322 59.1887 344.322 57.5955V54.7728C344.322 53.1796 345.624 51.8784 347.218 51.8784H396.369C397.963 51.8784 399.265 53.1796 399.265 54.7728V57.5955C399.265 59.1887 397.958 60.4899 396.369 60.4899Z" fill="#E6E7E8"/>
<path d="M396.369 75.1051H347.218C345.624 75.1051 344.322 73.8039 344.322 72.2107V69.388C344.322 67.7948 345.624 66.4937 347.218 66.4937H396.369C397.963 66.4937 399.265 67.7948 399.265 69.388V72.2107C399.265 73.8039 397.958 75.1051 396.369 75.1051Z" fill="#E6E7E8"/>
<path d="M396.369 89.7208H347.218C345.624 89.7208 344.322 88.4196 344.322 86.8264V84.0038C344.322 82.4106 345.624 81.1094 347.218 81.1094H396.369C397.963 81.1094 399.265 82.4106 399.265 84.0038V86.8264C399.265 88.4145 397.958 89.7208 396.369 89.7208Z" fill="#E6E7E8"/>
<path d="M396.369 104.331H347.218C345.624 104.331 344.322 103.029 344.322 101.436V98.6136C344.322 97.0204 345.624 95.7192 347.218 95.7192H396.369C397.963 95.7192 399.265 97.0204 399.265 98.6136V101.436C399.265 103.029 397.958 104.331 396.369 104.331Z" fill="#E6E7E8"/>
<path d="M138.051 120.555H24.9892C23.3954 120.555 22.0938 119.254 22.0938 117.661V111.739C22.0938 110.145 23.3954 108.844 24.9892 108.844H138.051C139.645 108.844 140.947 110.145 140.947 111.739V117.661C140.947 119.254 139.64 120.555 138.051 120.555Z" fill="#E6E7E8"/>
<path d="M138.051 140.426H69.1279C67.5341 140.426 66.2324 139.125 66.2324 137.532V131.61C66.2324 130.017 67.5341 128.715 69.1279 128.715H138.045C139.639 128.715 140.941 130.017 140.941 131.61V137.532C140.946 139.125 139.639 140.426 138.051 140.426Z" fill="#E6E7E8"/>
<path d="M138.051 184.99H72.9716C71.3779 184.99 70.0762 183.688 70.0762 182.095V176.173C70.0762 174.58 71.3779 173.279 72.9716 173.279H138.051C139.645 173.279 140.946 174.58 140.946 176.173V182.095C140.946 183.683 139.639 184.99 138.051 184.99Z" fill="#E6E7E8"/>
<path d="M138.05 204.856H99.292C97.6982 204.856 96.3965 203.555 96.3965 201.961V196.039C96.3965 194.446 97.6982 193.145 99.292 193.145H138.05C139.644 193.145 140.946 194.446 140.946 196.039V201.961C140.946 203.555 139.639 204.856 138.05 204.856Z" fill="#E6E7E8"/>
<path d="M344.936 338.986C344.336 334.381 343.962 329.714 343.875 324.965C343.321 293.624 347.934 252.641 317.954 233.456C304.466 224.824 286.637 224.271 275.69 211.27C271.662 206.485 269.494 200.363 267.439 194.38C261.033 175.743 254.848 157.024 248.893 138.229C242.774 138.9 239.274 145.81 237.926 152.029C234.016 170.057 238.9 188.857 245.29 206.101C251.686 223.349 259.691 240.224 262.356 258.492C263.365 265.423 261.254 275.156 254.494 274.9C250.922 274.762 248.211 271.555 246.387 268.368C238.971 255.423 236.763 236.945 223.198 231.551C219.605 230.121 214.47 230.639 213.297 234.44C212.661 236.489 211.974 238.687 212.779 240.669C224.064 268.619 232.504 293.87 249.877 318.239C256.503 327.537 270.555 337.239 276.936 346.742C299.782 380.773 299.238 386.019 317.913 422.324C319.148 424.727 321.654 401.73 323.96 403.037C326.179 404.297 324.662 414.435 327.173 414.122C339.857 412.55 354.616 421.72 365.993 415.7C367.884 414.701 369.878 413.6 370.923 411.679C371.969 409.753 371.835 407.406 371.677 405.204C368.955 368.048 349.722 375.645 344.936 338.986Z" fill="white"/>
<path fill-rule="evenodd" clip-rule="evenodd" d="M316.638 422.995C317.001 423.707 317.606 423.953 318.119 423.953C318.19 423.953 318.262 423.943 318.334 423.923C319.84 423.712 320.168 422.319 321.644 414.947C322.177 412.263 322.982 408.262 323.694 405.931C323.843 406.92 323.94 408.114 324.002 408.923C324.253 412.099 324.468 414.092 325.662 415.065C326.144 415.455 326.738 415.634 327.358 415.552C332.386 414.933 337.971 416.124 343.373 417.275L343.389 417.278C351.337 418.979 359.562 420.736 366.67 416.976L366.704 416.958C368.485 416.012 370.912 414.722 372.19 412.371C373.476 410.004 373.266 407.171 373.112 405.101C371.683 385.629 365.638 377.928 359.791 370.481L359.788 370.476C354.309 363.499 348.647 356.286 346.361 338.797C345.746 334.068 345.392 329.407 345.316 324.94C345.249 320.893 345.259 316.753 345.275 312.368V312.363C345.377 282.831 345.493 249.362 318.734 232.242C313.301 228.769 307.167 226.561 301.238 224.43C291.957 221.095 283.193 217.945 276.793 210.342C272.841 205.65 270.694 199.416 268.803 193.914C262.418 175.343 256.181 156.461 250.267 137.798L249.908 136.671L248.735 136.799C240.202 137.737 237.225 148.464 236.517 151.727C232.289 171.214 238.265 191.291 243.943 206.608C245.407 210.556 246.976 214.538 248.497 218.397L248.535 218.493L248.561 218.559C253.647 231.474 258.906 244.827 260.932 258.707C261.567 263.061 260.865 268.968 258.287 271.832C257.252 272.989 256.043 273.527 254.551 273.466C251.523 273.353 249.124 270.243 247.643 267.662C245.413 263.773 243.623 259.258 241.891 254.889L241.857 254.803L241.848 254.779C237.833 244.648 233.68 234.171 223.736 230.219C220.943 229.107 217.617 229.118 215.265 230.239C213.599 231.039 212.441 232.345 211.913 234.056L211.911 234.064C211.23 236.27 210.459 238.767 211.447 241.213C213.198 245.548 214.877 249.812 216.535 254.023L216.715 254.481C225.617 277.113 234.027 298.485 248.709 319.084C251.999 323.7 257.093 328.433 262.018 333.008C267.189 337.813 272.539 342.788 275.742 347.557C291.362 370.821 295.894 380.341 303.397 396.099L303.405 396.116L303.464 396.239C306.904 403.463 310.803 411.651 316.638 422.995ZM216.515 232.837C217.31 232.458 218.309 232.268 219.36 232.268C220.462 232.268 221.625 232.478 222.665 232.888C231.464 236.387 235.211 245.844 239.177 255.859C240.955 260.351 242.795 264.993 245.137 269.086C247.817 273.768 250.943 276.206 254.439 276.34C256.745 276.422 258.825 275.535 260.424 273.753C263.76 270.044 264.514 263.312 263.781 258.287C261.705 244.056 256.371 230.521 251.21 217.438C249.683 213.565 248.104 209.554 246.639 205.604C241.099 190.656 235.257 171.092 239.331 152.337C240.489 147.014 243.318 141.179 247.904 139.883C253.711 158.172 259.82 176.655 266.077 194.846L266.083 194.865C268.055 200.598 270.289 207.095 274.584 212.197C281.481 220.386 291.013 223.815 300.235 227.132L300.259 227.14C306.04 229.215 312.02 231.366 317.176 234.666C342.605 250.936 342.492 283.563 342.389 312.353L342.389 312.482C342.373 316.835 342.359 320.948 342.43 324.986C342.512 329.56 342.871 334.33 343.501 339.166C345.889 357.436 351.802 364.967 357.52 372.251L357.523 372.254C363.36 379.687 368.874 386.71 370.237 405.311C370.406 407.53 370.473 409.492 369.658 410.993C368.854 412.473 367.219 413.421 365.323 414.425C359.137 417.698 351.778 416.126 343.988 414.461L343.984 414.46C338.491 413.287 332.81 412.073 327.41 412.647C327.125 411.885 326.972 409.954 326.874 408.728L326.872 408.698C326.621 405.516 326.4 402.765 324.678 401.787C324.156 401.495 323.551 401.469 323.013 401.715C321.439 402.432 320.625 405.363 318.816 414.389C318.771 414.609 318.725 414.837 318.678 415.068C318.414 416.375 318.121 417.824 317.847 419.025C312.825 409.182 309.304 401.789 306.173 395.215L306.009 394.871L305.994 394.84C298.7 379.515 293.873 369.375 278.14 345.943C274.753 340.897 269.28 335.81 263.986 330.892L263.9 330.813C259.11 326.355 254.164 321.753 251.061 317.404C236.584 297.097 228.236 275.879 219.401 253.42C217.684 249.056 215.941 244.629 214.127 240.132C213.52 238.641 214.103 236.754 214.68 234.886L214.686 234.865C214.963 233.969 215.578 233.282 216.515 232.837Z" fill="#1A4A67"/>
<path d="M427.952 365.891C422.822 362.5 416.693 360.507 410.118 360.507H220.072C219.703 360.507 219.349 360.548 218.98 360.564C246.864 367.889 274.466 376.66 301.781 385.998C344.619 403.124 385.227 379.026 427.952 365.891Z" fill="#E6E7E8"/>
<path d="M427.952 365.891C385.222 379.026 344.619 403.124 301.781 385.998C274.466 376.659 246.864 367.884 218.981 360.563C201.613 361.147 187.576 375.491 187.576 392.991C187.576 410.859 202.197 425.475 220.072 425.475H410.118C427.988 425.475 442.614 410.859 442.614 392.991C442.614 381.7 436.762 371.716 427.952 365.891Z" fill="#00C939"/>
<path d="M253.551 437.539H80.1353C67.4413 437.539 57.0586 427.16 57.0586 414.471V410.962C57.0586 398.272 67.4413 387.894 80.1353 387.894H253.551C266.245 387.894 276.628 398.272 276.628 410.962V414.471C276.633 427.16 266.245 437.539 253.551 437.539Z" fill="#00E13F"/>
<path d="M254.157 412.888L253.383 413.836C253.204 414.056 252.876 414.087 252.655 413.907L239.018 402.806C238.798 402.627 238.767 402.299 238.947 402.079L239.72 401.131C239.9 400.911 240.228 400.88 240.448 401.059L254.085 412.16C254.3 412.34 254.336 412.668 254.157 412.888Z" fill="white"/>
<path d="M254.157 412.54L253.383 411.592C253.204 411.372 252.876 411.341 252.655 411.52L239.018 422.621C238.798 422.801 238.767 423.129 238.947 423.349L239.72 424.297C239.9 424.517 240.228 424.548 240.448 424.368L254.085 413.267C254.3 413.088 254.336 412.76 254.157 412.54Z" fill="white"/>
<path d="M235.43 412.888L234.656 413.836C234.477 414.056 234.149 414.087 233.929 413.907L220.292 402.806C220.071 402.627 220.041 402.299 220.22 402.079L220.994 401.131C221.173 400.911 221.501 400.88 221.722 401.059L235.358 412.16C235.579 412.34 235.61 412.668 235.43 412.888Z" fill="white"/>
<path d="M235.43 412.54L234.656 411.592C234.477 411.372 234.149 411.341 233.929 411.52L220.292 422.621C220.071 422.801 220.041 423.129 220.22 423.349L220.994 424.297C221.173 424.517 221.501 424.548 221.722 424.368L235.358 413.267C235.579 413.088 235.61 412.76 235.43 412.54Z" fill="white"/>
<path d="M214.999 412.888L214.225 413.835C214.046 414.056 213.718 414.086 213.498 413.907L199.866 402.811C199.646 402.632 199.615 402.304 199.794 402.084L200.568 401.136C200.747 400.916 201.075 400.885 201.296 401.064L214.933 412.165C215.143 412.339 215.179 412.667 214.999 412.888Z" fill="white"/>
<path d="M214.999 412.54L214.225 411.592C214.046 411.372 213.718 411.341 213.498 411.52L199.866 422.621C199.646 422.801 199.615 423.129 199.794 423.349L200.568 424.297C200.747 424.517 201.075 424.548 201.296 424.368L214.933 413.267C215.143 413.088 215.179 412.76 214.999 412.54Z" fill="white"/>
</g>
</g>
<defs>
<clipPath id="clip0_4490_311">
<rect width="493" height="438" fill="white"/>
</clipPath>
</defs>
</svg>
