<svg width="99" height="41" viewBox="0 0 99 41" fill="none" xmlns="http://www.w3.org/2000/svg">
<rect width="98.1114" height="40.4077" rx="2" fill="#0080BD"/>
<path fill-rule="evenodd" clip-rule="evenodd" d="M58.5351 17.2485C58.5351 16.1992 57.9313 15.6745 56.7236 15.6745C55.8972 15.6745 54.9756 16.4615 53.9586 18.0355C52.9469 19.6115 52.2059 21.3427 51.7657 23.1588V23.2532C51.7734 24.3729 51.9419 25.4858 52.2662 26.5585C52.5271 27.323 52.6951 28.1156 52.7668 28.9195C52.7668 29.9688 51.4161 31.0181 48.7146 32.0674C48.3665 32.2109 47.995 32.2909 47.6182 32.3035C47.2442 32.3135 46.8779 32.1974 46.5792 31.9744C46.2804 31.7514 46.0669 31.4346 45.9735 31.0758C45.6333 29.9996 45.4801 28.8739 45.5206 27.7469C45.5206 26.346 45.5603 25.0344 45.6398 23.812C45.7192 22.5895 45.7987 21.4405 45.8781 20.365C45.9576 19.3157 46.037 18.387 46.1165 17.579C46.196 16.771 46.2357 16.1179 46.2357 15.6194C46.2357 14.5701 45.7431 14.0455 44.7578 14.0455C43.7726 14.0455 42.6285 15.1918 41.3254 17.4846C40.0224 19.7669 39.3709 21.5769 39.3709 22.9148C39.3592 24.1676 39.5277 25.4157 39.8714 26.6215C40.1323 27.386 40.3003 28.1786 40.372 28.9824C40.372 30.0318 39.0213 31.0811 36.3199 32.1304C35.9717 32.2738 35.6003 32.3538 35.2234 32.3665C34.8498 32.375 34.4842 32.2584 34.1857 32.0357C33.8873 31.8129 33.6734 31.4969 33.5787 31.1388C33.4444 30.6761 33.339 30.2064 33.2628 29.7325C32.6146 30.1619 31.9322 30.5401 31.2216 30.8631C30.0319 31.4348 28.7301 31.741 27.4079 31.7602C25.7234 31.7602 24.5952 30.2965 24.0231 27.3689C23.2113 28.7075 22.1028 29.8459 20.7814 30.6978C19.1593 31.6381 17.2955 32.0894 15.4183 31.9963C14.4203 32.0399 13.4241 31.8778 12.4927 31.5201C11.5613 31.1625 10.715 30.6172 10.0075 29.9187C9.339 29.2563 8.81603 28.4641 8.47146 27.5919C8.12689 26.7198 7.96817 25.7864 8.00528 24.8505C8.00528 19.499 9.80094 15.2808 13.3922 12.1958C14.6272 11.0631 16.0776 10.1856 17.6589 9.61449C19.0097 9.20064 20.4163 8.99363 21.8302 9.00064C23.0699 8.96093 24.2996 9.23161 25.4056 9.78762C25.8506 8.87472 26.3591 8.41827 26.9311 8.41827C27.5308 8.43785 28.1205 8.57524 28.6661 8.82247C29.2117 9.0697 29.7023 9.42185 30.1093 9.85845C30.5278 10.1901 30.8754 10.601 31.1319 11.0672C31.3883 11.5333 31.5485 12.0454 31.603 12.5736C31.0308 13.8562 30.378 15.1021 29.6485 16.3039C29.3549 18.3207 29.2274 20.3578 29.2671 22.3951C29.2671 25.0184 29.6008 26.3301 30.2682 26.3301C30.7761 26.3301 31.7282 25.7117 33.1246 24.4749C33.1761 22.2033 33.3515 19.9355 33.6502 17.6813C34.1391 14.7165 35.2428 11.8841 36.8919 9.3629C37.065 9.00572 37.3259 8.6974 37.6509 8.46635C37.9758 8.2353 38.3541 8.08894 38.7512 8.04077C39.8105 8.04077 40.7799 8.89071 41.6592 10.5906C41.8894 10.9806 42.081 11.3917 42.2312 11.8183C42.8414 10.9602 43.647 10.2565 44.583 9.76423C45.5189 9.27201 46.5587 9.00511 47.6182 8.98515C48.966 8.97837 50.2704 9.45658 51.2889 10.3309C51.7966 10.736 52.2038 11.251 52.4793 11.8362C52.7547 12.4215 52.8911 13.0615 52.878 13.7071V14.2265C53.6969 13.113 54.7704 12.2074 56.0105 11.5836C57.2506 10.9599 58.6221 10.6358 60.0129 10.6378C60.7218 10.5899 61.4332 10.6836 62.1047 10.9134C62.7763 11.1433 63.3943 11.5045 63.9221 11.9757C64.3572 12.3998 64.7002 12.9077 64.9297 13.468C65.1593 14.0283 65.2706 14.6293 65.2569 15.2338C65.267 16.4047 65.1713 17.5741 64.9708 18.728C64.7802 19.7774 64.5656 20.7532 64.3273 21.6556C64.0889 22.558 63.8744 23.3686 63.6837 24.0874C63.5211 24.6248 63.425 25.1797 63.3977 25.7401C63.3977 26.1336 63.5248 26.3303 63.779 26.3303C64.4528 26.2383 65.0748 25.9219 65.5429 25.4331C65.9913 25.0496 66.4397 24.6434 66.8881 24.2145C66.8512 23.8202 66.8407 23.4229 66.8569 23.0254C66.756 19.4648 68.0354 16.001 70.4323 13.3455C71.6129 12.0185 73.0764 10.968 74.7171 10.2697C76.3578 9.57153 78.1346 9.24313 79.919 9.30827C81.3797 9.26057 82.8361 9.49031 84.2095 9.98508C86.0846 10.7406 87.0222 11.4489 87.0222 12.1099C87.0222 12.6346 85.7112 12.8969 83.0892 12.8969C81.865 12.8749 80.6492 13.1024 79.5174 13.5654C78.3857 14.0284 77.3622 14.717 76.5105 15.5884C75.6345 16.4755 74.9485 17.5288 74.4938 18.6852C74.0392 19.8415 73.8252 21.0769 73.8647 22.3171C73.8237 23.6197 74.2741 24.8907 75.128 25.8822C75.5828 26.3699 76.1422 26.7503 76.7651 26.9955C77.388 27.2407 78.0585 27.3443 78.7272 27.2988C80.0706 27.3475 81.4007 27.0202 82.5648 26.3544C81.473 25.6465 80.5864 24.6688 79.9928 23.5177C79.3992 22.3666 79.1191 21.0821 79.1801 19.7909C79.1584 18.2531 79.7493 16.7686 80.8248 15.6592C81.3663 15.0516 82.0348 14.5679 82.784 14.2418C83.5331 13.9156 84.3448 13.7548 85.163 13.7705C86.9268 13.7705 88.1902 14.2505 88.9529 15.2107C89.7912 16.3982 90.1948 17.8336 90.097 19.2794C89.8738 22.5081 88.8665 25.7165 86.6663 28.109C83.8298 31.257 80.793 32.3512 77.3209 32.3512C73.8488 32.3512 71.1791 31.4619 69.4312 29.6597C69.0344 29.2578 68.6777 28.821 68.3651 28.3553C68.2713 28.4464 68.1755 28.5374 68.0775 28.6283C66.2 30.5617 63.6337 31.6915 60.9267 31.7762C58.6384 31.7762 57.4943 29.7143 57.4943 25.5905C57.5411 24.1457 57.7165 22.7078 58.0187 21.2936C58.3053 19.962 58.478 18.6089 58.5351 17.2485ZM15.0131 23.2923C15.0131 25.7162 15.9189 26.9282 17.7304 26.9282C19.6691 26.8967 21.274 25.8736 22.5453 23.8589C23.0341 23.0663 23.4034 22.2073 23.6418 21.3091C23.5894 18.2601 23.9096 15.2159 24.5952 12.243C22.0236 12.742 19.6736 14.0242 17.8734 15.9104C16.9231 16.8893 16.1804 18.0468 15.6891 19.3147C15.1979 20.5825 14.968 21.935 15.0131 23.2923ZM86.7203 19.1456C86.7065 20.2921 86.4351 21.4213 85.9257 22.4509V22.4824C85.5124 22.0756 85.1877 21.5892 84.9717 21.0531C84.7558 20.5171 84.6532 19.9428 84.6704 19.366C84.678 18.9565 84.7756 18.5537 84.9564 18.1855C85.1471 17.7762 85.3854 17.5716 85.6715 17.5716C86.3707 17.5716 86.7203 18.0963 86.7203 19.1456Z" fill="white"/>
</svg>
