<svg width="143" height="28" viewBox="0 0 143 28" fill="none" xmlns="http://www.w3.org/2000/svg">
<path d="M88.127 26.7351H103.557V23.3519H93.3254C94.7282 17.7409 103.31 16.5031 103.31 10.2319C103.31 6.84877 100.999 4.37329 96.2135 4.37329C93.1604 4.37329 90.6024 5.28097 88.7871 6.18864L89.8598 9.32424C91.5101 8.5816 93.3255 7.83896 95.5534 7.83896C97.3687 7.83896 99.019 8.5816 99.019 10.6445C99.1016 15.2654 89.0346 15.5955 88.127 26.7351ZM134.418 22.0317C129.715 22.0317 125.837 18.1534 125.837 13.45C125.837 8.74663 129.715 4.86839 134.418 4.86839C139.122 4.86839 143 8.74663 143 13.45C143 18.1534 139.122 22.0317 134.418 22.0317ZM134.418 6.43619C130.54 6.43619 127.404 9.57179 127.404 13.45C127.404 17.3283 130.54 20.4639 134.418 20.4639C138.297 20.4639 141.432 17.3283 141.432 13.45C141.432 9.57179 138.297 6.43619 134.418 6.43619Z" fill="#00629A"/>
<path d="M139.287 13.4502H134.996V9.15942H133.841V14.6055H139.287V13.4502Z" fill="#00629A"/>
<path d="M0 1.32025H7.42643C12.8725 1.32025 15.348 4.45586 15.348 7.75649C15.348 9.98442 14.2752 11.9648 12.2949 13.0375V13.12C15.2654 13.8627 17.0808 16.2556 17.0808 19.2262C17.0808 23.187 14.1102 26.7351 8.16907 26.7351H0V1.32025ZM6.84882 11.9648C9.40681 11.9648 10.8096 10.562 10.8096 8.58165C10.8096 6.68378 9.57184 5.1985 6.84882 5.1985H4.7034V11.9648H6.84882ZM7.59146 22.9394C10.6445 22.9394 12.3774 21.7842 12.3774 19.2262C12.3774 17.0808 10.7271 15.7605 8.16907 15.7605H4.7034V22.9394H7.59146ZM20.5465 2.80554C20.5465 1.23774 21.7842 0 23.352 0C24.9198 0 26.24 1.15522 26.24 2.80554C26.24 4.29083 25.0023 5.52856 23.352 5.52856C21.7017 5.52856 20.5465 4.37334 20.5465 2.80554ZM21.0415 8.49913H25.6624V26.7351H21.0415V8.49913ZM31.8511 22.2793V12.1298H28.5505V8.49913H31.8511V4.29082L36.472 2.97057V8.49913H42.0006L40.8454 12.1298H36.472V21.1241C36.472 22.8569 37.0496 23.4345 38.2874 23.4345C39.3601 23.4345 40.3503 23.0219 41.0929 22.5268L42.4957 25.6624C41.1754 26.5701 38.9475 27.0652 37.1321 27.0652C33.8315 27.1477 31.8511 25.3324 31.8511 22.2793ZM44.9711 8.49913H48.8494L49.3445 10.562C50.9948 8.91171 52.4801 8.08655 54.378 8.08655C55.2031 8.08655 56.1933 8.3341 56.9359 8.8292L55.2856 12.7074C54.4605 12.2123 53.7178 12.1298 53.2227 12.1298C51.985 12.1298 50.9948 12.6249 49.5095 13.9452V26.8177H44.8886V8.49913H44.9711ZM58.7513 2.80554C58.7513 1.23774 59.989 0 61.5568 0C63.1246 0 64.3624 1.23774 64.3624 2.80554C64.3624 4.29083 63.1246 5.52856 61.4743 5.52856C59.824 5.52856 58.7513 4.37334 58.7513 2.80554ZM59.2464 8.49913H63.8673V26.7351H59.2464V8.49913ZM73.1916 17.5759L66.5903 8.49913H71.3762L75.667 14.4403L80.0404 8.49913H84.8263L78.1425 17.5759L84.9088 26.7351H80.1229L75.7496 20.629L71.2937 26.7351H66.5078L73.1916 17.5759Z" fill="#3FC0F0"/>
<path d="M117.915 18.0709V4.37329H115.027L104.053 18.6485V21.3716H113.955V26.8176H117.915V21.3716H121.216V18.0709H117.915ZM113.955 14.8528V17.9884H111.314C110.489 17.9884 109.004 18.0709 108.509 18.0709L114.12 10.4795C114.12 11.1396 113.955 13.12 113.955 14.8528Z" fill="#00629A"/>
</svg>
