<svg width="30" height="30" viewBox="0 0 30 30" fill="none" xmlns="http://www.w3.org/2000/svg">
<g clip-path="url(#clip0_341_8)">
<mask id="mask0_341_8" style="mask-type:luminance" maskUnits="userSpaceOnUse" x="0" y="0" width="30" height="30">
<path d="M30 0H0V30H30V0Z" fill="white"/>
</mask>
<g mask="url(#mask0_341_8)">
<path d="M22.5096 0H7.49043C3.35358 0 0 3.35358 0 7.49043V22.5096C0 26.6464 3.35358 30 7.49043 30H22.5096C26.6464 30 30 26.6464 30 22.5096V7.49043C30 3.35358 26.6464 0 22.5096 0Z" fill="url(#paint0_linear_341_8)"/>
<path d="M22.5096 0H7.49043C3.35358 0 0 3.35358 0 7.49043V22.5096C0 26.6464 3.35358 30 7.49043 30H22.5096C26.6464 30 30 26.6464 30 22.5096V7.49043C30 3.35358 26.6464 0 22.5096 0Z" fill="url(#paint1_radial_341_8)"/>
<path fill-rule="evenodd" clip-rule="evenodd" d="M15.0025 6C15.4421 6.00078 15.8692 6.14638 16.2178 6.41428C16.5663 6.68219 16.8169 7.05747 16.9307 7.48209C17.0446 7.90671 17.0154 8.35701 16.8476 8.76335C16.6798 9.16968 16.3828 9.50941 16.0025 9.73V10H19.0025C20.0634 10 21.0808 10.4214 21.8309 11.1716C22.5811 11.9217 23.0025 12.9391 23.0025 14V14.05C23.5668 14.1657 24.0739 14.4727 24.438 14.9191C24.8021 15.3655 25.001 15.9239 25.001 16.5C25.001 17.0761 24.8021 17.6345 24.438 18.0809C24.0739 18.5273 23.5668 18.8343 23.0025 18.95V20C23.0025 21.0609 22.5811 22.0783 21.8309 22.8284C21.0808 23.5786 20.0634 24 19.0025 24H11.0025C9.94164 24 8.92422 23.5786 8.17408 22.8284C7.42393 22.0783 7.00251 21.0609 7.00251 20V18.95C6.43736 18.8352 5.92927 18.5286 5.56432 18.0821C5.19937 17.6356 5 17.0767 5 16.5C5 15.9233 5.19937 15.3644 5.56432 14.9179C5.92927 14.4714 6.43736 14.1648 7.00251 14.05V14C7.00251 12.9391 7.42393 11.9217 8.17408 11.1716C8.92422 10.4214 9.94164 10 11.0025 10H14.0025V9.73C13.6222 9.50941 13.3252 9.16968 13.1575 8.76335C12.9897 8.35701 12.9604 7.90671 13.0743 7.48209C13.1881 7.05747 13.4387 6.68219 13.7872 6.41428C14.1358 6.14638 14.5629 6.00078 15.0025 6ZM12.0025 15C11.7373 15 11.4829 15.1054 11.2954 15.2929C11.1079 15.4804 11.0025 15.7348 11.0025 16V18C11.0025 18.2652 11.1079 18.5196 11.2954 18.7071C11.4829 18.8946 11.7373 19 12.0025 19C12.2677 19 12.5221 18.8946 12.7096 18.7071C12.8971 18.5196 13.0025 18.2652 13.0025 18V16C13.0025 15.7348 12.8971 15.4804 12.7096 15.2929C12.5221 15.1054 12.2677 15 12.0025 15ZM18.0025 15C17.7373 15 17.4829 15.1054 17.2954 15.2929C17.1079 15.4804 17.0025 15.7348 17.0025 16V18C17.0025 18.2652 17.1079 18.5196 17.2954 18.7071C17.4829 18.8946 17.7373 19 18.0025 19C18.2677 19 18.5221 18.8946 18.7096 18.7071C18.8971 18.5196 19.0025 18.2652 19.0025 18V16C19.0025 15.7348 18.8971 15.4804 18.7096 15.2929C18.5221 15.1054 18.2677 15 18.0025 15Z" fill="white"/>
</g>
</g>
<defs>
<linearGradient id="paint0_linear_341_8" x1="3.53541" y1="22.8161" x2="30" y2="15" gradientUnits="userSpaceOnUse">
<stop stop-color="#44CCFF"/>
<stop offset="0.662" stop-color="#5533EE"/>
<stop offset="1" stop-color="#9933DD"/>
</linearGradient>
<radialGradient id="paint1_radial_341_8" cx="0" cy="0" r="1" gradientUnits="userSpaceOnUse" gradientTransform="translate(-0.713724 -13.1756) rotate(51.356) scale(36.4055 15)">
<stop stop-color="#0000FF"/>
<stop offset="1" stop-opacity="0"/>
</radialGradient>
<clipPath id="clip0_341_8">
<rect width="30" height="30" fill="white"/>
</clipPath>
</defs>
</svg>
