<svg width="30" height="30" viewBox="0 0 30 30" fill="none" xmlns="http://www.w3.org/2000/svg">
<g clip-path="url(#clip0_2207_1237)">
<path d="M15 0C6.71566 0 0 6.71566 0 15C0 23.2843 6.71566 30 15 30C23.2843 30 30 23.2843 30 15C30 6.71566 23.2843 0 15 0Z" fill="#40B3E0"/>
<path d="M22.2989 8.62852L19.6198 22.1364C19.6198 22.1364 19.2451 23.0732 18.2147 22.6235L12.0321 17.8835L9.78401 16.797L5.99956 15.5229C5.99956 15.5229 5.41878 15.3169 5.36253 14.8672C5.3064 14.4176 6.01831 14.1741 6.01831 14.1741L21.0624 8.27251C21.0624 8.27251 22.2989 7.72923 22.2989 8.62852Z" fill="white"/>
<path d="M11.5571 21.9849C11.5571 21.9849 11.3766 21.968 11.1518 21.256C10.927 20.5441 9.78418 16.7971 9.78418 16.7971L18.8705 11.0268C18.8705 11.0268 19.3952 10.7083 19.3764 11.0268C19.3764 11.0268 19.4701 11.0829 19.1891 11.3452C18.908 11.6076 12.0511 17.7713 12.0511 17.7713" fill="#D2E5F1"/>
<path d="M14.4024 19.701L11.957 21.9306C11.957 21.9306 11.7658 22.0757 11.5566 21.9848L12.0249 17.8433" fill="#B5CFE4"/>
</g>
<defs>
<clipPath id="clip0_2207_1237">
<rect width="30" height="30" fill="white"/>
</clipPath>
</defs>
</svg>
