<svg width="30" height="30" viewBox="0 0 30 30" fill="none" xmlns="http://www.w3.org/2000/svg">
<path d="M15 0C6.71566 0 0 6.71566 0 15C0 23.2843 6.71566 30 15 30C23.2843 30 30 23.2843 30 15C30 6.71566 23.2843 0 15 0Z" fill="#40B3E0"/>
<path d="M17.979 12.0004C18.158 12.0004 18.335 12.0344 18.5 12.0994V8.50044C18.5 8.10261 18.342 7.72108 18.0607 7.43978C17.7794 7.15847 17.3978 7.00044 17 7.00044H14V6.50044C14.0028 6.43402 13.9918 6.36774 13.9677 6.3058C13.9436 6.24385 13.9069 6.18759 13.8598 6.14059C13.8128 6.09358 13.7566 6.05685 13.6946 6.03273C13.6327 6.0086 13.5664 5.99761 13.5 6.00044C13.224 6.00044 13 6.23044 13 6.50044V7.00044H10C9.60218 7.00044 9.22064 7.15847 8.93934 7.43978C8.65804 7.72108 8.5 8.10261 8.5 8.50044V12.5004C8.5 12.8983 8.65804 13.2798 8.93934 13.5611C9.22064 13.8424 9.60218 14.0004 10 14.0004H16.294L16.632 12.9614L16.636 12.9494C16.7338 12.6713 16.9157 12.4305 17.1566 12.2605C17.3974 12.0904 17.6842 11.9995 17.979 12.0004ZM10.5 10.5004C10.5 10.2352 10.6054 9.98086 10.7929 9.79333C10.9804 9.60579 11.2348 9.50044 11.5 9.50044C11.7652 9.50044 12.0196 9.60579 12.2071 9.79333C12.3946 9.98086 12.5 10.2352 12.5 10.5004C12.5 10.7657 12.3946 11.02 12.2071 11.2075C12.0196 11.3951 11.7652 11.5004 11.5 11.5004C11.2348 11.5004 10.9804 11.3951 10.7929 11.2075C10.6054 11.02 10.5 10.7657 10.5 10.5004ZM14.5 10.5004C14.5 10.2352 14.6054 9.98086 14.7929 9.79333C14.9804 9.60579 15.2348 9.50044 15.5 9.50044C15.7652 9.50044 16.0196 9.60579 16.2071 9.79333C16.3946 9.98086 16.5 10.2352 16.5 10.5004C16.5 10.7657 16.3946 11.02 16.2071 11.2075C16.0196 11.3951 15.7652 11.5004 15.5 11.5004C15.2348 11.5004 14.9804 11.3951 14.7929 11.2075C14.6054 11.02 14.5 10.7657 14.5 10.5004ZM13.5 22.0004C15.243 22.0004 16.542 21.7744 17.505 21.3884C17.5178 21.236 17.5574 21.0871 17.622 20.9484C17.4008 20.8879 17.1976 20.7746 17.0297 20.6184C16.8619 20.4622 16.7343 20.2677 16.658 20.0514L16.654 20.0394L16.303 18.9594L16.268 18.8694C16.2079 18.7264 16.1206 18.5963 16.011 18.4864L15.947 18.4264C15.8282 18.3232 15.6902 18.2444 15.541 18.1944L14.461 17.8444L14.45 17.8394C14.2246 17.7599 14.0228 17.6249 13.8633 17.4469C13.7039 17.2689 13.5918 17.0535 13.5375 16.8208C13.4832 16.588 13.4884 16.3453 13.5526 16.115C13.6168 15.8848 13.738 15.6745 13.905 15.5034H8.809C8.32913 15.5037 7.86901 15.6945 7.52978 16.0339C7.19056 16.3733 7 16.8336 7 17.3134V18.0024H7.005C7.039 18.7824 7.253 19.7594 8.128 20.5574C9.084 21.4304 10.734 22.0004 13.5 22.0004ZM18.726 14.3534L18.378 13.2834C18.3491 13.2005 18.2952 13.1286 18.2236 13.0777C18.152 13.0268 18.0663 12.9995 17.9785 12.9995C17.8907 12.9995 17.805 13.0268 17.7334 13.0777C17.6618 13.1286 17.6079 13.2005 17.579 13.2834L17.231 14.3534C17.1252 14.6769 16.9458 14.9715 16.7068 15.2139C16.4679 15.4563 16.1759 15.64 15.854 15.7504L14.783 16.0984C14.7004 16.1275 14.6289 16.1815 14.5782 16.253C14.5276 16.3244 14.5005 16.4099 14.5005 16.4974C14.5005 16.585 14.5276 16.6704 14.5782 16.7419C14.6289 16.8134 14.7004 16.8674 14.783 16.8964L15.854 17.2444C16.1807 17.3526 16.4774 17.5359 16.7204 17.7795C16.9634 18.0232 17.1458 18.3205 17.253 18.6474L17.601 19.7174C17.6301 19.8 17.6841 19.8716 17.7555 19.9222C17.827 19.9728 17.9124 20 18 20C18.0876 20 18.173 19.9728 18.2445 19.9222C18.3159 19.8716 18.3699 19.8 18.399 19.7174L18.748 18.6474C18.8559 18.3217 19.0386 18.0257 19.2813 17.7831C19.524 17.5405 19.8202 17.3581 20.146 17.2504L21.218 16.9024C21.3002 16.8729 21.3712 16.8187 21.4214 16.7473C21.4716 16.6759 21.4986 16.5907 21.4986 16.5034C21.4986 16.4161 21.4716 16.331 21.4214 16.2596C21.3712 16.1881 21.3002 16.134 21.218 16.1044L21.196 16.0994L20.124 15.7504C19.7982 15.6427 19.502 15.4603 19.2593 15.2178C19.0166 14.9752 18.8339 14.6792 18.726 14.3534ZM22.517 20.9654L23.283 21.2134L23.298 21.2174C23.3421 21.233 23.382 21.2586 23.4146 21.2921C23.4472 21.3257 23.4715 21.3664 23.4858 21.4109C23.5 21.4555 23.5037 21.5027 23.4967 21.549C23.4896 21.5952 23.4719 21.6392 23.445 21.6774C23.4087 21.7286 23.3573 21.767 23.298 21.7874L22.533 22.0354C22.3002 22.1129 22.0886 22.2435 21.9151 22.4169C21.7415 22.5903 21.6107 22.8017 21.533 23.0344L21.285 23.7984C21.2643 23.8575 21.2258 23.9087 21.1747 23.9449C21.1236 23.9811 21.0626 24.0005 21 24.0005C20.9374 24.0005 20.8764 23.9811 20.8253 23.9449C20.7742 23.9087 20.7357 23.8575 20.715 23.7984L20.466 23.0344C20.3888 22.8013 20.2583 22.5893 20.0849 22.4154C19.9115 22.2414 19.6999 22.1103 19.467 22.0324L18.702 21.7834C18.658 21.7678 18.6182 21.7421 18.5857 21.7085C18.5532 21.6749 18.529 21.6342 18.5149 21.5897C18.5007 21.5451 18.4971 21.4979 18.5042 21.4517C18.5114 21.4055 18.5291 21.3616 18.556 21.3234C18.592 21.2725 18.6431 21.234 18.702 21.2134L19.467 20.9654C19.6967 20.886 19.905 20.7546 20.0757 20.5815C20.2464 20.4084 20.3748 20.1983 20.451 19.9674L20.7 19.2024C20.7207 19.1434 20.7592 19.0922 20.8103 19.056C20.8614 19.0198 20.9224 19.0003 20.985 19.0003C21.0476 19.0003 21.1086 19.0198 21.1597 19.056C21.2107 19.0922 21.2493 19.1434 21.27 19.2024L21.519 19.9674C21.5967 20.1999 21.7274 20.411 21.9008 20.5842C22.0742 20.7575 22.2845 20.888 22.517 20.9654Z" fill="white"/>
</svg>
