<svg width="23" height="23" viewBox="0 0 23 23" fill="none" xmlns="http://www.w3.org/2000/svg">
<path d="M17.5339 11.3728L12.8577 9.64875L11.1299 4.96875C10.9978 4.61042 10.7589 4.30121 10.4456 4.08281C10.1323 3.8644 9.7596 3.74731 9.37769 3.74731C8.99577 3.74731 8.62304 3.8644 8.30974 4.08281C7.99643 4.30121 7.75762 4.61042 7.6255 4.96875L5.90144 9.64875L1.22144 11.3728C0.863106 11.5049 0.553897 11.7437 0.335496 12.057C0.117094 12.3704 0 12.7431 0 13.125C0 13.5069 0.117094 13.8796 0.335496 14.193C0.553897 14.5063 0.863106 14.7451 1.22144 14.8772L5.89769 16.6013L7.6255 21.2812C7.75762 21.6396 7.99643 21.9488 8.30974 22.1672C8.62304 22.3856 8.99577 22.5027 9.37769 22.5027C9.7596 22.5027 10.1323 22.3856 10.4456 22.1672C10.7589 21.9488 10.9978 21.6396 11.1299 21.2812L12.8539 16.605L17.5339 14.8772C17.8923 14.7451 18.2015 14.5063 18.4199 14.193C18.6383 13.8796 18.7554 13.5069 18.7554 13.125C18.7554 12.7431 18.6383 12.3704 18.4199 12.057C18.2015 11.7437 17.8923 11.5049 17.5339 11.3728ZM11.5921 14.6691C11.4394 14.7253 11.3007 14.8141 11.1856 14.9292C11.0705 15.0442 10.9818 15.1829 10.9255 15.3356L9.37769 19.5262L7.83363 15.3356C7.77735 15.1829 7.68861 15.0442 7.57353 14.9292C7.45845 14.8141 7.31977 14.7253 7.16706 14.6691L2.97644 13.125L7.16706 11.5809C7.31977 11.5247 7.45845 11.4359 7.57353 11.3208C7.68861 11.2058 7.77735 11.0671 7.83363 10.9144L9.37769 6.72375L10.9218 10.9144C10.978 11.0671 11.0668 11.2058 11.1818 11.3208C11.2969 11.4359 11.4356 11.5247 11.5883 11.5809L15.7789 13.125L11.5921 14.6691ZM12.0027 3.375C12.0027 3.07663 12.1212 2.79048 12.3322 2.5795C12.5432 2.36853 12.8293 2.25 13.1277 2.25H14.2527V1.125C14.2527 0.826631 14.3712 0.540483 14.5822 0.329505C14.7932 0.118526 15.0793 0 15.3777 0C15.6761 0 15.9622 0.118526 16.1732 0.329505C16.3842 0.540483 16.5027 0.826631 16.5027 1.125V2.25H17.6277C17.9261 2.25 18.2122 2.36853 18.4232 2.5795C18.6342 2.79048 18.7527 3.07663 18.7527 3.375C18.7527 3.67337 18.6342 3.95952 18.4232 4.1705C18.2122 4.38147 17.9261 4.5 17.6277 4.5H16.5027V5.625C16.5027 5.92337 16.3842 6.20952 16.1732 6.4205C15.9622 6.63147 15.6761 6.75 15.3777 6.75C15.0793 6.75 14.7932 6.63147 14.5822 6.4205C14.3712 6.20952 14.2527 5.92337 14.2527 5.625V4.5H13.1277C12.8293 4.5 12.5432 4.38147 12.3322 4.1705C12.1212 3.95952 12.0027 3.67337 12.0027 3.375ZM22.5027 7.875C22.5027 8.17337 22.3842 8.45952 22.1732 8.6705C21.9622 8.88147 21.6761 9 21.3777 9H21.0027V9.375C21.0027 9.67337 20.8842 9.95952 20.6732 10.1705C20.4622 10.3815 20.1761 10.5 19.8777 10.5C19.5793 10.5 19.2932 10.3815 19.0822 10.1705C18.8712 9.95952 18.7527 9.67337 18.7527 9.375V9H18.3777C18.0793 9 17.7932 8.88147 17.5822 8.6705C17.3712 8.45952 17.2527 8.17337 17.2527 7.875C17.2527 7.57663 17.3712 7.29048 17.5822 7.0795C17.7932 6.86853 18.0793 6.75 18.3777 6.75H18.7527V6.375C18.7527 6.07663 18.8712 5.79048 19.0822 5.5795C19.2932 5.36853 19.5793 5.25 19.8777 5.25C20.1761 5.25 20.4622 5.36853 20.6732 5.5795C20.8842 5.79048 21.0027 6.07663 21.0027 6.375V6.75H21.3777C21.6761 6.75 21.9622 6.86853 22.1732 7.0795C22.3842 7.29048 22.5027 7.57663 22.5027 7.875Z" fill="white"/>
</svg>
