<svg width="250" height="157" viewBox="0 0 250 157" fill="none" xmlns="http://www.w3.org/2000/svg">
<path d="M87.2908 126.267C79.2647 126.267 71.613 127.215 65.7162 124.471C64.9154 124.099 64.2952 123.425 63.9918 122.596C63.6884 121.766 63.7268 120.851 64.0985 120.05C64.4702 119.249 65.1447 118.629 65.9737 118.326C66.8027 118.022 67.7183 118.061 68.519 118.433C80.3709 123.938 101.322 123.83 114.504 114.033C123.312 107.495 126.905 98.0389 125.175 85.9291C124.931 84.2657 124.698 82.6604 124.477 81.1135C120.709 55.3303 119.295 45.6824 146.841 33.9719C164.307 26.5363 210.883 17.953 212.854 17.7701C213.737 17.6885 214.615 17.9607 215.297 18.5269C215.979 19.0931 216.407 19.9069 216.489 20.7892C216.571 21.6715 216.298 22.5502 215.732 23.2318C215.166 23.9134 214.352 24.3422 213.47 24.4238C212.996 24.4654 165.979 30.5868 149.428 37.6231C126.606 47.3292 125.708 55.0891 129.384 80.1819C129.611 81.7178 129.844 83.3286 130.082 85.0142C132.702 103.312 125.965 111.338 118.438 116.91C109.656 123.431 98.128 126.267 87.2908 126.267Z" fill="white"/>
<path d="M77.7664 126.842C73.2918 126.842 69.1083 126.501 65.5403 124.845C65.0823 124.646 64.6687 124.358 64.324 123.997C63.9793 123.635 63.7103 123.209 63.533 122.742C63.3557 122.275 63.2736 121.778 63.2915 121.279C63.3094 120.779 63.427 120.289 63.6373 119.836C63.8477 119.383 64.1465 118.977 64.5163 118.641C64.886 118.306 65.3192 118.048 65.7903 117.882C66.2613 117.716 66.7608 117.647 67.2592 117.677C67.7576 117.707 68.245 117.837 68.6925 118.059C80.4362 123.515 101.196 123.398 114.262 113.7C122.937 107.263 126.472 97.8979 124.767 85.9877C124.523 84.3243 124.29 82.7219 124.068 81.1804C120.259 55.1644 118.836 45.4167 146.682 33.5897C164.614 25.9629 211.215 17.4794 212.812 17.3547C213.804 17.262 214.793 17.5675 215.56 18.2039C216.328 18.8403 216.811 19.7554 216.904 20.7481C216.996 21.7407 216.691 22.7295 216.054 23.4969C215.418 24.2643 214.503 24.7474 213.51 24.8401C213.078 24.8817 166.028 31.0197 149.61 38.0061C127.411 47.4211 126.047 54.3826 129.807 80.0992V80.1824C130.031 81.6961 130.256 83.2764 130.497 84.9315C133.167 103.678 126.039 111.771 118.703 117.219C110.486 123.323 99.3161 126.684 87.2729 126.684C85.6095 126.684 83.9461 126.684 82.3492 126.767C80.7523 126.85 79.2718 126.842 77.7664 126.842ZM67.1205 118.524C66.5674 118.523 66.0251 118.678 65.5568 118.973C65.0886 119.267 64.7136 119.689 64.4757 120.188C64.1524 120.889 64.1196 121.689 64.3846 122.413C64.6495 123.138 65.1906 123.728 65.8896 124.055C70.4806 126.193 76.2444 126.051 82.3492 125.902C83.9544 125.86 85.6178 125.819 87.2896 125.819C99.1581 125.819 110.145 122.492 118.229 116.52C125.357 111.222 132.302 103.329 129.69 85.0146C129.449 83.3512 129.225 81.7876 129 80.2656V80.1824C125.232 54.3992 126.729 46.7807 149.302 37.1827C165.936 30.1048 213.02 23.9917 213.444 23.9502C214.216 23.8785 214.928 23.503 215.423 22.9064C215.918 22.3098 216.156 21.5409 216.084 20.7688C216.013 19.9968 215.637 19.2849 215.041 18.7896C214.444 18.2944 213.675 18.0565 212.903 18.1282C211.364 18.2695 164.423 26.8861 147.023 34.2967C119.768 45.8825 121.165 55.4472 124.908 80.9975C125.135 82.5334 125.368 84.1386 125.607 85.8131C127.353 98.0809 123.71 107.671 114.794 114.316C101.487 124.197 80.3448 124.297 68.3847 118.749C67.9839 118.587 67.5521 118.516 67.1205 118.541V118.524Z" fill="#231F20"/>
<path d="M193.007 27.659C193.007 27.659 207.288 32.1087 210.989 28.6571C214.69 25.2055 218.408 18.3105 218.408 18.3105C218.408 18.3105 223.215 23.9828 222.725 24.7231C222.234 25.4633 212.536 42.5717 201.691 40.6005C190.845 38.6293 186.221 40.6005 186.221 40.6005L193.007 27.659Z" fill="#FFD700"/>
<path d="M219.898 5.28608L207.455 13.0792L208.561 31.2938L221.852 37.54L237.655 36.5835L235.7 4.32129L219.898 5.28608Z" fill="white"/>
<path d="M221.852 37.9567C221.789 37.9559 221.726 37.9417 221.669 37.9151L208.361 31.6773C208.292 31.6454 208.233 31.5952 208.191 31.5322C208.148 31.4691 208.124 31.3956 208.12 31.3196L207.014 13.1051C207.011 13.0305 207.027 12.9564 207.063 12.8906C207.098 12.8247 207.15 12.7695 207.214 12.7308L219.648 4.92932C219.708 4.89262 219.777 4.87253 219.847 4.8711L235.65 3.90631C235.705 3.90293 235.759 3.91037 235.811 3.92821C235.863 3.94604 235.911 3.97392 235.952 4.01024C235.993 4.04655 236.026 4.0906 236.05 4.13985C236.074 4.18909 236.088 4.24257 236.091 4.29722L238.045 36.5594C238.049 36.6141 238.041 36.6688 238.023 36.7206C238.006 36.7723 237.978 36.82 237.941 36.861C237.905 36.902 237.861 36.9353 237.812 36.9592C237.763 36.9831 237.709 36.9971 237.654 37.0002L221.852 37.9567ZM208.96 31.0285L221.927 37.1167L237.197 36.1935L235.292 4.76297L219.997 5.6945L207.887 13.3213L208.96 31.0285Z" fill="#231F20"/>
<path d="M235.977 8.69092L246.537 8.05059C247.001 8.02242 247.458 8.17996 247.806 8.48854C248.155 8.79713 248.366 9.23149 248.394 9.69607C248.423 10.1607 248.265 10.6174 247.956 10.9658C247.648 11.3143 247.214 11.5258 246.749 11.554L236.189 12.1943L235.977 8.69092Z" fill="#231F20"/>
<path d="M236.183 12.5552C236.094 12.555 236.008 12.5225 235.941 12.4637C235.904 12.4337 235.873 12.3958 235.852 12.3527C235.83 12.3096 235.818 12.2624 235.817 12.2142L235.6 8.7127C235.597 8.66396 235.604 8.61503 235.619 8.5688C235.635 8.52258 235.66 8.48 235.693 8.44356C235.725 8.40713 235.765 8.37758 235.809 8.35667C235.853 8.33576 235.901 8.3239 235.95 8.3218L246.504 7.68138C246.785 7.66009 247.066 7.69478 247.333 7.78341C247.6 7.87204 247.847 8.01284 248.059 8.19764C248.271 8.38243 248.444 8.60752 248.568 8.85982C248.692 9.11211 248.765 9.38657 248.782 9.66723C248.799 9.9479 248.76 10.2292 248.667 10.4947C248.575 10.7601 248.43 11.0046 248.242 11.2137C248.054 11.4229 247.827 11.5926 247.573 11.7129C247.318 11.8333 247.043 11.9019 246.762 11.9148L236.199 12.5552H236.183ZM236.357 9.02875L236.524 11.7984L246.721 11.1829C246.903 11.1738 247.082 11.1278 247.246 11.0478C247.411 10.9677 247.557 10.8553 247.677 10.7171C247.797 10.5815 247.889 10.4235 247.947 10.2522C248.006 10.0809 248.03 9.8997 248.018 9.71908C247.994 9.35278 247.828 9.01048 247.554 8.76614C247.28 8.5218 246.921 8.39505 246.554 8.41328L236.357 9.02875Z" fill="#231F20"/>
<path d="M237.188 28.7004L247.747 28.0601C248.212 28.0319 248.669 28.1895 249.017 28.4981C249.366 28.8067 249.577 29.241 249.605 29.7056C249.634 30.1702 249.476 30.6269 249.167 30.9753C248.859 31.3238 248.425 31.5353 247.96 31.5635L237.4 32.2038L237.188 28.7004Z" fill="#231F20"/>
<path d="M237.398 32.5826C237.306 32.5815 237.218 32.5492 237.148 32.4911C237.078 32.4262 237.036 32.3367 237.032 32.2416L236.815 28.74C236.812 28.6913 236.818 28.6424 236.834 28.5961C236.85 28.5499 236.875 28.5073 236.908 28.4709C236.94 28.4345 236.98 28.4049 237.024 28.384C237.068 28.3631 237.116 28.3512 237.165 28.3491L247.719 27.7087C247.999 27.6874 248.281 27.7221 248.548 27.8107C248.815 27.8994 249.062 28.0402 249.273 28.225C249.485 28.4098 249.658 28.6349 249.783 28.8872C249.907 29.1395 249.979 29.4139 249.997 29.6946C250.014 29.9752 249.975 30.2565 249.882 30.522C249.79 30.7875 249.645 31.0319 249.457 31.2411C249.269 31.4502 249.042 31.6199 248.787 31.7403C248.533 31.8606 248.258 31.9292 247.977 31.9421L237.414 32.5826H237.398ZM237.572 29.0561L237.739 31.8257L247.935 31.2102C248.3 31.1846 248.64 31.0169 248.883 30.7432C249.125 30.4696 249.251 30.1117 249.233 29.7464C249.223 29.5635 249.177 29.3844 249.098 29.2193C249.019 29.0543 248.907 28.9068 248.77 28.7852C248.633 28.6637 248.473 28.5707 248.3 28.5115C248.127 28.4523 247.943 28.4282 247.761 28.4406L237.572 29.0561Z" fill="#231F20"/>
<path d="M195.797 17.6221L207.693 16.9007L208.333 27.4524L196.437 28.1738L195.797 17.6221Z" fill="white"/>
<path d="M196.443 28.5989C196.343 28.5999 196.245 28.5644 196.169 28.4991C196.085 28.4246 196.034 28.3199 196.028 28.208L195.387 17.6619C195.382 17.552 195.421 17.4447 195.494 17.3625C195.566 17.2803 195.668 17.2296 195.778 17.221L207.68 16.4974C207.79 16.4928 207.897 16.531 207.979 16.6039C208.061 16.6768 208.112 16.7788 208.121 16.8884L208.744 27.4594C208.747 27.5687 208.708 27.6749 208.636 27.7567C208.563 27.8385 208.462 27.8898 208.353 27.9003L196.443 28.5989ZM196.244 18.0278L196.834 27.7422L207.904 27.0769L207.314 17.3541L196.244 18.0278Z" fill="#231F20"/>
<path d="M222.551 26.5862C225.468 26.5862 227.832 24.2217 227.832 21.3048C227.832 18.388 225.468 16.0234 222.551 16.0234C219.634 16.0234 217.27 18.388 217.27 21.3048C217.27 24.2217 219.634 26.5862 222.551 26.5862Z" fill="#D1D3D4"/>
<path d="M192.285 6.32546C191.303 5.23188 190.027 4.44372 188.609 4.05488C187.387 3.80536 186.68 4.28776 185.615 4.68698C185.199 4.845 185.116 5.5187 184.667 5.60187C184.218 5.68504 183.361 5.25255 182.87 5.21096C181.361 5.07322 179.845 5.38513 178.513 6.10739C177.181 6.82965 176.093 7.92997 175.385 9.26973C173.63 12.5051 172.973 15.7322 170.511 18.5766C168.253 21.2744 166.365 24.2617 164.897 27.4593C162.685 31.934 160.439 36.4918 159.699 41.4238C158.959 46.3559 159.965 51.8203 163.508 55.3384C167.051 58.8566 172.915 59.8796 177.847 58.4657C182.779 57.0517 186.938 53.6251 190.148 49.6245C197.359 40.6503 201.318 28.1746 198.349 17.0962C197.316 13.0328 195.224 9.31608 192.285 6.32546Z" fill="white"/>
<path d="M173.322 59.539C169.562 59.6237 165.918 58.229 163.176 55.6549C159.849 52.328 158.41 47.03 159.258 41.3826C160.007 36.3425 162.286 31.7431 164.498 27.2934C165.989 24.0574 167.908 21.0362 170.203 18.3109C171.581 16.584 172.666 14.6424 173.414 12.5637C173.896 11.4243 174.387 10.2516 175.027 9.07054C175.779 7.65946 176.931 6.50179 178.338 5.74274C179.745 4.98369 181.345 4.65706 182.937 4.80384C183.222 4.83699 183.502 4.90688 183.769 5.01177C184.034 5.12085 184.315 5.18549 184.6 5.20307C184.684 5.20307 184.775 5.04504 184.858 4.91196C185.006 4.64181 185.236 4.42609 185.515 4.2965L186.073 4.07193C186.888 3.63902 187.824 3.48978 188.734 3.64776C190.228 4.06075 191.575 4.88834 192.618 6.03478C195.598 9.08472 197.716 12.8701 198.756 17.0051C201.559 27.4514 198.382 40.0519 190.481 49.8994C186.788 54.4988 182.463 57.6011 178.005 58.8819C176.483 59.3198 174.906 59.541 173.322 59.539ZM182.205 5.60229C180.879 5.58826 179.575 5.94133 178.438 6.62244C177.3 7.30354 176.373 8.28613 175.759 9.46144C175.136 10.6092 174.653 11.7653 174.179 12.8881C173.402 15.0436 172.278 17.0579 170.852 18.8515C168.608 21.5229 166.737 24.4857 165.288 27.6594C163.109 32.0508 160.863 36.592 160.123 41.5074C159.291 46.8969 160.697 51.9621 163.816 55.0644C167.143 58.3912 172.607 59.5556 177.747 58.0918C182.08 56.8525 186.256 53.8417 189.84 49.3837C197.583 39.7359 200.652 27.4182 197.966 17.2213C196.949 13.2424 194.9 9.60192 192.028 6.66688C191.112 5.61801 189.904 4.86528 188.559 4.50443C187.814 4.37906 187.049 4.51105 186.389 4.87869L185.798 5.11989C185.715 5.11989 185.632 5.27792 185.54 5.41099C185.387 5.70814 185.125 5.93459 184.808 6.0431C184.357 6.10041 183.898 6.02831 183.486 5.83517C183.287 5.76014 183.08 5.70444 182.87 5.66882L182.205 5.60229Z" fill="#231F20"/>
<path d="M186.812 156.691C212.939 156.691 234.12 153.529 234.12 149.63C234.12 145.73 212.939 142.568 186.812 142.568C160.684 142.568 139.504 145.73 139.504 149.63C139.504 153.529 160.684 156.691 186.812 156.691Z" fill="#D1D3D4"/>
<path d="M46.9677 144.24C72.8792 144.24 93.8846 142.177 93.8846 139.633C93.8846 137.088 72.8792 135.025 46.9677 135.025C21.0562 135.025 0.0507812 137.088 0.0507812 139.633C0.0507812 142.177 21.0562 144.24 46.9677 144.24Z" fill="#D1D3D4"/>
<path d="M89.1933 64.0549C93.4355 57.9319 95.921 50.7647 96.3806 43.3299C96.8401 35.895 95.256 28.4762 91.8001 21.8775C88.3441 15.2787 83.1481 9.75156 76.7751 5.89512C70.4021 2.03869 63.0951 0 55.6461 0C48.1971 0 40.8902 2.03869 34.5172 5.89512C28.1442 9.75156 22.9482 15.2787 19.4922 21.8775C16.0363 28.4762 14.4522 35.895 14.9117 43.3299C15.3712 50.7647 17.8568 57.9319 22.099 64.0549L22.1406 64.1048C23.1762 65.6001 24.3127 67.0229 25.5423 68.3632C27.2473 70.7253 31.8799 73.7195 32.695 76.4974C34.1046 80.9055 35.7994 85.2174 37.7685 89.4056H73.5321C75.4947 85.227 77.1866 80.9264 78.5972 76.5307C79.429 73.7527 84.045 70.7586 85.75 68.3965C86.9743 67.0539 88.108 65.6313 89.1434 64.1381L89.1933 64.0549Z" fill="#FFD700"/>
<path d="M59.5777 92.3338C59.5231 92.3306 59.4696 92.3167 59.4203 92.2928C59.3711 92.2689 59.327 92.2355 59.2907 92.1945C59.2544 92.1536 59.2265 92.1059 59.2087 92.0541C59.1909 92.0024 59.1834 91.9476 59.1868 91.893C59.2533 90.5622 60.5425 66.9415 63.2955 50.798C58.0315 51.1196 52.7516 51.0807 47.4929 50.6815C48.2581 54.1359 48.9124 58.0672 49.4557 62.4752C50.5678 72.0941 51.1232 81.7692 51.1192 91.4522C51.117 91.5618 51.0726 91.6663 50.995 91.7439C50.9175 91.8214 50.8129 91.8659 50.7033 91.868C50.648 91.868 50.5932 91.857 50.5422 91.8356C50.4912 91.8142 50.445 91.7828 50.4063 91.7433C50.3676 91.7038 50.3371 91.657 50.3167 91.6056C50.2963 91.5541 50.2864 91.4992 50.2875 91.4439C50.2875 91.0779 50.4704 67.6235 46.6446 50.6233C33.3538 49.5753 28.9707 42.4891 29.2701 37.9313C29.4863 34.4964 32.1312 32.2341 35.7159 32.4587C40.756 32.7581 44.6152 38.5884 47.2351 49.8082C52.6181 50.2215 58.0234 50.2604 63.4119 49.9247C64.3434 44.6433 65.433 40.2518 66.7387 37.8315C69.525 32.5086 73.7418 29.4562 77.2266 30.238C80.0877 30.8701 81.8426 33.8726 82.0423 38.4719C82.142 39.7933 81.9501 41.1203 81.4801 42.3593C81.0102 43.5982 80.2736 44.7186 79.3226 45.6413C76.5114 48.386 71.5045 50.0577 64.1688 50.6898C61.3742 67.0497 60.0102 91.5769 60.0102 91.9096C60.0102 91.966 59.999 92.0219 59.9771 92.0739C59.9553 92.1259 59.9233 92.173 59.883 92.2125C59.8428 92.252 59.795 92.2831 59.7426 92.3039C59.6902 92.3247 59.6341 92.3349 59.5777 92.3338ZM76.0706 30.9782C73.1429 30.9782 69.7911 33.7644 67.4374 38.2474C66.2314 40.5512 65.1834 44.7763 64.2769 49.8914C71.2799 49.2676 76.0539 47.6707 78.7071 45.0758C79.5816 44.241 80.2593 43.2219 80.6908 42.0926C81.1224 40.9633 81.2971 39.7521 81.2022 38.5468C81.0193 34.3466 79.5388 31.6269 77.0437 31.0614C76.7244 30.988 76.3982 30.9489 76.0706 30.9449V30.9782ZM35.2418 33.282C34.5927 33.2428 33.9423 33.3344 33.3294 33.5516C32.7165 33.7688 32.1535 34.1071 31.6739 34.5463C31.1944 34.9855 30.8081 35.5166 30.538 36.1082C30.2679 36.6997 30.1196 37.3395 30.1018 37.9896C29.8356 42.1481 33.9609 48.702 46.3784 49.7417C44.2409 40.651 40.9141 33.5981 35.666 33.282H35.2418Z" fill="#231F20"/>
<path d="M72.4091 89.4309H38.8495C37.6414 89.4309 36.6621 90.4102 36.6621 91.6183V93.1071C36.6621 94.3152 37.6414 95.2945 38.8495 95.2945H72.4091C73.6172 95.2945 74.5965 94.3152 74.5965 93.1071V91.6183C74.5965 90.4102 73.6172 89.4309 72.4091 89.4309Z" fill="white"/>
<path d="M72.4109 95.7095H38.8596C38.1684 95.7095 37.5054 95.4355 37.0159 94.9475C36.5264 94.4595 36.2502 93.7974 36.248 93.1062V91.6257C36.2502 90.9338 36.5261 90.2708 37.0154 89.7815C37.5047 89.2922 38.1677 89.0164 38.8596 89.0142H72.4109C73.1021 89.0164 73.7642 89.2925 74.2522 89.782C74.7402 90.2715 75.0142 90.9345 75.0142 91.6257V93.1062C75.012 93.7959 74.737 94.4568 74.2493 94.9446C73.7616 95.4323 73.1007 95.7073 72.4109 95.7095ZM38.8596 89.8376C38.3876 89.8376 37.9349 90.0251 37.6011 90.3589C37.2673 90.6927 37.0798 91.1454 37.0798 91.6174V93.0979C37.082 93.5685 37.2705 94.0191 37.604 94.3511C37.9376 94.6831 38.389 94.8694 38.8596 94.8694H72.4109C72.8801 94.8673 73.3294 94.6799 73.6612 94.3481C73.9929 94.0164 74.1803 93.5671 74.1825 93.0979V91.6174C74.1825 91.1468 73.9961 90.6954 73.6641 90.3618C73.3321 90.0282 72.8815 89.8398 72.4109 89.8376H38.8596Z" fill="#231F20"/>
<path d="M72.4091 95.2947H38.8495C37.6414 95.2947 36.6621 96.274 36.6621 97.4821V98.9709C36.6621 100.179 37.6414 101.158 38.8495 101.158H72.4091C73.6172 101.158 74.5965 100.179 74.5965 98.9709V97.4821C74.5965 96.274 73.6172 95.2947 72.4091 95.2947Z" fill="white"/>
<path d="M72.4109 101.573H38.8596C38.1677 101.571 37.5047 101.295 37.0154 100.806C36.5261 100.317 36.2502 99.6536 36.248 98.9617V97.4812C36.2502 96.79 36.5264 96.1279 37.0159 95.6399C37.5054 95.1519 38.1684 94.8779 38.8596 94.8779H72.4109C73.1007 94.8801 73.7616 95.1551 74.2493 95.6428C74.737 96.1306 75.012 96.7914 75.0142 97.4812V98.9866C75.0076 99.6735 74.7307 100.33 74.2435 100.814C73.7562 101.298 73.0978 101.571 72.4109 101.573ZM38.8596 95.7096C38.389 95.7096 37.9376 95.896 37.604 96.228C37.2705 96.56 37.082 97.0106 37.0798 97.4812V98.9866C37.0798 99.4587 37.2673 99.9114 37.6011 100.245C37.9349 100.579 38.3876 100.766 38.8596 100.766H72.4109C72.8815 100.764 73.3321 100.576 73.6641 100.242C73.9961 99.9087 74.1825 99.4572 74.1825 98.9866V97.5062C74.1803 97.037 73.9929 96.5876 73.6612 96.2559C73.3294 95.9241 72.8801 95.7368 72.4109 95.7346L38.8596 95.7096Z" fill="#231F20"/>
<path d="M72.4091 101.157H38.8495C37.6414 101.157 36.6621 102.137 36.6621 103.345V104.833C36.6621 106.041 37.6414 107.021 38.8495 107.021H72.4091C73.6172 107.021 74.5965 106.041 74.5965 104.833V103.345C74.5965 102.137 73.6172 101.157 72.4091 101.157Z" fill="white"/>
<path d="M72.4109 107.429H38.8596C38.1684 107.429 37.5054 107.155 37.0159 106.667C36.5264 106.179 36.2502 105.517 36.248 104.826V103.345C36.2502 102.654 36.5264 101.992 37.0159 101.504C37.5054 101.016 38.1684 100.742 38.8596 100.742H72.4109C73.1013 100.742 73.7635 101.016 74.2517 101.504C74.7399 101.993 75.0142 102.655 75.0142 103.345V104.809C75.0164 105.152 74.9506 105.493 74.8208 105.81C74.691 106.128 74.4996 106.417 74.2576 106.661C74.0157 106.904 73.7279 107.097 73.411 107.229C73.0941 107.361 72.7542 107.429 72.4109 107.429ZM38.8596 101.607C38.6263 101.606 38.395 101.651 38.1791 101.739C37.9632 101.828 37.767 101.958 37.6016 102.123C37.4362 102.287 37.3049 102.483 37.2154 102.699C37.1259 102.914 37.0798 103.145 37.0798 103.378V104.809C37.0798 105.042 37.1259 105.273 37.2154 105.489C37.3049 105.704 37.4362 105.9 37.6016 106.065C37.767 106.229 37.9632 106.36 38.1791 106.448C38.395 106.537 38.6263 106.582 38.8596 106.581H72.4109C72.8808 106.581 73.3314 106.394 73.6636 106.062C73.9958 105.729 74.1825 105.279 74.1825 104.809V103.329C74.1825 102.859 73.9958 102.408 73.6636 102.076C73.3314 101.744 72.8808 101.557 72.4109 101.557L38.8596 101.607Z" fill="#231F20"/>
<path d="M72.4091 107.013H38.8495C37.6414 107.013 36.6621 107.993 36.6621 109.201V110.69C36.6621 111.898 37.6414 112.877 38.8495 112.877H72.4091C73.6172 112.877 74.5965 111.898 74.5965 110.69V109.201C74.5965 107.993 73.6172 107.013 72.4091 107.013Z" fill="white"/>
<path d="M72.4109 113.292H38.8596C38.1684 113.292 37.5054 113.018 37.0159 112.53C36.5264 112.042 36.2502 111.38 36.248 110.689V109.208C36.2502 108.516 36.5261 107.853 37.0154 107.364C37.5047 106.875 38.1677 106.599 38.8596 106.597H72.4109C73.1021 106.599 73.7642 106.875 74.2522 107.365C74.7402 107.854 75.0142 108.517 75.0142 109.208V110.689C75.012 111.378 74.737 112.039 74.2493 112.527C73.7616 113.015 73.1007 113.29 72.4109 113.292ZM38.8596 107.47C38.3876 107.47 37.9349 107.658 37.6011 107.991C37.2673 108.325 37.0798 108.778 37.0798 109.25V110.73C37.082 111.201 37.2705 111.652 37.604 111.983C37.9376 112.315 38.389 112.502 38.8596 112.502H72.4109C72.8801 112.5 73.3294 112.312 73.6612 111.981C73.9929 111.649 74.1803 111.199 74.1825 110.73V109.25C74.1825 108.779 73.9961 108.328 73.6641 107.994C73.3321 107.661 72.8815 107.472 72.4109 107.47H38.8596Z" fill="#231F20"/>
<path d="M60.6581 120.753H50.6027C49.3454 120.75 48.103 120.481 46.9565 119.965C45.81 119.449 44.7852 118.697 43.949 117.759L39.6074 112.876H71.6866L67.345 117.759C66.5051 118.702 65.4749 119.456 64.3223 119.972C63.1698 120.488 61.9209 120.754 60.6581 120.753Z" fill="#231F20"/>
<path d="M60.6575 121.169H50.6021C49.2821 121.169 47.977 120.89 46.7728 120.35C45.5686 119.809 44.4926 119.02 43.6157 118.033L39.2492 113.126C39.1945 113.068 39.1588 112.995 39.147 112.916C39.1351 112.837 39.1475 112.757 39.1827 112.685C39.2137 112.612 39.2657 112.549 39.3323 112.504C39.3988 112.46 39.477 112.436 39.557 112.436H71.686C71.7669 112.437 71.846 112.46 71.9138 112.505C71.9816 112.549 72.0353 112.612 72.0686 112.685C72.1015 112.757 72.1128 112.837 72.1009 112.916C72.0891 112.994 72.0548 113.067 72.0021 113.126L67.6522 118.008C66.7767 119.001 65.7004 119.795 64.4945 120.34C63.2886 120.885 61.9808 121.168 60.6575 121.169ZM40.5134 113.292L44.2395 117.451C45.0391 118.348 46.0193 119.066 47.1158 119.558C48.2123 120.049 49.4004 120.304 50.6021 120.304H60.6575C61.8604 120.304 63.0498 120.05 64.1477 119.558C65.2456 119.066 66.2272 118.348 67.0284 117.451L70.7545 113.292H40.5134Z" fill="#231F20"/>
<path d="M76.9686 109.558H34.6261C30.4737 109.558 27.1074 112.924 27.1074 117.077V133.595C27.1074 137.747 30.4737 141.113 34.6261 141.113H76.9686C81.1211 141.113 84.4873 137.747 84.4873 133.595V117.077C84.4873 112.924 81.1211 109.558 76.9686 109.558Z" fill="white"/>
<path d="M76.9665 141.529H34.624C32.5203 141.527 30.5034 140.69 29.0159 139.203C27.5283 137.715 26.6917 135.698 26.6895 133.595V117.077C26.6917 114.973 27.5283 112.956 29.0159 111.469C30.5034 109.981 32.5203 109.145 34.624 109.142H76.9665C79.0702 109.145 81.0871 109.981 82.5746 111.469C84.0622 112.956 84.8988 114.973 84.901 117.077V133.595C84.8988 135.698 84.0622 137.715 82.5746 139.203C81.0871 140.69 79.0702 141.527 76.9665 141.529ZM34.624 109.974C32.7409 109.976 30.9355 110.725 29.604 112.057C28.2724 113.388 27.5234 115.194 27.5212 117.077V133.595C27.5234 135.478 28.2724 137.283 29.604 138.615C30.9355 139.946 32.7409 140.695 34.624 140.698H76.9665C78.8496 140.695 80.655 139.946 81.9865 138.615C83.3181 137.283 84.0671 135.478 84.0693 133.595V117.077C84.0671 115.194 83.3181 113.388 81.9865 112.057C80.655 110.725 78.8496 109.976 76.9665 109.974H34.624Z" fill="#231F20"/>
<path d="M39.5821 132.322C43.4406 132.322 46.5685 129.194 46.5685 125.336C46.5685 121.477 43.4406 118.349 39.5821 118.349C35.7236 118.349 32.5957 121.477 32.5957 125.336C32.5957 129.194 35.7236 132.322 39.5821 132.322Z" fill="white"/>
<path d="M39.5819 132.738C38.1179 132.738 36.6868 132.304 35.4695 131.491C34.2522 130.677 33.3034 129.521 32.7432 128.169C32.1829 126.816 32.0363 125.328 32.3219 123.892C32.6075 122.456 33.3125 121.137 34.3478 120.102C35.383 119.067 36.7019 118.362 38.1378 118.076C39.5737 117.79 41.0621 117.937 42.4147 118.497C43.7672 119.058 44.9233 120.006 45.7367 121.224C46.55 122.441 46.9842 123.872 46.9842 125.336C46.982 127.299 46.2014 129.18 44.8137 130.568C43.426 131.956 41.5445 132.736 39.5819 132.738ZM39.5819 118.766C38.2824 118.766 37.0121 119.151 35.9315 119.873C34.851 120.595 34.0089 121.621 33.5116 122.822C33.0142 124.022 32.8841 125.343 33.1377 126.618C33.3912 127.893 34.017 129.063 34.9359 129.982C35.8548 130.901 37.0255 131.527 38.3001 131.78C39.5746 132.034 40.8958 131.904 42.0964 131.407C43.297 130.909 44.3232 130.067 45.0451 128.987C45.7671 127.906 46.1525 126.636 46.1525 125.336C46.1503 123.594 45.4573 121.924 44.2256 120.692C42.9938 119.461 41.3239 118.768 39.5819 118.766Z" fill="#D1D3D4"/>
<path d="M74.5969 118.766H52.5565C52.4462 118.766 52.3404 118.722 52.2624 118.644C52.1844 118.566 52.1406 118.46 52.1406 118.35C52.1406 118.239 52.1844 118.134 52.2624 118.056C52.3404 117.978 52.4462 117.934 52.5565 117.934H74.5969C74.7072 117.934 74.8129 117.978 74.8909 118.056C74.9689 118.134 75.0127 118.239 75.0127 118.35C75.0127 118.46 74.9689 118.566 74.8909 118.644C74.8129 118.722 74.7072 118.766 74.5969 118.766Z" fill="#D1D3D4"/>
<path d="M74.5969 125.468H52.5565C52.4462 125.468 52.3404 125.425 52.2624 125.347C52.1844 125.269 52.1406 125.163 52.1406 125.053C52.1406 124.942 52.1844 124.837 52.2624 124.759C52.3404 124.681 52.4462 124.637 52.5565 124.637H74.5969C74.7072 124.637 74.8129 124.681 74.8909 124.759C74.9689 124.837 75.0127 124.942 75.0127 125.053C75.0127 125.163 74.9689 125.269 74.8909 125.347C74.8129 125.425 74.7072 125.468 74.5969 125.468Z" fill="#D1D3D4"/>
<path d="M66.8619 132.181H52.5565C52.4462 132.181 52.3404 132.137 52.2624 132.059C52.1844 131.981 52.1406 131.876 52.1406 131.765C52.1406 131.655 52.1844 131.549 52.2624 131.471C52.3404 131.393 52.4462 131.349 52.5565 131.349H66.8619C66.9722 131.349 67.078 131.393 67.156 131.471C67.234 131.549 67.2778 131.655 67.2778 131.765C67.2778 131.876 67.234 131.981 67.156 132.059C67.078 132.137 66.9722 132.181 66.8619 132.181Z" fill="#D1D3D4"/>
<path d="M223.225 37.4406C224.197 36.7778 224.916 35.8042 225.262 34.6793C225.601 33.5611 226.026 32.471 226.535 31.419C226.654 31.164 226.848 30.9519 227.092 30.8118C227.218 30.747 227.364 30.7341 227.5 30.7761C227.635 30.8181 227.749 30.9116 227.816 31.0364C227.853 31.1725 227.853 31.3162 227.816 31.4522C227.683 32.3505 227.491 33.2654 227.416 34.1636C227.982 33.5239 228.457 32.8104 228.83 32.0428L230.494 29.5476C230.618 29.3259 230.785 29.1308 230.984 28.9737C231.088 28.8978 231.21 28.8521 231.338 28.8418C231.466 28.8315 231.594 28.8571 231.708 28.9155C231.816 29.0072 231.898 29.1249 231.948 29.2573C231.997 29.3897 232.012 29.5326 231.991 29.6724C231.946 29.9471 231.929 30.2259 231.941 30.5041C232.106 30.2933 232.309 30.1156 232.54 29.9801C232.657 29.9202 232.787 29.889 232.918 29.889C233.05 29.889 233.179 29.9202 233.297 29.9801C233.729 30.2546 233.604 30.9116 233.38 31.3774C233.419 31.3243 233.468 31.2798 233.525 31.2466C233.582 31.2135 233.646 31.1923 233.711 31.1845C233.777 31.1768 233.843 31.1825 233.906 31.2013C233.969 31.2202 234.028 31.2518 234.078 31.2942C234.175 31.3877 234.247 31.5031 234.289 31.6305C234.331 31.758 234.341 31.8937 234.32 32.0261C234.262 32.2879 234.161 32.5382 234.02 32.7663C234.02 32.5251 234.453 32.5085 234.594 32.7164C234.646 32.827 234.673 32.9477 234.673 33.0699C234.673 33.1921 234.646 33.3128 234.594 33.4234C234.087 35.0203 232.856 36.1597 231.725 37.3408C230.394 38.7297 229.005 40.0771 227.566 41.358" fill="white"/>
<path d="M227.582 41.7566C227.528 41.7567 227.475 41.7448 227.426 41.7218C227.377 41.6988 227.334 41.6652 227.3 41.6235C227.264 41.5887 227.237 41.5473 227.217 41.5016C227.198 41.4559 227.189 41.4069 227.189 41.3574C227.189 41.3079 227.198 41.2589 227.217 41.2132C227.237 41.1675 227.264 41.1261 227.3 41.0912C228.722 39.827 230.119 38.4797 231.458 37.0907L231.824 36.7164C232.884 35.7895 233.713 34.6274 234.244 33.323C234.275 33.2319 234.292 33.1365 234.294 33.0403C234.239 33.0983 234.167 33.1375 234.088 33.1523C234.009 33.1672 233.928 33.1568 233.855 33.1228C233.782 33.0888 233.722 33.0328 233.683 32.9628C233.644 32.8927 233.628 32.8122 233.637 32.7325C233.652 32.6262 233.695 32.5257 233.762 32.4414C233.845 32.3005 233.902 32.1454 233.928 31.984C233.947 31.9225 233.951 31.8577 233.941 31.7943C233.931 31.7309 233.907 31.6706 233.87 31.618C233.849 31.6083 233.827 31.6033 233.804 31.6033C233.781 31.6033 233.758 31.6083 233.737 31.618C233.69 31.7063 233.609 31.772 233.513 31.8009C233.417 31.8297 233.314 31.8193 233.226 31.7719C233.137 31.7245 233.072 31.6439 233.043 31.548C233.014 31.4521 233.024 31.3486 233.072 31.2604C233.238 30.9111 233.313 30.4287 233.122 30.3455C233.064 30.3156 233 30.3 232.935 30.3C232.869 30.3 232.805 30.3156 232.747 30.3455C232.539 30.4544 232.355 30.6044 232.207 30.7863C232.157 30.8369 232.094 30.8735 232.026 30.8924C231.957 30.9114 231.885 30.9121 231.816 30.8944C231.745 30.8737 231.683 30.8327 231.635 30.7765C231.588 30.7203 231.558 30.6514 231.55 30.5784C231.52 30.3604 231.52 30.1393 231.55 29.9213C231.55 29.8382 231.55 29.7467 231.55 29.6635C231.55 29.5803 231.55 29.3059 231.433 29.256C231.383 29.2392 231.33 29.235 231.277 29.2437C231.225 29.2524 231.176 29.2737 231.134 29.3059C230.976 29.4358 230.844 29.5937 230.743 29.7716L229.08 32.2668C228.946 32.4581 228.822 32.6909 228.68 32.9404C228.417 33.5149 228.048 34.0343 227.591 34.4708C227.528 34.509 227.456 34.5292 227.383 34.5292C227.309 34.5292 227.238 34.509 227.175 34.4708C227.111 34.4349 227.058 34.3814 227.022 34.3167C226.987 34.2519 226.971 34.1785 226.975 34.1048C227.025 33.4644 227.133 32.824 227.241 32.2002C227.283 31.9174 227.333 31.643 227.375 31.3685C227.386 31.2969 227.386 31.2239 227.375 31.1523C227.341 31.1366 227.304 31.1285 227.266 31.1285C227.229 31.1285 227.192 31.1366 227.158 31.1523C226.989 31.2634 226.854 31.4188 226.767 31.6014C226.42 32.2848 226.142 33.0008 225.936 33.7389C225.811 34.0965 225.694 34.4542 225.561 34.8035C225.192 36.0138 224.413 37.0577 223.357 37.7561C223.271 37.8052 223.169 37.8188 223.073 37.794C222.976 37.7691 222.894 37.7078 222.842 37.623C222.792 37.5353 222.778 37.4319 222.803 37.3343C222.828 37.2367 222.889 37.1524 222.975 37.099C223.877 36.4843 224.538 35.5762 224.846 34.529C224.979 34.188 225.096 33.847 225.212 33.4977C225.447 32.712 225.759 31.9514 226.144 31.2271C226.3 30.8978 226.56 30.629 226.884 30.4619C227.006 30.4105 227.138 30.384 227.271 30.384C227.403 30.384 227.535 30.4105 227.657 30.4619C227.759 30.5003 227.851 30.5593 227.928 30.6352C228.005 30.711 228.066 30.8022 228.106 30.9027C228.167 31.1034 228.167 31.3175 228.106 31.5182C228.065 31.801 228.023 32.0838 227.973 32.3499C227.973 32.4747 227.973 32.5994 227.907 32.7242C227.94 32.6705 227.971 32.615 227.998 32.5579C228.148 32.2917 228.289 32.0339 228.431 31.8259L230.094 29.3308C230.249 29.0699 230.452 28.8412 230.693 28.6571C230.856 28.5397 231.049 28.4711 231.249 28.4593C231.449 28.4476 231.649 28.4931 231.824 28.5906C231.989 28.7092 232.119 28.8697 232.201 29.0554C232.283 29.2411 232.313 29.4453 232.29 29.6469C232.461 29.5507 232.655 29.5002 232.851 29.5002C233.048 29.5002 233.241 29.5507 233.413 29.6469C233.594 29.7747 233.734 29.9536 233.814 30.1609C233.894 30.3682 233.911 30.5945 233.862 30.8113C234 30.8412 234.128 30.9039 234.236 30.9942C234.386 31.1275 234.499 31.2968 234.564 31.4861C234.63 31.6754 234.646 31.8783 234.61 32.0755C234.601 32.1402 234.588 32.2041 234.569 32.2668C234.666 32.3203 234.752 32.394 234.818 32.483C234.908 32.6411 234.961 32.8173 234.974 32.9985C234.987 33.1798 234.959 33.3617 234.893 33.531C234.324 34.9476 233.433 36.2121 232.29 37.2238L231.932 37.5897C230.593 38.9953 229.179 40.351 227.774 41.6319C227.724 41.6916 227.657 41.735 227.582 41.7566Z" fill="#231F20"/>
<path d="M162.892 107.812L157.644 119.231L136.901 108.743C136.901 108.743 129.624 120.096 131.079 120.279C132.535 120.462 137.591 118.665 137.591 118.665C137.591 118.665 163.316 135.3 166.078 132.48C168.839 129.661 178.978 106.406 178.978 106.406" fill="white"/>
<path d="M165.071 133.187C163.308 133.187 159.49 131.931 150.649 126.966C144.519 123.523 138.606 119.755 137.575 119.09C136.568 119.439 132.493 120.836 131.062 120.662C130.962 120.65 130.866 120.613 130.784 120.553C130.702 120.493 130.638 120.413 130.596 120.321C129.998 119.04 134.58 111.654 136.576 108.535C136.629 108.458 136.707 108.402 136.797 108.378C136.887 108.354 136.983 108.362 137.067 108.402L157.461 118.715L162.543 107.654C162.587 107.564 162.665 107.495 162.76 107.461C162.854 107.427 162.958 107.43 163.05 107.471C163.095 107.491 163.135 107.521 163.169 107.557C163.202 107.593 163.228 107.636 163.245 107.682C163.262 107.728 163.27 107.778 163.268 107.827C163.266 107.876 163.254 107.925 163.233 107.97L157.993 119.389C157.946 119.482 157.866 119.553 157.769 119.589C157.672 119.626 157.565 119.626 157.469 119.589L137.034 109.259C134.115 113.833 131.278 118.89 131.278 119.93H131.362C132.709 119.93 136.194 118.79 137.5 118.333C137.552 118.308 137.609 118.296 137.666 118.296C137.724 118.296 137.78 118.308 137.832 118.333C147.672 124.695 163.981 134.135 165.836 132.198C168.514 129.453 178.511 106.473 178.62 106.24C178.639 106.194 178.668 106.153 178.703 106.119C178.739 106.085 178.781 106.058 178.827 106.039C178.872 106.021 178.922 106.012 178.971 106.013C179.02 106.014 179.069 106.025 179.114 106.044C179.16 106.064 179.201 106.092 179.235 106.128C179.269 106.163 179.297 106.205 179.315 106.251C179.333 106.297 179.342 106.346 179.341 106.396C179.34 106.445 179.33 106.494 179.31 106.539C178.902 107.496 169.155 129.877 166.377 132.721C166.205 132.888 166 133.017 165.775 133.097C165.549 133.177 165.309 133.208 165.071 133.187Z" fill="#231F20"/>
<path d="M211.239 102.514L223.798 141.762C223.798 141.762 236.224 141.571 235.001 142.453C233.778 143.334 215.106 147.368 215.106 147.368L193.008 97.324" fill="white"/>
<path d="M215.107 147.751C215.033 147.751 214.961 147.73 214.899 147.69C214.837 147.65 214.788 147.593 214.758 147.526L192.668 97.4651C192.627 97.3736 192.624 97.2696 192.66 97.176C192.696 97.0824 192.767 97.0069 192.859 96.9661C192.95 96.9253 193.054 96.9225 193.148 96.9584C193.242 96.9943 193.317 97.0658 193.358 97.1574L215.332 146.936C221.985 145.488 231.592 143.284 234.17 142.403C230.72 142.126 227.258 142.04 223.799 142.145C223.717 142.148 223.636 142.123 223.569 142.075C223.503 142.027 223.455 141.958 223.433 141.879L210.882 102.63C210.85 102.534 210.858 102.43 210.903 102.339C210.948 102.249 211.027 102.18 211.123 102.148C211.22 102.119 211.325 102.128 211.415 102.175C211.505 102.222 211.573 102.301 211.606 102.397L224.081 141.38C235.143 141.222 235.351 141.895 235.451 142.211C235.483 142.318 235.478 142.433 235.438 142.537C235.397 142.641 235.323 142.729 235.226 142.785C233.979 143.684 217.12 147.351 215.199 147.776L215.107 147.751Z" fill="#231F20"/>
<path d="M175.285 32.6411C170.062 39.6275 172.124 52.2945 173.189 61.8759L205.318 60.2707C205.318 60.2707 200.993 37.5399 199.662 29.281C192.435 26.6944 180.5 25.6547 175.285 32.6411Z" fill="#FFD700"/>
<path d="M205.318 58.7488C205.227 58.7496 205.139 58.7171 205.07 58.6574C205.001 58.5977 204.956 58.5148 204.944 58.4244C203.572 49.8578 199.862 32.7245 199.829 32.5498C199.823 32.4582 199.85 32.3676 199.906 32.2945C199.961 32.2214 200.041 32.1707 200.131 32.1515C200.221 32.1323 200.314 32.1461 200.395 32.1902C200.475 32.2343 200.537 32.3058 200.569 32.3918C200.569 32.5664 204.32 49.7164 205.692 58.308C205.701 58.3572 205.699 58.4076 205.688 58.4562C205.676 58.5047 205.655 58.5505 205.626 58.5908C205.596 58.6311 205.559 58.6651 205.516 58.6908C205.473 58.7165 205.426 58.7334 205.376 58.7405L205.318 58.7488Z" fill="#231F20"/>
<path d="M172.931 61.7093C172.931 61.7093 168.008 70.933 154.975 110.323C154.975 110.323 198.007 121.551 218.651 115.954L205.119 60.3203L172.931 61.7093Z" fill="#231F20"/>
<path d="M204.237 117.867C182.737 117.867 155.224 110.772 154.883 110.681C154.834 110.668 154.787 110.645 154.747 110.614C154.707 110.582 154.674 110.543 154.65 110.498C154.63 110.452 154.619 110.402 154.619 110.352C154.619 110.302 154.63 110.252 154.65 110.206C167.55 71.2323 172.582 61.626 172.632 61.5345C172.661 61.4781 172.705 61.4307 172.76 61.397C172.814 61.3634 172.876 61.3448 172.939 61.3432L205.127 59.9543C205.212 59.9517 205.296 59.9783 205.364 60.0298C205.432 60.0812 205.48 60.1543 205.501 60.2371L219.033 115.862C219.056 115.955 219.042 116.053 218.994 116.135C218.946 116.217 218.867 116.278 218.775 116.303C214.016 117.445 209.13 117.971 204.237 117.867ZM155.449 110.065C159.724 111.146 198.806 120.719 218.21 115.687L204.827 60.7278L173.156 62.0668C172.424 63.5473 167.267 74.3679 155.449 110.065Z" fill="#231F20"/>
<path d="M214.559 145.68C214.559 145.771 224.473 143.234 224.473 143.234C224.473 143.234 225.071 140.739 225.895 140.44C226.718 140.14 236.94 140.573 237.264 142.103C237.589 143.634 214.683 149.589 214.683 149.589L214.559 145.68Z" fill="#231F20"/>
<path d="M214.682 149.995C214.601 149.996 214.522 149.97 214.458 149.921C214.413 149.888 214.377 149.846 214.352 149.797C214.328 149.747 214.315 149.693 214.316 149.638L214.192 145.696C214.188 145.608 214.217 145.521 214.272 145.453C214.327 145.384 214.405 145.337 214.491 145.321H214.574C215.123 145.246 220.496 143.882 224.164 142.934C224.372 142.103 224.921 140.397 225.769 140.098C226.617 139.799 234.81 140.098 236.989 141.346C237.141 141.414 237.277 141.515 237.386 141.642C237.495 141.768 237.575 141.917 237.621 142.078C237.729 142.602 237.895 143.392 226.193 146.835C220.571 148.498 214.824 149.979 214.774 149.995H214.682ZM214.932 145.962L215.032 149.164C225.145 146.536 235.999 143.267 236.881 142.169C236.812 142.094 236.731 142.032 236.64 141.986C234.76 140.88 226.659 140.564 226.01 140.788C225.636 140.913 225.095 142.202 224.829 143.284C224.812 143.347 224.779 143.406 224.732 143.453C224.685 143.499 224.627 143.533 224.563 143.55C218.35 145.18 215.922 145.812 214.932 145.962Z" fill="#231F20"/>
<path d="M138.449 108.901L133.342 117.801L135.213 119.772C135.213 119.772 128.16 124.762 126.788 123.814C125.416 122.866 134.897 107.304 134.897 107.304L138.449 108.901Z" fill="#231F20"/>
<path d="M127.237 124.288C127.005 124.302 126.774 124.241 126.58 124.113C125.823 123.589 126.58 120.204 134.564 107.071C134.611 106.995 134.685 106.938 134.77 106.912C134.856 106.886 134.949 106.892 135.03 106.93L138.598 108.593C138.69 108.637 138.762 108.714 138.798 108.81C138.818 108.857 138.829 108.908 138.829 108.959C138.829 109.011 138.818 109.062 138.798 109.109L133.808 117.767L135.471 119.547C135.506 119.586 135.533 119.632 135.549 119.683C135.564 119.733 135.569 119.786 135.563 119.838C135.559 119.89 135.544 119.94 135.518 119.985C135.492 120.03 135.456 120.068 135.413 120.096C133.916 121.144 129.3 124.288 127.237 124.288ZM135.022 107.737C130.73 114.823 126.605 122.608 127.029 123.539C127.678 123.98 131.429 121.942 134.656 119.705L133.076 118.042C133.02 117.986 132.984 117.913 132.975 117.834C132.966 117.756 132.984 117.676 133.026 117.609L137.925 109.059L135.022 107.737Z" fill="#231F20"/>
<path d="M181.389 44.5269C181.389 44.5269 200.019 55.7134 211.547 56.4703C221.951 55.3641 229.936 40.7509 229.936 40.7509L223.282 35.2117C223.282 35.2117 211.522 43.7118 207.862 44.452C203.704 43.7783 185.705 36.4925 185.705 36.4925" fill="#FFD700"/>
<path d="M211.548 56.852H211.489C201.941 55.0633 192.665 52.044 183.893 47.8695C183.848 47.8482 183.808 47.8183 183.775 47.7815C183.742 47.7447 183.716 47.7017 183.7 47.6549C183.683 47.6082 183.676 47.5587 183.678 47.5091C183.681 47.4596 183.693 47.4111 183.714 47.3663C183.736 47.3215 183.766 47.2814 183.802 47.2482C183.839 47.2149 183.882 47.1893 183.929 47.1727C183.976 47.1561 184.025 47.1488 184.075 47.1514C184.124 47.1539 184.173 47.1662 184.218 47.1875C192.925 51.327 202.13 54.3239 211.606 56.1035C211.697 56.1222 211.778 56.1736 211.834 56.248C211.89 56.3224 211.917 56.4147 211.91 56.5075C211.903 56.6004 211.862 56.6875 211.796 56.7524C211.729 56.8174 211.641 56.8557 211.548 56.8603V56.852Z" fill="#231F20"/>
<path d="M206.182 44.8256C206.144 44.8332 206.104 44.8332 206.066 44.8256C205.409 44.601 190.014 39.2614 183.818 34.529C183.737 34.4672 183.685 34.376 183.671 34.2754C183.658 34.1748 183.685 34.073 183.747 33.9925C183.809 33.912 183.9 33.8593 184.001 33.8461C184.101 33.8328 184.203 33.86 184.283 33.9218C190.38 38.5794 206.149 44.0521 206.307 44.1103C206.394 44.1369 206.469 44.1943 206.516 44.2717C206.564 44.3492 206.582 44.4414 206.567 44.5312C206.552 44.6209 206.504 44.702 206.433 44.7592C206.363 44.8165 206.273 44.846 206.182 44.8422V44.8256Z" fill="#231F20"/>
<path d="M191.653 25.3801L193.034 30.7862C193.034 30.7862 192.959 33.4477 189.108 33.5309C185.257 33.614 184.068 31.252 184.068 31.252L181.855 21.0219C181.855 21.0219 186.746 16.514 184.417 10.8916C185.482 12.0551 186.88 12.8621 188.421 13.2029C189.961 13.5437 191.569 13.4017 193.025 12.7962C193.772 15.4613 194.355 18.1694 194.772 20.9054C195.071 23.8497 191.653 25.3801 191.653 25.3801Z" fill="white"/>
<path d="M188.958 33.972C185.049 33.972 183.785 31.5683 183.735 31.4768C183.729 31.4438 183.729 31.41 183.735 31.377L181.473 21.1386C181.459 21.067 181.463 20.993 181.485 20.9233C181.507 20.8536 181.545 20.7904 181.598 20.7394C181.648 20.7394 186.247 16.3563 184.093 11.0749C184.054 10.9835 184.05 10.8814 184.08 10.787C184.11 10.6926 184.173 10.612 184.257 10.5598C184.341 10.5077 184.442 10.4873 184.54 10.5024C184.637 10.5176 184.727 10.5672 184.791 10.6424C185.796 11.7472 187.119 12.5133 188.577 12.8351C190.035 13.1568 191.558 13.0184 192.934 12.4389C192.987 12.4143 193.046 12.4015 193.104 12.4015C193.163 12.4015 193.221 12.4143 193.275 12.4389C193.327 12.4649 193.372 12.5011 193.41 12.5455C193.447 12.5898 193.475 12.6413 193.491 12.6967C194.245 15.3826 194.828 18.1133 195.238 20.8725C195.512 23.534 193.092 25.0976 192.202 25.58L193.491 30.695C193.5 30.7334 193.5 30.7731 193.491 30.8115C193.491 30.8115 193.358 33.8639 189.158 33.9554L188.958 33.972ZM184.5 31.1275C184.675 31.4269 185.848 33.2234 189.141 33.1403C192.277 33.0737 192.618 31.1941 192.651 30.8531L191.295 25.4802C191.258 25.3892 191.253 25.2881 191.282 25.194C191.311 25.0999 191.371 25.0188 191.453 24.9645C191.453 24.9645 194.589 23.5173 194.323 20.939C193.945 18.3737 193.406 15.8347 192.709 13.3371C191.464 13.7852 190.127 13.9142 188.819 13.7122C187.512 13.5103 186.276 12.9838 185.224 12.1811C186.222 16.7139 183.053 20.3319 182.271 21.147L184.5 31.1275Z" fill="#231F20"/>
<path d="M183.493 20.3068C181.963 17.4956 177.372 19.4335 179.684 22.4194C179.926 22.7454 180.23 23.0205 180.579 23.2288C180.927 23.4371 181.313 23.5745 181.715 23.6332C182.117 23.6919 182.526 23.6708 182.92 23.571C183.314 23.4711 183.684 23.2946 184.009 23.0515" fill="white"/>
<path d="M182.22 24.1332C182.084 24.1415 181.948 24.1415 181.812 24.1332C181.324 24.0806 180.851 23.9298 180.422 23.6896C179.993 23.4495 179.617 23.1251 179.317 22.7359C178.97 22.3803 178.735 21.9309 178.64 21.4432C178.546 20.9555 178.596 20.4508 178.785 19.9912C179.01 19.5671 179.346 19.2127 179.758 18.9663C180.17 18.72 180.642 18.5912 181.122 18.594C181.674 18.58 182.218 18.7206 182.695 18.9998C183.171 19.279 183.559 19.6858 183.817 20.1742C183.843 20.2223 183.859 20.275 183.865 20.3295C183.871 20.3839 183.866 20.4389 183.851 20.4915C183.835 20.544 183.81 20.5929 183.775 20.6355C183.741 20.6782 183.698 20.7136 183.65 20.7398C183.602 20.766 183.549 20.7825 183.495 20.7883C183.441 20.7941 183.386 20.7892 183.333 20.7738C183.281 20.7583 183.232 20.7327 183.189 20.6983C183.146 20.6639 183.111 20.6215 183.085 20.5735C182.908 20.2149 182.63 19.9155 182.286 19.7117C181.942 19.5079 181.546 19.4086 181.147 19.4257C180.821 19.4214 180.5 19.5039 180.216 19.6647C179.933 19.8254 179.697 20.0587 179.533 20.3406C179.422 20.6648 179.404 21.0141 179.482 21.3481C179.56 21.6821 179.73 21.9873 179.974 22.2286C180.203 22.5248 180.489 22.7728 180.814 22.9583C181.14 23.1439 181.499 23.2633 181.87 23.3098C182.527 23.3884 183.188 23.2029 183.709 22.7941C183.795 22.7261 183.904 22.695 184.013 22.7074C184.122 22.7199 184.222 22.775 184.291 22.8607C184.325 22.9029 184.351 22.9517 184.367 23.0041C184.382 23.0565 184.387 23.1116 184.381 23.1659C184.375 23.2202 184.358 23.2727 184.331 23.3203C184.304 23.3679 184.268 23.4096 184.224 23.4429C183.653 23.8933 182.947 24.1367 182.22 24.1332Z" fill="#231F20"/>
<path d="M189.414 16.9219C189.414 16.9219 192.134 19.1675 191.834 19.783C191.535 20.3984 190.171 20.465 190.171 20.465" fill="white"/>
<path d="M190.19 20.8811C190.08 20.8811 189.974 20.8373 189.896 20.7593C189.818 20.6813 189.774 20.5756 189.774 20.4653C189.774 20.355 189.818 20.2492 189.896 20.1712C189.974 20.0932 190.08 20.0494 190.19 20.0494C190.647 20.0494 191.354 19.8664 191.479 19.6086C190.831 18.7097 190.052 17.9134 189.167 17.2465C189.118 17.2145 189.077 17.1726 189.046 17.1235C189.015 17.0745 188.994 17.0195 188.985 16.962C188.976 16.9045 188.98 16.8458 188.995 16.7897C189.011 16.7336 189.038 16.6814 189.074 16.6364C189.111 16.5914 189.157 16.5546 189.209 16.5284C189.261 16.5022 189.318 16.4872 189.376 16.4844C189.434 16.4815 189.492 16.4909 189.546 16.5119C189.601 16.5328 189.65 16.5649 189.691 16.6061C191.67 18.2696 192.519 19.3591 192.228 19.933C191.837 20.7647 190.489 20.8312 190.223 20.8479L190.19 20.8811Z" fill="#231F20"/>
<path d="M186.639 16.5099C186.892 16.4278 187.004 16.0708 186.888 15.7125C186.772 15.3541 186.472 15.1301 186.219 15.2121C185.965 15.2941 185.854 15.6511 185.97 16.0095C186.086 16.3678 186.385 16.5919 186.639 16.5099Z" fill="#231F20"/>
<path d="M190.947 16.2437C191.201 16.1617 191.312 15.8047 191.196 15.4463C191.08 15.088 190.781 14.864 190.527 14.946C190.274 15.028 190.162 15.385 190.278 15.7434C190.394 16.1017 190.694 16.3258 190.947 16.2437Z" fill="#231F20"/>
<path d="M190.09 23.3007C189.9 23.3015 189.71 23.282 189.524 23.2425C188.991 23.12 188.492 22.8823 188.061 22.5461C187.63 22.2098 187.278 21.7832 187.029 21.2963C186.972 21.2014 186.954 21.0877 186.981 20.9801C187.007 20.8724 187.076 20.7798 187.17 20.7224C187.265 20.6651 187.379 20.6477 187.487 20.6742C187.594 20.7008 187.687 20.7689 187.744 20.8638C187.931 21.2475 188.199 21.586 188.529 21.856C188.859 22.126 189.244 22.3209 189.657 22.4274C190.459 22.5201 191.265 22.3029 191.911 21.8203C191.998 21.7519 192.109 21.7209 192.219 21.7342C192.329 21.7474 192.429 21.8038 192.498 21.891C192.566 21.9781 192.597 22.0888 192.584 22.1988C192.57 22.3087 192.514 22.4089 192.427 22.4773C191.75 22.9829 190.934 23.2701 190.09 23.3007Z" fill="#231F20"/>
<path d="M191.654 25.3804C191.654 25.3804 188.817 26.0291 187.32 25.5633C187.32 25.5633 189.158 28.5492 192.435 28.6573L191.654 25.3804Z" fill="#231F20"/>
<path d="M192.435 29.0739C188.983 28.9574 187.062 25.9134 186.987 25.747C186.943 25.6752 186.922 25.5917 186.926 25.5077C186.931 25.4236 186.961 25.3428 187.012 25.2761C187.064 25.2094 187.134 25.1599 187.214 25.1341C187.294 25.1083 187.38 25.1074 187.461 25.1316C188.825 25.564 191.553 24.9486 191.578 24.9403C191.685 24.9175 191.796 24.9367 191.889 24.994C191.982 25.0514 192.049 25.1423 192.077 25.248L192.851 28.5749C192.864 28.6352 192.864 28.6978 192.851 28.7581C192.837 28.8184 192.81 28.875 192.772 28.9236C192.733 28.9722 192.685 29.0116 192.629 29.0391C192.574 29.0665 192.513 29.0812 192.451 29.0822L192.435 29.0739ZM188.276 26.1379C189.206 27.2164 190.477 27.9442 191.877 28.2006L191.329 25.8635C190.33 26.0672 189.312 26.1593 188.293 26.1379H188.276Z" fill="#231F20"/>
<path d="M16.7348 119.721C18.1992 118.406 19.857 117.323 21.6503 116.511C21.8 121.767 19.6625 126.6 17.6913 129.91H11.2871" fill="white"/>
<path d="M17.6911 130.326H11.287C11.1767 130.326 11.0709 130.282 10.9929 130.204C10.9149 130.126 10.8711 130.02 10.8711 129.91C10.8711 129.799 10.9149 129.694 10.9929 129.616C11.0709 129.538 11.1767 129.494 11.287 129.494H17.4583C19.2132 126.5 21.2093 122.008 21.2426 117.159C19.7144 117.931 18.2917 118.895 17.0091 120.029C16.9257 120.096 16.8195 120.129 16.7127 120.119C16.606 120.11 16.5069 120.06 16.4361 119.98C16.3653 119.899 16.3283 119.795 16.3328 119.688C16.3373 119.581 16.3829 119.479 16.4602 119.405C17.9585 118.06 19.6559 116.955 21.4921 116.128C21.5512 116.098 21.6168 116.082 21.6834 116.082C21.7499 116.082 21.8155 116.098 21.8747 116.128C21.9326 116.164 21.9804 116.215 22.0139 116.274C22.0473 116.334 22.0652 116.401 22.0659 116.469C22.224 121.9 19.97 126.874 18.0488 130.093C18.0158 130.16 17.9651 130.217 17.9021 130.258C17.8391 130.299 17.7662 130.323 17.6911 130.326Z" fill="#D1D3D4"/>
<path d="M7.55273 121.127C9.12467 112.91 15.5621 107.745 15.5621 107.745C16.7639 111.615 17.1629 115.691 16.7348 119.721C16.4046 123.193 15.6619 126.614 14.5225 129.91H7.64422" fill="white"/>
<path d="M14.5236 130.326H7.64535C7.53506 130.326 7.42928 130.282 7.35129 130.204C7.2733 130.126 7.22949 130.021 7.22949 129.91C7.23162 129.801 7.27611 129.696 7.35365 129.619C7.43118 129.541 7.53572 129.497 7.64535 129.494H14.2491C15.3231 126.315 16.0264 123.021 16.3451 119.68C16.7451 115.919 16.4205 112.116 15.3886 108.477C13.8915 109.841 9.26719 114.524 7.98635 121.211C7.96232 121.318 7.89816 121.412 7.80697 121.474C7.71577 121.536 7.60442 121.561 7.49564 121.543C7.38709 121.521 7.2915 121.457 7.22933 121.366C7.16716 121.274 7.14334 121.162 7.16295 121.053C8.75152 112.777 15.0642 107.637 15.3304 107.421C15.3835 107.379 15.446 107.35 15.5126 107.337C15.5791 107.324 15.6478 107.327 15.713 107.346C15.776 107.366 15.8336 107.401 15.8812 107.447C15.9288 107.493 15.9651 107.55 15.9874 107.612C17.2019 111.546 17.5981 115.687 17.1518 119.78C16.8105 123.288 16.0596 126.744 14.9145 130.077C14.8815 130.152 14.8267 130.217 14.7571 130.261C14.6875 130.305 14.6062 130.328 14.5236 130.326Z" fill="#D1D3D4"/>
<path d="M4.14375 129.918H10.2485C10.3067 128.105 9.8992 125.369 7.93636 121.817C7.80329 121.584 7.67853 121.351 7.54545 121.135C4.01067 115.147 0.775314 115.205 0.775314 115.205C-0.597012 121.509 2.29735 127.132 4.14375 129.918Z" fill="white"/>
<path d="M10.2479 130.335H4.14309C4.0738 130.333 4.00589 130.315 3.9451 130.281C3.88431 130.248 3.83241 130.201 3.79377 130.143C1.9141 127.307 -1.03848 121.577 0.367116 115.122C0.387347 115.031 0.437546 114.948 0.509816 114.888C0.582085 114.828 0.672323 114.793 0.766338 114.79C0.899412 114.79 4.28448 114.79 7.90243 120.92C8.03551 121.141 8.16858 121.374 8.30166 121.618C10.356 125.344 10.7219 128.197 10.6637 129.935C10.6574 130.042 10.6111 130.142 10.534 130.216C10.4569 130.29 10.3547 130.333 10.2479 130.335ZM4.36765 129.503H9.84032C9.71573 126.858 8.93547 124.286 7.56975 122.017C7.44499 121.785 7.31192 121.56 7.18716 121.344C4.48409 116.769 1.98064 115.854 1.10734 115.671C-0.0154726 121.543 2.5961 126.766 4.36765 129.503Z" fill="#D1D3D4"/>
<path d="M5.2577 139.6H17.226L19.1556 129.919H3.32812L5.2577 139.6Z" fill="white"/>
<path d="M17.2251 140.015H5.2568C5.15932 140.017 5.06459 139.983 4.98982 139.92C4.91504 139.858 4.86518 139.771 4.84927 139.674L2.91969 130.001C2.90827 129.941 2.90977 129.878 2.9241 129.818C2.93843 129.758 2.96526 129.701 3.00286 129.652C3.04241 129.605 3.09204 129.567 3.14815 129.541C3.20426 129.515 3.26544 129.502 3.32723 129.502H19.1298C19.1916 129.502 19.2527 129.515 19.3089 129.541C19.365 129.567 19.4146 129.605 19.4541 129.652C19.4917 129.701 19.5186 129.758 19.5329 129.818C19.5472 129.878 19.5487 129.941 19.5373 130.001L17.6244 139.674C17.6087 139.769 17.56 139.855 17.487 139.918C17.414 139.98 17.3212 140.015 17.2251 140.015ZM5.58117 139.184H16.8842L18.6474 130.334H3.83458L5.58117 139.184Z" fill="#D1D3D4"/>
</svg>
