<svg width="250" height="186" viewBox="0 0 250 186" fill="none" xmlns="http://www.w3.org/2000/svg">
<path d="M14.5047 183.963H50.6316C51.8512 183.963 52.8398 182.974 52.8398 181.754V175.674C52.8398 174.454 51.8512 173.466 50.6316 173.466H14.5047C13.2851 173.466 12.2965 174.454 12.2965 175.674V181.754C12.2965 182.974 13.2851 183.963 14.5047 183.963Z" fill="white"/>
<path d="M50.6324 185.01H14.5055C13.6413 185.01 12.8123 184.667 12.2003 184.057C11.5882 183.447 11.243 182.619 11.2402 181.755V175.674C11.243 174.81 11.5882 173.982 12.2003 173.372C12.8123 172.762 13.6413 172.42 14.5055 172.42H50.6324C51.4948 172.422 52.321 172.766 52.9308 173.376C53.5406 173.986 53.8844 174.812 53.8872 175.674V181.755C53.8872 182.182 53.803 182.605 53.6394 183C53.4758 183.395 53.2361 183.754 52.9339 184.056C52.6316 184.358 52.2728 184.598 51.8779 184.762C51.483 184.925 51.0598 185.01 50.6324 185.01ZM14.5055 174.544C14.1964 174.544 13.8998 174.666 13.6803 174.884C13.4608 175.101 13.3361 175.397 13.3333 175.706V181.786C13.3361 182.095 13.4608 182.391 13.6803 182.608C13.8998 182.826 14.1964 182.948 14.5055 182.948H50.6324C50.7849 182.948 50.936 182.918 51.0769 182.859C51.2179 182.801 51.3459 182.715 51.4538 182.608C51.5617 182.5 51.6472 182.372 51.7056 182.231C51.764 182.09 51.7941 181.939 51.7941 181.786V175.706C51.7941 175.553 51.764 175.402 51.7056 175.261C51.6472 175.12 51.5617 174.992 51.4538 174.884C51.3459 174.776 51.2179 174.691 51.0769 174.632C50.936 174.574 50.7849 174.544 50.6324 174.544H14.5055Z" fill="#093F68"/>
<path d="M18.8367 173.466H54.9637C56.1832 173.466 57.1719 172.477 57.1719 171.257V165.177C57.1719 163.957 56.1832 162.969 54.9637 162.969H18.8367C17.6172 162.969 16.6285 163.957 16.6285 165.177V171.257C16.6285 172.477 17.6172 173.466 18.8367 173.466Z" fill="white"/>
<path d="M54.9644 174.512H18.8375C17.9733 174.512 17.1444 174.169 16.5323 173.559C15.9203 172.949 15.575 172.121 15.5723 171.257V165.177C15.575 164.313 15.9203 163.485 16.5323 162.875C17.1444 162.265 17.9733 161.922 18.8375 161.922H54.9644C55.8268 161.925 56.653 162.269 57.2628 162.878C57.8726 163.488 58.2164 164.314 58.2192 165.177V171.257C58.2164 172.12 57.8726 172.946 57.2628 173.556C56.653 174.165 55.8268 174.509 54.9644 174.512ZM18.8375 164.046C18.5284 164.046 18.2319 164.169 18.0124 164.386C17.7928 164.604 17.6681 164.899 17.6654 165.208V171.289C17.6681 171.598 17.7928 171.893 18.0124 172.111C18.2319 172.328 18.5284 172.45 18.8375 172.45H54.9644C55.117 172.45 55.268 172.42 55.409 172.362C55.5499 172.303 55.678 172.218 55.7858 172.11C55.8937 172.002 55.9793 171.874 56.0377 171.733C56.096 171.592 56.1261 171.441 56.1261 171.289V165.208C56.1261 165.056 56.096 164.905 56.0377 164.764C55.9793 164.623 55.8937 164.495 55.7858 164.387C55.678 164.279 55.5499 164.193 55.409 164.135C55.268 164.077 55.117 164.046 54.9644 164.046H18.8375Z" fill="#093F68"/>
<path d="M23.2547 162.969H59.3816C60.6012 162.969 61.5898 161.98 61.5898 160.761V154.68C61.5898 153.461 60.6012 152.472 59.3816 152.472H23.2547C22.0351 152.472 21.0465 153.461 21.0465 154.68V160.761C21.0465 161.98 22.0351 162.969 23.2547 162.969Z" fill="white"/>
<path d="M59.37 164.015H23.243C22.3807 164.012 21.5544 163.669 20.9446 163.059C20.3348 162.449 19.991 161.623 19.9883 160.76V154.68C19.9883 153.817 20.3312 152.989 20.9416 152.378C21.552 151.768 22.3798 151.425 23.243 151.425H59.37C60.2341 151.425 61.0631 151.768 61.6751 152.378C62.2872 152.988 62.6324 153.816 62.6352 154.68V160.76C62.6324 161.625 62.2872 162.452 61.6751 163.063C61.0631 163.673 60.2341 164.015 59.37 164.015ZM23.243 153.55C22.935 153.55 22.6395 153.672 22.4216 153.89C22.2038 154.108 22.0814 154.403 22.0814 154.711V160.792C22.0814 161.1 22.2038 161.395 22.4216 161.613C22.6395 161.831 22.935 161.953 23.243 161.953H59.37C59.679 161.953 59.9756 161.831 60.1951 161.614C60.4146 161.396 60.5393 161.101 60.5421 160.792V154.711C60.5393 154.402 60.4146 154.107 60.1951 153.889C59.9756 153.672 59.679 153.55 59.37 153.55H23.243Z" fill="#093F68"/>
<path d="M9.21954 152.461H45.3465C46.566 152.461 47.5547 151.472 47.5547 150.253V144.172C47.5547 142.953 46.566 141.964 45.3465 141.964H9.21954C7.99998 141.964 7.01132 142.953 7.01132 144.172V150.253C7.01132 151.472 7.99998 152.461 9.21954 152.461Z" fill="white"/>
<path d="M45.3368 153.518H9.20985C8.34748 153.516 7.52122 153.172 6.91143 152.562C6.30164 151.952 5.95784 151.126 5.95508 150.264V144.183C5.95508 143.756 6.03926 143.332 6.20283 142.938C6.3664 142.543 6.60614 142.184 6.90838 141.882C7.21061 141.579 7.56941 141.34 7.9643 141.176C8.35919 141.013 8.78243 140.928 9.20985 140.928H45.3368C46.201 140.928 47.0299 141.271 47.6419 141.881C48.254 142.491 48.5992 143.319 48.602 144.183V150.264C48.5992 151.128 48.254 151.956 47.6419 152.566C47.0299 153.176 46.201 153.518 45.3368 153.518ZM9.20985 143.053C8.90176 143.053 8.60628 143.175 8.38842 143.393C8.17057 143.611 8.04818 143.906 8.04818 144.215V150.295C8.04818 150.448 8.07823 150.599 8.13661 150.74C8.19499 150.88 8.28055 151.009 8.38842 151.116C8.4963 151.224 8.62435 151.31 8.7653 151.368C8.90624 151.427 9.0573 151.457 9.20985 151.457H45.3368C45.6458 151.457 45.9424 151.335 46.1619 151.117C46.3814 150.899 46.5061 150.604 46.5089 150.295V144.215C46.5089 144.061 46.4785 143.909 46.4195 143.768C46.3605 143.626 46.274 143.497 46.165 143.389C46.056 143.281 45.9267 143.196 45.7845 143.138C45.6424 143.08 45.4902 143.051 45.3368 143.053H9.20985Z" fill="#093F68"/>
<path d="M14.5047 141.974H50.6316C51.8512 141.974 52.8398 140.986 52.8398 139.766V133.686C52.8398 132.466 51.8512 131.478 50.6316 131.478H14.5047C13.2851 131.478 12.2965 132.466 12.2965 133.686V139.766C12.2965 140.986 13.2851 141.974 14.5047 141.974Z" fill="white"/>
<path d="M50.6324 143.021H14.5055C14.0767 143.021 13.6521 142.937 13.2559 142.772C12.8598 142.608 12.4998 142.368 12.1966 142.065C11.8934 141.761 11.6529 141.401 11.4888 141.005C11.3247 140.609 11.2402 140.185 11.2402 139.756V133.686C11.2402 133.257 11.3247 132.832 11.4888 132.436C11.6529 132.04 11.8934 131.68 12.1966 131.377C12.4998 131.074 12.8598 130.833 13.2559 130.669C13.6521 130.505 14.0767 130.421 14.5055 130.421H50.6324C51.4966 130.423 52.3244 130.769 52.9345 131.381C53.5446 131.993 53.8872 132.822 53.8872 133.686V139.756C53.8872 140.62 53.5446 141.449 52.9345 142.061C52.3244 142.673 51.4966 143.018 50.6324 143.021ZM14.5055 132.556C14.1946 132.556 13.8965 132.679 13.6766 132.899C13.4568 133.119 13.3333 133.417 13.3333 133.728V139.798C13.3333 140.109 13.4568 140.407 13.6766 140.626C13.8965 140.846 14.1946 140.97 14.5055 140.97H50.6324C50.9414 140.967 51.2369 140.842 51.4545 140.623C51.672 140.403 51.7941 140.107 51.7941 139.798V133.728C51.7941 133.419 51.672 133.122 51.4545 132.902C51.2369 132.683 50.9414 132.558 50.6324 132.556H14.5055Z" fill="#093F68"/>
<path d="M57.2983 97.5487C52.861 97.5487 46.027 96.7429 41.2024 92.4729C40.5154 91.8723 39.9289 91.1657 39.4651 90.3798C36.6917 90.0135 33.1858 88.5798 29.3973 84.6552C29.2044 84.4554 29.0988 84.1871 29.1037 83.9093C29.1086 83.6316 29.2236 83.3672 29.4235 83.1743C29.6233 82.9814 29.8916 82.8758 30.1693 82.8807C30.447 82.8856 30.7114 83.0007 30.9043 83.2005C32.9423 85.477 35.5617 87.1557 38.4814 88.0565C37.8892 85.8923 37.8174 83.6186 38.272 81.4214C38.9732 78.0305 40.7524 75.5502 43.0338 74.8072C44.3839 74.3676 46.5398 74.3362 49.1248 76.67C49.9911 77.4583 50.6226 78.4708 50.9495 79.5956C51.2765 80.7204 51.286 81.9136 50.9772 83.0435C50.5151 84.7459 49.6102 86.2955 48.3546 87.5345C47.099 88.7735 45.5376 89.6578 43.8292 90.0973C43.2536 90.2558 42.6653 90.3643 42.071 90.4217C42.2313 90.6029 42.4026 90.7742 42.5838 90.9345C49.4073 96.9731 61.3066 95.2463 61.4217 95.2254C61.6993 95.1837 61.982 95.2541 62.2077 95.4209C62.4334 95.5877 62.5836 95.8374 62.6253 96.1149C62.6669 96.3925 62.5966 96.6752 62.4297 96.9009C62.2629 97.1266 62.0133 97.2768 61.7357 97.3185C60.2633 97.4935 58.7809 97.5705 57.2983 97.5487ZM40.8047 88.36C41.6392 88.3822 42.4722 88.2763 43.2746 88.046C44.6179 87.698 45.847 87.0051 46.8401 86.0359C47.8332 85.0666 48.5559 83.8547 48.9364 82.5202C49.1538 81.7564 49.1554 80.9472 48.9411 80.1825C48.7268 79.4177 48.305 78.7272 47.7224 78.1875C46.2468 76.8584 44.8862 76.377 43.6827 76.7642C42.1547 77.2666 40.857 79.2027 40.3233 81.819C39.8527 84.0004 40.0199 86.271 40.8047 88.36Z" fill="#093F68"/>
<path d="M184.162 63.9446C184.162 63.9446 212.419 43.9973 211.571 52.9244C210.724 61.8515 204.486 80.1347 204.486 80.1347" fill="#FFD700"/>
<path d="M204.538 81.1913C204.421 81.19 204.304 81.1687 204.193 81.1285C203.931 81.0381 203.715 80.8474 203.594 80.5982C203.472 80.349 203.454 80.0617 203.544 79.7994C203.607 79.6215 209.824 61.5266 210.587 52.8298C210.661 52.0135 210.399 51.8669 210.315 51.7832C207.846 50.3494 195.413 57.2672 184.811 64.7605C184.599 64.8407 184.366 64.8497 184.148 64.7861C183.93 64.7224 183.738 64.5896 183.603 64.4076C183.467 64.2257 183.394 64.0045 183.395 63.7774C183.395 63.5503 183.47 63.3297 183.607 63.1488C187.385 60.4696 206.495 47.2726 211.362 50.0564C211.861 50.3636 212.253 50.816 212.487 51.353C212.721 51.89 212.785 52.4857 212.67 53.06C211.875 62.0185 205.784 79.7785 205.522 80.532C205.444 80.7284 205.308 80.8965 205.133 81.0142C204.957 81.1319 204.75 81.1936 204.538 81.1913Z" fill="#093F68"/>
<path d="M164.539 183.963H173.79C175.545 183.963 177.239 183.327 178.56 182.172C179.88 181.017 180.737 179.422 180.97 177.684L184.664 150.682H153.676L157.37 177.684C157.601 179.421 158.455 181.016 159.774 182.171C161.093 183.326 162.786 183.963 164.539 183.963Z" fill="#FFD700"/>
<path d="M173.791 185.01H164.539C162.539 185.004 160.608 184.277 159.101 182.962C157.594 181.647 156.611 179.832 156.334 177.851L152.64 150.85C152.62 150.702 152.633 150.552 152.676 150.41C152.719 150.267 152.793 150.135 152.891 150.023C152.988 149.91 153.108 149.818 153.244 149.755C153.379 149.692 153.526 149.659 153.676 149.657H184.654C184.805 149.657 184.954 149.69 185.092 149.753C185.229 149.816 185.351 149.909 185.449 150.023C185.547 150.135 185.621 150.267 185.664 150.41C185.707 150.552 185.72 150.702 185.7 150.85L182.006 177.851C181.716 179.828 180.729 181.637 179.222 182.95C177.715 184.263 175.789 184.993 173.791 185.01ZM154.879 151.75L158.406 177.558C158.613 179.04 159.347 180.397 160.473 181.381C161.6 182.366 163.043 182.911 164.539 182.916H173.791C175.288 182.913 176.734 182.369 177.863 181.385C178.992 180.4 179.727 179.042 179.934 177.558L183.461 151.75H154.879Z" fill="#093F68"/>
<path d="M91.3124 183.963H100.564C102.318 183.963 104.013 183.327 105.333 182.172C106.654 181.017 107.51 179.422 107.743 177.684L111.427 150.682H80.4492L84.1436 177.684C84.3723 179.422 85.2259 181.018 86.5451 182.174C87.8642 183.329 89.5588 183.965 91.3124 183.963Z" fill="#FFD700"/>
<path d="M100.563 185.01H91.3116C89.3205 184.983 87.404 184.248 85.906 182.936C84.408 181.624 83.4267 179.821 83.1381 177.851L79.4542 150.85C79.4348 150.702 79.4472 150.552 79.4905 150.41C79.5338 150.267 79.6071 150.135 79.7054 150.023C79.8025 149.91 79.9228 149.818 80.0582 149.755C80.1936 149.692 80.3409 149.659 80.4903 149.657H111.395C111.546 149.657 111.695 149.69 111.833 149.753C111.97 149.816 112.092 149.909 112.19 150.023C112.287 150.136 112.358 150.268 112.4 150.411C112.441 150.553 112.452 150.703 112.431 150.85L108.747 177.851C108.458 179.823 107.475 181.627 105.975 182.94C104.475 184.252 102.556 184.986 100.563 185.01ZM81.6415 151.75L85.2312 177.558C85.4356 179.041 86.1688 180.399 87.2958 181.384C88.4227 182.369 89.8675 182.913 91.364 182.916H100.615C102.113 182.913 103.559 182.369 104.688 181.385C105.817 180.4 106.552 179.042 106.759 177.558L110.286 151.75H81.6415Z" fill="#093F68"/>
<path d="M107.344 51.6361H156.113C170.954 51.6361 185.188 57.5318 195.682 68.0261C206.177 78.5205 212.072 92.7539 212.072 107.595V111.373C212.069 123.2 208.32 134.722 201.364 144.286C194.407 153.85 184.6 160.965 173.35 164.611L171.56 177.704C171.327 179.442 170.471 181.037 169.15 182.192C167.83 183.347 166.135 183.983 164.381 183.983H155.129C153.375 183.983 151.68 183.347 150.36 182.192C149.04 181.037 148.183 179.442 147.95 177.704L146.537 167.332H107.344C104.785 167.33 102.228 167.151 99.6936 166.799L98.197 177.704C97.9641 179.441 97.1092 181.034 95.791 182.189C94.4728 183.343 92.7806 183.981 91.0282 183.983H81.7767C80.0224 183.983 78.3277 183.347 77.0073 182.192C75.6869 181.037 74.8305 179.442 74.5973 177.704L71.3949 154.25C65.1189 149.002 60.0735 142.437 56.6156 135.023C53.1577 127.608 51.372 119.523 51.3848 111.342V107.564C51.3932 92.728 57.2925 78.5026 67.786 68.015C78.2794 57.5275 92.5081 51.6361 107.344 51.6361Z" fill="#FFD700"/>
<path d="M164.413 185.009H155.162C153.169 184.985 151.25 184.251 149.75 182.939C148.249 181.627 147.266 179.823 146.978 177.851L145.69 168.432H107.345C105.085 168.428 102.828 168.292 100.584 168.023L99.234 177.903C98.9569 179.884 97.9746 181.698 96.4674 183.013C94.9602 184.328 93.0292 185.055 91.029 185.061H81.7775C79.7792 185.045 77.8526 184.314 76.3459 183.001C74.8392 181.689 73.8518 179.88 73.5621 177.903L70.4225 154.879C64.1255 149.534 59.0681 142.882 55.6017 135.386C52.1352 127.889 50.343 119.727 50.3496 111.468V107.69C50.3413 92.5615 56.3401 78.049 67.0276 67.3419C77.715 56.6348 92.2166 50.6094 107.345 50.59H156.114C171.228 50.6066 185.718 56.6179 196.405 67.3049C207.092 77.9919 213.103 92.4819 213.12 107.596V111.374C213.144 123.311 209.41 134.954 202.447 144.651C195.483 154.347 185.644 161.606 174.324 165.397L172.629 177.851C172.339 179.828 171.351 181.636 169.845 182.949C168.338 184.262 166.412 184.993 164.413 185.009ZM99.6945 165.711H99.8829C102.373 166.053 104.883 166.228 107.397 166.234H146.622C146.877 166.232 147.125 166.323 147.318 166.491C147.51 166.659 147.635 166.891 147.668 167.144L149.092 177.505C149.296 178.988 150.029 180.346 151.156 181.331C152.283 182.316 153.728 182.86 155.224 182.864H164.476C165.974 182.86 167.42 182.316 168.548 181.332C169.677 180.347 170.412 178.989 170.619 177.505L172.409 164.413C172.436 164.219 172.518 164.037 172.643 163.887C172.769 163.737 172.934 163.626 173.12 163.565C184.168 160.003 193.799 153.024 200.623 143.634C207.448 134.244 211.113 122.929 211.089 111.321V107.543C211.059 92.9829 205.253 79.0292 194.947 68.7442C184.64 58.4593 170.674 52.683 156.114 52.6831H107.345C92.7862 52.6997 78.8286 58.4904 68.5341 68.7849C58.2396 79.0794 52.4489 93.037 52.4323 107.596V111.374C52.4279 119.396 54.1838 127.321 57.5761 134.59C60.9685 141.859 65.9146 148.296 72.0655 153.445C72.2616 153.615 72.3914 153.848 72.4319 154.104L75.6343 177.558C75.841 179.041 76.5764 180.4 77.705 181.384C78.8337 182.369 80.2799 182.913 81.7775 182.916H91.029C92.5249 182.91 93.9686 182.365 95.095 181.381C96.2215 180.397 96.9553 179.039 97.1618 177.558L98.6479 166.663C98.6672 166.527 98.7132 166.395 98.7832 166.277C98.8532 166.158 98.946 166.055 99.0561 165.972C99.2332 165.815 99.4582 165.723 99.6945 165.711Z" fill="#093F68"/>
<path d="M182.162 136.345H205.751C213.595 136.345 219.953 129.986 219.953 122.143V120.332C219.953 112.489 213.595 106.131 205.751 106.131H182.162C174.319 106.131 167.96 112.489 167.96 120.332V122.143C167.96 129.986 174.319 136.345 182.162 136.345Z" fill="#FFD700"/>
<path d="M205.752 137.391H182.162C178.12 137.385 174.245 135.777 171.386 132.918C168.528 130.06 166.92 126.185 166.914 122.142V120.332C166.92 116.289 168.528 112.414 171.386 109.556C174.245 106.697 178.12 105.089 182.162 105.084H205.752C209.794 105.089 213.669 106.697 216.528 109.556C219.386 112.414 220.994 116.289 221 120.332V122.142C220.994 126.185 219.386 130.06 216.528 132.918C213.669 135.777 209.794 137.385 205.752 137.391ZM182.162 107.177C178.675 107.182 175.332 108.57 172.866 111.036C170.4 113.502 169.013 116.845 169.007 120.332V122.142C169.013 125.63 170.4 128.972 172.866 131.438C175.332 133.904 178.675 135.292 182.162 135.298H205.752C209.239 135.292 212.582 133.904 215.048 131.438C217.513 128.972 218.901 125.63 218.907 122.142V120.332C218.901 116.845 217.513 113.502 215.048 111.036C212.582 108.57 209.239 107.182 205.752 107.177H182.162Z" fill="#093F68"/>
<path d="M173.475 65.9639C173.475 65.9639 164.056 41.2758 159.19 41.2758C154.323 41.2758 146.977 72.7874 146.977 72.7874" fill="#FFD700"/>
<path d="M146.977 73.8342H146.736C146.599 73.8058 146.469 73.7502 146.354 73.6707C146.239 73.5912 146.141 73.4893 146.066 73.3713C145.991 73.2532 145.94 73.1213 145.917 72.9833C145.894 72.8453 145.898 72.704 145.931 72.5679C145.931 72.4946 147.804 64.5722 150.232 56.744C154.774 42.0923 157.401 40.2504 159.18 40.2504C164.413 40.2504 172.178 59.6639 174.449 65.6083C174.498 65.7368 174.521 65.8736 174.517 66.011C174.513 66.1484 174.482 66.2837 174.425 66.4091C174.369 66.5344 174.288 66.6475 174.188 66.7417C174.088 66.836 173.971 66.9096 173.842 66.9583C173.714 67.0071 173.577 67.0302 173.439 67.0261C173.302 67.022 173.167 66.9909 173.041 66.9345C172.916 66.8781 172.803 66.7976 172.709 66.6976C172.614 66.5975 172.541 66.4799 172.492 66.3513C168.086 54.8393 161.744 42.3435 159.18 42.3435C157.223 42.3435 152.252 54.6823 147.971 73.0493C147.914 73.2708 147.786 73.4675 147.606 73.6092C147.427 73.751 147.206 73.83 146.977 73.8342Z" fill="#093F68"/>
<path d="M202.225 125.596C204.629 125.596 206.578 123.647 206.578 121.243C206.578 118.838 204.629 116.889 202.225 116.889C199.82 116.889 197.871 118.838 197.871 121.243C197.871 123.647 199.82 125.596 202.225 125.596Z" fill="#FFD700"/>
<path d="M202.225 126.643C201.155 126.643 200.108 126.325 199.218 125.73C198.328 125.135 197.635 124.29 197.225 123.3C196.816 122.311 196.71 121.223 196.919 120.173C197.129 119.123 197.645 118.159 198.403 117.403C199.161 116.646 200.126 116.132 201.176 115.924C202.226 115.717 203.314 115.825 204.303 116.237C205.291 116.648 206.136 117.343 206.729 118.234C207.322 119.125 207.638 120.172 207.636 121.243C207.633 122.676 207.062 124.05 206.047 125.062C205.033 126.074 203.658 126.643 202.225 126.643ZM202.225 117.925C201.569 117.925 200.928 118.12 200.382 118.484C199.836 118.849 199.411 119.367 199.16 119.973C198.909 120.579 198.843 121.246 198.971 121.89C199.099 122.534 199.415 123.125 199.879 123.589C200.343 124.053 200.934 124.369 201.578 124.497C202.221 124.625 202.888 124.559 203.495 124.308C204.101 124.057 204.619 123.632 204.984 123.086C205.348 122.54 205.543 121.899 205.543 121.243C205.543 120.807 205.457 120.376 205.29 119.973C205.123 119.571 204.879 119.205 204.571 118.897C204.263 118.589 203.897 118.344 203.495 118.178C203.092 118.011 202.661 117.925 202.225 117.925Z" fill="#093F68"/>
<path d="M185.69 125.596C188.094 125.596 190.043 123.647 190.043 121.243C190.043 118.838 188.094 116.889 185.69 116.889C183.285 116.889 181.336 118.838 181.336 121.243C181.336 123.647 183.285 125.596 185.69 125.596Z" fill="#FFD700"/>
<path d="M185.698 126.643C184.627 126.645 183.58 126.329 182.689 125.735C181.797 125.142 181.102 124.297 180.691 123.308C180.28 122.319 180.172 121.23 180.381 120.179C180.589 119.129 181.105 118.164 181.862 117.406C182.619 116.649 183.584 116.134 184.635 115.925C185.686 115.717 186.774 115.825 187.763 116.236C188.752 116.646 189.597 117.341 190.191 118.233C190.785 119.124 191.101 120.172 191.099 121.243C191.096 122.674 190.526 124.046 189.514 125.058C188.502 126.07 187.13 126.64 185.698 126.643ZM185.698 117.925C185.042 117.923 184.399 118.116 183.852 118.479C183.306 118.843 182.879 119.36 182.626 119.966C182.373 120.572 182.306 121.239 182.433 121.884C182.56 122.528 182.875 123.12 183.338 123.585C183.802 124.05 184.393 124.367 185.037 124.496C185.681 124.625 186.348 124.56 186.955 124.309C187.562 124.058 188.081 123.633 188.446 123.087C188.811 122.541 189.006 121.899 189.006 121.243C189.006 120.365 188.657 119.522 188.038 118.901C187.418 118.279 186.577 117.928 185.698 117.925Z" fill="#093F68"/>
<path d="M94.4824 59.7578C94.4824 60.4823 94.7702 61.177 95.2825 61.6893C95.7947 62.2015 96.4895 62.4893 97.2139 62.4893H138.668C139.026 62.4893 139.381 62.4186 139.712 62.2812C140.042 62.1438 140.343 61.9424 140.596 61.6886C140.848 61.4349 141.049 61.1337 141.185 60.8023C141.321 60.471 141.39 60.116 141.389 59.7578C141.39 59.4018 141.32 59.0492 141.183 58.7205C141.047 58.3917 140.846 58.0933 140.593 57.8426C140.13 57.3762 139.512 57.0936 138.856 57.0472H96.9942C96.3112 57.0999 95.6732 57.4083 95.2076 57.9108C94.742 58.4132 94.483 59.0728 94.4824 59.7578Z" fill="#093F68"/>
<path d="M138.667 63.5363H97.2132C96.2139 63.571 95.2419 63.2073 94.5108 62.5253C93.7797 61.8432 93.3495 60.8987 93.3148 59.8995C93.2801 58.9003 93.6437 57.9282 94.3258 57.1971C95.0078 56.466 95.9523 56.0358 96.9515 56.0011H138.667H139.002C139.878 56.055 140.704 56.4272 141.325 57.0476C141.678 57.3946 141.958 57.8084 142.148 58.2649C142.339 58.7214 142.436 59.2113 142.435 59.7059C142.442 60.2055 142.349 60.7016 142.163 61.1653C141.977 61.6291 141.701 62.0513 141.35 62.4076C141 62.7638 140.582 63.047 140.122 63.2407C139.661 63.4345 139.167 63.5349 138.667 63.5363ZM97.2132 58.0837H97.0876C96.6435 58.1004 96.2242 58.2928 95.9219 58.6186C95.6197 58.9444 95.4592 59.3769 95.4759 59.821C95.4925 60.2651 95.6849 60.6844 96.0107 60.9867C96.3365 61.2889 96.7691 61.4494 97.2132 61.4327H138.667C139.111 61.448 139.543 61.2862 139.868 60.983C140.193 60.6797 140.384 60.2599 140.399 59.8158C140.414 59.3717 140.253 58.9397 139.949 58.6149C139.646 58.2901 139.226 58.099 138.782 58.0837H97.2132Z" fill="#093F68"/>
<path d="M200.048 98.5429C201.25 98.5429 202.225 96.5046 202.225 93.9904C202.225 91.4761 201.25 89.4379 200.048 89.4379C198.846 89.4379 197.871 91.4761 197.871 93.9904C197.871 96.5046 198.846 98.5429 200.048 98.5429Z" fill="#093F68"/>
<path d="M181.335 98.5429C182.537 98.5429 183.512 96.5046 183.512 93.9904C183.512 91.4761 182.537 89.4379 181.335 89.4379C180.133 89.4379 179.158 91.4761 179.158 93.9904C179.158 96.5046 180.133 98.5429 181.335 98.5429Z" fill="#093F68"/>
<path d="M58.9946 118.846C58.7483 118.85 58.5083 118.768 58.3168 118.613C58.1254 118.458 57.9948 118.24 57.948 117.998C52.3176 88.0145 75.3103 72.0755 75.551 71.9499C75.7805 71.7975 76.0608 71.7416 76.3312 71.7945C76.6016 71.8474 76.8402 72.0048 76.9953 72.2325C77.1521 72.4615 77.2115 72.7434 77.1604 73.0162C77.1094 73.289 76.9521 73.5304 76.7231 73.6872C76.5034 73.8337 54.6305 89.0401 59.9783 117.642C60.0273 117.914 59.9667 118.194 59.8099 118.422C59.653 118.649 59.4126 118.805 59.1411 118.856L58.9946 118.846Z" fill="white"/>
<path d="M143.764 38.858C154.174 38.858 162.613 30.4193 162.613 20.0096C162.613 9.59996 154.174 1.16125 143.764 1.16125C133.355 1.16125 124.916 9.59996 124.916 20.0096C124.916 30.4193 133.355 38.858 143.764 38.858Z" fill="white"/>
<path d="M143.753 39.9155C138.794 39.9273 134.009 38.0924 130.328 34.7685C126.648 31.4445 124.337 26.8694 123.846 21.9348C123.355 17.0001 124.719 12.0593 127.671 8.07505C130.624 4.09078 134.954 1.34846 139.818 0.382407C144.682 -0.583647 149.731 0.29577 153.983 2.84931C158.234 5.40285 161.382 9.44759 162.814 14.1954C164.245 18.9433 163.858 24.0542 161.728 28.5322C159.597 33.0103 155.876 36.5347 151.289 38.4189C148.898 39.4028 146.339 39.9112 143.753 39.9155ZM143.753 2.23961C140.253 2.24772 136.832 3.28347 133.915 5.21834C130.997 7.15321 128.713 9.90203 127.344 13.1237C125.87 16.6471 125.569 20.5513 126.485 24.2589C127.402 27.9665 129.487 31.2807 132.433 33.7115C135.379 36.1424 139.029 37.5608 142.843 37.757C146.657 37.9532 150.433 36.9168 153.613 34.8011C156.792 32.6854 159.207 29.6027 160.499 26.0087C161.791 22.4148 161.893 18.5004 160.788 14.8443C159.684 11.1883 157.432 7.98468 154.366 5.7072C151.3 3.42972 147.583 2.19925 143.764 2.19775L143.753 2.23961Z" fill="#093F68"/>
<path d="M139.515 5.81909C139.892 6.72959 140.279 7.62962 140.645 8.54012C140.718 8.71804 140.802 8.74943 140.99 8.71804C142.426 8.41212 143.915 8.46967 145.323 8.88549C146.809 9.32454 148.08 10.2974 148.892 11.617C149.112 11.9728 149.311 12.3496 149.53 12.7368L145.344 14.495C145.073 13.8652 144.597 13.3452 143.994 13.0194C143.492 12.8172 142.978 12.6459 142.456 12.5066V12.6007L144.653 17.8335L145.145 17.7498C146.377 17.4952 147.635 17.3863 148.892 17.4253C149.818 17.4579 150.718 17.7358 151.502 18.2304C152.285 18.725 152.923 19.4187 153.35 20.2406C154.176 21.609 154.496 23.2239 154.253 24.8038C154.01 26.3836 153.22 27.828 152.021 28.8851C151.362 29.4816 150.619 29.9944 149.928 30.57L150.786 32.6631L146.914 34.2853L146.035 32.1922C145.166 32.3073 144.35 32.4643 143.523 32.5166C141.927 32.6581 140.33 32.2561 138.992 31.3759C137.867 30.5986 136.997 29.5063 136.49 28.2362L140.677 26.4989C141.002 27.2065 141.551 27.7869 142.24 28.1502C142.929 28.5135 143.718 28.6394 144.486 28.5083C143.705 26.6245 142.92 24.7512 142.131 22.8883C141.252 22.993 140.373 23.1081 139.494 23.1918C138.435 23.3375 137.356 23.2189 136.354 22.8465C135.344 22.4236 134.493 21.6907 133.926 20.7534C133.18 19.6551 132.745 18.3745 132.67 17.0486C132.622 16.0927 132.785 15.1378 133.146 14.2516C133.508 13.3655 134.06 12.5696 134.764 11.9205C135.355 11.4116 135.977 10.9398 136.626 10.5076C136.7 10.4505 136.777 10.3981 136.857 10.3507L135.674 7.52497L139.515 5.81909ZM148.316 26.7501C148.927 26.4062 149.422 25.8891 149.74 25.264C150.009 24.7249 150.068 24.1049 149.905 23.5247C149.743 22.9444 149.371 22.4453 148.861 22.1244C148.043 21.8126 147.156 21.7329 146.297 21.8941L148.316 26.7501ZM138.332 13.8566C137.906 14.2853 137.514 14.7473 137.16 15.2381C136.99 15.5139 136.882 15.8234 136.843 16.1451C136.804 16.4669 136.835 16.7933 136.935 17.1017C137.034 17.4102 137.199 17.6934 137.419 17.9318C137.639 18.1701 137.907 18.358 138.207 18.4824C138.892 18.6525 139.607 18.6703 140.3 18.5347L138.332 13.8566Z" fill="#FF9D00"/>
<path d="M135.235 60.3125C135.543 59.6307 135.812 58.9318 136.041 58.2194C136.326 57.316 136.543 56.3924 136.69 55.4565C136.846 54.4806 136.923 53.4936 136.92 52.5053C136.92 47.5091 134.935 42.7177 131.402 39.1849C127.87 35.6521 123.078 33.6674 118.082 33.6674C113.086 33.6674 108.294 35.6521 104.762 39.1849C101.229 42.7177 99.2442 47.5091 99.2442 52.5053C99.2429 53.4932 99.3164 54.4797 99.4639 55.4565C99.6143 56.3927 99.8347 57.3163 100.123 58.2194C100.344 58.9333 100.609 59.6324 100.919 60.3125" fill="white"/>
<path d="M135.236 61.3593C135.092 61.3604 134.949 61.3319 134.817 61.2755C134.691 61.2199 134.577 61.1401 134.483 61.0406C134.388 60.941 134.313 60.8237 134.264 60.6954C134.214 60.5671 134.19 60.4303 134.194 60.2928C134.197 60.1553 134.227 60.0198 134.283 59.8941C134.572 59.2531 134.823 58.5962 135.037 57.9266C135.314 57.0729 135.521 56.1978 135.654 55.3102C135.802 54.3896 135.875 53.4587 135.874 52.5264C135.854 50.0843 135.331 47.6725 134.339 45.4411C133.346 43.2098 131.905 41.2067 130.105 39.5565C128.304 37.9064 126.184 36.6446 123.874 35.8496C121.565 35.0547 119.117 34.7437 116.683 34.9359C114.248 35.1282 111.879 35.8196 109.723 36.9672C107.568 38.1147 105.671 39.6938 104.152 41.606C102.633 43.5183 101.524 45.7228 100.894 48.0823C100.264 50.4418 100.127 52.9057 100.49 55.3207C100.635 56.2027 100.841 57.0734 101.108 57.9266C101.324 58.5952 101.576 59.2519 101.861 59.8941C101.932 60.021 101.975 60.1613 101.989 60.3059C102.002 60.4506 101.985 60.5964 101.939 60.7342C101.893 60.872 101.819 60.9987 101.721 61.1063C101.624 61.2138 101.505 61.2999 101.372 61.3589C101.239 61.418 101.096 61.4488 100.95 61.4493C100.805 61.4499 100.661 61.4202 100.528 61.3621C100.395 61.3041 100.275 61.219 100.177 61.1122C100.079 61.0054 100.003 60.8792 99.9563 60.7418C99.6306 60.0301 99.3476 59.2998 99.1086 58.5545C98.8116 57.6018 98.5808 56.6296 98.4179 55.6451C98.2606 54.606 98.1836 53.5564 98.1877 52.5054C98.1877 47.2317 100.283 42.1741 104.012 38.445C107.741 34.7159 112.798 32.621 118.072 32.621C123.346 32.621 128.403 34.7159 132.133 38.445C135.862 42.1741 137.957 47.2317 137.957 52.5054C137.958 53.5567 137.878 54.6064 137.716 55.6451C137.559 56.6343 137.328 57.6104 137.025 58.565C136.785 59.3085 136.506 60.0387 136.188 60.7523C136.104 60.9339 135.969 61.0877 135.801 61.1952C135.632 61.3028 135.436 61.3598 135.236 61.3593Z" fill="#093F68"/>
<path d="M127.356 56.639C127.312 56.2407 127.228 55.8479 127.104 55.4669C126.882 54.7703 126.513 54.1295 126.022 53.5879C125.531 53.0462 124.929 52.6163 124.258 52.3273C123.114 51.808 121.912 51.4251 120.679 51.1865L120.187 51.0714V45.3572L120.27 45.2944C120.696 45.6184 121.101 45.9679 121.484 46.341C121.921 46.8722 122.161 47.5374 122.165 48.2248H126.728C126.665 47.7852 126.633 47.3666 126.571 46.948C126.332 45.4147 125.534 44.0242 124.331 43.0444C123.192 42.1228 121.844 41.494 120.406 41.2129C120.218 41.2129 120.166 41.1187 120.166 40.9199V38.0314H115.98V41.0873H115.707C114.94 41.243 114.182 41.4421 113.436 41.6838C112.533 42.0011 111.712 42.5149 111.031 43.1882C110.351 43.8614 109.828 44.6773 109.501 45.577C109.048 46.8306 108.95 48.1853 109.219 49.4911C109.396 50.5598 109.901 51.5471 110.663 52.3168C111.444 53.0399 112.389 53.564 113.416 53.8448C114.253 54.1064 115.111 54.3366 115.959 54.5773V60.2706H120.145V55.5088C120.997 55.6952 121.783 56.1114 122.416 56.7123C122.743 57.1347 122.897 57.6664 122.845 58.1984C122.831 58.5246 122.751 58.8446 122.611 59.1394C122.471 59.4342 122.273 59.6979 122.029 59.9148C121.868 60.0524 121.692 60.1717 121.505 60.2706H126.874C127.163 59.6079 127.334 58.8993 127.376 58.1775C127.422 57.6653 127.415 57.1498 127.356 56.639ZM114.096 49.2085C113.862 48.9798 113.681 48.7026 113.566 48.3965C113.45 48.0903 113.403 47.7626 113.428 47.4364C113.453 47.1102 113.549 46.7934 113.71 46.5083C113.87 46.2233 114.091 45.9768 114.357 45.7863C114.87 45.4782 115.406 45.2088 115.959 44.9805V50.0458C115.285 49.9016 114.651 49.6162 114.096 49.2085ZM113.374 58.2403C113.294 57.963 113.238 57.6794 113.206 57.3926H108.727C108.711 57.6749 108.711 57.9579 108.727 58.2403C108.786 58.9607 108.959 59.6671 109.24 60.3334H114.912C114.526 60.1078 114.191 59.8058 113.927 59.4458C113.662 59.0859 113.474 58.6756 113.374 58.2403Z" fill="#FF9D00"/>
<path d="M196.177 183.963H232.304C233.523 183.963 234.512 182.974 234.512 181.754V175.674C234.512 174.454 233.523 173.466 232.304 173.466H196.177C194.957 173.466 193.968 174.454 193.968 175.674V181.754C193.968 182.974 194.957 183.963 196.177 183.963Z" fill="white"/>
<path d="M232.292 185.01H196.165C195.302 185.01 194.474 184.667 193.863 184.056C193.253 183.446 192.91 182.618 192.91 181.755V175.674C192.913 174.812 193.257 173.986 193.866 173.376C194.476 172.766 195.303 172.422 196.165 172.42H232.292C233.156 172.42 233.985 172.762 234.597 173.372C235.209 173.982 235.554 174.81 235.557 175.674V181.755C235.554 182.619 235.209 183.447 234.597 184.057C233.985 184.667 233.156 185.01 232.292 185.01ZM196.165 174.544C196.012 174.544 195.861 174.574 195.72 174.632C195.579 174.691 195.451 174.776 195.343 174.884C195.236 174.992 195.15 175.12 195.092 175.261C195.033 175.402 195.003 175.553 195.003 175.706V181.786C195.003 182.094 195.126 182.39 195.343 182.608C195.561 182.825 195.857 182.948 196.165 182.948H232.292C232.601 182.948 232.897 182.826 233.117 182.608C233.336 182.391 233.461 182.095 233.464 181.786V175.706C233.461 175.397 233.336 175.101 233.117 174.884C232.897 174.666 232.601 174.544 232.292 174.544H196.165Z" fill="#093F68"/>
<path d="M201.827 173.466H237.954C239.173 173.466 240.162 172.477 240.162 171.257V165.177C240.162 163.957 239.173 162.969 237.954 162.969H201.827C200.607 162.969 199.619 163.957 199.619 165.177V171.257C199.619 172.477 200.607 173.466 201.827 173.466Z" fill="white"/>
<path d="M237.955 174.512H201.828C200.964 174.512 200.135 174.169 199.523 173.559C198.911 172.949 198.565 172.121 198.562 171.257V165.177C198.565 164.313 198.911 163.485 199.523 162.875C200.135 162.265 200.964 161.922 201.828 161.922H237.955C238.817 161.925 239.643 162.269 240.253 162.878C240.863 163.488 241.207 164.314 241.209 165.177V171.257C241.207 172.12 240.863 172.946 240.253 173.556C239.643 174.165 238.817 174.509 237.955 174.512ZM201.828 164.046C201.519 164.046 201.222 164.169 201.003 164.386C200.783 164.604 200.658 164.899 200.656 165.208V171.289C200.658 171.598 200.783 171.893 201.003 172.111C201.222 172.328 201.519 172.45 201.828 172.45H237.955C238.261 172.439 238.55 172.308 238.76 172.084C238.97 171.861 239.083 171.564 239.074 171.257V165.177C239.074 164.869 238.952 164.573 238.734 164.355C238.516 164.137 238.221 164.015 237.913 164.015L201.828 164.046Z" fill="#093F68"/>
<path d="M248.953 185.009H1.04655C0.768988 185.009 0.502793 184.898 0.306527 184.702C0.11026 184.506 0 184.24 0 183.962C0 183.685 0.11026 183.418 0.306527 183.222C0.502793 183.026 0.768988 182.916 1.04655 182.916H248.953C249.231 182.916 249.497 183.026 249.693 183.222C249.89 183.418 250 183.685 250 183.962C250 184.24 249.89 184.506 249.693 184.702C249.497 184.898 249.231 185.009 248.953 185.009Z" fill="#093F68"/>
</svg>
