<svg width="250" height="208" viewBox="0 0 250 208" fill="none" xmlns="http://www.w3.org/2000/svg">
<path d="M31.957 87.1086L120.18 31.3684L208.404 87.1086V168.435H31.957V87.1086Z" fill="#E6E7E8"/>
<path d="M208.404 168.844H31.9575C31.8491 168.844 31.7452 168.801 31.6686 168.724C31.592 168.647 31.5489 168.543 31.5489 168.435V87.1087C31.5475 87.0401 31.5641 86.9722 31.597 86.912C31.63 86.8518 31.6782 86.8013 31.7369 86.7655L119.96 31.058C120.025 31.0183 120.1 30.9973 120.177 30.9973C120.253 30.9973 120.328 31.0183 120.393 31.058L208.649 86.8064C208.709 86.8417 208.758 86.8919 208.793 86.9521C208.827 87.0122 208.845 87.0803 208.845 87.1496V168.476C208.835 168.583 208.783 168.682 208.7 168.75C208.618 168.819 208.511 168.853 208.404 168.844ZM32.3416 168.026H208.036V87.3375L120.181 31.8752L32.3416 87.3375V168.026Z" fill="#231F20"/>
<path d="M141.673 65.2166C144.607 60.3707 145.35 54.4788 145.081 48.8239C144.885 42.637 143.254 36.5804 140.316 31.1318C139.123 28.792 137.372 26.7823 135.217 25.2808C132.569 23.6464 130.763 24.7496 128.173 24.3083C125.983 23.9324 123.695 22.3716 121.268 21.9712C115.669 21.0139 109.915 22.2172 105.169 25.338C96.8666 30.952 93.034 41.6817 84.4536 46.8953C76.0448 51.9782 65.2824 50.4501 55.8521 53.2612C51.8716 54.4542 48.1628 56.414 44.9345 59.0305C42.7043 60.7379 40.8793 62.9173 39.5901 65.4127C37.3756 70.038 37.9558 75.5458 39.5901 80.4244C41.2245 85.4419 43.9866 90.2307 48.2686 93.3441C51.8561 95.9346 56.2607 97.1277 60.6163 97.9122C66.5409 98.9827 72.678 99.3831 78.5944 98.1001C82.9609 97.2189 87.0307 95.2389 90.4191 92.3472C91.8736 91.0478 92.6745 89.2745 94.031 87.9834C95.9024 86.2101 98.8197 85.1232 101.01 83.7667C104.434 81.6339 107.866 79.3621 111.772 78.3488C121.693 75.7665 135.691 75.0637 141.673 65.2166Z" fill="white"/>
<path d="M70.6922 99.3092C67.2807 99.2801 63.8786 98.9464 60.5264 98.3122C56.751 97.6339 51.9215 96.4899 48.0235 93.6869C44.1255 90.884 41.0938 86.3322 39.2143 80.6119C37.8741 76.526 36.7627 70.5034 39.2715 65.3224C40.5715 62.7621 42.4317 60.5276 44.7139 58.7849C47.9778 56.138 51.7284 54.1558 55.7541 52.9502C59.5639 51.9439 63.4552 51.2767 67.3826 50.9563C73.4788 50.2862 79.24 49.6488 84.2575 46.617C88.6376 43.9694 91.8328 39.7527 94.9299 35.6749C97.8636 31.8096 100.904 27.8136 104.957 25.0515C109.771 21.8723 115.611 20.637 121.301 21.5948C122.602 21.8699 123.864 22.3035 125.06 22.886C126.077 23.3617 127.143 23.7261 128.238 23.9728C129.067 24.0887 129.906 24.1079 130.739 24.03C132.363 23.796 134.017 24.1402 135.413 25.0025C137.628 26.5256 139.426 28.5793 140.643 30.9761C143.62 36.4733 145.269 42.5911 145.457 48.8398C145.775 55.5407 144.639 61.0976 141.992 65.4368C137.089 73.4616 127.053 75.5127 118.179 77.3269C115.94 77.7845 113.831 78.2094 111.862 78.7243C108.34 79.6313 105.153 81.6253 102.056 83.5538L101.239 84.085C100.421 84.5671 99.6042 85.0166 98.7462 85.4579C97.1523 86.1875 95.6651 87.1305 94.3252 88.2608C93.7189 88.8814 93.1717 89.5571 92.6909 90.2793C92.1222 91.1356 91.4588 91.925 90.7133 92.6328C87.2725 95.6029 83.1237 97.635 78.668 98.5328C76.0453 99.0796 73.3711 99.3399 70.6922 99.3092ZM117.541 22.0688C113.216 22.0462 108.982 23.3153 105.382 25.7134C101.418 28.3856 98.4275 32.3326 95.5265 36.1489C92.3885 40.2839 89.1443 44.5659 84.6416 47.279C79.4851 50.4006 73.3726 51.0707 67.4807 51.7244C63.6001 52.0352 59.755 52.6915 55.9911 53.6857C52.0569 54.8709 48.3925 56.8142 45.2042 59.406C43.0115 61.0729 41.2191 63.2088 39.9579 65.6575C37.5881 70.6096 38.6422 76.4034 39.9579 80.3668C41.7884 85.9972 44.7384 90.3937 48.4893 93.0985C52.2402 95.8034 56.9962 96.9393 60.6899 97.6094C67.5706 98.8434 73.3889 98.9087 78.4963 97.7974C82.8241 96.9288 86.8547 94.9586 90.1984 92.0771C90.9033 91.4054 91.531 90.6571 92.0698 89.8461C92.5806 89.0838 93.1635 88.3723 93.8104 87.7215C95.2001 86.5407 96.7454 85.5563 98.403 84.7959C99.2774 84.3465 100.095 83.9216 100.855 83.4558L101.721 82.9164C104.851 80.9633 108.087 78.9367 111.723 78.0133C113.717 77.4985 115.809 77.0654 118.073 76.6077C126.808 74.8344 136.696 72.816 141.403 65.0691C143.937 60.8851 145.064 55.4426 144.754 48.8888C144.574 42.7576 142.959 36.754 140.039 31.3602C138.882 29.0709 137.175 27.1051 135.07 25.6399C133.8 24.8682 132.295 24.5782 130.829 24.8227C129.938 24.8985 129.042 24.8738 128.157 24.7492C127.006 24.4974 125.888 24.1164 124.823 23.6133C123.687 23.0724 122.491 22.6691 121.26 22.412C120.032 22.1932 118.788 22.0784 117.541 22.0688Z" fill="#231F20"/>
<path d="M175.013 57.2079L170.715 73.3882L181.069 75.235L186.969 53.6204C186.969 53.6204 177.767 46.5763 176.345 46.5273C174.923 46.4782 175.013 57.2079 175.013 57.2079Z" fill="white"/>
<path d="M181.07 75.6439H180.996L170.659 73.8216C170.603 73.8123 170.55 73.7913 170.503 73.7599C170.456 73.7286 170.416 73.6876 170.386 73.6398C170.356 73.5919 170.336 73.5382 170.328 73.4822C170.32 73.4262 170.324 73.3692 170.34 73.3149L174.606 57.2082C174.606 55.4757 174.606 47.5327 175.815 46.3641C175.884 46.2909 175.968 46.2333 176.061 46.1953C176.154 46.1572 176.254 46.1395 176.355 46.1435C177.817 46.1925 185.646 52.1335 187.207 53.3184C187.271 53.3684 187.319 53.436 187.345 53.5129C187.371 53.5899 187.374 53.6728 187.354 53.7515L181.446 75.366C181.42 75.4459 181.37 75.5156 181.302 75.5655C181.235 75.6153 181.154 75.6428 181.07 75.6439ZM171.264 73.0861L180.792 74.7695L186.512 53.776C182.091 50.4092 177.139 46.9607 176.355 46.9362C175.774 47.3693 175.415 52.6565 175.448 57.2327C175.452 57.268 175.452 57.3037 175.448 57.3389L171.264 73.0861Z" fill="#231F20"/>
<path d="M163.826 46.6253C163.826 46.6253 165.289 49.8941 167.397 50.4252C169.506 50.9564 174.09 48.6928 174.621 48.987C175.152 49.2812 187.247 58.3356 188.423 58.6053C189.6 58.8749 191.766 56.023 192.689 52.6316C192.689 52.6316 180.922 44.6069 180.154 43.757C179.385 42.9071 178.47 37.8242 177.326 35.9611L163.826 46.6253Z" fill="white"/>
<path d="M188.546 59.0388C188.461 59.0468 188.377 59.0468 188.292 59.0388C187.557 58.859 183.7 56.1215 177.285 51.439C175.838 50.3767 174.58 49.4696 174.425 49.3715C174.269 49.2735 173.444 49.6657 172.79 49.8945C171.082 50.4584 168.745 51.2347 167.323 50.8588C165.052 50.2541 163.548 46.9608 163.483 46.8219C163.443 46.7406 163.433 46.6483 163.454 46.5605C163.475 46.4726 163.525 46.3947 163.597 46.3398L177.072 35.7164C177.118 35.6812 177.171 35.6558 177.227 35.6417C177.284 35.6277 177.342 35.6253 177.399 35.6346C177.513 35.6583 177.613 35.7258 177.677 35.8226C178.386 37.2757 178.934 38.802 179.311 40.3743C179.557 41.4758 179.936 42.5433 180.439 43.5532C180.978 44.1497 188.186 49.1509 192.901 52.3706C192.973 52.4166 193.027 52.4844 193.056 52.564C193.086 52.6436 193.089 52.7305 193.065 52.8119C192.223 55.7864 190.139 59.0388 188.546 59.0388ZM174.482 48.5543C174.598 48.5497 174.713 48.5751 174.817 48.6279C174.989 48.7178 175.847 49.347 177.767 50.7444C181.036 53.1061 187.712 58.0092 188.48 58.2135C189.248 58.4178 191.193 56.1623 192.182 52.8037C190.196 51.4553 180.554 44.8525 179.818 44.0271C179.401 43.5695 179.05 42.3928 178.502 40.5296C178.154 39.1835 177.709 37.8644 177.17 36.5826L164.332 46.7402C164.733 47.5083 165.967 49.6249 167.495 50.0089C168.688 50.3195 170.984 49.5595 172.496 49.061C173.133 48.8062 173.801 48.6359 174.482 48.5543Z" fill="#231F20"/>
<path d="M176.689 39.0093C176.593 39.8732 176.755 40.7464 177.155 41.5181C177.817 42.703 180.751 44.2802 180.751 44.2802L182.794 40.1942L178.789 37.3014L176.689 39.0093Z" fill="#231F20"/>
<path d="M180.75 44.6882C180.684 44.6886 180.62 44.6717 180.562 44.6392C180.244 44.4758 177.498 42.964 176.803 41.7137C176.36 40.865 176.18 39.903 176.288 38.9516C176.301 38.8525 176.35 38.7619 176.427 38.6983L178.527 36.9658C178.6 36.9088 178.689 36.8778 178.781 36.8778C178.873 36.8778 178.962 36.9088 179.034 36.9658L183.03 39.8587C183.108 39.9145 183.163 39.9957 183.187 40.0883C183.211 40.1809 183.202 40.2789 183.161 40.3653L181.118 44.4512C181.093 44.5 181.058 44.5432 181.016 44.5783C180.974 44.6134 180.925 44.6397 180.873 44.6555C180.835 44.6745 180.793 44.6856 180.75 44.6882ZM177.081 39.2294C177.031 39.9533 177.181 40.677 177.514 41.3214C177.939 42.1386 179.631 43.1764 180.579 43.7239L182.27 40.3081L178.805 37.7993L177.081 39.2294Z" fill="#231F20"/>
<path d="M189.503 50.466C189.503 50.466 190.573 47.091 188.686 46.854C188.668 46.557 188.575 46.2694 188.414 46.0189C188.254 45.7684 188.032 45.5635 187.769 45.4239C187.506 45.2844 187.212 45.2148 186.914 45.222C186.617 45.2291 186.326 45.3127 186.071 45.4648C186.071 45.4648 185.466 42.9561 183.488 43.4627C181.511 43.9694 179.942 48.7009 180.219 49.894C180.497 51.0871 182.034 50.3598 182.81 49.2402C182.81 49.2402 181.805 51.1034 182.475 51.5937C183.456 52.3128 184.485 51.038 185.319 50.1064C185.319 50.1064 184.085 52.2883 185.899 52.4844C187.296 52.6397 188.596 49.8204 188.596 49.8204L189.503 50.466Z" fill="white"/>
<path d="M185.973 52.9015H185.817C185.459 52.9015 185.115 52.7597 184.861 52.5071C184.607 52.2545 184.463 51.9115 184.461 51.5532C183.783 52.1497 182.998 52.5256 182.189 51.9291C182.014 51.7712 181.886 51.5672 181.821 51.3403C181.756 51.1135 181.756 50.8729 181.821 50.6461C181.468 50.867 181.049 50.9567 180.636 50.8994C180.417 50.8559 180.217 50.7452 180.063 50.5827C179.909 50.4201 179.81 50.2138 179.778 49.9923C179.476 48.6113 181.102 43.6592 183.358 43.079C183.638 42.9953 183.932 42.971 184.222 43.0076C184.512 43.0442 184.791 43.1409 185.041 43.2914C185.622 43.6903 186.062 44.2622 186.3 44.9258C186.564 44.8295 186.846 44.7885 187.127 44.8054C187.408 44.8223 187.683 44.8966 187.934 45.0239C188.459 45.3653 188.833 45.8945 188.98 46.503C189.335 46.6059 189.641 46.8356 189.838 47.1485C190.565 48.2844 189.936 50.3519 189.838 50.5889C189.821 50.65 189.788 50.7059 189.744 50.7516C189.7 50.7972 189.645 50.8312 189.585 50.8504C189.524 50.8712 189.459 50.8776 189.395 50.8691C189.331 50.8605 189.27 50.8374 189.217 50.8014L188.661 50.4173C188.269 51.2508 187.223 52.9015 185.973 52.9015ZM185.278 49.6982C185.367 49.6963 185.453 49.7251 185.523 49.7799C185.603 49.8401 185.658 49.9268 185.679 50.0243C185.7 50.1217 185.685 50.2235 185.638 50.311C185.458 50.6297 185.147 51.4142 185.343 51.7983C185.343 51.8555 185.458 52.0353 185.907 52.0843C186.724 52.1742 187.803 50.45 188.187 49.6328C188.213 49.5796 188.249 49.5324 188.294 49.4944C188.339 49.4564 188.392 49.4283 188.449 49.4121C188.506 49.3946 188.567 49.3907 188.627 49.4006C188.687 49.4105 188.743 49.4341 188.792 49.4693L189.25 49.788C189.47 49.0619 189.444 48.2834 189.176 47.5735C189.113 47.4798 189.029 47.4016 188.932 47.345C188.834 47.2883 188.725 47.2547 188.612 47.2466C188.524 47.2335 188.442 47.1923 188.378 47.129C188.315 47.0657 188.274 46.9837 188.261 46.8952C188.19 46.4282 187.937 46.0082 187.558 45.7266C187.341 45.6397 187.106 45.6033 186.873 45.6203C186.639 45.6373 186.412 45.7072 186.21 45.8247C186.156 45.8491 186.097 45.8617 186.038 45.8617C185.979 45.8617 185.92 45.8491 185.866 45.8247C185.813 45.7979 185.765 45.76 185.727 45.7135C185.689 45.667 185.661 45.613 185.646 45.555C185.491 44.9257 185.128 44.367 184.616 43.9697C184.458 43.879 184.282 43.822 184.101 43.8023C183.92 43.7826 183.736 43.8007 183.562 43.8553C181.821 44.2966 180.359 48.7584 180.579 49.7962C180.636 50.0495 180.743 50.0741 180.8 50.0822C181.137 50.0365 181.459 49.9149 181.742 49.7267C182.025 49.5384 182.262 49.2884 182.434 48.9954C182.494 48.9103 182.584 48.8511 182.685 48.8298C182.787 48.8086 182.893 48.8268 182.982 48.881C183.069 48.9367 183.132 49.0227 183.159 49.1223C183.186 49.222 183.176 49.3282 183.129 49.4203C182.712 50.2375 182.483 51.1201 182.671 51.259C183.243 51.6757 183.922 51.0057 184.804 50.025L184.976 49.8289C185.015 49.7877 185.061 49.7549 185.113 49.7324C185.165 49.7099 185.221 49.6983 185.278 49.6982Z" fill="#231F20"/>
<path d="M180.767 40.3414C180.767 40.3414 179.648 38.3965 178.471 40.1044C177.294 41.8123 175.88 45.0075 177.842 45.3507C179.803 45.6939 181.274 42.0329 180.767 40.3414Z" fill="white"/>
<path d="M178.094 45.7678C177.988 45.7759 177.881 45.7759 177.775 45.7678C177.519 45.7369 177.275 45.6391 177.069 45.4841C176.862 45.3292 176.7 45.1226 176.599 44.8852C176.027 43.5205 177.293 41.0935 178.135 39.884C178.275 39.6262 178.48 39.4093 178.729 39.2546C178.978 39.0999 179.264 39.0126 179.557 39.0015C180.456 39.0423 181.052 40.0393 181.118 40.1455L181.158 40.2354C181.293 41.0508 181.25 41.8858 181.031 42.6829C180.813 43.4799 180.424 44.2201 179.892 44.8525C179.674 45.1239 179.401 45.3458 179.091 45.5036C178.781 45.6614 178.441 45.7515 178.094 45.7678ZM179.5 39.7941C179.23 39.7941 178.968 40.0801 178.805 40.3171C177.816 41.7472 177.007 43.7166 177.35 44.542C177.399 44.6515 177.476 44.7459 177.574 44.8149C177.672 44.884 177.787 44.9252 177.906 44.9342C178.171 44.9507 178.435 44.9002 178.675 44.7874C178.915 44.6745 179.123 44.503 179.279 44.2887C179.714 43.7651 180.037 43.1575 180.227 42.5037C180.416 41.8499 180.469 41.1639 180.382 40.4887C180.251 40.2763 179.884 39.8105 179.516 39.7941H179.5Z" fill="#231F20"/>
<path d="M175.005 58.3031C175.005 58.3031 173.714 52.1333 173.591 51.0301C173.387 49.1588 173.828 46.2332 175.471 45.7756C177.113 45.318 180.873 44.8849 180.251 46.5356C179.688 48.0392 176.394 48.3252 176.394 48.3252C176.394 48.3252 178.666 50.6134 178.323 52.8933" fill="white"/>
<path d="M175.005 58.7118C174.912 58.7122 174.822 58.6809 174.749 58.6229C174.676 58.565 174.625 58.4839 174.605 58.3931C174.556 58.1398 173.314 52.1825 173.191 51.0384C172.979 49.1262 173.387 45.8984 175.365 45.3182C176.395 45.0321 179.541 44.4438 180.464 45.4489C180.603 45.6041 180.694 45.7969 180.725 46.0033C180.755 46.2096 180.724 46.4204 180.636 46.6093C180.17 47.8678 178.29 48.3663 177.204 48.5624C177.89 49.4286 178.993 51.1365 178.723 52.8853C178.715 52.9389 178.697 52.9905 178.669 53.037C178.641 53.0835 178.604 53.124 178.56 53.1563C178.517 53.1885 178.467 53.2118 178.415 53.2249C178.362 53.238 178.307 53.2406 178.254 53.2326C178.2 53.2245 178.148 53.206 178.102 53.178C178.055 53.1501 178.015 53.1132 177.983 53.0696C177.95 53.026 177.927 52.9764 177.914 52.9237C177.901 52.8711 177.898 52.8164 177.906 52.7627C178.217 50.7116 176.117 48.5624 176.1 48.546C176.046 48.4899 176.008 48.4197 175.99 48.3433C175.973 48.2669 175.977 48.1871 176.002 48.1129C176.03 48.0405 176.078 47.9774 176.14 47.9311C176.202 47.8848 176.276 47.8572 176.354 47.8514C177.171 47.7779 179.475 47.3611 179.859 46.3233C179.949 46.1027 179.859 46.0373 179.859 46.0046C179.426 45.5225 177.163 45.6695 175.577 46.1027C174.245 46.4704 173.804 49.1344 174 50.9159C174.123 51.9864 175.398 58.0989 175.406 58.1561C175.418 58.2088 175.419 58.2633 175.409 58.3164C175.399 58.3695 175.379 58.4201 175.349 58.4652C175.319 58.5102 175.281 58.5488 175.236 58.5785C175.191 58.6083 175.14 58.6286 175.087 58.6383L175.005 58.7118Z" fill="#231F20"/>
<path d="M199.138 34.9068C199.138 34.9068 185.523 33.5584 179.966 36.7781C178.57 37.6119 177.232 38.5402 175.962 39.5566C172.947 41.9182 170.111 44.5986 167.905 46.094C163.525 49.0359 159.292 49.6325 156.407 44.95C153.956 40.9539 155.386 39.0581 158.703 35.5033C160.338 33.7464 163.803 30.8454 166.785 27.6338C168.548 25.8485 170.036 23.8104 171.198 21.5866C173.715 16.2913 173.004 8.17664 173.004 8.17664L199.138 34.9068Z" fill="white"/>
<path d="M161.783 48.7822C161.344 48.7864 160.905 48.7397 160.476 48.6433C159.541 48.4025 158.666 47.9703 157.906 47.3739C157.146 46.7775 156.519 46.0299 156.063 45.1785C153.424 40.8964 155.05 38.8289 158.4 35.2333C159.103 34.4815 160.116 33.5336 161.293 32.4467C162.927 30.9268 164.766 29.178 166.49 27.3638C168.226 25.6122 169.689 23.6095 170.83 21.4229C173.281 16.2746 172.603 8.26621 172.595 8.18449C172.588 8.1004 172.607 8.01633 172.65 7.94338C172.692 7.87043 172.756 7.81203 172.832 7.77589C172.909 7.73929 172.996 7.72827 173.079 7.74444C173.163 7.76061 173.24 7.80312 173.298 7.86579L199.447 34.6204C199.505 34.6803 199.542 34.7561 199.555 34.8378C199.569 34.9195 199.557 35.0033 199.521 35.0781C199.485 35.1543 199.426 35.2177 199.354 35.26C199.281 35.3023 199.196 35.3215 199.112 35.315C198.973 35.315 185.563 34.0157 180.186 37.1455C178.807 37.969 177.485 38.8864 176.231 39.8913C174.997 40.8637 173.78 41.877 172.644 42.8495C171.209 44.1196 169.708 45.3143 168.149 46.4288C165.779 47.9977 163.655 48.7822 161.783 48.7822ZM173.477 9.21414C173.575 11.6657 173.567 17.5331 171.573 21.7743C170.391 24.034 168.879 26.1051 167.087 27.9195C165.346 29.7909 163.491 31.5151 161.849 33.0433C160.688 34.1219 159.675 35.0617 158.997 35.789C155.728 39.262 154.421 40.9618 156.758 44.778C157.158 45.5347 157.711 46.2009 158.38 46.7351C159.049 47.2693 159.821 47.6601 160.647 47.8833C162.592 48.3083 164.954 47.5973 167.675 45.775C169.211 44.6837 170.687 43.5107 172.096 42.2611C173.265 41.2805 174.466 40.259 175.708 39.2866C177.004 38.2543 178.369 37.3123 179.794 36.4673C184.526 33.7134 194.724 34.1873 198.107 34.4406L173.477 9.21414Z" fill="#231F20"/>
<path d="M176.69 39.009C173.674 41.3707 170.03 44.5005 167.905 46.0858C163.051 49.7141 159.978 50.0982 156.808 45.6119C153.539 41.0029 155.386 39.0744 158.704 35.5115C160.338 33.7545 163.803 30.8535 166.786 27.642C166.786 27.642 166.974 30.9843 170.299 35.062C171.932 37.0507 174.181 38.4394 176.69 39.009Z" fill="#231F20"/>
<path d="M161.751 49.2979C161.499 49.2998 161.248 49.2806 160.999 49.2407C159.365 48.9873 157.926 47.9086 156.472 45.8493C153.031 40.9871 155.042 38.8379 158.36 35.275C159.103 34.4578 160.116 33.5344 161.293 32.4475C162.928 30.9275 164.766 29.1788 166.491 27.3646C166.543 27.305 166.613 27.2629 166.691 27.244C166.768 27.225 166.849 27.23 166.924 27.2584C166.999 27.2854 167.064 27.3338 167.112 27.3977C167.16 27.4617 167.188 27.5382 167.193 27.6179C167.193 27.6179 167.43 30.8867 170.617 34.801C172.192 36.7103 174.352 38.0485 176.763 38.6091C176.84 38.6243 176.911 38.6606 176.969 38.714C177.026 38.7674 177.068 38.8357 177.089 38.9114C177.105 38.989 177.1 39.0693 177.074 39.144C177.048 39.2188 177.003 39.2852 176.942 39.3364C175.553 40.4232 174.041 41.6654 172.57 42.8666C170.887 44.2477 169.302 45.5552 168.149 46.4132C165.543 48.3826 163.5 49.2979 161.751 49.2979ZM166.507 28.5332C164.946 30.1676 163.312 31.6875 161.849 33.0441C160.689 34.1227 159.675 35.0625 158.997 35.7898C155.728 39.3119 154.094 41.0525 157.142 45.3754C158.458 47.2386 159.724 48.211 161.122 48.4317C162.813 48.6932 164.823 47.876 167.659 45.7595C168.795 44.9423 170.38 43.6103 172.056 42.2374C173.298 41.2159 174.572 40.1699 175.782 39.2056C173.509 38.5053 171.491 37.1527 169.98 35.3158C168.304 33.3602 167.114 31.0361 166.507 28.5332Z" fill="#231F20"/>
<path d="M202.912 33.7547C199.864 36.4923 193.106 34.2124 186.528 28.6473C184.842 27.2238 183.258 25.6837 181.788 24.0384C180.343 22.4237 179.011 20.7117 177.8 18.9147C172.897 11.7071 171.369 4.72832 174.442 1.9744C178.233 -1.43326 187.696 2.91417 195.566 11.6907C203.435 20.4673 206.72 30.3389 202.912 33.7547Z" fill="#FFD700"/>
<path d="M177.865 0.822506C182.499 0.822506 189.494 4.95746 195.541 11.6992C203.419 20.4758 206.72 30.3474 202.896 33.7632C201.932 34.5686 200.701 34.9827 199.447 34.9237C195.99 34.9237 191.226 32.6274 186.511 28.6558C184.825 27.2323 183.241 25.6922 181.771 24.0469C180.332 22.429 179.005 20.7143 177.8 18.915C172.897 11.7074 171.369 4.72865 174.441 1.97474C175.4 1.17884 176.62 0.768119 177.865 0.822506ZM177.865 0.00532035C176.408 -0.0572 174.98 0.433154 173.869 1.37819C170.543 4.36092 171.843 11.593 177.097 19.3563C179.596 23.0467 182.581 26.3835 185.972 29.2769C190.875 33.3628 195.778 35.7327 199.431 35.7327C200.904 35.7945 202.345 35.2918 203.459 34.3271C205.56 32.4476 205.911 28.9337 204.383 24.4392C202.544 19.498 199.747 14.9686 196.154 11.1109C190.058 4.37726 182.899 0.00532035 177.865 0.00532035Z" fill="#231F20"/>
<path d="M191.963 21.8481L186.528 28.6471C184.843 27.2236 183.259 25.6835 181.789 24.0382C180.344 22.4234 179.011 20.7115 177.801 18.9144L185.662 14.0848L191.963 21.8481Z" fill="white"/>
<path d="M191.971 21.86C192.965 21.0436 192.349 18.6515 190.596 16.5172C188.843 14.3828 186.616 13.3144 185.622 14.1309C184.628 14.9473 185.243 17.3394 186.997 19.4737C188.75 21.6081 190.977 22.6764 191.971 21.86Z" fill="#231F20"/>
<path d="M191.128 22.5183C189.845 22.5183 188.113 21.4804 186.666 19.7153C185.842 18.7467 185.23 17.6166 184.868 16.3976C184.566 15.2208 184.738 14.2974 185.351 13.7989C185.963 13.3004 186.895 13.3086 187.99 13.7989C189.114 14.3997 190.097 15.2326 190.875 16.2423C192.803 18.5876 193.383 21.1863 192.199 22.1669C191.891 22.4006 191.514 22.5243 191.128 22.5183ZM186.462 14.2484C186.248 14.2367 186.037 14.3003 185.865 14.4281C185.522 14.7142 185.449 15.3597 185.661 16.1933C185.987 17.2998 186.544 18.3247 187.295 19.2005C189.012 21.2925 190.989 22.1097 191.692 21.5295C192.395 20.9493 191.978 18.8491 190.262 16.7571C189.539 15.8494 188.635 15.1033 187.606 14.5671C187.251 14.3819 186.861 14.2734 186.462 14.2484Z" fill="#231F20"/>
<path d="M185.278 50.5147C185.206 50.5152 185.135 50.4954 185.074 50.4575C185.027 50.4313 184.986 50.3959 184.953 50.3536C184.92 50.3112 184.896 50.2626 184.882 50.2108C184.869 50.159 184.866 50.1049 184.873 50.0519C184.881 49.9988 184.899 49.9478 184.926 49.9018C185.434 49.0704 186.062 48.3186 186.79 47.6709C186.829 47.6291 186.877 47.5961 186.93 47.5741C186.984 47.5521 187.041 47.5416 187.098 47.5433C187.156 47.5449 187.212 47.5587 187.264 47.5837C187.316 47.6088 187.362 47.6445 187.399 47.6885C187.436 47.7325 187.464 47.7839 187.479 47.8392C187.495 47.8946 187.499 47.9526 187.491 48.0096C187.483 48.0666 187.463 48.1212 187.432 48.1698C187.401 48.2185 187.361 48.2601 187.313 48.292C186.678 48.8896 186.128 49.5715 185.678 50.3186C185.637 50.3859 185.577 50.44 185.507 50.4747C185.436 50.5094 185.356 50.5233 185.278 50.5147Z" fill="#231F20"/>
<path d="M182.769 49.6489H182.704C182.651 49.6382 182.601 49.6172 182.557 49.5872C182.512 49.5572 182.474 49.5187 182.445 49.4739C182.415 49.4291 182.395 49.379 182.384 49.3263C182.374 49.2736 182.374 49.2194 182.385 49.1668C182.68 48.0005 183.371 46.9725 184.338 46.2576C184.425 46.1926 184.534 46.1647 184.641 46.18C184.749 46.1953 184.845 46.2526 184.91 46.3393C184.975 46.426 185.003 46.535 184.988 46.6423C184.973 46.7496 184.915 46.8464 184.829 46.9114C184.028 47.5082 183.452 48.3575 183.194 49.3221C183.173 49.4178 183.119 49.5031 183.041 49.5629C182.964 49.6227 182.867 49.6532 182.769 49.6489Z" fill="#231F20"/>
<path d="M188.555 50.2294C188.473 50.23 188.393 50.2042 188.326 50.1559C188.282 50.1249 188.245 50.0855 188.216 50.0399C188.187 49.9943 188.167 49.9435 188.158 49.8903C188.149 49.8371 188.151 49.7826 188.163 49.73C188.175 49.6774 188.197 49.6277 188.228 49.5838L188.784 48.7666C188.849 48.6808 188.945 48.6229 189.051 48.6047C189.157 48.5865 189.266 48.6094 189.356 48.6686C189.444 48.7325 189.503 48.8279 189.521 48.9347C189.539 49.0415 189.515 49.1512 189.454 49.2406L188.89 50.0578C188.853 50.1122 188.803 50.1564 188.745 50.1864C188.686 50.2164 188.621 50.2312 188.555 50.2294Z" fill="#231F20"/>
<path d="M162.763 48.472C162.675 48.4726 162.589 48.4438 162.518 48.3903C158.906 45.6445 156.667 42.3104 156.226 39.009V38.9191C156.2 38.8325 156.204 38.7398 156.236 38.6555C156.269 38.5713 156.328 38.5001 156.406 38.4533C156.451 38.4236 156.502 38.4035 156.555 38.394C156.608 38.3845 156.663 38.386 156.716 38.3982C156.768 38.4104 156.818 38.4332 156.862 38.4651C156.905 38.497 156.942 38.5375 156.97 38.584C157.018 38.6836 157.046 38.7921 157.051 38.9027C157.468 41.9917 159.585 45.1297 163.033 47.7365C163.102 47.7884 163.153 47.8609 163.179 47.9435C163.204 48.0262 163.203 48.1148 163.174 48.1965C163.146 48.2783 163.093 48.349 163.022 48.3985C162.951 48.448 162.866 48.4737 162.78 48.472H162.763Z" fill="white"/>
<path d="M160.746 35.4301C160.69 35.4293 160.635 35.4165 160.584 35.3926C160.533 35.3686 160.488 35.334 160.452 35.2912C160.414 35.2539 160.384 35.2094 160.363 35.1603C160.343 35.1112 160.332 35.0584 160.332 35.0052C160.332 34.9519 160.343 34.8992 160.363 34.85C160.384 34.8009 160.414 34.7564 160.452 34.7191L164.849 30.6332C164.885 30.5941 164.93 30.563 164.979 30.5417C165.028 30.5204 165.081 30.5094 165.135 30.5094C165.188 30.5094 165.241 30.5204 165.291 30.5417C165.34 30.563 165.384 30.5941 165.421 30.6332C165.459 30.6705 165.489 30.715 165.51 30.7641C165.53 30.8132 165.541 30.866 165.541 30.9192C165.541 30.9725 165.53 31.0252 165.51 31.0744C165.489 31.1235 165.459 31.168 165.421 31.2052L161.024 35.2912C160.99 35.332 160.947 35.3654 160.9 35.3893C160.852 35.4132 160.8 35.4271 160.746 35.4301Z" fill="white"/>
<path d="M161.35 36.4106C161.236 36.4077 161.127 36.3609 161.047 36.2799C160.972 36.2021 160.93 36.0981 160.93 35.9898C160.93 35.8815 160.972 35.7774 161.047 35.6997L165.444 31.6137C165.52 31.5389 165.623 31.4969 165.73 31.4969C165.837 31.4969 165.939 31.5389 166.016 31.6137C166.054 31.6517 166.084 31.6969 166.105 31.7467C166.126 31.7965 166.137 31.8499 166.137 31.9038C166.137 31.9578 166.126 32.0112 166.105 32.061C166.084 32.1108 166.054 32.156 166.016 32.1939L161.627 36.2799C161.554 36.3559 161.455 36.4024 161.35 36.4106Z" fill="white"/>
<path d="M162.045 37.5383C161.99 37.5396 161.934 37.5286 161.883 37.506C161.833 37.4834 161.787 37.4497 161.751 37.4075C161.713 37.3702 161.683 37.3257 161.662 37.2766C161.641 37.2275 161.631 37.1748 161.631 37.1215C161.631 37.0682 161.641 37.0155 161.662 36.9664C161.683 36.9173 161.713 36.8728 161.751 36.8355L166.148 32.7496C166.184 32.7105 166.228 32.6793 166.278 32.658C166.327 32.6367 166.38 32.6257 166.434 32.6257C166.487 32.6257 166.54 32.6367 166.589 32.658C166.639 32.6793 166.683 32.7105 166.72 32.7496C166.758 32.7868 166.788 32.8313 166.808 32.8804C166.829 32.9296 166.84 32.9823 166.84 33.0356C166.84 33.0888 166.829 33.1416 166.808 33.1907C166.788 33.2398 166.758 33.2843 166.72 33.3216L162.323 37.4075C162.288 37.4472 162.246 37.4794 162.198 37.5019C162.15 37.5244 162.098 37.5367 162.045 37.5383Z" fill="white"/>
<path d="M89.3148 100.568L87.2637 145.856C87.2637 145.856 115.252 146.192 131.351 139.466C132.67 135.149 134.264 130.921 136.123 126.808C138.485 122.036 148.626 115 145.439 96.7273C145.439 96.7273 169.334 111.845 176.067 104.899C182.801 97.9531 186.168 65.5108 186.168 65.5108L172.177 61.0163L165.82 81.021C165.82 81.021 125.5 61.5148 116.102 59.0469C112.613 58.1316 101.769 63.901 89.3393 71.8849" fill="#FFD700"/>
<path d="M115.236 72.6287C115.236 72.6287 121.717 92.7641 122.828 101.287C123.939 109.811 124.103 123.899 124.103 123.899C124.103 123.899 134.358 92.4863 133.092 73.0863L115.236 72.6287Z" fill="#231F20"/>
<path d="M124.104 124.267H124.055C123.97 124.255 123.892 124.213 123.835 124.149C123.778 124.084 123.746 124.001 123.745 123.915C123.745 123.776 123.565 109.745 122.47 101.345C121.375 92.9441 114.96 72.9476 114.895 72.7433C114.878 72.6884 114.875 72.6304 114.884 72.5739C114.894 72.5174 114.917 72.4641 114.951 72.418C114.985 72.372 115.03 72.3345 115.081 72.3087C115.132 72.2829 115.189 72.2694 115.246 72.2693L133.093 72.7269C133.184 72.7268 133.271 72.7616 133.336 72.824C133.402 72.8864 133.44 72.9716 133.445 73.062C134.711 92.3067 124.554 123.727 124.456 124.013C124.433 124.088 124.386 124.153 124.322 124.199C124.259 124.245 124.182 124.268 124.104 124.267ZM115.736 73.0048C116.725 76.1264 122.184 93.5161 123.189 101.239C124.006 107.662 124.325 117.345 124.423 121.668C126.654 114.313 133.698 89.659 132.75 73.4542L115.736 73.0048Z" fill="#231F20"/>
<path d="M82.5915 169.898H159.824L131.377 139.466L87.2903 145.856C87.2903 145.856 82.0113 157.803 82.5098 166.188C82.5425 167.177 82.567 168.443 82.5915 169.898Z" fill="#231F20"/>
<path d="M159.822 170.307H82.5902C82.5369 170.308 82.484 170.298 82.4344 170.278C82.3849 170.259 82.3398 170.23 82.3017 170.192C82.2637 170.155 82.2335 170.11 82.2128 170.061C82.1922 170.012 82.1816 169.959 82.1816 169.906C82.1816 168.533 82.1326 167.218 82.0753 166.212C81.5769 157.82 86.6679 146.183 86.8886 145.685C86.9176 145.623 86.961 145.57 87.015 145.528C87.069 145.487 87.1322 145.46 87.1991 145.448L131.327 139.057C131.393 139.05 131.46 139.057 131.522 139.08C131.585 139.103 131.641 139.14 131.687 139.188L160.133 169.62C160.187 169.679 160.223 169.752 160.236 169.83C160.249 169.909 160.239 169.99 160.207 170.063C160.175 170.136 160.122 170.198 160.055 170.241C159.988 170.284 159.91 170.307 159.831 170.307H159.822ZM83.0069 169.489H158.874L131.221 139.899L87.5668 146.224C86.8722 147.858 82.4513 158.572 82.9089 166.163C82.9497 167.087 83.0069 168.255 83.0069 169.489Z" fill="#231F20"/>
<path d="M130.87 61.8007L133.085 73.0861C133.085 73.0861 133.142 79.6236 125.902 78.9943C123.762 78.7935 121.695 78.1178 119.85 77.0165C118.005 75.9152 116.429 74.4161 115.237 72.6285L112.304 52.9179C112.556 49.329 112.264 45.7225 111.438 42.221C119.765 40.4967 125.142 32.9541 125.142 32.9541C125.142 32.9541 128.827 36.7132 130.331 37.8572C131.541 38.686 132.639 39.6664 133.6 40.7746C135.177 42.7276 135.643 45.457 136.051 47.8677C136.565 50.729 136.82 53.631 136.811 56.5381C136.68 62.0541 130.87 61.8007 130.87 61.8007Z" fill="white"/>
<path d="M126.842 79.4112C126.531 79.4112 126.204 79.4112 125.869 79.4112C123.67 79.2131 121.544 78.5226 119.649 77.3909C117.753 76.2592 116.136 74.7153 114.919 72.8737C114.895 72.8302 114.879 72.7834 114.87 72.7348C114.87 72.7348 111.944 53.1223 111.936 53.0243C111.903 52.6955 111.903 52.3643 111.936 52.0355C112.125 48.7798 111.834 45.5141 111.07 42.3436C111.057 42.2966 111.055 42.2473 111.064 42.1993C111.072 42.1513 111.091 42.1058 111.119 42.0658C111.146 42.0243 111.18 41.9885 111.221 41.9605C111.262 41.9325 111.308 41.9127 111.356 41.9024C119.438 40.268 124.774 32.8561 124.823 32.7826C124.856 32.7383 124.897 32.7016 124.945 32.6748C124.993 32.648 125.046 32.6318 125.101 32.6273C125.155 32.6221 125.21 32.6298 125.262 32.6496C125.313 32.6695 125.358 32.701 125.395 32.7417C125.436 32.7417 129.081 36.4926 130.552 37.5958C131.762 38.4457 132.86 39.4451 133.82 40.5704C135.455 42.6297 135.953 45.4735 136.345 47.8351C136.865 50.7178 137.123 53.6417 137.114 56.5708C137.135 57.3177 137.001 58.0609 136.719 58.7531C136.438 59.4452 136.016 60.0713 135.479 60.5914C134.296 61.5986 132.807 62.1747 131.254 62.2258L133.387 73.0698C133.377 74.8707 132.661 76.5958 131.393 77.8749C130.126 78.9461 128.499 79.4953 126.842 79.4112ZM115.597 72.4978C116.767 74.2129 118.3 75.6506 120.086 76.7095C121.872 77.7684 123.868 78.4228 125.934 78.6267C128.092 78.8065 129.775 78.357 130.944 77.2783C132.04 76.1535 132.67 74.6561 132.709 73.0862L130.503 61.8744C130.493 61.8185 130.496 61.7613 130.51 61.7064C130.524 61.6516 130.549 61.6002 130.584 61.5557C130.62 61.5108 130.666 61.4755 130.719 61.4527C130.772 61.4299 130.829 61.4204 130.887 61.4249C132.396 61.4542 133.867 60.9475 135.038 59.9949C135.491 59.5383 135.845 58.994 136.08 58.3953C136.315 57.7966 136.425 57.1563 136.403 56.5136C136.41 53.6282 136.156 50.7481 135.643 47.9087C135.242 45.5634 134.825 42.8912 133.273 40.9953C132.342 39.9162 131.279 38.9581 130.11 38.1433C128.835 37.1872 126.098 34.4578 125.207 33.5262C124.039 35.038 119.144 40.8809 111.912 42.5153C112.642 45.6326 112.917 48.8393 112.729 52.0355C112.707 52.3074 112.707 52.5807 112.729 52.8527C112.729 52.8527 112.696 53.0569 115.597 72.4978Z" fill="#231F20"/>
<path d="M131.859 67.3576C131.859 67.3576 127.315 68.4281 123.785 65.9357C120.255 63.4433 120.107 60.2808 120.107 60.2808C120.107 60.2808 125.697 62.6588 130.87 61.8007L131.859 67.3576Z" fill="#231F20"/>
<path d="M129.48 67.9542C127.383 67.9994 125.323 67.3974 123.58 66.23C119.944 63.664 119.78 60.477 119.78 60.2972C119.775 60.2362 119.787 60.175 119.815 60.1203C119.842 60.0655 119.884 60.0193 119.936 59.9867C119.984 59.9501 120.041 59.9271 120.102 59.9199C120.162 59.9127 120.223 59.9217 120.279 59.9458C120.336 59.9458 125.844 62.2748 130.845 61.4413C130.938 61.4271 131.033 61.4499 131.109 61.5049C131.186 61.5599 131.238 61.6427 131.254 61.7355L132.251 67.2923C132.268 67.3843 132.248 67.4792 132.196 67.557C132.144 67.6348 132.064 67.6894 131.973 67.7091C131.154 67.8837 130.318 67.9659 129.48 67.9542ZM120.598 60.8447C121.107 62.8119 122.327 64.5208 124.022 65.6416C126.841 67.6355 130.387 67.276 131.474 67.0717L130.608 62.2094C126.4 62.7896 122.118 61.4167 120.598 60.8447Z" fill="#231F20"/>
<path d="M124.838 42.5562C124.838 42.5562 129.504 47.2958 128.818 48.399C128.131 49.5022 125.598 49.347 125.598 49.347" fill="white"/>
<path d="M125.99 49.7149H125.573C125.526 49.7118 125.48 49.6994 125.437 49.6784C125.395 49.6574 125.357 49.6282 125.326 49.5925C125.295 49.5568 125.271 49.5153 125.256 49.4704C125.241 49.4255 125.235 49.3781 125.238 49.3308C125.244 49.2347 125.288 49.1449 125.36 49.0807C125.432 49.0166 125.526 48.9831 125.622 48.9876C126.268 48.9876 128.074 48.9876 128.515 48.2194C128.793 47.7618 126.962 45.2367 124.584 42.8179C124.551 42.784 124.525 42.744 124.507 42.7001C124.489 42.6561 124.48 42.6091 124.48 42.5616C124.481 42.5142 124.491 42.4673 124.509 42.4237C124.528 42.38 124.554 42.3404 124.588 42.3071C124.622 42.2738 124.662 42.2476 124.706 42.2298C124.75 42.212 124.797 42.203 124.845 42.2034C124.892 42.2038 124.939 42.2135 124.983 42.232C125.026 42.2505 125.066 42.2774 125.099 42.3112C126.562 43.7985 129.88 47.3859 129.128 48.6035C128.507 49.5923 126.799 49.7149 125.99 49.7149Z" fill="#231F20"/>
<path d="M131.293 45.1335C131.636 45.0542 131.794 44.4695 131.645 43.8275C131.497 43.1855 131.099 42.7293 130.756 42.8085C130.413 42.8878 130.255 43.4725 130.403 44.1145C130.552 44.7565 130.95 45.2127 131.293 45.1335Z" fill="#231F20"/>
<path d="M120.883 46.1914C121.226 46.1122 121.384 45.5275 121.235 44.8855C121.087 44.2435 120.689 43.7873 120.346 43.8665C120.003 43.9458 119.845 44.5305 119.993 45.1725C120.142 45.8145 120.54 46.2707 120.883 46.1914Z" fill="#231F20"/>
<path d="M114.975 46.4133C113.839 44.5746 111.184 44.3213 109.329 45.0649C108.713 45.2851 108.178 45.6846 107.792 46.2119C107.406 46.7392 107.187 47.3701 107.163 48.0231C107.149 48.8253 107.293 49.6223 107.588 50.3685C108.082 51.7673 108.823 53.0657 109.778 54.2011C110.223 54.795 110.81 55.2672 111.486 55.5739C111.912 55.7242 112.372 55.7438 112.809 55.6303C113.246 55.5167 113.639 55.2751 113.938 54.9365" fill="white"/>
<path d="M112.253 56.0969C111.945 56.0966 111.64 56.0384 111.354 55.9253C110.621 55.5927 109.981 55.0847 109.491 54.4462C108.51 53.2753 107.746 51.9386 107.236 50.4992C106.924 49.7031 106.771 48.8535 106.786 47.9986C106.818 47.277 107.063 46.5811 107.491 45.9991C107.918 45.4171 108.509 44.9753 109.189 44.7299C111.232 43.9127 114.092 44.2396 115.293 46.2253C115.334 46.3093 115.343 46.4056 115.317 46.4954C115.291 46.5853 115.232 46.6622 115.153 46.7113C115.073 46.7603 114.978 46.7778 114.886 46.7605C114.794 46.7432 114.712 46.6922 114.656 46.6176C113.634 44.9832 111.223 44.7135 109.467 45.4163C108.918 45.6107 108.44 45.964 108.094 46.4313C107.748 46.8985 107.548 47.4584 107.522 48.0395C107.511 48.794 107.647 49.5434 107.922 50.2459C108.402 51.6025 109.122 52.8619 110.047 53.9641C110.454 54.5067 110.991 54.9392 111.608 55.2225C111.969 55.3495 112.359 55.3651 112.729 55.2675C113.1 55.1699 113.432 54.9635 113.683 54.675C113.715 54.6324 113.756 54.5971 113.803 54.5715C113.85 54.5459 113.902 54.5307 113.956 54.5268C114.009 54.5229 114.063 54.5304 114.113 54.5489C114.163 54.5674 114.209 54.5963 114.247 54.6339C114.285 54.6714 114.315 54.7166 114.334 54.7665C114.353 54.8164 114.361 54.8699 114.358 54.9233C114.355 54.9767 114.341 55.0288 114.316 55.0762C114.291 55.1236 114.257 55.1651 114.214 55.198C113.963 55.47 113.66 55.6894 113.324 55.8437C112.987 55.998 112.623 56.0841 112.253 56.0969Z" fill="#231F20"/>
<path d="M129.414 50.8179L123.947 51.349C123.947 51.349 125.083 59.7987 127.543 59.5699C130.003 59.3411 130.011 53.2367 129.414 50.8179Z" fill="white"/>
<path d="M127.437 59.9376C124.862 59.9376 123.776 52.8445 123.588 51.3981C123.579 51.3505 123.581 51.3015 123.593 51.2547C123.606 51.208 123.629 51.1648 123.661 51.1284C123.689 51.0884 123.726 51.0552 123.768 51.0312C123.81 51.0071 123.858 50.9929 123.906 50.9895L129.381 50.4583C129.467 50.4498 129.553 50.4723 129.624 50.5218C129.694 50.5713 129.744 50.6445 129.766 50.728C130.231 52.6075 130.387 57.1102 129.03 59.0142C128.871 59.2656 128.658 59.4783 128.406 59.6366C128.155 59.795 127.871 59.895 127.575 59.9295L127.437 59.9376ZM124.356 51.6759C124.813 54.7649 125.99 59.2104 127.437 59.2104H127.51C127.701 59.1832 127.883 59.1142 128.045 59.0082C128.206 58.9023 128.341 58.762 128.442 58.5975C129.512 57.0857 129.561 53.3021 129.136 51.2428L124.356 51.6759Z" fill="#231F20"/>
<path d="M143.094 116.339C143.028 116.339 142.964 116.321 142.907 116.288C142.85 116.255 142.804 116.207 142.772 116.149C142.74 116.091 142.725 116.026 142.727 115.961C142.729 115.895 142.748 115.831 142.783 115.775C142.84 115.669 148.847 105.569 143.102 84.5344C143.079 84.4392 143.093 84.3388 143.142 84.2537C143.19 84.1686 143.27 84.1053 143.363 84.0768C143.411 84.0632 143.46 84.0593 143.509 84.0651C143.558 84.071 143.605 84.0866 143.647 84.1109C143.69 84.1353 143.727 84.168 143.757 84.2071C143.787 84.2461 143.809 84.2907 143.821 84.3383C149.664 105.716 143.674 115.751 143.412 116.209C143.375 116.255 143.325 116.292 143.27 116.315C143.214 116.337 143.154 116.346 143.094 116.339Z" fill="#231F20"/>
<path d="M31.957 87.1086L120.18 150.759L208.404 87.1086V191.529H31.957V87.1086Z" fill="white"/>
<path d="M208.404 191.937H31.9575C31.8491 191.937 31.7452 191.894 31.6686 191.818C31.5919 191.741 31.5489 191.637 31.5489 191.529V87.1088C31.5476 87.0341 31.5677 86.9605 31.6068 86.8968C31.6458 86.8331 31.7023 86.7819 31.7695 86.7492C31.8332 86.7094 31.9068 86.6882 31.982 86.6882C32.0571 86.6882 32.1308 86.7094 32.1945 86.7492L120.181 150.22L208.159 86.7492C208.223 86.7094 208.296 86.6882 208.371 86.6882C208.447 86.6882 208.52 86.7094 208.584 86.7492C208.652 86.7816 208.71 86.8324 208.75 86.8961C208.791 86.9597 208.812 87.0334 208.813 87.1088V191.529C208.811 191.636 208.767 191.739 208.691 191.815C208.615 191.892 208.512 191.935 208.404 191.937ZM32.3416 191.12H208.036V87.9097L120.418 151.086C120.348 151.137 120.263 151.165 120.177 151.165C120.09 151.165 120.006 151.137 119.936 151.086L32.3416 87.9097V191.12Z" fill="#231F20"/>
<path d="M31.9578 191.937C31.8843 191.938 31.8121 191.918 31.7489 191.881C31.6856 191.843 31.6336 191.789 31.5983 191.725C31.5475 191.63 31.5353 191.519 31.5642 191.416C31.5931 191.312 31.661 191.224 31.7535 191.169L112.475 144.99C112.569 144.937 112.681 144.924 112.785 144.953C112.889 144.982 112.978 145.051 113.031 145.145C113.058 145.191 113.077 145.242 113.084 145.295C113.092 145.348 113.089 145.402 113.075 145.454C113.061 145.506 113.037 145.555 113.004 145.597C112.971 145.639 112.93 145.675 112.884 145.701L32.154 191.88C32.0943 191.915 32.0269 191.935 31.9578 191.937Z" fill="#231F20"/>
<path d="M208.405 191.937C208.333 191.935 208.263 191.915 208.201 191.88L127.479 145.701C127.385 145.648 127.316 145.559 127.287 145.455C127.257 145.351 127.271 145.24 127.324 145.145C127.378 145.053 127.467 144.985 127.57 144.956C127.674 144.927 127.785 144.939 127.879 144.99L208.601 191.169C208.695 191.222 208.764 191.311 208.793 191.415C208.823 191.519 208.809 191.631 208.756 191.725C208.722 191.789 208.672 191.842 208.61 191.88C208.548 191.917 208.477 191.937 208.405 191.937Z" fill="#231F20"/>
<path d="M74.0168 143.633C74.0168 143.633 77.5879 152.933 78.4296 153.44C79.2713 153.946 89.2164 158.016 88.5055 159.92C87.7945 161.824 83.3164 159.503 83.3164 159.503C83.3164 159.503 89.764 166.964 88.0642 168.28C86.3645 169.595 80.6442 172.267 78.3479 171.181C76.0516 170.094 64.6028 155.907 62.1758 149.746" fill="white"/>
<path d="M79.7379 171.867C79.2051 171.883 78.6752 171.783 78.1852 171.573C75.7337 170.404 64.2113 156.047 61.8006 149.918C61.7813 149.867 61.7721 149.813 61.7736 149.759C61.775 149.706 61.7871 149.652 61.8091 149.603C61.8311 149.554 61.8626 149.509 61.9018 149.472C61.9411 149.435 61.9872 149.406 62.0376 149.386C62.0881 149.367 62.1418 149.358 62.1958 149.359C62.2498 149.361 62.303 149.373 62.3523 149.395C62.4016 149.417 62.4461 149.448 62.4833 149.488C62.5204 149.527 62.5495 149.573 62.5688 149.623C65.0204 155.908 76.5427 169.89 78.5284 170.87C80.5142 171.851 86.0956 169.367 87.828 168.018C87.8653 167.984 87.8953 167.942 87.9163 167.896C87.9374 167.849 87.949 167.799 87.9506 167.749C88.1058 166.114 84.4367 161.481 83.0475 159.83C82.9853 159.758 82.9501 159.667 82.9481 159.572C82.9461 159.477 82.9773 159.384 83.0364 159.309C83.0954 159.235 83.1786 159.183 83.2716 159.163C83.3647 159.144 83.4617 159.157 83.5459 159.201C84.3631 159.626 86.7003 160.639 87.7463 160.239C87.8421 160.206 87.9293 160.153 88.0015 160.082C88.0736 160.011 88.1289 159.925 88.163 159.83C88.3592 159.299 87.068 157.967 79.7869 154.592C78.9043 154.183 78.4385 153.963 78.2506 153.84C77.368 153.276 74.5242 146.02 73.6743 143.813C73.6547 143.763 73.6452 143.709 73.6465 143.655C73.6477 143.601 73.6598 143.548 73.6818 143.498C73.7038 143.449 73.7355 143.404 73.7749 143.367C73.8143 143.33 73.8607 143.301 73.9113 143.282C74.0121 143.245 74.1236 143.249 74.2215 143.293C74.3194 143.338 74.3958 143.419 74.4343 143.519C76.1341 147.94 78.1934 152.753 78.7 153.162C78.8389 153.252 79.4355 153.53 80.1301 153.848C85.9975 156.561 89.5114 158.563 88.9312 160.116C88.856 160.32 88.7374 160.506 88.5836 160.659C88.4298 160.813 88.2445 160.932 88.0405 161.007C86.9386 161.232 85.7937 161.1 84.7717 160.631C86.3489 162.6 88.9557 166.139 88.7923 167.822C88.779 167.981 88.7338 168.135 88.6594 168.275C88.5849 168.416 88.4828 168.539 88.3592 168.639C87.0108 169.661 82.6634 171.867 79.7379 171.867Z" fill="#231F20"/>
<path d="M89.3395 71.9177C68.3215 85.4176 42.7599 105.283 40.6025 109.925C37.154 117.28 62.9444 154.265 62.9444 154.265L76.9101 145.407L64.1456 117.68L89.315 100.56" fill="#FFD700"/>
<path d="M73.2002 111.959C73.1397 111.961 73.0796 111.948 73.0255 111.921C72.9713 111.893 72.9246 111.853 72.8897 111.804C72.8345 111.722 72.813 111.622 72.8298 111.524C72.8465 111.427 72.9002 111.34 72.9796 111.281L101.238 91.4969C101.278 91.4675 101.323 91.4464 101.371 91.435C101.42 91.4235 101.47 91.422 101.518 91.4304C101.567 91.4388 101.614 91.457 101.656 91.4838C101.697 91.5107 101.733 91.5457 101.761 91.5868C101.789 91.6276 101.808 91.6734 101.819 91.7218C101.829 91.7702 101.829 91.8201 101.82 91.8686C101.811 91.9172 101.793 91.9635 101.766 92.0049C101.739 92.0463 101.704 92.0819 101.663 92.1098L73.4127 111.894C73.3511 111.939 73.2763 111.962 73.2002 111.959Z" fill="#231F20"/>
<path d="M195.982 168.027L230.231 147.066L201.212 159.152L195.982 168.027Z" fill="#231F20"/>
<path d="M195.982 168.435C195.929 168.435 195.876 168.424 195.827 168.403C195.778 168.381 195.733 168.351 195.696 168.312C195.631 168.248 195.59 168.165 195.578 168.074C195.566 167.984 195.585 167.892 195.631 167.814L200.861 158.947C200.902 158.87 200.968 158.81 201.049 158.776L230.1 146.69C230.195 146.65 230.302 146.648 230.398 146.684C230.495 146.719 230.575 146.79 230.621 146.882C230.668 146.974 230.678 147.081 230.649 147.18C230.621 147.279 230.556 147.364 230.467 147.417L196.195 168.345C196.132 168.392 196.059 168.423 195.982 168.435ZM201.49 159.446L197.167 166.801L225.515 149.452L201.49 159.446Z" fill="#231F20"/>
<path d="M201.213 159.152L212.408 164.881L230.231 147.066L201.213 159.152Z" fill="white"/>
<path d="M212.408 165.248C212.348 165.25 212.289 165.236 212.236 165.207L201.041 159.487C200.977 159.456 200.923 159.407 200.887 159.346C200.85 159.285 200.833 159.215 200.836 159.144C200.84 159.072 200.864 159.003 200.904 158.944C200.944 158.885 201 158.838 201.065 158.809L230.1 146.722C230.179 146.691 230.267 146.688 230.349 146.713C230.431 146.738 230.501 146.79 230.549 146.861C230.598 146.932 230.62 147.018 230.611 147.103C230.602 147.189 230.563 147.268 230.5 147.327L212.677 165.142C212.643 165.178 212.601 165.206 212.554 165.225C212.508 165.243 212.458 165.251 212.408 165.248ZM202.095 159.193L212.334 164.423L228.629 148.136L202.095 159.193Z" fill="#231F20"/>
<path d="M230.23 147.066L193.359 155.875L184.975 151.078L230.23 147.066Z" fill="white"/>
<path d="M193.327 156.243C193.263 156.243 193.201 156.226 193.147 156.194L184.754 151.405C184.687 151.364 184.635 151.303 184.604 151.231C184.573 151.159 184.566 151.079 184.583 151.002C184.6 150.925 184.641 150.856 184.7 150.804C184.758 150.752 184.832 150.719 184.91 150.71L230.165 146.698C230.259 146.69 230.352 146.718 230.426 146.776C230.5 146.833 230.55 146.916 230.566 147.009C230.581 147.101 230.561 147.196 230.509 147.275C230.458 147.354 230.379 147.41 230.288 147.433L193.416 156.235L193.327 156.243ZM186.16 151.34L193.384 155.466L225.197 147.916L186.16 151.34Z" fill="#231F20"/>
<path d="M193.359 155.875L195.983 168.027L201.213 159.152L230.231 147.066L193.359 155.875Z" fill="white"/>
<path d="M195.982 168.402H195.925C195.851 168.391 195.781 168.358 195.726 168.307C195.671 168.256 195.632 168.19 195.615 168.116L193 155.957C192.989 155.909 192.987 155.86 192.995 155.813C193.003 155.765 193.021 155.719 193.047 155.678C193.073 155.637 193.106 155.602 193.146 155.574C193.185 155.546 193.23 155.526 193.277 155.515L230.149 146.714C230.242 146.684 230.343 146.692 230.431 146.736C230.518 146.781 230.584 146.858 230.615 146.951C230.645 147.044 230.637 147.146 230.593 147.233C230.548 147.321 230.471 147.387 230.378 147.417L201.498 159.454L196.334 168.214C196.299 168.276 196.248 168.327 196.186 168.36C196.123 168.393 196.053 168.408 195.982 168.402ZM193.8 156.145L196.146 167.005L200.885 158.956C200.929 158.888 200.992 158.834 201.065 158.8L225.793 148.504L193.8 156.145Z" fill="#231F20"/>
<path d="M188.423 169.718C188.336 169.716 188.251 169.686 188.182 169.633C188.113 169.579 188.063 169.505 188.039 169.421C188.015 169.337 188.019 169.247 188.05 169.166C188.081 169.084 188.137 169.014 188.21 168.967L189.575 168.092C189.666 168.033 189.777 168.012 189.884 168.034C189.99 168.056 190.084 168.12 190.143 168.211C190.203 168.302 190.224 168.413 190.202 168.519C190.179 168.626 190.116 168.719 190.025 168.779L188.644 169.661C188.576 169.699 188.5 169.719 188.423 169.718Z" fill="#D1D3D4"/>
<path d="M64.7179 207.162C64.6102 207.16 64.5075 207.116 64.4313 207.04C64.3551 206.964 64.3114 206.861 64.3093 206.754C64.3093 206.647 64.3512 206.544 64.4261 206.467C64.5009 206.391 64.6028 206.347 64.7097 206.345L66.6546 206.304L67.9703 206.263C68.0775 206.263 68.181 206.303 68.2598 206.376C68.3386 206.449 68.387 206.549 68.3952 206.656C68.3974 206.71 68.3887 206.764 68.3697 206.815C68.3506 206.866 68.3216 206.913 68.2843 206.952C68.247 206.992 68.2022 207.023 68.1525 207.045C68.1028 207.068 68.0492 207.079 67.9948 207.08L66.6791 207.121L64.7261 207.162H64.7179ZM61.4492 207.162C60.3378 207.162 59.2427 207.113 58.1804 207.072C58.0728 207.066 57.9717 207.018 57.8986 206.939C57.8254 206.86 57.7859 206.755 57.7882 206.647C57.7903 206.594 57.8029 206.541 57.8254 206.492C57.8479 206.443 57.8798 206.4 57.9193 206.363C57.9588 206.327 58.005 206.298 58.0554 206.28C58.1059 206.261 58.1594 206.253 58.2131 206.255C59.2754 206.296 60.3623 206.329 61.4818 206.345C61.5902 206.345 61.6941 206.388 61.7707 206.465C61.8474 206.541 61.8904 206.645 61.8904 206.754C61.8894 206.809 61.8773 206.864 61.8548 206.914C61.8324 206.965 61.8001 207.011 61.7597 207.049C61.7194 207.087 61.6719 207.117 61.6199 207.136C61.568 207.155 61.5127 207.164 61.4573 207.162H61.4492ZM71.2554 206.942C71.1519 206.942 71.0525 206.902 70.9779 206.83C70.9032 206.758 70.8592 206.661 70.855 206.557C70.8516 206.504 70.8589 206.45 70.8765 206.399C70.894 206.348 70.9214 206.301 70.9571 206.261C70.9927 206.221 71.036 206.188 71.0844 206.165C71.1328 206.141 71.1853 206.127 71.239 206.124C72.3259 206.075 73.4127 206.01 74.5078 205.936C74.5617 205.932 74.6159 205.938 74.6673 205.956C74.7186 205.973 74.7659 206 74.8064 206.036C74.8469 206.072 74.8797 206.115 74.9028 206.164C74.9259 206.213 74.9389 206.266 74.9409 206.32C74.9453 206.374 74.9391 206.427 74.9225 206.478C74.9059 206.529 74.8793 206.576 74.8443 206.616C74.8092 206.657 74.7665 206.69 74.7185 206.713C74.6705 206.737 74.6183 206.75 74.565 206.754C73.4781 206.827 72.3913 206.892 71.2962 206.942H71.2554ZM54.9525 206.884C53.8411 206.803 52.7543 206.705 51.6838 206.59C51.5767 206.578 51.4788 206.524 51.4114 206.439C51.3441 206.355 51.3127 206.248 51.3242 206.141C51.3281 206.087 51.3431 206.034 51.3683 205.986C51.3934 205.939 51.4282 205.896 51.4704 205.863C51.5126 205.829 51.5613 205.804 51.6135 205.79C51.6657 205.776 51.7202 205.773 51.7737 205.781C52.8278 205.887 53.9065 205.985 55.0424 206.067C55.1508 206.067 55.2547 206.11 55.3313 206.187C55.408 206.263 55.451 206.367 55.451 206.476C55.451 206.584 55.408 206.688 55.3313 206.765C55.2547 206.841 55.1508 206.884 55.0424 206.884H54.9525ZM77.7765 206.517C77.6681 206.517 77.5642 206.474 77.4876 206.397C77.411 206.32 77.3679 206.216 77.3679 206.108C77.3679 206 77.411 205.896 77.4876 205.819C77.5642 205.742 77.6681 205.699 77.7765 205.699C78.8634 205.61 79.9421 205.511 81.0453 205.405C81.1528 205.398 81.2591 205.432 81.3426 205.5C81.4261 205.569 81.4804 205.666 81.4947 205.773C81.5003 205.827 81.4953 205.881 81.4798 205.933C81.4643 205.984 81.4388 206.033 81.4046 206.074C81.3704 206.116 81.3282 206.151 81.2806 206.176C81.2329 206.202 81.1807 206.217 81.127 206.222C80.0374 206.326 78.9478 206.424 77.8582 206.517H77.7765ZM48.4559 206.182H48.3987C47.3037 206.018 46.2168 205.838 45.13 205.642C45.0763 205.632 45.0252 205.611 44.9795 205.581C44.9338 205.551 44.8945 205.513 44.8638 205.468C44.833 205.422 44.8115 205.372 44.8004 205.318C44.7893 205.265 44.7888 205.21 44.799 205.156C44.8092 205.102 44.8299 205.051 44.8598 205.006C44.8898 204.96 44.9284 204.921 44.9736 204.89C45.0187 204.859 45.0695 204.838 45.123 204.826C45.1764 204.815 45.2316 204.815 45.2852 204.825C46.323 205.021 47.4017 205.201 48.4886 205.356C48.5417 205.364 48.5928 205.383 48.6388 205.41C48.6849 205.438 48.725 205.475 48.7568 205.518C48.7887 205.561 48.8118 205.61 48.8246 205.662C48.8375 205.715 48.8399 205.769 48.8318 205.822C48.8186 205.918 48.7722 206.007 48.7005 206.072C48.6289 206.138 48.5366 206.177 48.4396 206.182H48.4559ZM84.2813 205.887C84.2276 205.891 84.1739 205.883 84.1231 205.866C84.0723 205.848 84.0254 205.821 83.9852 205.785C83.945 205.749 83.9122 205.706 83.8887 205.658C83.8652 205.609 83.8514 205.557 83.8482 205.503C83.845 205.45 83.8524 205.396 83.8699 205.345C83.8875 205.294 83.9149 205.247 83.9505 205.207C83.9862 205.167 84.0294 205.134 84.0778 205.111C84.1261 205.087 84.1786 205.073 84.2323 205.07C85.3219 204.95 86.4114 204.82 87.501 204.678C87.6094 204.664 87.7189 204.693 87.8055 204.76C87.8921 204.827 87.9486 204.925 87.9627 205.033C87.9768 205.142 87.9473 205.251 87.8806 205.338C87.8139 205.424 87.7156 205.481 87.6073 205.495L84.3385 205.879L84.2813 205.887ZM90.7616 205.07C90.6629 205.069 90.5677 205.034 90.4929 204.969C90.418 204.905 90.3685 204.816 90.353 204.719C90.3449 204.665 90.3477 204.61 90.361 204.558C90.3744 204.505 90.3982 204.455 90.4309 204.412C90.4636 204.369 90.5046 204.332 90.5516 204.305C90.5986 204.278 90.6505 204.26 90.7044 204.253L93.9241 203.771C93.9768 203.762 94.0308 203.763 94.0829 203.775C94.135 203.787 94.1843 203.809 94.2277 203.84C94.2711 203.871 94.3078 203.911 94.3357 203.957C94.3635 204.002 94.382 204.053 94.3899 204.106C94.3993 204.159 94.398 204.214 94.3862 204.266C94.3744 204.319 94.3523 204.369 94.3212 204.413C94.29 204.457 94.2504 204.494 94.2047 204.523C94.159 204.552 94.1081 204.571 94.0548 204.58L90.7861 205.062L90.7616 205.07ZM42.0492 204.988H41.9511C40.8643 204.735 39.7937 204.457 38.7723 204.171C38.6694 204.139 38.5831 204.068 38.5313 203.974C38.4795 203.879 38.4663 203.769 38.4944 203.665C38.5094 203.613 38.5345 203.565 38.5681 203.523C38.6016 203.481 38.6432 203.447 38.6902 203.421C38.7372 203.395 38.7889 203.379 38.8423 203.373C38.8956 203.367 38.9496 203.372 39.0011 203.387C40.0144 203.673 41.0685 203.951 42.1391 204.204C42.1916 204.215 42.2412 204.237 42.2851 204.268C42.3289 204.3 42.3661 204.339 42.3943 204.385C42.4225 204.431 42.4412 204.482 42.4493 204.535C42.4574 204.588 42.4547 204.642 42.4414 204.694C42.4144 204.78 42.3597 204.855 42.2858 204.907C42.2119 204.959 42.123 204.984 42.0328 204.98L42.0492 204.988ZM97.2092 204.049C97.1134 204.05 97.0203 204.017 96.9469 203.955C96.8734 203.894 96.8244 203.808 96.8088 203.714C96.792 203.607 96.8177 203.497 96.8802 203.409C96.9427 203.32 97.0373 203.26 97.1438 203.24L100.355 202.668C100.408 202.657 100.462 202.657 100.515 202.668C100.568 202.679 100.617 202.7 100.662 202.731C100.706 202.761 100.743 202.8 100.772 202.846C100.801 202.891 100.82 202.942 100.829 202.995C100.848 203.101 100.825 203.21 100.764 203.299C100.702 203.388 100.608 203.449 100.502 203.468L97.2827 204.049H97.2092ZM35.765 203.158C35.7218 203.166 35.6775 203.166 35.6343 203.158C34.5883 202.79 33.5504 202.39 32.5616 201.973C32.5122 201.952 32.4674 201.921 32.4299 201.882C32.3924 201.843 32.363 201.798 32.3432 201.748C32.3235 201.697 32.3138 201.644 32.3148 201.59C32.3159 201.536 32.3275 201.483 32.3492 201.434C32.3923 201.336 32.4721 201.259 32.5714 201.219C32.6707 201.179 32.7816 201.18 32.8804 201.221C33.8528 201.63 34.8743 202.038 35.9039 202.39C36.0123 202.408 36.1089 202.469 36.1725 202.559C36.2361 202.648 36.2615 202.759 36.2431 202.868C36.2246 202.976 36.1639 203.073 36.0743 203.136C35.9846 203.2 35.8734 203.225 35.765 203.207V203.158ZM103.591 202.847C103.498 202.846 103.407 202.813 103.334 202.754C103.262 202.694 103.211 202.612 103.191 202.521C103.18 202.468 103.18 202.414 103.19 202.361C103.2 202.308 103.221 202.258 103.25 202.213C103.28 202.169 103.318 202.13 103.363 202.1C103.407 202.07 103.457 202.049 103.51 202.038L106.705 201.368C106.757 201.358 106.812 201.357 106.864 201.367C106.917 201.378 106.967 201.398 107.012 201.428C107.057 201.457 107.095 201.496 107.125 201.54C107.155 201.584 107.176 201.634 107.187 201.687C107.199 201.739 107.2 201.793 107.191 201.846C107.182 201.898 107.162 201.949 107.133 201.994C107.104 202.039 107.067 202.077 107.023 202.107C106.979 202.138 106.929 202.159 106.876 202.169L103.673 202.839L103.591 202.847ZM109.982 201.475C109.928 201.48 109.874 201.476 109.822 201.461C109.77 201.446 109.722 201.42 109.68 201.387C109.638 201.353 109.603 201.311 109.577 201.264C109.551 201.217 109.534 201.165 109.528 201.111C109.522 201.057 109.527 201.003 109.542 200.951C109.557 200.899 109.582 200.851 109.616 200.809C109.65 200.767 109.692 200.732 109.739 200.706C109.786 200.68 109.838 200.663 109.892 200.657C110.954 200.412 112.008 200.167 113.063 199.906C113.168 199.881 113.278 199.899 113.37 199.956C113.462 200.012 113.528 200.103 113.553 200.208C113.566 200.261 113.569 200.315 113.561 200.369C113.553 200.423 113.534 200.474 113.506 200.521C113.478 200.567 113.441 200.607 113.397 200.639C113.353 200.671 113.303 200.694 113.251 200.706C112.196 200.96 111.142 201.213 110.072 201.45L109.982 201.475ZM29.7424 200.6C29.6768 200.598 29.6125 200.581 29.5544 200.551C28.5656 200.044 27.6013 199.497 26.6861 198.917C26.6404 198.888 26.6008 198.851 26.5695 198.808C26.5382 198.764 26.5158 198.714 26.5036 198.662C26.4915 198.61 26.4898 198.555 26.4987 198.502C26.5076 198.449 26.5268 198.398 26.5553 198.353C26.5829 198.306 26.6197 198.266 26.6633 198.234C26.707 198.202 26.7566 198.179 26.8093 198.167C26.862 198.155 26.9166 198.153 26.9699 198.163C27.0232 198.172 27.0739 198.193 27.1192 198.222C28.0099 198.77 28.9579 199.301 29.9303 199.799C30.0387 199.824 30.1327 199.891 30.1917 199.985C30.2507 200.08 30.2698 200.194 30.2449 200.302C30.22 200.41 30.1531 200.504 30.0588 200.563C29.9646 200.622 29.8507 200.641 29.7424 200.616V200.6ZM116.364 199.93C116.256 199.943 116.147 199.913 116.061 199.845C115.975 199.778 115.919 199.679 115.906 199.571C115.893 199.462 115.924 199.353 115.991 199.267C116.059 199.181 116.158 199.126 116.266 199.113L119.42 198.296C119.474 198.282 119.53 198.278 119.585 198.286C119.64 198.294 119.692 198.312 119.74 198.34C119.788 198.368 119.83 198.406 119.863 198.45C119.897 198.494 119.921 198.544 119.935 198.598C119.949 198.652 119.952 198.708 119.945 198.763C119.937 198.817 119.919 198.87 119.891 198.918C119.862 198.966 119.825 199.008 119.781 199.041C119.737 199.075 119.686 199.099 119.633 199.113C118.587 199.396 117.533 199.669 116.47 199.93C116.43 199.942 116.388 199.942 116.348 199.93H116.364ZM122.673 198.222C122.584 198.224 122.497 198.195 122.426 198.142C122.355 198.089 122.304 198.014 122.28 197.928C122.253 197.823 122.267 197.711 122.32 197.616C122.374 197.522 122.462 197.452 122.566 197.421L125.696 196.514C125.799 196.484 125.91 196.495 126.005 196.545C126.1 196.596 126.171 196.681 126.203 196.784C126.219 196.835 126.225 196.89 126.219 196.943C126.214 196.997 126.198 197.049 126.172 197.096C126.146 197.144 126.111 197.185 126.068 197.219C126.026 197.252 125.977 197.277 125.925 197.291C124.887 197.601 123.841 197.912 122.787 198.206C122.745 198.222 122.701 198.227 122.656 198.222H122.673ZM24.2264 197.168C24.1379 197.169 24.0516 197.14 23.9812 197.086C23.0905 196.424 22.2324 195.722 21.4316 194.994C21.3933 194.956 21.3629 194.911 21.3421 194.861C21.3214 194.812 21.3107 194.758 21.3107 194.704C21.3107 194.65 21.3214 194.597 21.3421 194.547C21.3629 194.497 21.3933 194.452 21.4316 194.414C21.4689 194.376 21.5134 194.346 21.5625 194.325C21.6116 194.305 21.6643 194.294 21.7176 194.294C21.7709 194.294 21.8236 194.305 21.8727 194.325C21.9218 194.346 21.9663 194.376 22.0036 194.414C22.7998 195.136 23.6317 195.818 24.496 196.457C24.5827 196.522 24.64 196.619 24.6554 196.726C24.6707 196.833 24.6428 196.942 24.5777 197.029C24.5343 197.078 24.4798 197.117 24.4187 197.141C24.3576 197.165 24.2917 197.174 24.2264 197.168ZM128.916 196.351C128.829 196.352 128.745 196.325 128.675 196.273C128.606 196.221 128.555 196.148 128.532 196.065C128.515 196.013 128.509 195.959 128.514 195.905C128.519 195.851 128.534 195.799 128.559 195.751C128.584 195.703 128.619 195.661 128.66 195.626C128.702 195.592 128.75 195.566 128.802 195.55C129.848 195.231 130.877 194.896 131.907 194.569C131.958 194.552 132.012 194.544 132.066 194.548C132.119 194.552 132.172 194.566 132.22 194.59C132.268 194.615 132.311 194.649 132.345 194.69C132.38 194.731 132.406 194.779 132.422 194.831C132.455 194.934 132.446 195.046 132.397 195.142C132.348 195.239 132.263 195.312 132.16 195.346C131.131 195.681 130.093 196.008 129.039 196.334C129 196.351 128.958 196.359 128.916 196.359V196.351ZM135.135 194.332C135.026 194.35 134.916 194.323 134.827 194.259C134.738 194.195 134.678 194.098 134.661 193.989C134.643 193.881 134.67 193.77 134.734 193.681C134.799 193.592 134.896 193.532 135.004 193.515C136.042 193.164 137.071 192.812 138.085 192.453C138.188 192.419 138.3 192.426 138.398 192.473C138.495 192.521 138.571 192.604 138.608 192.706C138.626 192.756 138.634 192.809 138.631 192.862C138.629 192.915 138.616 192.967 138.593 193.015C138.57 193.063 138.538 193.106 138.498 193.141C138.459 193.176 138.413 193.204 138.363 193.221C137.341 193.581 136.311 193.94 135.265 194.291L135.135 194.332ZM19.4131 192.78C19.3546 192.779 19.2968 192.767 19.2434 192.743C19.1899 192.719 19.142 192.684 19.1026 192.641C18.3684 191.819 17.6808 190.957 17.0433 190.058C17.0065 190.015 16.979 189.965 16.9626 189.911C16.9462 189.857 16.9412 189.8 16.948 189.744C16.9548 189.687 16.9733 189.633 17.0022 189.584C17.031 189.536 17.0697 189.493 17.1158 189.461C17.1618 189.428 17.2142 189.404 17.2697 189.393C17.3251 189.381 17.3823 189.381 17.4378 189.393C17.4932 189.405 17.5456 189.428 17.5916 189.461C17.6377 189.494 17.6764 189.536 17.7052 189.585C18.3265 190.459 18.9977 191.296 19.7155 192.093C19.7909 192.171 19.833 192.275 19.833 192.383C19.833 192.492 19.7909 192.596 19.7155 192.673C19.6755 192.712 19.6281 192.742 19.5761 192.762C19.5241 192.782 19.4687 192.79 19.4131 192.788V192.78ZM141.296 192.175C141.213 192.173 141.132 192.146 141.064 192.098C140.995 192.05 140.943 191.983 140.912 191.905C140.875 191.803 140.881 191.691 140.927 191.593C140.973 191.495 141.056 191.419 141.157 191.382C142.195 191.006 143.209 190.622 144.222 190.246C144.319 190.222 144.422 190.234 144.511 190.28C144.6 190.327 144.669 190.405 144.704 190.499C144.74 190.593 144.739 190.696 144.703 190.79C144.667 190.884 144.597 190.961 144.508 191.006C143.495 191.39 142.473 191.766 141.435 192.142C141.394 192.168 141.345 192.182 141.296 192.183V192.175ZM147.409 189.862C147.355 189.872 147.3 189.871 147.247 189.859C147.194 189.848 147.143 189.826 147.098 189.795C147.054 189.764 147.015 189.724 146.986 189.678C146.957 189.632 146.936 189.581 146.927 189.527C146.917 189.474 146.918 189.419 146.93 189.365C146.941 189.312 146.963 189.262 146.994 189.217C147.026 189.172 147.065 189.134 147.111 189.104C147.157 189.075 147.208 189.055 147.262 189.045L150.294 187.844C150.393 187.803 150.505 187.804 150.605 187.845C150.704 187.886 150.783 187.965 150.825 188.065C150.866 188.165 150.866 188.278 150.824 188.379C150.783 188.48 150.704 188.561 150.604 188.604L147.564 189.846C147.514 189.862 147.462 189.87 147.409 189.871V189.862ZM15.6377 187.476C15.5641 187.477 15.4915 187.458 15.4281 187.421C15.3646 187.383 15.3128 187.329 15.2782 187.264C14.7442 186.298 14.2667 185.302 13.8481 184.281C13.8277 184.231 13.8174 184.178 13.8176 184.124C13.8179 184.07 13.8287 184.017 13.8496 183.967C13.8705 183.917 13.9009 183.872 13.9392 183.834C13.9775 183.796 14.0229 183.766 14.0728 183.746C14.1227 183.725 14.1762 183.715 14.2301 183.715C14.284 183.715 14.3373 183.726 14.387 183.747C14.4367 183.768 14.4818 183.799 14.5197 183.837C14.5577 183.875 14.5877 183.921 14.6081 183.97C15.0097 184.966 15.4737 185.935 15.9973 186.871C16.0474 186.967 16.0584 187.079 16.0279 187.182C15.9974 187.286 15.9278 187.374 15.8339 187.427C15.7733 187.459 15.7061 187.476 15.6377 187.476ZM153.472 187.419C153.391 187.421 153.311 187.397 153.244 187.352C153.177 187.307 153.125 187.242 153.096 187.166C153.055 187.067 153.055 186.956 153.094 186.857C153.134 186.757 153.211 186.678 153.309 186.634C154.33 186.21 155.336 185.817 156.316 185.36C156.416 185.316 156.529 185.314 156.63 185.354C156.731 185.394 156.812 185.472 156.856 185.572C156.899 185.672 156.901 185.785 156.861 185.886C156.821 185.987 156.743 186.068 156.643 186.111L153.628 187.386C153.579 187.409 153.526 187.42 153.472 187.419ZM159.471 184.828C159.392 184.828 159.315 184.805 159.249 184.763C159.183 184.721 159.129 184.662 159.095 184.592C159.072 184.542 159.059 184.489 159.058 184.435C159.056 184.381 159.065 184.327 159.085 184.276C159.105 184.226 159.135 184.18 159.173 184.142C159.211 184.103 159.257 184.073 159.307 184.052C160.32 183.595 161.309 183.153 162.273 182.704C162.322 182.681 162.375 182.669 162.429 182.666C162.483 182.664 162.536 182.673 162.587 182.691C162.637 182.71 162.683 182.738 162.723 182.775C162.762 182.811 162.794 182.855 162.817 182.904C162.839 182.953 162.852 183.006 162.854 183.059C162.856 183.113 162.848 183.167 162.829 183.217C162.811 183.268 162.782 183.314 162.746 183.353C162.709 183.393 162.666 183.425 162.617 183.447C161.644 183.897 160.655 184.346 159.634 184.796C159.583 184.819 159.527 184.83 159.471 184.828ZM165.411 182.099C165.334 182.101 165.259 182.081 165.193 182.04C165.128 181.999 165.076 181.94 165.044 181.87C165.02 181.822 165.006 181.77 165.003 181.716C164.999 181.662 165.007 181.608 165.024 181.557C165.041 181.507 165.069 181.46 165.104 181.419C165.14 181.379 165.183 181.346 165.232 181.323C166.245 180.849 167.226 180.375 168.174 179.909C168.271 179.861 168.384 179.854 168.486 179.89C168.589 179.925 168.673 179.999 168.721 180.097C168.769 180.195 168.776 180.307 168.74 180.41C168.705 180.512 168.631 180.597 168.533 180.645L165.583 182.066C165.529 182.089 165.47 182.1 165.411 182.099ZM13.1698 181.421C13.0804 181.42 12.9935 181.39 12.9227 181.336C12.8518 181.281 12.8008 181.205 12.7776 181.118C12.4784 180.057 12.2383 178.979 12.0585 177.891C12.0411 177.782 12.0675 177.671 12.1319 177.583C12.1963 177.494 12.2933 177.434 12.4017 177.417C12.5101 177.399 12.6209 177.426 12.7098 177.49C12.7986 177.554 12.8583 177.651 12.8757 177.76C13.0389 178.829 13.2626 179.887 13.5457 180.931C13.5608 180.982 13.5655 181.036 13.5597 181.089C13.5538 181.143 13.5376 181.194 13.5118 181.241C13.486 181.288 13.4511 181.33 13.4093 181.364C13.3675 181.397 13.3194 181.422 13.2679 181.437L13.1698 181.421ZM171.263 179.239C171.186 179.24 171.11 179.219 171.045 179.179C170.98 179.138 170.928 179.08 170.895 179.01C170.846 178.914 170.838 178.802 170.872 178.699C170.905 178.597 170.978 178.512 171.075 178.463C172.08 177.956 173.052 177.466 173.984 176.975C174.08 176.925 174.192 176.916 174.296 176.949C174.399 176.982 174.485 177.055 174.535 177.151C174.585 177.247 174.595 177.36 174.562 177.463C174.529 177.567 174.456 177.653 174.36 177.703C173.428 178.185 172.456 178.683 171.442 179.19C171.387 179.221 171.326 179.238 171.263 179.239ZM177.065 176.224C176.991 176.225 176.918 176.205 176.855 176.168C176.791 176.13 176.74 176.076 176.705 176.011C176.655 175.915 176.644 175.804 176.674 175.7C176.705 175.597 176.774 175.509 176.868 175.455C177.882 174.916 178.838 174.393 179.737 173.903C179.784 173.869 179.837 173.846 179.894 173.835C179.95 173.824 180.008 173.825 180.064 173.838C180.12 173.85 180.173 173.875 180.219 173.91C180.265 173.944 180.303 173.988 180.331 174.039C180.359 174.089 180.376 174.145 180.38 174.202C180.385 174.259 180.378 174.317 180.359 174.371C180.34 174.426 180.309 174.475 180.27 174.517C180.23 174.559 180.182 174.592 180.129 174.614C179.23 175.112 178.274 175.635 177.252 176.183C177.202 176.208 177.146 176.222 177.089 176.224H177.065ZM12.0748 175.022C11.9706 175.022 11.8702 174.983 11.7942 174.911C11.7183 174.84 11.6725 174.742 11.6662 174.638C11.6662 174.001 11.6172 173.347 11.6172 172.701C11.6172 172.244 11.6172 171.786 11.6172 171.337C11.6182 171.283 11.6301 171.229 11.6522 171.18C11.6744 171.131 11.7062 171.087 11.7459 171.05C11.7856 171.013 11.8323 170.985 11.8833 170.967C11.9342 170.949 11.9882 170.941 12.0421 170.945C12.0958 170.947 12.1485 170.959 12.1973 170.982C12.2461 171.004 12.2899 171.036 12.3264 171.076C12.3628 171.115 12.3911 171.161 12.4096 171.212C12.4281 171.262 12.4366 171.316 12.4344 171.369V172.701C12.4344 173.331 12.4344 173.968 12.4834 174.589C12.4867 174.643 12.4794 174.697 12.4619 174.747C12.4444 174.798 12.417 174.845 12.3813 174.885C12.3456 174.926 12.3023 174.958 12.2539 174.982C12.2056 175.005 12.153 175.019 12.0993 175.022H12.0748ZM182.785 173.061C182.696 173.06 182.609 173.03 182.539 172.975C182.468 172.921 182.418 172.845 182.394 172.759C182.371 172.672 182.377 172.581 182.411 172.498C182.444 172.416 182.504 172.347 182.581 172.301C183.635 171.696 184.583 171.149 185.4 170.667C185.446 170.638 185.497 170.62 185.55 170.611C185.604 170.603 185.658 170.606 185.711 170.619C185.763 170.631 185.813 170.655 185.856 170.687C185.899 170.719 185.936 170.759 185.964 170.806C186.018 170.899 186.035 171.01 186.009 171.116C185.983 171.221 185.917 171.312 185.825 171.369C185.008 171.86 184.051 172.415 182.989 173.004C182.934 173.036 182.873 173.055 182.809 173.061H182.785ZM12.3608 168.509H12.3036C12.1957 168.493 12.0985 168.435 12.0328 168.348C11.9671 168.261 11.9382 168.152 11.9522 168.044C12.0993 166.973 12.2873 165.878 12.5324 164.775C12.5578 164.669 12.6231 164.578 12.7147 164.52C12.8062 164.462 12.9167 164.442 13.0227 164.464C13.0754 164.476 13.1253 164.498 13.1695 164.529C13.2137 164.56 13.2513 164.599 13.2802 164.645C13.3091 164.69 13.3286 164.741 13.3377 164.794C13.3468 164.847 13.3453 164.902 13.3333 164.955C13.0963 166.009 12.9002 167.079 12.7612 168.133C12.7531 168.235 12.7076 168.329 12.6336 168.399C12.5596 168.468 12.4623 168.508 12.3608 168.509ZM13.7827 162.143C13.7423 162.151 13.7006 162.151 13.6602 162.143C13.6085 162.128 13.5604 162.102 13.5188 162.067C13.4772 162.033 13.4429 161.99 13.4178 161.942C13.3927 161.894 13.3774 161.842 13.3727 161.788C13.368 161.734 13.3741 161.68 13.3905 161.629C13.7092 160.599 14.0851 159.553 14.5019 158.523C14.5495 158.434 14.6288 158.365 14.7244 158.33C14.8199 158.296 14.9249 158.298 15.0188 158.337C15.1127 158.376 15.1887 158.448 15.2322 158.54C15.2756 158.632 15.2833 158.737 15.2537 158.834C14.8532 159.839 14.4855 160.86 14.1668 161.874C14.1404 161.954 14.0888 162.024 14.0195 162.072C13.9503 162.121 13.8673 162.146 13.7827 162.143ZM16.2343 156.096C16.1565 156.119 16.0733 156.116 15.9973 156.088C15.9489 156.065 15.9057 156.032 15.8701 155.991C15.8344 155.951 15.8071 155.904 15.7896 155.853C15.7722 155.802 15.7649 155.749 15.7683 155.695C15.7717 155.641 15.7856 155.589 15.8093 155.541C16.2915 154.568 16.8227 153.596 17.3865 152.648C17.4128 152.601 17.4481 152.56 17.4905 152.527C17.5329 152.494 17.5814 152.47 17.6332 152.457C17.6851 152.443 17.7391 152.44 17.7922 152.447C17.8453 152.455 17.8963 152.473 17.9422 152.501C18.0355 152.557 18.1032 152.647 18.1307 152.753C18.1582 152.858 18.1433 152.97 18.0893 153.065C17.5336 153.988 17.0188 154.944 16.5448 155.908C16.5072 155.963 16.4572 156.007 16.399 156.039C16.3407 156.07 16.2759 156.087 16.2098 156.088L16.2343 156.096ZM19.5602 150.474C19.4522 150.477 19.347 150.439 19.266 150.368C19.2221 150.338 19.1847 150.299 19.1559 150.254C19.1271 150.209 19.1076 150.159 19.0985 150.106C19.0893 150.054 19.0908 150 19.1027 149.948C19.1146 149.896 19.1368 149.847 19.168 149.804C19.789 148.905 20.4591 148.014 21.1456 147.164C21.2142 147.081 21.3127 147.029 21.4198 147.018C21.5269 147.007 21.6339 147.039 21.7176 147.107C21.8018 147.175 21.8559 147.273 21.8682 147.38C21.8804 147.487 21.8498 147.595 21.783 147.679C21.1047 148.496 20.451 149.387 19.8381 150.27C19.8065 150.324 19.7628 150.371 19.7104 150.407C19.6581 150.442 19.5983 150.465 19.5357 150.474H19.5602ZM23.6462 145.407C23.5654 145.41 23.4857 145.389 23.4175 145.345C23.3493 145.302 23.2957 145.239 23.2639 145.165C23.2321 145.091 23.2235 145.009 23.2392 144.929C23.2549 144.85 23.2942 144.778 23.352 144.721C24.1038 143.904 24.8964 143.152 25.7136 142.417C25.7509 142.379 25.7954 142.348 25.8445 142.328C25.8936 142.307 25.9464 142.296 25.9996 142.296C26.0529 142.296 26.1057 142.307 26.1548 142.328C26.2039 142.348 26.2484 142.379 26.2857 142.417C26.324 142.455 26.3544 142.5 26.3751 142.55C26.3958 142.599 26.4065 142.653 26.4065 142.707C26.4065 142.761 26.3958 142.814 26.3751 142.864C26.3544 142.914 26.324 142.959 26.2857 142.997C25.4685 143.716 24.7085 144.476 23.973 145.26C23.9329 145.308 23.8828 145.345 23.8262 145.371C23.7697 145.396 23.7082 145.409 23.6462 145.407Z" fill="#D1D3D4"/>
<path d="M28.533 141.003C28.4715 141.003 28.4108 140.989 28.3555 140.962C28.3003 140.935 28.2519 140.896 28.2143 140.848C28.1479 140.761 28.1185 140.651 28.1322 140.542C28.146 140.434 28.2019 140.335 28.2879 140.267C28.7291 139.94 29.1704 139.614 29.6199 139.295C29.6637 139.261 29.714 139.236 29.7676 139.222C29.8213 139.208 29.8772 139.206 29.932 139.214C29.9869 139.222 30.0394 139.242 30.0864 139.271C30.1335 139.3 30.174 139.339 30.2057 139.385C30.2373 139.43 30.2594 139.482 30.2705 139.536C30.2816 139.59 30.2815 139.646 30.2703 139.701C30.2591 139.755 30.2369 139.806 30.2052 139.852C30.1734 139.897 30.1328 139.936 30.0857 139.965C29.6444 140.276 29.2113 140.594 28.7863 140.921C28.7134 140.976 28.6242 141.005 28.533 141.003Z" fill="#D1D3D4"/>
<path d="M211.795 92.1754C211.743 92.177 211.691 92.1676 211.643 92.1479C211.595 92.1282 211.552 92.0985 211.517 92.061C211.479 92.0237 211.448 91.9792 211.428 91.9301C211.407 91.881 211.396 91.8283 211.396 91.775C211.396 91.7217 211.407 91.669 211.428 91.6199C211.448 91.5708 211.479 91.5262 211.517 91.489C211.517 91.489 211.917 91.064 212.612 90.2959C212.644 90.2478 212.687 90.2074 212.737 90.1771C212.786 90.1469 212.842 90.1276 212.9 90.1205C212.957 90.1134 213.016 90.1187 213.071 90.1361C213.127 90.1534 213.178 90.1824 213.221 90.2211C213.265 90.2598 213.299 90.3073 213.323 90.3604C213.346 90.4136 213.358 90.4711 213.358 90.5293C213.357 90.5874 213.345 90.6447 213.32 90.6975C213.296 90.7503 213.26 90.7972 213.216 90.8352C212.514 91.6524 212.105 92.0528 212.105 92.0528C212.065 92.0944 212.017 92.1269 211.963 92.148C211.91 92.1692 211.852 92.1785 211.795 92.1754Z" fill="#D1D3D4"/>
<path d="M215.064 88.4906C214.966 88.4902 214.871 88.4555 214.795 88.3926C214.757 88.3553 214.726 88.3108 214.706 88.2617C214.685 88.2126 214.675 88.1598 214.675 88.1066C214.675 88.0533 214.685 88.0006 214.706 87.9514C214.726 87.9023 214.757 87.8578 214.795 87.8206C215.424 87.0687 216.127 86.1862 216.879 85.2791C216.946 85.1949 217.044 85.1408 217.151 85.1285C217.258 85.1163 217.366 85.1469 217.451 85.2137C217.493 85.2464 217.529 85.2874 217.555 85.3341C217.582 85.3809 217.599 85.4325 217.605 85.4859C217.611 85.5393 217.606 85.5933 217.591 85.6448C217.576 85.6963 217.55 85.7443 217.516 85.7858C216.764 86.7337 216.053 87.5917 215.416 88.3436C215.374 88.3953 215.32 88.4359 215.259 88.4616C215.197 88.4872 215.131 88.4972 215.064 88.4906ZM219.15 83.3424C219.063 83.3388 218.978 83.3105 218.905 83.2607C218.819 83.193 218.763 83.0942 218.75 82.9856C218.736 82.8771 218.765 82.7675 218.832 82.6805C219.461 81.8633 220.115 80.9644 220.777 80.0409C220.839 79.9521 220.935 79.8918 221.042 79.8734C221.15 79.855 221.26 79.88 221.349 79.9429C221.437 80.0057 221.498 80.1013 221.516 80.2086C221.534 80.3159 221.51 80.426 221.447 80.5149C220.777 81.4465 220.123 82.3372 219.477 83.1789C219.445 83.2289 219.401 83.271 219.35 83.3021C219.3 83.3332 219.242 83.3526 219.183 83.3587L219.15 83.3424ZM222.991 77.9735C222.916 77.9758 222.842 77.957 222.777 77.9191C222.712 77.8813 222.659 77.826 222.624 77.7595C222.589 77.6931 222.574 77.6181 222.579 77.5432C222.585 77.4684 222.612 77.3966 222.656 77.3361C223.253 76.4453 223.857 75.5301 224.446 74.5821C224.504 74.4916 224.596 74.4273 224.701 74.4029C224.806 74.3785 224.917 74.3959 225.01 74.4514C225.1 74.51 225.164 74.6023 225.187 74.708C225.21 74.8137 225.191 74.9242 225.132 75.0153C224.568 75.9223 223.964 76.8539 223.334 77.7937C223.3 77.8453 223.254 77.8883 223.2 77.9195C223.146 77.9506 223.086 77.9691 223.024 77.9735H222.991ZM226.489 72.3839C226.416 72.3853 226.345 72.3654 226.284 72.3267C226.238 72.3005 226.197 72.2651 226.164 72.2227C226.131 72.1804 226.107 72.1318 226.093 72.08C226.08 72.0282 226.076 71.9741 226.084 71.921C226.092 71.868 226.11 71.817 226.137 71.771C226.693 70.8068 227.224 69.8343 227.706 68.8945C227.756 68.7981 227.842 68.7254 227.946 68.6925C228.049 68.6595 228.161 68.669 228.258 68.7188C228.354 68.7687 228.427 68.8548 228.46 68.9583C228.493 69.0617 228.483 69.174 228.434 69.2704C227.943 70.2266 227.404 71.199 226.84 72.1796C226.807 72.2369 226.761 72.2853 226.706 72.3209C226.65 72.3565 226.587 72.3781 226.521 72.3839H226.489ZM229.52 66.5247C229.464 66.5364 229.405 66.5364 229.349 66.5247C229.3 66.5027 229.256 66.4712 229.22 66.432C229.183 66.3928 229.155 66.3467 229.137 66.2964C229.119 66.2462 229.111 66.1927 229.113 66.1393C229.116 66.0859 229.129 66.0335 229.153 65.9854C229.619 64.9639 230.052 63.9506 230.428 62.9699C230.447 62.9193 230.475 62.8729 230.513 62.8335C230.55 62.7941 230.594 62.7625 230.644 62.7404C230.693 62.7184 230.746 62.7064 230.8 62.7051C230.854 62.7038 230.908 62.7133 230.959 62.733C231.06 62.7731 231.141 62.8512 231.185 62.9504C231.229 63.0496 231.233 63.1622 231.196 63.2641C230.803 64.2611 230.378 65.2908 229.896 66.3204C229.86 66.38 229.81 66.4298 229.75 66.4654C229.69 66.501 229.623 66.5214 229.553 66.5247H229.52ZM231.898 60.3795H231.776C231.673 60.3457 231.587 60.273 231.537 60.1768C231.486 60.0807 231.475 59.9687 231.506 59.8646C231.833 58.7941 232.111 57.7318 232.323 56.7103C232.347 56.6056 232.411 56.5143 232.501 56.4562C232.591 56.3981 232.7 56.3779 232.806 56.3998C232.911 56.4233 233.003 56.4867 233.062 56.5766C233.121 56.6665 233.144 56.7759 233.124 56.8819C232.895 57.9279 232.618 59.0148 232.307 60.1507C232.272 60.2201 232.218 60.2783 232.152 60.3187C232.085 60.3592 232.009 60.3802 231.931 60.3795H231.898ZM233.271 53.94H233.23C233.123 53.9297 233.025 53.8775 232.956 53.7949C232.887 53.7123 232.854 53.6059 232.863 53.4988C232.863 53.1555 232.928 52.8205 232.944 52.4773C232.944 51.7173 233.018 50.9655 233.043 50.2382C233.042 50.1842 233.053 50.1308 233.074 50.0811C233.096 50.0314 233.127 49.9865 233.166 49.9491C233.204 49.9117 233.251 49.8826 233.301 49.8634C233.352 49.8443 233.405 49.8356 233.459 49.8378C233.567 49.842 233.669 49.8878 233.743 49.9655C233.818 50.0432 233.86 50.1468 233.86 50.2545C233.86 50.9982 233.803 51.75 233.762 52.5263C233.762 52.8777 233.713 53.2209 233.68 53.5723C233.668 53.6728 233.62 53.7654 233.545 53.8331C233.47 53.9007 233.372 53.9388 233.271 53.94ZM233.459 47.3535C233.352 47.3536 233.25 47.3116 233.173 47.2368C233.097 47.1619 233.053 47.0601 233.051 46.9531C233.051 45.8417 232.969 44.7467 232.887 43.6844C232.883 43.6311 232.889 43.5775 232.906 43.5267C232.922 43.4759 232.949 43.4289 232.984 43.3885C233.019 43.3482 233.062 43.3152 233.11 43.2917C233.158 43.2681 233.21 43.2543 233.263 43.2513C233.317 43.2468 233.371 43.253 233.422 43.2695C233.473 43.286 233.521 43.3125 233.562 43.3474C233.603 43.3823 233.637 43.4251 233.661 43.4731C233.686 43.5211 233.7 43.5734 233.704 43.6272C233.786 44.6977 233.843 45.8091 233.868 46.9368C233.868 47.0445 233.826 47.1481 233.752 47.2258C233.677 47.3035 233.575 47.3493 233.467 47.3535H233.459ZM232.928 40.816C232.829 40.8153 232.734 40.7796 232.659 40.7153C232.585 40.6509 232.535 40.5621 232.52 40.4647C232.364 39.3696 232.16 38.2909 231.923 37.2613C231.899 37.1529 231.919 37.0395 231.979 36.946C232.039 36.8526 232.133 36.7867 232.242 36.7628C232.35 36.739 232.463 36.7592 232.557 36.8189C232.65 36.8787 232.716 36.9731 232.74 37.0815C232.977 38.1275 233.181 39.2307 233.345 40.3503C233.359 40.4572 233.331 40.5655 233.267 40.6524C233.203 40.7393 233.108 40.7979 233.002 40.816H232.928ZM231.449 34.4093C231.363 34.4104 231.278 34.3841 231.208 34.3342C231.137 34.2843 231.084 34.2133 231.057 34.1315C230.723 33.1029 230.333 32.0935 229.888 31.1079C229.866 31.0591 229.853 31.0063 229.851 30.9525C229.849 30.8988 229.857 30.8452 229.876 30.7947C229.894 30.7442 229.923 30.6979 229.959 30.6584C229.996 30.6189 230.04 30.587 230.088 30.5645C230.137 30.5419 230.19 30.5292 230.244 30.5271C230.297 30.525 230.351 30.5334 230.402 30.552C230.452 30.5706 230.498 30.599 230.538 30.6354C230.577 30.6719 230.609 30.7158 230.632 30.7647C231.09 31.7794 231.491 32.8188 231.833 33.8781C231.867 33.98 231.859 34.0912 231.812 34.1875C231.765 34.2838 231.681 34.3577 231.58 34.393C231.536 34.3978 231.492 34.395 231.449 34.3848V34.4093ZM228.72 28.4357C228.65 28.4362 228.581 28.4193 228.52 28.3864C228.459 28.3536 228.406 28.3059 228.368 28.2477C227.805 27.3273 227.177 26.448 226.489 25.6164C226.421 25.5327 226.389 25.4257 226.4 25.3186C226.41 25.2115 226.463 25.113 226.546 25.0444C226.586 25.0093 226.633 24.9827 226.684 24.9662C226.735 24.9497 226.789 24.9435 226.842 24.9481C226.896 24.9526 226.947 24.9679 226.995 24.9928C227.042 25.0178 227.084 25.052 227.118 25.0934C227.827 25.9465 228.477 26.8475 229.063 27.7901C229.092 27.8354 229.113 27.8861 229.122 27.9394C229.132 27.9927 229.13 28.0473 229.118 28.1C229.106 28.1527 229.083 28.2024 229.051 28.246C229.019 28.2897 228.979 28.3264 228.932 28.354C228.868 28.3929 228.794 28.4128 228.72 28.4112V28.4357ZM224.519 23.3937C224.421 23.3919 224.326 23.3574 224.25 23.2956C223.445 22.5779 222.587 21.9222 221.684 21.3344C221.635 21.3069 221.593 21.2698 221.56 21.2256C221.527 21.1813 221.502 21.1307 221.489 21.0768C221.476 21.0229 221.474 20.9669 221.483 20.9122C221.492 20.8574 221.512 20.8052 221.542 20.7585C221.572 20.7118 221.612 20.6718 221.658 20.6407C221.704 20.6097 221.755 20.5884 221.81 20.578C221.864 20.5677 221.92 20.5685 221.975 20.5805C222.029 20.5926 222.08 20.6155 222.125 20.6479C223.065 21.2582 223.959 21.9384 224.797 22.6827C224.873 22.7605 224.915 22.8645 224.915 22.9728C224.915 23.0811 224.873 23.1852 224.797 23.2629C224.721 23.3313 224.622 23.3691 224.519 23.3691V23.3937ZM219.02 19.8226C218.963 19.8338 218.905 19.8338 218.848 19.8226C217.864 19.3745 216.851 18.9923 215.816 18.6785C215.708 18.6471 215.616 18.5739 215.562 18.475C215.508 18.3762 215.495 18.2598 215.526 18.1514C215.558 18.0431 215.631 17.9516 215.73 17.8972C215.828 17.8428 215.945 17.8299 216.053 17.8613C217.125 18.1824 218.173 18.5755 219.191 19.0381C219.24 19.06 219.284 19.0915 219.32 19.1307C219.357 19.17 219.385 19.2161 219.403 19.2663C219.421 19.3166 219.429 19.37 219.427 19.4235C219.424 19.4769 219.411 19.5292 219.387 19.5774C219.353 19.6453 219.301 19.702 219.236 19.7411C219.17 19.7802 219.096 19.7999 219.02 19.798V19.8226ZM212.727 17.9022H212.654C211.586 17.7164 210.508 17.5937 209.426 17.5344C209.372 17.5313 209.32 17.5176 209.271 17.4941C209.223 17.4707 209.18 17.4379 209.144 17.3976C209.108 17.3574 209.081 17.3105 209.063 17.2597C209.046 17.2088 209.038 17.155 209.042 17.1013C209.041 17.0465 209.053 16.9922 209.075 16.9421C209.097 16.892 209.13 16.8472 209.171 16.8108C209.212 16.7744 209.26 16.7473 209.313 16.7311C209.365 16.715 209.421 16.7103 209.475 16.7173C210.587 16.7796 211.695 16.9051 212.793 17.0932C212.899 17.1131 212.994 17.1738 213.056 17.2622C213.119 17.3507 213.144 17.4601 213.128 17.5671C213.107 17.6571 213.056 17.7372 212.983 17.7938C212.91 17.8504 212.82 17.88 212.727 17.8777V17.9022Z" fill="#D1D3D4"/>
<path d="M204.497 17.665C204.444 17.6692 204.39 17.6629 204.338 17.6464C204.287 17.6298 204.24 17.6033 204.199 17.5684C204.158 17.5335 204.124 17.4909 204.1 17.4429C204.075 17.395 204.06 17.3427 204.056 17.289C204.052 17.2354 204.058 17.1814 204.075 17.1302C204.091 17.079 204.118 17.0315 204.153 16.9906C204.223 16.9078 204.324 16.8564 204.432 16.8478C204.973 16.7631 205.519 16.7086 206.066 16.6843C206.175 16.6778 206.281 16.7146 206.362 16.7867C206.444 16.8587 206.493 16.96 206.499 17.0684C206.506 17.1768 206.469 17.2833 206.397 17.3645C206.325 17.4457 206.224 17.495 206.115 17.5015C205.126 17.5587 204.538 17.6486 204.538 17.6486L204.497 17.665Z" fill="#D1D3D4"/>
<path d="M26.2457 30.4896L1.60714 50.6274C0.719541 51.3528 0.588099 52.6605 1.31356 53.5481L11.6513 66.1964C12.3768 67.084 13.6844 67.2154 14.572 66.49L39.2106 46.3522C40.0982 45.6268 40.2297 44.3191 39.5042 43.4315L29.1664 30.7832C28.441 29.8956 27.1333 29.7642 26.2457 30.4896Z" fill="white"/>
<path d="M13.2688 67.3654H13.0155C12.3735 67.2928 11.7862 66.9698 11.3811 66.4665L1.00285 53.8002C0.793204 53.5495 0.635766 53.2596 0.539791 52.9473C0.443817 52.6349 0.41124 52.3066 0.443978 51.9815C0.476715 51.6564 0.574106 51.3411 0.730424 51.0542C0.886743 50.7673 1.09884 50.5145 1.35424 50.3108L25.9924 30.1672C26.243 29.9575 26.533 29.8001 26.8453 29.7041C27.1576 29.6081 27.4859 29.5755 27.811 29.6083C28.1361 29.641 28.4514 29.7384 28.7383 29.8947C29.0252 30.051 29.278 30.2631 29.4818 30.5185L39.8273 43.1767C40.037 43.4273 40.1944 43.7173 40.2904 44.0296C40.3863 44.342 40.4189 44.6703 40.3862 44.9954C40.3534 45.3205 40.2561 45.6358 40.0997 45.9227C39.9434 46.2096 39.7313 46.4624 39.4759 46.6661L14.8378 66.8016C14.3967 67.167 13.8416 67.3665 13.2688 67.3654ZM27.5614 30.4287C27.1787 30.4297 26.8075 30.5592 26.5072 30.7964L1.86906 50.94C1.70303 51.0789 1.56625 51.2494 1.46665 51.4416C1.36705 51.6338 1.30662 51.8438 1.28886 52.0595C1.24794 52.5004 1.37979 52.9398 1.6566 53.2853L12.0022 65.9354C12.1389 66.1059 12.3084 66.2473 12.5007 66.3511C12.693 66.455 12.9041 66.5192 13.1217 66.5401C13.56 66.5814 13.9971 66.4494 14.3393 66.1723L38.9611 46.0287C39.1332 45.893 39.2762 45.724 39.3816 45.5319C39.4871 45.3398 39.5528 45.1284 39.575 44.9104C39.5971 44.6923 39.5751 44.4721 39.5104 44.2627C39.4456 44.0533 39.3394 43.8591 39.1981 43.6916L28.8525 31.0579C28.6994 30.8616 28.5035 30.7029 28.2798 30.5938C28.056 30.4848 27.8103 30.4283 27.5614 30.4287Z" fill="#D1D3D4"/>
<path d="M0.879554 52.305C0.771188 52.305 0.667261 52.262 0.590635 52.1854C0.514009 52.1087 0.470961 52.0048 0.470961 51.8965C0.46534 51.8432 0.470462 51.7893 0.486024 51.7381C0.501586 51.6868 0.527272 51.6392 0.56156 51.5981C0.595848 51.5569 0.638042 51.5231 0.685644 51.4985C0.733247 51.474 0.785291 51.4592 0.838695 51.4552L21.3746 49.6737L27.2093 29.906C27.2233 29.8539 27.2477 29.8051 27.2811 29.7627C27.3144 29.7203 27.356 29.685 27.4034 29.6591C27.4507 29.6331 27.5028 29.617 27.5565 29.6117C27.6102 29.6064 27.6644 29.612 27.7159 29.6282C27.8184 29.6602 27.9042 29.7313 27.9547 29.8262C28.0052 29.921 28.0163 30.0319 27.9856 30.1348L22.0855 50.1722C22.0641 50.2513 22.0189 50.3219 21.9561 50.3745C21.8932 50.4271 21.8158 50.4592 21.7341 50.4664L0.920412 52.305H0.879554Z" fill="#D1D3D4"/>
<path d="M22.5355 47.5327C22.4272 47.5327 22.3233 47.4896 22.2466 47.413C22.17 47.3364 22.127 47.2325 22.127 47.1241C22.127 47.0157 22.17 46.9118 22.2466 46.8352C22.3233 46.7586 22.4272 46.7155 22.5355 46.7155L39.9089 44.7297C40.0157 44.7204 40.122 44.7525 40.2057 44.8195C40.2894 44.8864 40.3441 44.9831 40.3584 45.0893C40.3652 45.143 40.3613 45.1976 40.3469 45.2498C40.3324 45.302 40.3078 45.3508 40.2743 45.3933C40.2409 45.4359 40.1993 45.4714 40.152 45.4978C40.1047 45.5242 40.0526 45.5409 39.9988 45.5469L22.6091 47.5327H22.5355Z" fill="#D1D3D4"/>
<path d="M13.2443 67.3656C13.2038 67.3733 13.1622 67.3733 13.1217 67.3656C13.0701 67.3499 13.0222 67.3239 12.9809 67.2892C12.9396 67.2546 12.9057 67.2119 12.8813 67.1639C12.8569 67.1158 12.8424 67.0633 12.8388 67.0095C12.8352 66.9557 12.8425 66.9017 12.8602 66.8508L18.2618 50.221C18.2784 50.1674 18.3055 50.1175 18.3414 50.0743C18.3773 50.0311 18.4213 49.9954 18.471 49.9692C18.5207 49.943 18.5751 49.9269 18.631 49.9217C18.687 49.9166 18.7434 49.9225 18.797 49.9391C18.8507 49.9557 18.9006 49.9828 18.9438 50.0187C18.987 50.0546 19.0227 50.0986 19.0489 50.1483C19.075 50.198 19.0912 50.2524 19.0963 50.3084C19.1015 50.3643 19.0956 50.4207 19.079 50.4744L13.6774 67.1041C13.6439 67.1891 13.5833 67.2608 13.505 67.3081C13.4268 67.3553 13.3351 67.3755 13.2443 67.3656Z" fill="#D1D3D4"/>
<path d="M248.471 118.829L224.996 108.651C224.152 108.285 223.17 108.673 222.804 109.518L217.577 121.574C217.21 122.418 217.598 123.4 218.443 123.766L241.918 133.944C242.762 134.31 243.744 133.923 244.11 133.078L249.337 121.022C249.704 120.177 249.316 119.196 248.471 118.829Z" fill="white"/>
<path d="M242.595 134.481C242.314 134.479 242.037 134.421 241.778 134.31L218.309 124.127C218.057 124.022 217.829 123.867 217.639 123.672C217.448 123.477 217.298 123.245 217.197 122.992C216.989 122.481 216.989 121.909 217.197 121.398L222.419 109.345C222.64 108.841 223.051 108.445 223.562 108.243C224.073 108.041 224.643 108.049 225.149 108.266L248.626 118.44C248.876 118.549 249.102 118.706 249.292 118.902C249.481 119.098 249.63 119.33 249.729 119.584C249.835 119.835 249.889 120.104 249.889 120.377C249.889 120.649 249.835 120.918 249.729 121.169L244.5 133.206C244.392 133.456 244.237 133.682 244.042 133.872C243.847 134.061 243.616 134.21 243.364 134.31C243.121 134.415 242.86 134.473 242.595 134.481ZM224.38 108.911C224.135 108.912 223.896 108.984 223.691 109.119C223.486 109.254 223.325 109.446 223.228 109.671L217.966 121.766C217.837 122.069 217.834 122.411 217.956 122.718C218.078 123.024 218.317 123.269 218.619 123.4L242.097 133.582C242.406 133.709 242.752 133.709 243.061 133.582C243.215 133.523 243.355 133.432 243.473 133.317C243.591 133.202 243.684 133.064 243.748 132.912L248.978 120.851C249.104 120.544 249.104 120.201 248.978 119.894C248.919 119.739 248.83 119.597 248.714 119.478C248.599 119.358 248.461 119.264 248.308 119.2L224.846 109.018C224.7 108.95 224.541 108.914 224.38 108.911Z" fill="#D1D3D4"/>
<path d="M232.822 123.188C232.753 123.189 232.685 123.173 232.625 123.14C232.565 123.107 232.515 123.059 232.479 123L223.49 108.797C223.461 108.752 223.442 108.701 223.433 108.648C223.424 108.595 223.426 108.541 223.438 108.488C223.45 108.436 223.473 108.386 223.504 108.343C223.535 108.299 223.575 108.262 223.62 108.233C223.666 108.205 223.717 108.186 223.77 108.177C223.823 108.168 223.877 108.17 223.929 108.182C223.982 108.194 224.031 108.216 224.075 108.248C224.119 108.279 224.156 108.319 224.184 108.364L232.994 122.33L249.215 119.216C249.267 119.204 249.322 119.203 249.375 119.213C249.428 119.223 249.479 119.243 249.524 119.273C249.569 119.303 249.607 119.341 249.637 119.386C249.667 119.431 249.687 119.482 249.697 119.535C249.716 119.642 249.693 119.753 249.632 119.843C249.571 119.933 249.477 119.995 249.37 120.017L232.879 123.188H232.822Z" fill="#D1D3D4"/>
<path d="M243.069 134.408C243.001 134.408 242.935 134.391 242.875 134.36C242.815 134.329 242.764 134.283 242.726 134.228L234.897 122.583C234.838 122.493 234.817 122.383 234.838 122.277C234.86 122.172 234.922 122.079 235.012 122.019C235.056 121.989 235.106 121.967 235.158 121.957C235.211 121.946 235.265 121.946 235.318 121.957C235.37 121.967 235.42 121.989 235.464 122.019C235.509 122.049 235.546 122.088 235.575 122.133L243.404 133.811C243.464 133.902 243.485 134.013 243.464 134.12C243.442 134.227 243.38 134.322 243.29 134.383C243.219 134.41 243.143 134.419 243.069 134.408Z" fill="#D1D3D4"/>
<path d="M217.638 123.4C217.54 123.401 217.445 123.367 217.37 123.304C217.295 123.241 217.245 123.154 217.229 123.057C217.221 123.004 217.224 122.95 217.236 122.897C217.249 122.845 217.272 122.796 217.304 122.753C217.336 122.71 217.376 122.673 217.422 122.645C217.468 122.618 217.519 122.599 217.573 122.591L231.465 120.319C231.518 120.311 231.573 120.313 231.626 120.325C231.679 120.338 231.729 120.361 231.773 120.393C231.817 120.425 231.854 120.465 231.883 120.511C231.911 120.558 231.93 120.609 231.939 120.663C231.947 120.716 231.945 120.771 231.933 120.824C231.92 120.877 231.897 120.927 231.865 120.971C231.833 121.015 231.793 121.052 231.747 121.08C231.701 121.109 231.649 121.128 231.595 121.137L217.703 123.408L217.638 123.4Z" fill="#D1D3D4"/>
<path d="M84.7997 18.9849L67.0444 13.0992C66.4061 12.8876 65.7171 13.2335 65.5055 13.8718L62.4817 22.9938C62.2701 23.6321 62.616 24.3211 63.2543 24.5327L81.0096 30.4184C81.6479 30.63 82.3368 30.2841 82.5484 29.6458L85.5723 20.5238C85.7839 19.8855 85.438 19.1965 84.7997 18.9849Z" fill="white"/>
<path d="M81.3721 30.8782C81.2 30.8778 81.029 30.8503 80.8655 30.7965L63.108 24.9128C62.6992 24.7751 62.3614 24.4813 62.1683 24.0956C61.9755 23.7096 61.9432 23.2632 62.0784 22.8535L65.1019 13.7337C65.2383 13.3255 65.5302 12.9875 65.9142 12.7932C66.2983 12.5989 66.7434 12.5639 67.1531 12.6959L84.9105 18.5796C85.3191 18.7176 85.6566 19.0114 85.8495 19.3972C86.0424 19.7829 86.075 20.2292 85.9402 20.6389L82.9247 29.7587C82.8165 30.0848 82.6082 30.3686 82.3295 30.5696C82.0507 30.7705 81.7157 30.8785 81.3721 30.8782ZM81.1188 30.0202C81.3177 30.1019 81.5409 30.1019 81.7398 30.0202C81.8357 29.9719 81.9212 29.9052 81.9913 29.8239C82.0614 29.7425 82.1148 29.6482 82.1484 29.5462L85.1802 20.4346C85.2619 20.2357 85.2619 20.0125 85.1802 19.8136C85.0846 19.6215 84.9173 19.4747 84.7144 19.405L66.957 13.5212C66.7516 13.4549 66.5283 13.4725 66.3359 13.5703C66.1469 13.6675 66.0033 13.8346 65.9355 14.036L62.9119 23.1558C62.8343 23.3556 62.8343 23.5771 62.9119 23.7769C63.0111 23.9675 63.1814 24.1113 63.3859 24.1773L81.1188 30.0202Z" fill="#D1D3D4"/>
<path d="M73.6499 23.2953C73.5866 23.2947 73.5243 23.2797 73.4676 23.2514C73.411 23.223 73.3615 23.1822 73.323 23.1319L65.8458 13.3747C65.7874 13.2886 65.7641 13.1835 65.7805 13.0808C65.797 12.9781 65.852 12.8856 65.9343 12.822C66.0166 12.7584 66.1201 12.7287 66.2236 12.7387C66.3271 12.7488 66.4229 12.798 66.4914 12.8762L73.7725 22.4128L85.3112 19.144C85.3632 19.1292 85.4177 19.1248 85.4714 19.1311C85.5252 19.1375 85.5772 19.1545 85.6243 19.1811C85.6714 19.2077 85.7128 19.2434 85.746 19.2862C85.7793 19.3289 85.8037 19.3778 85.8178 19.4301C85.8454 19.5341 85.8308 19.6448 85.7773 19.7381C85.7237 19.8314 85.6355 19.8999 85.5318 19.9285L73.7316 23.3117L73.6499 23.2953Z" fill="#D1D3D4"/>
<path d="M81.8381 30.7968C81.7765 30.7978 81.7156 30.7842 81.6602 30.7573C81.6048 30.7303 81.5566 30.6907 81.5194 30.6416L75.0636 22.6495C74.9954 22.565 74.9635 22.4568 74.975 22.3488C74.9865 22.2407 75.0404 22.1417 75.1249 22.0734C75.2094 22.0051 75.3176 21.9732 75.4257 21.9847C75.5337 21.9962 75.6328 22.0502 75.701 22.1347L82.1568 30.1349C82.2236 30.2196 82.2542 30.3273 82.242 30.4344C82.2297 30.5416 82.1756 30.6395 82.0914 30.707C82.0192 30.7641 81.9302 30.7957 81.8381 30.7968Z" fill="#D1D3D4"/>
<path d="M62.5777 24.4228C62.5241 24.4292 62.4697 24.425 62.4176 24.4104C62.3656 24.3958 62.317 24.3711 62.2745 24.3377C62.232 24.3044 62.1965 24.2629 62.17 24.2158C62.1435 24.1687 62.1266 24.1168 62.1201 24.0632C62.1137 24.0095 62.1179 23.9551 62.1325 23.9031C62.147 23.8511 62.1717 23.8024 62.2051 23.7599C62.2385 23.7174 62.2799 23.6819 62.327 23.6554C62.3742 23.629 62.426 23.612 62.4797 23.6056L72.433 21.0559C72.485 21.0424 72.5392 21.0393 72.5925 21.0468C72.6458 21.0543 72.697 21.0722 72.7433 21.0996C72.7896 21.1269 72.8301 21.1631 72.8624 21.2061C72.8947 21.2491 72.9181 21.298 72.9315 21.3501C72.9449 21.4017 72.9479 21.4553 72.9403 21.508C72.9328 21.5607 72.9147 21.6114 72.8873 21.6571C72.8599 21.7027 72.8237 21.7425 72.7808 21.7739C72.7379 21.8054 72.6891 21.828 72.6373 21.8404L62.684 24.3982L62.5777 24.4228Z" fill="#D1D3D4"/>
</svg>
