<svg width="50" height="50" viewBox="0 0 50 50" fill="none" xmlns="http://www.w3.org/2000/svg">
<path d="M17.6589 14.25C20.7194 14.25 23.2005 11.7689 23.2005 8.70835C23.2005 5.64778 20.7194 3.16669 17.6589 3.16669C14.5983 3.16669 12.1172 5.64778 12.1172 8.70835C12.1172 11.7689 14.5983 14.25 17.6589 14.25Z" fill="#965EEB"/>
<path d="M37.0759 24.1167C43.7355 24.1167 49.1342 18.718 49.1342 12.0583C49.1342 5.3987 43.7355 0 37.0759 0C30.4163 0 25.0176 5.3987 25.0176 12.0583C25.0176 18.718 30.4163 24.1167 37.0759 24.1167Z" fill="#00AAFF"/>
<path d="M14.8333 45.8334C23.0256 45.8334 29.6667 39.1922 29.6667 31C29.6667 22.8078 23.0256 16.1667 14.8333 16.1667C6.64111 16.1667 0 22.8078 0 31C0 39.1922 6.64111 45.8334 14.8333 45.8334Z" fill="#04E061"/>
<path d="M40.5423 43.9667C45.4899 43.9667 49.5007 39.9559 49.5007 35.0083C49.5007 30.0608 45.4899 26.05 40.5423 26.05C35.5948 26.05 31.584 30.0608 31.584 35.0083C31.584 39.9559 35.5948 43.9667 40.5423 43.9667Z" fill="#FF4053"/>
</svg>
