<svg width="50" height="50" viewBox="0 0 50 50" fill="none" xmlns="http://www.w3.org/2000/svg">
<g clip-path="url(#clip0_4644_7)">
<path d="M25.0209 12.2615C24.5812 12.2615 24.1464 12.2839 23.7179 12.3278C23.2894 12.3717 22.8668 12.4368 22.4515 12.5221C22.0361 12.6075 21.6282 12.7132 21.2283 12.838L20.0549 13.2689L18.9376 13.8084L17.8833 14.4499L16.8982 15.1867L15.9892 16.0125L15.1626 16.9207L14.425 17.9047L13.7827 18.958L13.2429 20.074C13.0806 20.4557 12.9363 20.847 12.8113 21.2465C12.6864 21.646 12.5807 22.0538 12.4951 22.4687C12.4096 22.8836 12.3446 23.3056 12.3005 23.7338C12.2565 24.162 12.2344 24.5964 12.2344 25.0356C12.2344 25.4748 12.2568 25.9092 12.3005 26.3374C12.344 26.7621 12.409 27.1844 12.4951 27.6026C12.5807 28.0191 12.6864 28.4253 12.8113 28.8248C12.9363 29.2243 13.0804 29.6155 13.2429 29.9973L13.7827 31.1133L14.425 32.1665L15.1626 33.1506L15.9892 34.0589L16.8982 34.8846L17.8833 35.6214L18.9376 36.263L20.0549 36.8024L21.2283 37.2333L22.4515 37.5492C22.8701 37.6353 23.2927 37.7002 23.7179 37.7437C24.1508 37.7878 24.5857 37.8099 25.0209 37.8098C25.4606 37.8098 25.8955 37.7874 26.3238 37.7437C26.749 37.7002 27.1717 37.6353 27.5902 37.5492L28.8135 37.2333L29.987 36.8024L31.1041 36.263L32.1586 35.6214L33.1437 34.8846L34.0529 34.0589L34.8794 33.1506L35.617 32.1665L36.2594 31.1133L36.7992 29.9973L37.2307 28.8248C37.3556 28.4253 37.4614 28.0175 37.5469 27.6026L37.7415 26.3372C37.7854 25.909 37.8078 25.4746 37.8078 25.0354C37.8078 24.5962 37.7854 24.1618 37.7415 23.7336C37.698 23.3089 37.6331 22.8867 37.5469 22.4685C37.4614 22.0521 37.3556 21.646 37.2307 21.2464L36.7992 20.0738L36.2594 18.9579L35.617 17.9045L34.8794 16.9205L34.0529 16.0123L33.1437 15.1866L32.1586 14.4497L31.1041 13.8082L29.987 13.2687L28.8135 12.8378L27.5902 12.522L26.3238 12.3277C25.891 12.2835 25.4561 12.2613 25.0209 12.2614V12.2615ZM25.0209 16.6706C25.3117 16.6706 25.5986 16.6851 25.8811 16.7136L26.714 16.8396L27.5186 17.0447L28.2891 17.3245L29.0216 17.6753L29.7104 18.0926L30.3543 18.5726L30.9479 19.1111L31.4869 19.7041L31.9675 20.3474L32.3852 21.0372L32.736 21.7692C32.8414 22.0197 32.935 22.2765 33.0163 22.539C33.0977 22.8015 33.1661 23.0698 33.2214 23.3431C33.2766 23.6164 33.3175 23.8945 33.3474 24.1769L33.3904 25.0364C33.3904 25.3268 33.376 25.6135 33.3474 25.8961C33.3189 26.1786 33.277 26.4567 33.2214 26.7298C33.1658 27.0029 33.0972 27.2712 33.0163 27.5339L32.736 28.3037L32.3852 29.0358L31.9675 29.7253L31.4869 30.3688L30.9479 30.9618L30.3543 31.5003L29.7104 31.9804L29.0216 32.3976L28.2891 32.7484L27.5186 33.0283L26.714 33.2333L25.8811 33.3592C25.5952 33.3879 25.3081 33.4022 25.0208 33.4021C24.7334 33.4022 24.4462 33.3879 24.1603 33.3592L23.3274 33.2333C23.0539 33.1779 22.7855 33.1093 22.5226 33.0283L21.7521 32.7484L21.0196 32.3976L20.3309 31.9804L19.6869 31.5003L19.0933 30.9618L18.5543 30.3688L18.0738 29.7253L17.656 29.0358L17.3052 28.3037L17.0249 27.5339L16.8199 26.7298L16.6938 25.8961C16.6651 25.6104 16.6508 25.3235 16.6509 25.0364C16.6508 24.7493 16.6651 24.4625 16.6938 24.1769C16.7222 23.8945 16.7643 23.6162 16.8199 23.3431C16.8749 23.0719 16.9434 22.8036 17.0251 22.5392L17.3054 21.7693L17.6562 21.0373L18.0739 20.3476L18.5545 19.7043L19.0935 19.1113L19.6871 18.5728L20.331 18.0927L21.0198 17.6755L21.7523 17.3247C22.0044 17.2188 22.2616 17.1254 22.5229 17.0448L23.3277 16.8398C23.6011 16.7844 23.8795 16.7421 24.1606 16.7137C24.4465 16.6851 24.7337 16.6708 25.0211 16.6708L25.0209 16.6706Z" fill="url(#paint0_radial_4644_7)"/>
<path d="M38.3263 8.62769C38.2247 8.62771 38.1233 8.63284 38.0223 8.64306C37.9212 8.65327 37.8208 8.66856 37.7213 8.68888C37.6218 8.70917 37.5234 8.73445 37.4264 8.76464C37.3294 8.79485 37.234 8.82992 37.1405 8.86972C37.047 8.90957 36.9555 8.9541 36.8664 9.00315C36.7773 9.0521 36.6907 9.10551 36.6069 9.16317C36.5231 9.22089 36.4422 9.2828 36.3646 9.34866C36.2869 9.41445 36.2126 9.48411 36.1419 9.55737C36.0712 9.63068 36.0041 9.7075 35.941 9.78755C35.8779 9.86761 35.8189 9.95079 35.764 10.0368C35.7092 10.1227 35.6587 10.2114 35.6127 10.3024C35.5666 10.3935 35.525 10.4868 35.4882 10.582C35.4514 10.6773 35.4194 10.7743 35.3923 10.8728C35.3651 10.9712 35.3429 11.071 35.3256 11.1717C35.3084 11.2723 35.2961 11.3738 35.2889 11.4757C35.2838 11.5479 35.2813 11.6202 35.2813 11.6926C35.2812 11.7948 35.2863 11.897 35.2965 11.9987C35.3066 12.1004 35.3218 12.2014 35.342 12.3016C35.3621 12.4017 35.3872 12.5008 35.4172 12.5984C35.4473 12.696 35.4821 12.7921 35.5217 12.8862C35.5612 12.9804 35.6054 13.0725 35.6541 13.1622C35.7028 13.2519 35.7559 13.3391 35.8132 13.4235C35.8705 13.5078 35.932 13.5892 35.9974 13.6673C36.0628 13.7455 36.132 13.8203 36.2048 13.8915C36.2777 13.9627 36.354 14.0302 36.4336 14.0937C36.5131 14.1572 36.5958 14.2167 36.6812 14.272C36.7667 14.3272 36.8548 14.3781 36.9454 14.4245C37.0358 14.4708 37.1285 14.5126 37.2231 14.5497C37.3177 14.5867 37.4141 14.619 37.5119 14.6463C37.6097 14.6736 37.7089 14.6959 37.8089 14.7133C37.9089 14.7307 38.0097 14.743 38.111 14.7503C38.1827 14.7554 38.2546 14.7579 38.3264 14.758C38.428 14.758 38.5294 14.7529 38.6305 14.7427C38.7315 14.7325 38.8319 14.7172 38.9314 14.6969C39.0309 14.6766 39.1294 14.6513 39.2263 14.6212C39.3233 14.591 39.4187 14.5559 39.5123 14.5161C39.6058 14.4763 39.6972 14.4318 39.7863 14.3828C39.8754 14.3338 39.962 14.2803 40.0458 14.2226C40.1296 14.165 40.2105 14.1031 40.2882 14.0373C40.3658 13.9715 40.4401 13.9017 40.5108 13.8284C40.5815 13.7551 40.6486 13.6783 40.7117 13.5982C40.7748 13.5182 40.8339 13.435 40.8887 13.349C40.9435 13.263 40.994 13.1743 41.0401 13.0833C41.0862 12.9922 41.1277 12.8988 41.1645 12.8036C41.2013 12.7084 41.2333 12.6113 41.2605 12.5129C41.2876 12.4144 41.3099 12.3147 41.3271 12.214C41.3444 12.1133 41.3566 12.0118 41.3638 11.9099C41.3689 11.8378 41.3715 11.7654 41.3715 11.6931C41.3715 11.5909 41.3664 11.4888 41.3563 11.3871C41.3461 11.2854 41.3309 11.1844 41.3108 11.0842C41.2906 10.9841 41.2655 10.885 41.2355 10.7874C41.2055 10.6898 41.1706 10.5937 41.131 10.4996C41.0915 10.4054 41.0473 10.3133 40.9986 10.2236C40.9499 10.1339 40.8968 10.0467 40.8395 9.96231C40.7821 9.87795 40.7206 9.79653 40.6551 9.71836C40.5898 9.64017 40.5206 9.56533 40.4479 9.4941C40.375 9.42292 40.2987 9.35546 40.2191 9.29195C40.1396 9.22846 40.0569 9.16901 39.9715 9.11383C39.886 9.0586 39.7979 9.0077 39.7074 8.96134C39.6169 8.91495 39.5242 8.87315 39.4296 8.83608C39.335 8.79906 39.2386 8.76682 39.1408 8.73949C39.043 8.71215 38.9439 8.68975 38.8438 8.67238C38.7438 8.65504 38.643 8.64274 38.5417 8.63553C38.47 8.63041 38.3982 8.62785 38.3263 8.62785V8.62769Z" fill="url(#paint1_radial_4644_7)"/>
<path d="M22.5968 0.0452046C21.2061 0.0429621 19.9651 0.0487278 18.8502 0.0644255L15.8612 0.144516C14.9758 0.182959 14.1934 0.233092 13.4912 0.297965C13.1401 0.330321 12.8088 0.366523 12.4949 0.406407C12.1961 0.444062 11.8982 0.48791 11.6012 0.537918C11.3185 0.585972 11.0502 0.637868 10.793 0.694251C10.5357 0.750635 10.29 0.811506 10.0529 0.876859C9.82117 0.940766 9.59122 1.01106 9.36335 1.08766C9.14006 1.16294 8.92221 1.24271 8.70709 1.32793C8.27685 1.49836 7.85717 1.68961 7.42501 1.90393C7.09247 2.06892 6.78524 2.23599 6.4934 2.41283C6.20155 2.58967 5.92508 2.77644 5.65437 2.97987C5.37559 3.19039 5.10688 3.41393 4.84914 3.64974C4.57972 3.89514 4.30453 4.16504 4.01861 4.46666C3.65932 4.84357 3.34713 5.19501 3.07002 5.53987C2.93146 5.71223 2.80172 5.88266 2.6795 6.05405C2.55863 6.22296 2.44309 6.39561 2.33303 6.57175C2.22411 6.74635 2.12095 6.92415 2.02228 7.10708C1.92207 7.29316 1.82736 7.48214 1.73828 7.6738C1.55599 8.06528 1.38588 8.48687 1.21609 8.95748C1.09013 9.3054 0.977333 9.65794 0.877949 10.0144C0.776555 10.3786 0.686373 10.7597 0.605963 11.1718C0.525552 11.584 0.455393 12.0272 0.393723 12.5173C0.327268 13.0546 0.274178 13.5935 0.234504 14.1334C0.189653 14.727 0.152492 15.3802 0.122057 16.1073L0.0499763 18.5247L0.0112126 21.4716L0 25.0335L0.032837 30.2133L0.135352 34.1377L0.214321 35.6706L0.312993 36.9409C0.344623 37.2832 0.384198 37.6248 0.431687 37.9654C0.474935 38.2678 0.521387 38.5324 0.571364 38.7615C0.672769 39.2272 0.792679 39.6886 0.930809 40.1448C1.06307 40.5815 1.21431 41.0123 1.38412 41.4358C1.55103 41.8507 1.73363 42.2508 1.93226 42.6359C2.13088 43.021 2.34552 43.391 2.57618 43.7464C2.80684 44.1019 3.05352 44.4427 3.31686 44.769C3.57989 45.0953 3.85968 45.4078 4.15508 45.7051C4.45093 46.0031 4.76297 46.2866 5.09182 46.556C5.42456 46.8285 5.77043 47.0846 6.12818 47.3233C6.46024 47.5453 6.78877 47.7485 7.1197 47.9352C7.45064 48.1218 7.78445 48.2911 8.12756 48.445C8.47066 48.5989 8.82242 48.7375 9.18987 48.8621C9.55733 48.9867 9.94016 49.0976 10.3448 49.1959C10.7494 49.2943 11.1777 49.3806 11.631 49.4559C12.0843 49.5312 12.5689 49.5957 13.0866 49.6513C13.6043 49.7069 14.1566 49.7529 14.7501 49.7913C15.3435 49.8298 15.9778 49.8605 16.6594 49.8852C17.7123 49.9233 19.3061 49.9456 21.144 49.9541L27.0939 49.9421L32.7281 49.8631L34.8703 49.8029L36.266 49.7311C36.5655 49.7068 36.8586 49.6779 37.1415 49.6441C37.4244 49.6103 37.7034 49.5717 37.9751 49.5278C38.2468 49.4839 38.5123 49.4349 38.7733 49.3805C39.0312 49.3268 39.2878 49.2668 39.5428 49.2006C39.7952 49.1365 40.0442 49.0636 40.2905 48.9863C40.5369 48.9089 40.7807 48.8253 41.023 48.7356C41.2668 48.6453 41.5083 48.5491 41.7474 48.4471C41.9881 48.3446 42.2285 48.235 42.4698 48.1187C42.8403 47.9403 43.1385 47.7915 43.4004 47.6462C43.6468 47.511 43.884 47.3599 44.1107 47.1938C44.3343 47.0292 44.5566 46.8418 44.8129 46.6057C45.0692 46.3696 45.3596 46.0851 45.7192 45.7253C46.0352 45.4094 46.3018 45.1349 46.5316 44.8852C46.7615 44.6354 46.9551 44.4107 47.1249 44.1941C47.2868 43.9887 47.4376 43.7747 47.5766 43.5531C47.7123 43.3369 47.8373 43.1123 47.9646 42.8632C48.1562 42.4884 48.3266 42.1413 48.4793 41.8063C48.6275 41.4835 48.7629 41.155 48.8852 40.8215C49.0056 40.4907 49.1099 40.1542 49.1977 39.8132C49.288 39.4624 49.3659 39.0921 49.4331 38.6859C49.5004 38.2796 49.5573 37.8375 49.6066 37.3439C49.6559 36.8502 49.6979 36.3046 49.7348 35.6916L49.8325 33.6338L49.9164 31.0746L49.9763 28.2233L49.9994 25.2421L49.9459 19.3867L49.8743 16.764L49.7766 14.5122L49.6548 12.7566C49.6106 12.2681 49.5629 11.8833 49.5123 11.6232C49.4563 11.3358 49.3937 11.0497 49.3245 10.7651C49.2573 10.4882 49.1833 10.213 49.1027 9.93971C49.0241 9.67344 48.9388 9.40922 48.8467 9.1473C48.7557 8.88861 48.6593 8.63536 48.5584 8.38756C48.4575 8.13976 48.3482 7.89773 48.2345 7.66082C48.1208 7.42392 48.0016 7.19278 47.8765 6.96692C47.7514 6.74107 47.621 6.52082 47.4847 6.30602C47.3484 6.09121 47.2065 5.88186 47.0586 5.67811C46.9116 5.47501 46.7583 5.27656 46.5989 5.08304C46.4403 4.89058 46.2757 4.70318 46.1052 4.52113C45.935 4.3393 45.7591 4.1629 45.5778 3.99221C45.3963 3.82146 45.2093 3.65615 45.0165 3.49629C44.8229 3.3359 44.6244 3.18157 44.4212 3.03353C44.2159 2.88397 44.0061 2.7407 43.7921 2.60393C43.5751 2.4652 43.354 2.33294 43.1292 2.20732C42.9005 2.07959 42.6681 1.95844 42.4324 1.84403C42.0413 1.65389 41.6796 1.48523 41.3245 1.33562C40.9754 1.18714 40.6195 1.05527 40.258 0.940452C39.8944 0.825922 39.5159 0.727733 39.0994 0.642997C38.6829 0.558262 38.2288 0.487622 37.7148 0.427554C37.2008 0.367487 36.6269 0.318953 35.9704 0.278588C35.314 0.238222 34.5758 0.206504 33.7327 0.180875L30.8677 0.116804L27.2417 0.0740359L22.5984 0.0455223L22.5968 0.0452046ZM25.0083 4.45049L31.7044 4.48861L34.2304 4.5373C34.9261 4.55685 35.4569 4.57975 35.7681 4.60618C36.1734 4.6403 36.5594 4.68307 36.9286 4.73433C37.283 4.78325 37.6356 4.8441 37.9858 4.91677C38.3222 4.98725 38.6431 5.06734 38.9501 5.15768C39.2572 5.24803 39.5505 5.34926 39.8319 5.46122C40.1134 5.57319 40.3825 5.69637 40.6415 5.83124C40.8984 5.9651 41.1481 6.1124 41.3895 6.27254C41.6298 6.43192 41.8614 6.60363 42.0863 6.78864C42.3112 6.97365 42.5292 7.17195 42.7421 7.38403C42.9668 7.6078 43.1741 7.83574 43.3652 8.07088C43.5556 8.30457 43.7317 8.5495 43.8926 8.80435C44.0554 9.06283 44.2021 9.33111 44.3319 9.60765C44.4645 9.88957 44.5837 10.1875 44.6907 10.5042C44.7977 10.8209 44.893 11.1574 44.9774 11.517C45.0658 11.8983 45.1399 12.2827 45.1994 12.6695C45.2635 13.0796 45.3183 13.5169 45.3647 13.9851C45.4112 14.4533 45.4496 14.9526 45.4813 15.4868C45.5066 15.9152 45.5287 16.4807 45.5475 17.1485L45.5944 19.4254L45.6303 25.0029L45.5894 30.5751L45.5404 32.8455L45.473 34.4968C45.4262 35.27 45.3769 35.92 45.3179 36.4858C45.2883 36.7687 45.2563 37.0304 45.2207 37.2759C45.1874 37.5079 45.1479 37.739 45.1023 37.9689C45.0607 38.1786 45.0123 38.387 44.9574 38.5936C44.9047 38.7908 44.8455 38.9862 44.7797 39.1794C44.7135 39.3735 44.6414 39.5656 44.5636 39.7554C44.4814 39.9558 44.3946 40.1543 44.3034 40.3508C44.2221 40.5262 44.1368 40.6968 44.0464 40.8629C43.9571 41.0273 43.8622 41.1886 43.7619 41.3466C43.6626 41.5031 43.5585 41.6551 43.4496 41.8023C43.3413 41.9491 43.2277 42.0918 43.109 42.2303C42.9908 42.3683 42.8675 42.5018 42.7395 42.6308C42.6114 42.7597 42.4784 42.8842 42.3407 43.0043C42.2029 43.1245 42.06 43.2398 41.9122 43.351C41.7643 43.4621 41.6114 43.5688 41.4533 43.671C41.2952 43.7732 41.1321 43.8712 40.9637 43.9648C40.7954 44.0583 40.6218 44.1477 40.4432 44.2327C40.2615 44.3191 40.0772 44.4 39.8907 44.4753C39.6979 44.553 39.5029 44.6254 39.306 44.6923C38.9056 44.8288 38.4832 44.9486 38.0385 45.0519C37.5751 45.1589 37.1074 45.2465 36.6366 45.3143C36.4556 45.3407 36.0396 45.3655 35.4438 45.3886L33.1731 45.4517L26.7354 45.5353L19.9972 45.5459L17.3511 45.5177L15.6328 45.4642L14.3658 45.3752C13.9724 45.342 13.6065 45.3052 13.2637 45.2633C12.921 45.2215 12.6017 45.1749 12.3014 45.1224C12.0168 45.0732 11.7339 45.0144 11.4532 44.9462C11.1973 44.8839 10.944 44.8114 10.694 44.7287C10.4529 44.6486 10.2224 44.5605 9.99814 44.4636C9.77389 44.3667 9.55605 44.2605 9.34028 44.1445C9.12452 44.0285 8.911 43.9026 8.69508 43.7653C8.53217 43.6619 8.37472 43.5571 8.22319 43.4461C8.07165 43.3351 7.92525 43.2244 7.78429 43.1084C7.64333 42.9925 7.50798 42.873 7.37743 42.75C7.24775 42.6275 7.12252 42.5005 7.00197 42.369C6.88183 42.238 6.76698 42.1031 6.65678 41.9635C6.54615 41.8232 6.44073 41.679 6.34074 41.531C6.23927 41.3807 6.14326 41.2268 6.0529 41.0697C5.9616 40.9111 5.87478 40.7471 5.79229 40.5779C5.70841 40.4055 5.63015 40.2305 5.55762 40.053C5.48394 39.8723 5.4141 39.6859 5.34843 39.4933C5.21708 39.1081 5.10175 38.698 5.00147 38.2607C4.9012 37.8234 4.81567 37.3589 4.74326 36.864C4.67086 36.369 4.61256 35.8443 4.5661 35.2865C4.53183 34.8756 4.50459 34.2357 4.48377 33.4284L4.4402 30.5572L4.45622 23.2377L4.58228 16.2436L4.67839 13.7794L4.73285 12.9649C4.75175 12.7474 4.7713 12.5862 4.79132 12.4895C4.85731 12.1712 4.92379 11.875 4.9925 11.5977C5.0567 11.3362 5.12811 11.0764 5.20667 10.8188C5.28131 10.5756 5.35996 10.3478 5.44405 10.1321C5.52514 9.92307 5.61552 9.71779 5.71492 9.51683C5.81199 9.32141 5.91627 9.13432 6.02951 8.9522C6.14276 8.77007 6.26498 8.59339 6.39825 8.41767C6.53152 8.24196 6.67504 8.06848 6.83122 7.8926C6.98739 7.71672 7.15606 7.53909 7.33899 7.356C7.55218 7.1416 7.77417 6.93612 8.00438 6.74011C8.22175 6.55517 8.44844 6.38147 8.68354 6.21968C8.91468 6.0595 9.15175 5.91694 9.39859 5.78591C9.64543 5.65488 9.90204 5.53651 10.1719 5.42999C10.4418 5.32347 10.7254 5.22816 11.0257 5.14166C11.3412 5.05316 11.6603 4.97765 11.982 4.91533C12.3203 4.84902 12.6796 4.79119 13.0632 4.74073C13.4468 4.69027 13.855 4.64671 14.2913 4.6089C14.5956 4.58263 15.1201 4.55925 15.8106 4.53955L18.3238 4.48989L25.0095 4.44904L25.0083 4.45049Z" fill="url(#paint2_radial_4644_7)"/>
</g>
<defs>
<radialGradient id="paint0_radial_4644_7" cx="0" cy="0" r="1" gradientTransform="matrix(104.214 -17.4975 10.6404 63.2542 7.96508 53.5923)" gradientUnits="userSpaceOnUse">
<stop stop-color="#FED576"/>
<stop offset="0.263" stop-color="#F47133"/>
<stop offset="0.609" stop-color="#BC3081"/>
<stop offset="1" stop-color="#4C63D2"/>
</radialGradient>
<radialGradient id="paint1_radial_4644_7" cx="0" cy="0" r="1" gradientTransform="matrix(104.214 -17.4975 10.6404 63.2542 7.96519 53.5923)" gradientUnits="userSpaceOnUse">
<stop stop-color="#FED576"/>
<stop offset="0.263" stop-color="#F47133"/>
<stop offset="0.609" stop-color="#BC3081"/>
<stop offset="1" stop-color="#4C63D2"/>
</radialGradient>
<radialGradient id="paint2_radial_4644_7" cx="0" cy="0" r="1" gradientTransform="matrix(104.214 -17.4975 10.6404 63.2542 7.96577 53.5923)" gradientUnits="userSpaceOnUse">
<stop stop-color="#FED576"/>
<stop offset="0.263" stop-color="#F47133"/>
<stop offset="0.609" stop-color="#BC3081"/>
<stop offset="1" stop-color="#4C63D2"/>
</radialGradient>
<clipPath id="clip0_4644_7">
<rect width="50" height="50" fill="white"/>
</clipPath>
</defs>
</svg>
