<svg width="30" height="30" viewBox="0 0 30 30" fill="none" xmlns="http://www.w3.org/2000/svg">
<g clip-path="url(#clip0_2264_1914)">
<path d="M22.5096 0H7.49043C3.35358 0 0 3.35358 0 7.49043V22.5096C0 26.6464 3.35358 30 7.49043 30H22.5096C26.6464 30 30 26.6464 30 22.5096V7.49043C30 3.35358 26.6464 0 22.5096 0Z" fill="url(#paint0_linear_2264_1914)"/>
<path d="M22.5096 0H7.49043C3.35358 0 0 3.35358 0 7.49043V22.5096C0 26.6464 3.35358 30 7.49043 30H22.5096C26.6464 30 30 26.6464 30 22.5096V7.49043C30 3.35358 26.6464 0 22.5096 0Z" fill="url(#paint1_radial_2264_1914)"/>
<path fill-rule="evenodd" clip-rule="evenodd" d="M15.3789 27.0148C13.1287 27.0148 12.083 26.6863 10.2653 25.3723C9.11555 26.8506 5.47472 28.0058 5.31593 26.0293C5.31593 24.5457 4.98743 23.2919 4.61513 21.9231C4.17167 20.2368 3.66797 18.3589 3.66797 15.6379C3.66797 9.13913 9.00059 4.25 15.3187 4.25C21.6422 4.25 26.5971 9.38003 26.5971 15.6981C26.6183 21.9185 21.5992 26.9817 15.3789 27.0148ZM15.472 9.86729C12.3951 9.70853 9.99701 11.8383 9.46595 15.178C9.02795 17.9429 9.8054 21.3099 10.4679 21.4851C10.7854 21.5618 11.5848 20.9158 12.083 20.4175C12.9068 20.9867 13.8662 21.3285 14.8643 21.4085C18.0525 21.5619 20.7767 19.1347 20.9907 15.95C21.1153 12.7585 18.6606 10.0554 15.472 9.87278V9.86729Z" fill="white"/>
</g>
<defs>
<linearGradient id="paint0_linear_2264_1914" x1="3.53541" y1="22.8161" x2="30" y2="15" gradientUnits="userSpaceOnUse">
<stop stop-color="#44CCFF"/>
<stop offset="0.662" stop-color="#5533EE"/>
<stop offset="1" stop-color="#9933DD"/>
</linearGradient>
<radialGradient id="paint1_radial_2264_1914" cx="0" cy="0" r="1" gradientUnits="userSpaceOnUse" gradientTransform="translate(-0.713724 -13.1756) rotate(51.356) scale(36.4055 15)">
<stop stop-color="#0000FF"/>
<stop offset="1" stop-opacity="0"/>
</radialGradient>
<clipPath id="clip0_2264_1914">
<rect width="30" height="30" fill="white"/>
</clipPath>
</defs>
</svg>
