<svg width="24" height="24" viewBox="0 0 24 24" fill="none" xmlns="http://www.w3.org/2000/svg">
<g clip-path="url(#clip0_2989_849)">
<path d="M0 24V2.4C0 1.74 0.2352 1.1752 0.7056 0.7056C1.176 0.236 1.7408 0.0008 2.4 0H21.6C22.26 0 22.8252 0.2352 23.2956 0.7056C23.766 1.176 24.0008 1.7408 24 2.4V16.8C24 17.46 23.7652 18.0252 23.2956 18.4956C22.826 18.966 22.2608 19.2008 21.6 19.2H4.8L0 24ZM8.0556 10.4544C8.2852 10.2248 8.4 9.94 8.4 9.6C8.4 9.26 8.2848 8.9752 8.0544 8.7456C7.824 8.516 7.5392 8.4008 7.2 8.4C6.8608 8.3992 6.576 8.5144 6.3456 8.7456C6.1152 8.9768 6 9.2616 6 9.6C6 9.9384 6.1152 10.2236 6.3456 10.4556C6.576 10.6876 6.8608 10.8024 7.2 10.8C7.5392 10.7976 7.8244 10.6824 8.0556 10.4544ZM12.8556 10.4544C13.0852 10.2256 13.2 9.9408 13.2 9.6C13.2 9.2592 13.0848 8.9744 12.8544 8.7456C12.624 8.5168 12.3392 8.4016 12 8.4C11.6608 8.3984 11.376 8.5136 11.1456 8.7456C10.9152 8.9776 10.8 9.2624 10.8 9.6C10.8 9.9376 10.9152 10.2228 11.1456 10.4556C11.376 10.6884 11.6608 10.8032 12 10.8C12.3392 10.7968 12.6244 10.6816 12.8556 10.4544ZM17.6556 10.4544C17.8852 10.2256 18 9.9408 18 9.6C18 9.2592 17.8848 8.9744 17.6544 8.7456C17.424 8.5168 17.1392 8.4016 16.8 8.4C16.4608 8.3984 16.176 8.5136 15.9456 8.7456C15.7152 8.9776 15.6 9.2624 15.6 9.6C15.6 9.9376 15.7152 10.2228 15.9456 10.4556C16.176 10.6884 16.4608 10.8032 16.8 10.8C17.1392 10.7968 17.4244 10.6816 17.6556 10.4544Z" fill="#23C633"/>
</g>
<defs>
<clipPath id="clip0_2989_849">
<rect width="24" height="24" fill="white"/>
</clipPath>
</defs>
</svg>
