<svg width="140" height="34" viewBox="0 0 140 34" fill="none" xmlns="http://www.w3.org/2000/svg">
<rect width="65" height="34" rx="6" fill="#F34669"/>
<path d="M12.4 24.16C11.0133 24.16 9.87333 23.9 8.98 23.38C8.1 22.86 7.44667 22.1133 7.02 21.14C6.60667 20.1667 6.4 19 6.4 17.64V9.84H9.26V17.78C9.26 18.42 9.35333 19.0267 9.54 19.6C9.74 20.16 10.0667 20.62 10.52 20.98C10.9867 21.3267 11.62 21.5 12.42 21.5C13.2333 21.5 13.86 21.3267 14.3 20.98C14.74 20.62 15.0467 20.1533 15.22 19.58C15.3933 19.0067 15.48 18.4067 15.48 17.78V9.84H18.34V17.64C18.34 18.9867 18.1333 20.1533 17.72 21.14C17.3067 22.1133 16.66 22.86 15.78 23.38C14.9 23.9 13.7733 24.16 12.4 24.16ZM20.9861 18.26V15.76H27.7661V18.26H20.9861ZM36.7039 24.16C35.2506 24.16 33.9972 23.8533 32.9439 23.24C31.9039 22.6267 31.1039 21.78 30.5439 20.7C29.9972 19.6067 29.7239 18.3533 29.7239 16.94C29.7239 15.5 30.0039 14.2333 30.5639 13.14C31.1372 12.0467 31.9506 11.2 33.0039 10.6C34.0572 9.98667 35.3106 9.68 36.7639 9.68C38.2039 9.68 39.4439 9.98 40.4839 10.58C41.5239 11.18 42.3239 12.02 42.8839 13.1C43.4572 14.18 43.7439 15.44 43.7439 16.88C43.7439 18.2933 43.4572 19.5533 42.8839 20.66C42.3239 21.7533 41.5172 22.6133 40.4639 23.24C39.4239 23.8533 38.1706 24.16 36.7039 24.16ZM36.7439 21.48C37.7039 21.48 38.4839 21.26 39.0839 20.82C39.6839 20.38 40.1172 19.8133 40.3839 19.12C40.6639 18.4267 40.8039 17.7 40.8039 16.94C40.8039 16.38 40.7239 15.8267 40.5639 15.28C40.4172 14.7333 40.1839 14.24 39.8639 13.8C39.5439 13.36 39.1239 13.0133 38.6039 12.76C38.0839 12.4933 37.4572 12.36 36.7239 12.36C35.7772 12.36 35.0039 12.58 34.4039 13.02C33.8039 13.4467 33.3572 14.0067 33.0639 14.7C32.7839 15.3933 32.6439 16.1333 32.6439 16.92C32.6439 17.7067 32.7839 18.4467 33.0639 19.14C33.3572 19.8333 33.8039 20.4 34.4039 20.84C35.0172 21.2667 35.7972 21.48 36.7439 21.48ZM45.9727 24V9.84H48.8927L55.4327 19.42V9.84H58.2927V24H55.4527L48.8327 14.52V24H45.9727Z" fill="white"/>
<path d="M74.4 24.5V10.7H69.216V7.508H83.064V10.7H77.856V24.5H74.4ZM84.1247 24.5V11.852H87.1487L87.3647 13.364C87.6847 12.884 88.0447 12.524 88.4447 12.284C88.8447 12.028 89.2607 11.86 89.6927 11.78C90.1247 11.684 90.5647 11.636 91.0127 11.636C91.2207 11.636 91.4127 11.644 91.5887 11.66C91.7647 11.66 91.8927 11.66 91.9727 11.66V14.9H91.1807C90.4287 14.9 89.7727 15.028 89.2127 15.284C88.6527 15.54 88.2207 15.94 87.9167 16.484C87.6287 17.028 87.4847 17.724 87.4847 18.572V24.5H84.1247ZM97.5546 24.668C96.9786 24.668 96.4186 24.596 95.8746 24.452C95.3466 24.292 94.8746 24.052 94.4586 23.732C94.0426 23.412 93.7146 23.012 93.4746 22.532C93.2346 22.052 93.1146 21.492 93.1146 20.852C93.1146 19.988 93.2906 19.3 93.6426 18.788C93.9946 18.26 94.4666 17.86 95.0586 17.588C95.6506 17.316 96.3306 17.132 97.0986 17.036C97.8826 16.94 98.6906 16.892 99.5226 16.892H101.347C101.347 16.428 101.259 16.02 101.083 15.668C100.923 15.3 100.675 15.02 100.339 14.828C100.003 14.62 99.5706 14.516 99.0426 14.516C98.7066 14.516 98.3786 14.564 98.0586 14.66C97.7546 14.74 97.4986 14.86 97.2906 15.02C97.0826 15.18 96.9466 15.388 96.8826 15.644H93.4746C93.5706 14.94 93.7946 14.34 94.1466 13.844C94.4986 13.332 94.9386 12.916 95.4666 12.596C95.9946 12.276 96.5706 12.044 97.1946 11.9C97.8346 11.74 98.4906 11.66 99.1626 11.66C101.003 11.66 102.363 12.188 103.243 13.244C104.123 14.284 104.563 15.764 104.563 17.684V24.5H101.539L101.491 22.868C101.091 23.428 100.635 23.836 100.123 24.092C99.6266 24.348 99.1466 24.508 98.6826 24.572C98.2186 24.636 97.8426 24.668 97.5546 24.668ZM98.3226 22.004C98.8826 22.004 99.3946 21.892 99.8586 21.668C100.323 21.444 100.691 21.14 100.963 20.756C101.235 20.372 101.371 19.94 101.371 19.46V19.148H99.0666C98.7306 19.148 98.4026 19.164 98.0826 19.196C97.7786 19.228 97.4986 19.292 97.2426 19.388C97.0026 19.468 96.8106 19.604 96.6666 19.796C96.5226 19.988 96.4506 20.244 96.4506 20.564C96.4506 20.884 96.5306 21.156 96.6906 21.38C96.8666 21.588 97.0986 21.748 97.3866 21.86C97.6746 21.956 97.9866 22.004 98.3226 22.004ZM110.307 24.5L105.867 11.852H109.539L112.563 21.764L115.563 11.852H119.259L114.819 24.5H110.307ZM126.354 24.668C125.026 24.668 123.898 24.404 122.97 23.876C122.042 23.348 121.33 22.604 120.834 21.644C120.338 20.668 120.09 19.532 120.09 18.236C120.09 16.924 120.346 15.78 120.858 14.804C121.37 13.812 122.09 13.036 123.018 12.476C123.962 11.916 125.074 11.636 126.354 11.636C127.314 11.636 128.154 11.796 128.874 12.116C129.61 12.436 130.226 12.884 130.722 13.46C131.234 14.036 131.61 14.708 131.85 15.476C132.106 16.228 132.226 17.044 132.21 17.924C132.21 18.148 132.202 18.364 132.186 18.572C132.17 18.78 132.138 18.988 132.09 19.196H123.426C123.474 19.676 123.61 20.116 123.834 20.516C124.058 20.916 124.37 21.236 124.77 21.476C125.186 21.7 125.698 21.812 126.306 21.812C126.706 21.812 127.074 21.772 127.41 21.692C127.746 21.596 128.034 21.452 128.274 21.26C128.514 21.068 128.682 20.844 128.778 20.588H132.09C131.882 21.532 131.49 22.308 130.914 22.916C130.354 23.524 129.674 23.972 128.874 24.26C128.074 24.532 127.234 24.668 126.354 24.668ZM123.498 16.844H128.994C128.978 16.412 128.866 16.012 128.658 15.644C128.466 15.26 128.17 14.956 127.77 14.732C127.386 14.492 126.89 14.372 126.282 14.372C125.674 14.372 125.162 14.492 124.746 14.732C124.346 14.972 124.042 15.284 123.834 15.668C123.642 16.036 123.53 16.428 123.498 16.844ZM134.375 24.5V7.508H137.735V24.5H134.375Z" fill="black"/>
</svg>
