<svg width="512" height="512" viewBox="0 0 512 512" fill="none" xmlns="http://www.w3.org/2000/svg">
<g clip-path="url(#clip0_4644_12)">
<path d="M435.2 0H76.8C34.3845 0 0 34.3845 0 76.8V435.2C0 477.615 34.3845 512 76.8 512H435.2C477.615 512 512 477.615 512 435.2V76.8C512 34.3845 477.615 0 435.2 0Z" fill="#665CA7"/>
<path d="M269 186C273.109 185.861 277.202 186.567 281.026 188.076C284.85 189.584 288.324 191.863 291.23 194.77C294.137 197.676 296.416 201.15 297.924 204.974C299.433 208.798 300.139 212.891 300 217M262 159C270.663 158.99 279.238 160.74 287.205 164.142C295.172 167.544 302.366 172.529 308.349 178.793C314.333 185.057 318.983 192.472 322.017 200.586C325.051 208.7 326.406 217.346 326 226M253 133C266.516 132.686 279.949 135.201 292.437 140.383C304.924 145.566 316.19 153.301 325.512 163.094C334.834 172.887 342.006 184.52 346.567 197.247C351.129 209.975 352.979 223.515 352 237" stroke="white" stroke-width="10" stroke-linecap="round"/>
<path fill-rule="evenodd" clip-rule="evenodd" d="M95 232C95 141 112 85 256 85C400 85 417 141 417 232C417 323 400 379 256 379L230 378L177 441C173 445 169 442 169 438V369C163 369 138 357 131 350C109 327 95 310 95 232ZM65 232C65 106 120 55 256 55C392 55 447 106 447 232C447 358 392 409 256 409C246 409 238 409 224 407L186 450C179 458 158 461 158 437V395C152 395 138 389 119 377C100 364 65 333 65 232ZM288 274C294.667 265.333 302.667 264 312 270L348 297C353.333 303.667 351 313 341 325C331 337 321.667 342 313 340C277.667 332 243.667 312 211 280C178.333 248 158 213.333 150 176C150 162.667 158.333 151.333 175 142C183.667 136 191 137.667 197 147L222 182C226 190 223.667 197.333 215 204C176 219 266 316 288 274Z" fill="white"/>
</g>
<defs>
<clipPath id="clip0_4644_12">
<rect width="512" height="512" fill="white"/>
</clipPath>
</defs>
</svg>
