<svg width="30" height="31" viewBox="0 0 30 31" fill="none" xmlns="http://www.w3.org/2000/svg">
<path d="M7.92937 25.9943L8.41983 26.2396C10.4634 27.4657 12.7523 28.0379 15.0411 28.0379C22.2345 28.0379 28.1201 22.1524 28.1201 14.9589C28.1201 11.5257 26.7305 8.17416 24.2781 5.72184C21.8258 3.26953 18.5561 1.87988 15.0411 1.87988C7.84763 1.87988 1.96207 7.76544 2.04381 15.0406C2.04381 17.493 2.77951 19.8635 4.00566 21.9071L4.33264 22.3976L3.02474 27.2205L7.92937 25.9943Z" fill="#00E676"/>
<path d="M25.6676 4.41417C22.8883 1.55313 19.0463 0 15.1226 0C6.78474 0 0.0817439 6.78474 0.163488 15.0409C0.163488 17.6567 0.899183 20.1907 2.12534 22.4796L0 30.2452L7.92915 28.2016C10.1362 29.4278 12.5886 30 15.0409 30C23.297 30 30 23.2153 30 14.9591C30 10.9537 28.4469 7.19346 25.6676 4.41417ZM15.1226 27.4659C12.9155 27.4659 10.7084 26.8937 8.82834 25.7493L8.33788 25.5041L3.59673 26.7302L4.82289 22.0708L4.49591 21.5804C0.899182 15.7766 2.6158 8.09264 8.50136 4.49591C14.3869 0.899182 21.9891 2.6158 25.5858 8.50136C29.1826 14.3869 27.4659 21.9891 21.5804 25.5858C19.7003 26.812 17.4114 27.4659 15.1226 27.4659ZM22.3161 18.3924L21.4169 17.9836C21.4169 17.9836 20.109 17.4114 19.2916 17.0027C19.2098 17.0027 19.1281 16.921 19.0463 16.921C18.8011 16.921 18.6376 17.0027 18.4741 17.0845C18.4741 17.0845 18.3924 17.1662 17.248 18.4741C17.1662 18.6376 17.0027 18.7193 16.8392 18.7193H16.7575C16.6758 18.7193 16.5123 18.6376 16.4305 18.5559L16.0218 18.3924C15.1226 17.9837 14.3052 17.4932 13.6512 16.8392C13.4877 16.6757 13.2425 16.5123 13.079 16.3488C12.5068 15.7766 11.9346 15.1226 11.5259 14.3869L11.4441 14.2234C11.3624 14.1417 11.3624 14.0599 11.2807 13.8965C11.2807 13.733 11.2807 13.5695 11.3624 13.4877C11.3624 13.4877 11.6894 13.079 11.9346 12.8338C12.0981 12.6703 12.1798 12.4251 12.3433 12.2616C12.5068 12.0163 12.5886 11.6894 12.5068 11.4441C12.4251 11.0354 11.4441 8.82834 11.1989 8.33787C11.0354 8.09264 10.8719 8.0109 10.6267 7.92915H10.3815C10.218 7.92915 9.97275 7.92915 9.72752 7.92915C9.56403 7.92915 9.40054 8.0109 9.23706 8.0109L9.15531 8.09264C8.99183 8.17439 8.82834 8.33787 8.66485 8.41962C8.50136 8.58311 8.41962 8.74659 8.25613 8.91008C7.68392 9.64578 7.35695 10.545 7.35695 11.4441C7.35695 12.0981 7.52044 12.752 7.76567 13.3243L7.84741 13.5695C8.58311 15.1226 9.56403 16.5123 10.8719 17.7384L11.1989 18.0654C11.4441 18.3106 11.6894 18.4741 11.8529 18.7193C13.5695 20.1907 15.5313 21.2534 17.7384 21.8256C17.9837 21.9074 18.3106 21.9074 18.5559 21.9891C18.8011 21.9891 19.1281 21.9891 19.3733 21.9891C19.782 21.9891 20.2725 21.8256 20.5995 21.6621C20.8447 21.4986 21.0082 21.4986 21.1717 21.3351L21.3351 21.1717C21.4986 21.0082 21.6621 20.9264 21.8256 20.7629C21.9891 20.5995 22.1526 20.436 22.2343 20.2725C22.3978 19.9455 22.4796 19.5368 22.5613 19.1281C22.5613 18.9646 22.5613 18.7193 22.5613 18.5559C22.5613 18.5559 22.4796 18.4741 22.3161 18.3924Z" fill="white"/>
</svg>
