<svg width="21" height="21" viewBox="0 0 21 21" fill="none" xmlns="http://www.w3.org/2000/svg">
<path d="M14.2544 8.23844C14.2544 8.53681 14.1359 8.82296 13.9249 9.03394C13.714 9.24492 13.4278 9.36344 13.1294 9.36344H7.12944C6.83108 9.36344 6.54493 9.24492 6.33395 9.03394C6.12297 8.82296 6.00444 8.53681 6.00444 8.23844C6.00444 7.94007 6.12297 7.65393 6.33395 7.44295C6.54493 7.23197 6.83108 7.11344 7.12944 7.11344H13.1294C13.4278 7.11344 13.714 7.23197 13.9249 7.44295C14.1359 7.65393 14.2544 7.94007 14.2544 8.23844ZM13.1294 10.8634H7.12944C6.83108 10.8634 6.54493 10.982 6.33395 11.1929C6.12297 11.4039 6.00444 11.6901 6.00444 11.9884C6.00444 12.2868 6.12297 12.573 6.33395 12.7839C6.54493 12.9949 6.83108 13.1134 7.12944 13.1134H13.1294C13.4278 13.1134 13.714 12.9949 13.9249 12.7839C14.1359 12.573 14.2544 12.2868 14.2544 11.9884C14.2544 11.6901 14.1359 11.4039 13.9249 11.1929C13.714 10.982 13.4278 10.8634 13.1294 10.8634ZM20.2544 10.1134C20.2548 11.8478 19.8097 13.5531 18.9617 15.066C18.1137 16.5789 16.8913 17.8487 15.4117 18.7535C13.9321 19.6583 12.2449 20.1679 10.5118 20.2334C8.77868 20.2989 7.05781 19.9181 5.51413 19.1275L2.47382 20.1447C2.14284 20.2562 1.78729 20.2731 1.44724 20.1934C1.10718 20.1138 0.796143 19.9407 0.549175 19.6937C0.302207 19.4467 0.129128 19.1357 0.049447 18.7956C-0.0302344 18.4556 -0.0133512 18.1 0.0981937 17.7691L1.11163 14.7288C0.415716 13.3656 0.0378932 11.8624 0.00657085 10.3322C-0.0247515 8.80201 0.291241 7.28462 0.930791 5.89413C1.57034 4.50363 2.5168 3.27622 3.69902 2.30418C4.88123 1.33214 6.26844 0.640767 7.75632 0.282039C9.24421 -0.0766895 10.7941 -0.0934348 12.2894 0.233062C13.7846 0.559558 15.1865 1.2208 16.3894 2.16707C17.5923 3.11334 18.5651 4.32001 19.2345 5.69636C19.904 7.07271 20.2527 8.58292 20.2544 10.1134ZM18.0044 10.1134C18.004 8.90551 17.7257 7.71388 17.191 6.63073C16.6563 5.54757 15.8796 4.60193 14.9211 3.86696C13.9625 3.13199 12.8476 2.62738 11.6628 2.39218C10.478 2.15698 9.25498 2.19748 8.08833 2.51057C6.92168 2.82365 5.84269 3.40091 4.93483 4.1977C4.02696 4.99449 3.31456 5.98945 2.85274 7.10561C2.39091 8.22177 2.19204 9.4292 2.2715 10.6345C2.35097 11.8398 2.70664 13.0107 3.31101 14.0566C3.39088 14.1945 3.44055 14.3478 3.45671 14.5063C3.47287 14.6649 3.45516 14.8251 3.40476 14.9763L2.47382 17.7691L5.26663 16.8381C5.38152 16.7999 5.50179 16.7802 5.62288 16.78C5.82046 16.7804 6.01447 16.8327 6.18538 16.9319C7.38259 17.6246 8.74114 17.9898 10.1243 17.9907C11.5075 17.9916 12.8665 17.6282 14.0646 16.937C15.2628 16.2458 16.2577 15.2512 16.9493 14.0534C17.6409 12.8555 18.0048 11.4966 18.0044 10.1134Z" fill="white"/>
</svg>
