<svg width="24" height="24" viewBox="0 0 24 24" fill="none" xmlns="http://www.w3.org/2000/svg">
<path d="M12.0087 5.86434C11.7977 5.86434 11.5889 5.8751 11.3832 5.89617C11.1776 5.91723 10.9747 5.94845 10.7754 5.98943C10.576 6.03041 10.3802 6.08116 10.1883 6.14105L9.62498 6.34788L9.08869 6.60684L8.58261 6.91477L8.10975 7.26846L7.67342 7.66481L7.27668 8.10076L6.92261 8.57309L6.61429 9.0787L6.35518 9.61437C6.27729 9.7976 6.20801 9.98543 6.14804 10.1772C6.08807 10.3689 6.03732 10.5647 5.99627 10.7638C5.95521 10.963 5.92399 11.1656 5.90285 11.3711C5.8817 11.5766 5.87109 11.7851 5.87109 11.996C5.87109 12.2068 5.88186 12.4153 5.90285 12.6208C5.92372 12.8247 5.9549 13.0274 5.99627 13.2282C6.03732 13.4281 6.08807 13.6231 6.14804 13.8148C6.20801 14.0066 6.27721 14.1943 6.35518 14.3776L6.61429 14.9133L6.92261 15.4188L7.27668 15.8912L7.67342 16.3272L8.10975 16.7236L8.58261 17.0772L9.08869 17.3852L9.62498 17.6441L10.1883 17.851L10.7754 18.0026C10.9763 18.0439 11.1792 18.0751 11.3832 18.0959C11.5911 18.1171 11.7998 18.1277 12.0087 18.1277C12.2198 18.1277 12.4285 18.1169 12.6341 18.0959C12.8382 18.0751 13.0411 18.0439 13.242 18.0026L13.8292 17.851L14.3925 17.6441L14.9287 17.3852L15.4348 17.0772L15.9077 16.7236L16.3441 16.3272L16.7408 15.8912L17.0949 15.4188L17.4032 14.9133L17.6623 14.3776L17.8695 13.8148C17.9295 13.6231 17.9802 13.4273 18.0213 13.2282L18.1147 12.6208C18.1357 12.4152 18.1465 12.2067 18.1465 11.9959C18.1465 11.7851 18.1357 11.5765 18.1147 11.371C18.0938 11.1672 18.0626 10.9645 18.0213 10.7638C17.9802 10.5639 17.9295 10.3689 17.8695 10.1771L17.6623 9.6143L17.4032 9.07862L17.0949 8.57301L16.7408 8.10069L16.3441 7.66474L15.9077 7.26838L15.4348 6.9147L14.9287 6.60676L14.3925 6.3478L13.8292 6.14098L13.242 5.98935L12.6341 5.89609C12.4263 5.87487 12.2176 5.86424 12.0087 5.86426V5.86434ZM12.0087 7.98074C12.1483 7.98074 12.286 7.98766 12.4216 8.00135L12.8214 8.06186L13.2076 8.16028L13.5775 8.2946L13.9291 8.46298L14.2597 8.66327L14.5688 8.89371L14.8537 9.1522L15.1124 9.43684L15.3431 9.74562L15.5436 10.0767L15.712 10.4281C15.7626 10.5483 15.8075 10.6716 15.8466 10.7976C15.8856 10.9236 15.9185 11.0524 15.945 11.1836C15.9715 11.3147 15.9911 11.4482 16.0055 11.5838L16.0261 11.9964C16.0261 12.1357 16.0192 12.2734 16.0055 12.409C15.9918 12.5446 15.9717 12.6781 15.945 12.8092C15.9183 12.9403 15.8854 13.0691 15.8466 13.1952L15.712 13.5647L15.5436 13.9161L15.3431 14.2471L15.1124 14.5559L14.8537 14.8406L14.5688 15.0991L14.2597 15.3295L13.9291 15.5298L13.5775 15.6982L13.2076 15.8325L12.8214 15.9309L12.4216 15.9914C12.2844 16.0051 12.1466 16.012 12.0086 16.012C11.8707 16.012 11.7329 16.0051 11.5956 15.9914L11.1958 15.9309C11.0645 15.9043 10.9357 15.8714 10.8095 15.8325L10.4397 15.6982L10.0881 15.5298L9.75745 15.3295L9.44837 15.0991L9.16342 14.8406L8.90469 14.5559L8.67403 14.2471L8.47351 13.9161L8.30512 13.5647L8.17057 13.1952L8.07215 12.8092L8.01164 12.409C7.99788 12.2719 7.99101 12.1342 7.99104 11.9964C7.99101 11.8586 7.99788 11.7209 8.01164 11.5838C8.02525 11.4482 8.04547 11.3147 8.07215 11.1836C8.09857 11.0534 8.13144 10.9246 8.17065 10.7977L8.3052 10.4282L8.47358 10.0768L8.67411 9.7457L8.90477 9.43692L9.1635 9.15228L9.44844 8.89378L9.75753 8.66335L10.0881 8.46306L10.4398 8.29467C10.5608 8.24385 10.6842 8.19902 10.8097 8.16035L11.1959 8.06194C11.3272 8.03533 11.4608 8.01504 11.5958 8.00143C11.733 7.98767 11.8709 7.9808 12.0088 7.98082L12.0087 7.98074Z" fill="url(#paint0_radial_4644_8)"/>
<path d="M18.3972 4.12012C18.3484 4.12013 18.2997 4.12259 18.2512 4.1275C18.2028 4.1324 18.1545 4.13974 18.1068 4.14949C18.059 4.15923 18.0118 4.17137 17.9652 4.18586C17.9187 4.20035 17.8729 4.21719 17.828 4.23629C17.7831 4.25542 17.7392 4.2768 17.6964 4.30034C17.6537 4.32384 17.6121 4.34948 17.5719 4.37715C17.5316 4.40486 17.4928 4.43458 17.4555 4.46619C17.4183 4.49777 17.3826 4.53121 17.3487 4.56637C17.3147 4.60156 17.2825 4.63844 17.2522 4.67686C17.222 4.71529 17.1936 4.75522 17.1673 4.7965C17.141 4.83775 17.1167 4.88029 17.0946 4.92398C17.0725 4.9677 17.0526 5.0125 17.0349 5.05822C17.0172 5.10394 17.0019 5.15051 16.9888 5.19777C16.9758 5.24503 16.9651 5.29292 16.9568 5.34125C16.9486 5.38956 16.9427 5.43827 16.9392 5.48718C16.9368 5.52183 16.9356 5.55655 16.9355 5.59128C16.9355 5.64035 16.938 5.68939 16.9429 5.73822C16.9477 5.78702 16.955 5.83554 16.9647 5.88361C16.9744 5.93168 16.9864 5.97923 17.0008 6.02608C17.0152 6.07295 17.032 6.11907 17.051 6.16425C17.0699 6.20945 17.0912 6.25366 17.1145 6.29673C17.1379 6.33979 17.1634 6.38164 17.1909 6.42213C17.2184 6.4626 17.2479 6.50166 17.2793 6.53916C17.3107 6.57668 17.3439 6.61261 17.3789 6.6468C17.4138 6.68096 17.4505 6.71335 17.4887 6.74383C17.5269 6.77433 17.5665 6.80289 17.6075 6.82941C17.6486 6.85592 17.6909 6.88035 17.7343 6.9026C17.7778 6.92487 17.8222 6.94494 17.8677 6.96273C17.9131 6.9805 17.9593 6.99597 18.0063 7.00909C18.0532 7.02219 18.1008 7.03292 18.1488 7.04123C18.1968 7.04958 18.2452 7.05551 18.2938 7.05899C18.3283 7.06145 18.3628 7.06268 18.3973 7.06268C18.446 7.0627 18.4947 7.06026 18.5432 7.05538C18.5917 7.05048 18.6399 7.04314 18.6877 7.03339C18.7354 7.02365 18.7827 7.01151 18.8292 6.99702C18.8758 6.98252 18.9216 6.96569 18.9665 6.94658C19.0113 6.92748 19.0552 6.90613 19.098 6.88261C19.1408 6.85909 19.1823 6.83343 19.2226 6.80572C19.2628 6.77804 19.3016 6.74835 19.3389 6.71677C19.3762 6.68516 19.4118 6.6517 19.4458 6.6165C19.4797 6.58132 19.5119 6.54444 19.5422 6.50602C19.5725 6.46759 19.6008 6.42766 19.6272 6.38638C19.6535 6.34511 19.6777 6.30253 19.6998 6.25882C19.7219 6.2151 19.7419 6.1703 19.7596 6.12458C19.7772 6.07886 19.7926 6.03229 19.8056 5.98503C19.8186 5.93777 19.8293 5.88989 19.8376 5.84155C19.8459 5.79324 19.8517 5.74453 19.8552 5.69562C19.8576 5.66097 19.8589 5.62625 19.8589 5.59151C19.8589 5.54247 19.8565 5.49346 19.8516 5.44466C19.8467 5.39586 19.8394 5.34733 19.8297 5.29927C19.8201 5.2512 19.808 5.20365 19.7936 5.15679C19.7792 5.10992 19.7625 5.06381 19.7435 5.01863C19.7245 4.97343 19.7033 4.92921 19.6799 4.88615C19.6565 4.84309 19.6311 4.80124 19.6035 4.76074C19.576 4.72025 19.5465 4.68117 19.515 4.64365C19.4837 4.60612 19.4505 4.57019 19.4156 4.536C19.3806 4.50184 19.3439 4.46945 19.3058 4.43897C19.2676 4.40849 19.2279 4.37996 19.1869 4.35347C19.1459 4.32696 19.1036 4.30253 19.0601 4.28027C19.0167 4.25801 18.9722 4.23794 18.9268 4.22015C18.8814 4.20238 18.8351 4.1869 18.7882 4.17378C18.7412 4.16066 18.6936 4.14991 18.6456 4.14157C18.5976 4.13325 18.5492 4.12734 18.5006 4.12388C18.4662 4.12143 18.4317 4.1202 18.3972 4.12019V4.12012Z" fill="url(#paint1_radial_4644_8)"/>
<path d="M10.8466 0.000223599C10.1791 -0.000852827 9.58335 0.00191475 9.04821 0.00944973L7.61349 0.0478935C7.18845 0.0663465 6.81293 0.0904106 6.47586 0.12155C6.30732 0.137081 6.14832 0.154458 5.99762 0.173603C5.85421 0.191678 5.71119 0.212725 5.56866 0.236729C5.43295 0.259795 5.30417 0.284705 5.18069 0.31177C5.0572 0.338834 4.93926 0.368053 4.82547 0.399423C4.71422 0.430098 4.60385 0.46384 4.49446 0.500608C4.38728 0.536745 4.28272 0.575035 4.17946 0.615939C3.97294 0.697747 3.77149 0.78955 3.56405 0.892425C3.40443 0.971619 3.25696 1.05181 3.11687 1.1367C2.97678 1.22158 2.84407 1.31123 2.71413 1.40888C2.58031 1.50993 2.45133 1.61723 2.32762 1.73042C2.19829 1.84822 2.0662 1.97777 1.92896 2.12255C1.7565 2.30347 1.60664 2.47216 1.47363 2.6377C1.40712 2.72043 1.34484 2.80224 1.28618 2.88451C1.22816 2.96558 1.1727 3.04846 1.11987 3.13301C1.06758 3.21681 1.01807 3.30216 0.970706 3.38997C0.922605 3.47928 0.877144 3.57 0.834384 3.66199C0.746886 3.84991 0.665232 4.05228 0.583731 4.27817C0.523267 4.44517 0.469126 4.61439 0.421421 4.78548C0.372751 4.96032 0.329463 5.14323 0.290866 5.34106C0.252268 5.5389 0.218591 5.75165 0.18899 5.98692C0.157091 6.24482 0.131607 6.50347 0.112563 6.76264C0.0910348 7.04759 0.0731969 7.36113 0.0585883 7.71013L0.0239889 8.87051L0.00538211 10.285L0 11.9948L0.015762 14.4811L0.06497 16.3648L0.102876 17.1006L0.150238 17.7104C0.165421 17.8747 0.184418 18.0387 0.207212 18.2021C0.227972 18.3473 0.250269 18.4743 0.274258 18.5843C0.322933 18.8078 0.380491 19.0293 0.446794 19.2483C0.510278 19.4579 0.582878 19.6647 0.664386 19.868C0.744503 20.0671 0.832155 20.2592 0.927495 20.444C1.02284 20.6289 1.12586 20.8065 1.23658 20.9771C1.3473 21.1477 1.46571 21.3113 1.59211 21.4679C1.71837 21.6246 1.85267 21.7745 1.99446 21.9173C2.13648 22.0603 2.28625 22.1964 2.4441 22.3257C2.60382 22.4565 2.76984 22.5794 2.94157 22.694C3.10095 22.8005 3.25865 22.8981 3.4175 22.9877C3.57635 23.0773 3.73658 23.1585 3.90128 23.2324C4.06597 23.3063 4.23482 23.3728 4.4112 23.4326C4.58758 23.4925 4.77134 23.5457 4.96555 23.5929C5.15977 23.6401 5.36537 23.6815 5.58296 23.7177C5.80055 23.7538 6.03314 23.7848 6.28164 23.8115C6.53014 23.8381 6.79525 23.8602 7.08012 23.8787C7.36499 23.8971 7.66946 23.9119 7.99662 23.9237C8.502 23.942 9.26703 23.9527 10.1492 23.9568L13.0052 23.951L15.7097 23.9131L16.738 23.8842L17.4079 23.8498C17.5517 23.8381 17.6924 23.8242 17.8282 23.808C17.9639 23.7918 18.0979 23.7733 18.2283 23.7522C18.3587 23.7311 18.4862 23.7076 18.6114 23.6814C18.7352 23.6557 18.8584 23.6269 18.9808 23.5951C19.102 23.5643 19.2214 23.5294 19.3397 23.4922C19.4579 23.4551 19.575 23.415 19.6913 23.3719C19.8083 23.3286 19.9242 23.2824 20.039 23.2334C20.1545 23.1842 20.27 23.1316 20.3857 23.0758C20.5636 22.9902 20.7068 22.9187 20.8325 22.849C20.9507 22.7841 21.0646 22.7116 21.1734 22.6319C21.2807 22.5528 21.3874 22.4629 21.5105 22.3495C21.6335 22.2362 21.7729 22.0996 21.9455 21.9269C22.0972 21.7753 22.2251 21.6435 22.3355 21.5237C22.4458 21.4038 22.5388 21.2959 22.6203 21.192C22.698 21.0933 22.7703 20.9906 22.8371 20.8843C22.9022 20.7805 22.9622 20.6727 23.0233 20.5531C23.1153 20.3732 23.1971 20.2066 23.2703 20.0458C23.3415 19.8909 23.4065 19.7332 23.4652 19.5731C23.523 19.4143 23.573 19.2528 23.6152 19.0891C23.6585 18.9207 23.6959 18.743 23.7282 18.548C23.7605 18.353 23.7878 18.1408 23.8115 17.9038C23.8352 17.6668 23.8553 17.405 23.873 17.1107L23.9199 16.1229L23.9602 14.8945L23.9889 13.5259L24 12.0949L23.9743 9.28425L23.94 8.02536L23.893 6.94448L23.8346 6.10179C23.8134 5.86728 23.7905 5.6826 23.7662 5.55773C23.7393 5.41977 23.7093 5.28244 23.6761 5.14585C23.6438 5.01294 23.6083 4.88083 23.5696 4.74965C23.5319 4.62183 23.4909 4.49501 23.4467 4.36928C23.403 4.24511 23.3568 4.12355 23.3083 4.00461C23.2599 3.88566 23.2074 3.76948 23.1529 3.65577C23.0983 3.54205 23.0411 3.4311 22.981 3.32269C22.921 3.21428 22.8584 3.10856 22.7929 3.00545C22.7275 2.90234 22.6594 2.80185 22.5884 2.70405C22.5179 2.60656 22.4443 2.5113 22.3678 2.41841C22.2916 2.32603 22.2126 2.23608 22.1308 2.14869C22.0491 2.06141 21.9647 1.97674 21.8776 1.89481C21.7905 1.81285 21.7008 1.7335 21.6082 1.65677C21.5153 1.57978 21.42 1.5057 21.3225 1.43464C21.2239 1.36285 21.1232 1.29408 21.0205 1.22843C20.9163 1.16184 20.8102 1.09835 20.7023 1.03805C20.5925 0.976741 20.481 0.91859 20.3678 0.86367C20.1801 0.772404 20.0065 0.691443 19.836 0.61963C19.6684 0.54836 19.4976 0.485061 19.3241 0.429948C19.1495 0.374973 18.9679 0.327841 18.768 0.287168C18.568 0.246494 18.3501 0.212587 18.1033 0.183754C17.8566 0.154921 17.5811 0.131625 17.266 0.112249C16.9509 0.0928732 16.5966 0.0776482 16.1919 0.0653462L14.8167 0.0345917L13.0762 0.0140628L10.8474 0.000376116L10.8466 0.000223599ZM12.0042 2.11478L15.2183 2.13308L16.4308 2.15646C16.7647 2.16584 17.0195 2.17683 17.1689 2.18952C17.3634 2.2059 17.5487 2.22643 17.726 2.25103C17.8961 2.27452 18.0653 2.30372 18.2334 2.3386C18.3949 2.37243 18.5489 2.41088 18.6963 2.45424C18.8437 2.49761 18.9845 2.5462 19.1196 2.59995C19.2547 2.65369 19.3838 2.71282 19.5082 2.77756C19.6315 2.84181 19.7513 2.91251 19.8672 2.98938C19.9825 3.06588 20.0937 3.14831 20.2017 3.23711C20.3096 3.32592 20.4143 3.4211 20.5165 3.5229C20.6243 3.63032 20.7238 3.73973 20.8155 3.8526C20.9069 3.96477 20.9915 4.08234 21.0687 4.20467C21.1469 4.32874 21.2173 4.45751 21.2796 4.59026C21.3432 4.72558 21.4004 4.86859 21.4518 5.0206C21.5032 5.1726 21.5489 5.33415 21.5894 5.50676C21.6319 5.68976 21.6674 5.87429 21.696 6.05996C21.7267 6.2568 21.753 6.4667 21.7753 6.69144C21.7976 6.91618 21.8161 7.15584 21.8313 7.41226C21.8435 7.61794 21.8541 7.88935 21.8631 8.2099L21.8856 9.30285L21.9028 11.9801L21.8832 14.6548L21.8597 15.7446L21.8273 16.5372C21.8049 16.9083 21.7812 17.2204 21.7529 17.4919C21.7387 17.6277 21.7233 17.7533 21.7062 17.8712C21.6902 17.9826 21.6713 18.0935 21.6494 18.2038C21.6294 18.3045 21.6062 18.4045 21.5798 18.5037C21.5545 18.5983 21.5261 18.6921 21.4945 18.7849C21.4627 18.878 21.4282 18.9702 21.3908 19.0613C21.3513 19.1575 21.3097 19.2528 21.2659 19.3471C21.2269 19.4313 21.1859 19.5132 21.1425 19.5929C21.0997 19.6719 21.0541 19.7493 21.006 19.8251C20.9583 19.9003 20.9083 19.9732 20.8561 20.0439C20.8041 20.1143 20.7495 20.1828 20.6926 20.2493C20.6358 20.3156 20.5767 20.3797 20.5152 20.4416C20.4537 20.5035 20.3899 20.5632 20.3238 20.6209C20.2577 20.6785 20.1891 20.7339 20.1181 20.7872C20.0471 20.8406 19.9737 20.8918 19.8978 20.9409C19.8219 20.9899 19.7437 21.037 19.6628 21.0819C19.582 21.1268 19.4987 21.1697 19.413 21.2105C19.3257 21.2519 19.2373 21.2908 19.1478 21.3269C19.0552 21.3643 18.9616 21.399 18.8671 21.4311C18.6749 21.4966 18.4722 21.5541 18.2587 21.6037C18.0363 21.6551 17.8118 21.6971 17.5858 21.7297C17.4989 21.7423 17.2992 21.7543 17.0132 21.7653L15.9233 21.7956L12.8332 21.8358L9.5988 21.8408L8.32862 21.8273L7.50385 21.8016L6.89566 21.7589C6.70683 21.743 6.53122 21.7253 6.36668 21.7052C6.20214 21.6851 6.0489 21.6628 5.90474 21.6375C5.76812 21.6139 5.63234 21.5857 5.49762 21.553C5.37478 21.5231 5.2532 21.4883 5.13317 21.4486C5.01745 21.4101 4.90681 21.3678 4.79917 21.3213C4.69153 21.2748 4.58696 21.2238 4.48339 21.1681C4.37983 21.1125 4.27733 21.052 4.17369 20.9862C4.09549 20.9365 4.01991 20.8862 3.94718 20.8329C3.87444 20.7796 3.80417 20.7265 3.73651 20.6708C3.66885 20.6152 3.60388 20.5578 3.54121 20.4988C3.47897 20.44 3.41885 20.379 3.36099 20.3159C3.30332 20.253 3.24819 20.1883 3.19529 20.1212C3.14219 20.0539 3.09159 19.9847 3.0436 19.9136C2.99489 19.8415 2.9488 19.7677 2.90543 19.6922C2.8616 19.6161 2.81993 19.5374 2.78033 19.4562C2.74007 19.3734 2.70251 19.2894 2.66769 19.2042C2.63232 19.1175 2.5988 19.028 2.56728 18.9356C2.50423 18.7506 2.44887 18.5538 2.40074 18.3439C2.35261 18.134 2.31155 17.911 2.2768 17.6735C2.24204 17.4359 2.21406 17.184 2.19176 16.9163C2.1753 16.719 2.16223 16.4119 2.15224 16.0244L2.13132 14.6462L2.13901 11.1328L2.19952 7.77556L2.24566 6.59272L2.2718 6.20174C2.28087 6.09733 2.29025 6.01998 2.29986 5.97354C2.33154 5.82077 2.36345 5.6786 2.39643 5.54551C2.42725 5.41995 2.46152 5.29527 2.49923 5.17161C2.53506 5.05489 2.57281 4.94556 2.61318 4.84199C2.6521 4.74166 2.69548 4.64312 2.7432 4.54666C2.78979 4.45286 2.83984 4.36306 2.8942 4.27563C2.94856 4.18821 3.00723 4.10341 3.0712 4.01906C3.13517 3.93471 3.20406 3.85144 3.27903 3.76702C3.35399 3.6826 3.43495 3.59733 3.52276 3.50945C3.62509 3.40653 3.73165 3.3079 3.84215 3.21382C3.94649 3.12505 4.0553 3.04167 4.16815 2.96401C4.2791 2.88712 4.3929 2.81869 4.51138 2.7558C4.62986 2.6929 4.75304 2.63608 4.88259 2.58495C5.01215 2.53382 5.14824 2.48807 5.2924 2.44656C5.44386 2.40407 5.59699 2.36783 5.75142 2.33791C5.91381 2.30608 6.08627 2.27832 6.27041 2.25411C6.45456 2.22989 6.65047 2.20897 6.85991 2.19083C7.006 2.17822 7.25773 2.16699 7.58919 2.15753L8.79556 2.1337L12.0047 2.11409L12.0042 2.11478Z" fill="url(#paint2_radial_4644_8)"/>
<defs>
<radialGradient id="paint0_radial_4644_8" cx="0" cy="0" r="1" gradientTransform="matrix(50.0234 -8.39889 5.10747 30.3624 3.8218 25.7033)" gradientUnits="userSpaceOnUse">
<stop stop-color="#FED576"/>
<stop offset="0.263" stop-color="#F47133"/>
<stop offset="0.609" stop-color="#BC3081"/>
<stop offset="1" stop-color="#4C63D2"/>
</radialGradient>
<radialGradient id="paint1_radial_4644_8" cx="0" cy="0" r="1" gradientTransform="matrix(50.0234 -8.39889 5.10747 30.3624 3.82367 25.7034)" gradientUnits="userSpaceOnUse">
<stop stop-color="#FED576"/>
<stop offset="0.263" stop-color="#F47133"/>
<stop offset="0.609" stop-color="#BC3081"/>
<stop offset="1" stop-color="#4C63D2"/>
</radialGradient>
<radialGradient id="paint2_radial_4644_8" cx="0" cy="0" r="1" gradientTransform="matrix(50.0234 -8.39889 5.10747 30.3624 3.82362 25.7031)" gradientUnits="userSpaceOnUse">
<stop stop-color="#FED576"/>
<stop offset="0.263" stop-color="#F47133"/>
<stop offset="0.609" stop-color="#BC3081"/>
<stop offset="1" stop-color="#4C63D2"/>
</radialGradient>
</defs>
</svg>
