<svg width="24" height="24" viewBox="0 0 24 24" fill="none" xmlns="http://www.w3.org/2000/svg">
<path d="M12 0C5.37253 0 0 5.37253 0 12C0 18.6275 5.37253 24 12 24C18.6275 24 24 18.6275 24 12C24 5.37253 18.6275 0 12 0Z" fill="#40B3E0"/>
<path d="M14.3828 9.60015C14.526 9.60015 14.6676 9.62735 14.7996 9.67935V6.80015C14.7996 6.48189 14.6732 6.17667 14.4481 5.95162C14.2231 5.72658 13.9179 5.60015 13.5996 5.60015H11.1996V5.20015C11.2019 5.14702 11.1931 5.094 11.1738 5.04444C11.1545 4.99489 11.1251 4.94988 11.0875 4.91228C11.0499 4.87467 11.0049 4.84529 10.9553 4.82599C10.9058 4.80669 10.8527 4.79789 10.7996 4.80015C10.5788 4.80015 10.3996 4.98415 10.3996 5.20015V5.60015H7.99961C7.68135 5.60015 7.37612 5.72658 7.15108 5.95162C6.92604 6.17667 6.79961 6.48189 6.79961 6.80015V10.0002C6.79961 10.3184 6.92604 10.6236 7.15108 10.8487C7.37612 11.0737 7.68135 11.2002 7.99961 11.2002H13.0348L13.3052 10.369L13.3084 10.3594C13.3866 10.1368 13.5322 9.94421 13.7249 9.80817C13.9175 9.67213 14.147 9.59942 14.3828 9.60015ZM8.39961 8.40015C8.39961 8.18798 8.4839 7.9845 8.63392 7.83447C8.78395 7.68444 8.98744 7.60015 9.19961 7.60015C9.41178 7.60015 9.61527 7.68444 9.76529 7.83447C9.91532 7.9845 9.99961 8.18798 9.99961 8.40015C9.99961 8.61233 9.91532 8.81581 9.76529 8.96584C9.61527 9.11587 9.41178 9.20015 9.19961 9.20015C8.98744 9.20015 8.78395 9.11587 8.63392 8.96584C8.4839 8.81581 8.39961 8.61233 8.39961 8.40015ZM11.5996 8.40015C11.5996 8.18798 11.6839 7.9845 11.8339 7.83447C11.984 7.68444 12.1874 7.60015 12.3996 7.60015C12.6118 7.60015 12.8153 7.68444 12.9653 7.83447C13.1153 7.9845 13.1996 8.18798 13.1996 8.40015C13.1996 8.61233 13.1153 8.81581 12.9653 8.96584C12.8153 9.11587 12.6118 9.20015 12.3996 9.20015C12.1874 9.20015 11.984 9.11587 11.8339 8.96584C11.6839 8.81581 11.5996 8.61233 11.5996 8.40015ZM10.7996 17.6002C12.194 17.6002 13.2332 17.4194 14.0036 17.1106C14.0139 16.9886 14.0455 16.8695 14.0972 16.7586C13.9203 16.7101 13.7577 16.6195 13.6234 16.4945C13.4891 16.3696 13.3871 16.2139 13.326 16.041L13.3228 16.0314L13.042 15.1674L13.014 15.0954C12.9659 14.9809 12.8961 14.8768 12.8084 14.789L12.7572 14.741C12.6622 14.6584 12.5518 14.5953 12.4324 14.5554L11.5684 14.2754L11.5596 14.2714C11.3793 14.2078 11.2179 14.0998 11.0903 13.9573C10.9627 13.8149 10.873 13.6426 10.8296 13.4564C10.7862 13.2702 10.7903 13.076 10.8417 12.8918C10.8931 12.7077 10.99 12.5394 11.1236 12.4026H7.04681C6.66291 12.4028 6.29482 12.5554 6.02344 12.8269C5.75206 13.0985 5.59961 13.4667 5.59961 13.8506V14.4018H5.60361C5.63081 15.0258 5.80201 15.8074 6.50201 16.4458C7.26681 17.1442 8.58681 17.6002 10.7996 17.6002ZM14.9804 11.4826L14.702 10.6266C14.6789 10.5602 14.6357 10.5027 14.5785 10.462C14.5212 10.4212 14.4527 10.3994 14.3824 10.3994C14.3121 10.3994 14.2436 10.4212 14.1864 10.462C14.1291 10.5027 14.0859 10.5602 14.0628 10.6266L13.7844 11.4826C13.6998 11.7414 13.5562 11.977 13.3651 12.1709C13.1739 12.3649 12.9404 12.5118 12.6828 12.6002L11.826 12.8786C11.7599 12.9018 11.7027 12.945 11.6622 13.0022C11.6217 13.0594 11.6 13.1277 11.6 13.1978C11.6 13.2678 11.6217 13.3361 11.6622 13.3933C11.7027 13.4505 11.7599 13.4937 11.826 13.517L12.6828 13.7954C12.9441 13.8819 13.1815 14.0285 13.3759 14.2234C13.5703 14.4184 13.7162 14.6562 13.802 14.9178L14.0804 15.7738C14.1037 15.8398 14.1469 15.8971 14.204 15.9376C14.2612 15.978 14.3296 15.9998 14.3996 15.9998C14.4697 15.9998 14.538 15.978 14.5952 15.9376C14.6523 15.8971 14.6955 15.8398 14.7188 15.7738L14.998 14.9178C15.0843 14.6571 15.2305 14.4204 15.4246 14.2263C15.6188 14.0322 15.8557 13.8863 16.1164 13.8002L16.974 13.5218C17.0397 13.4981 17.0966 13.4548 17.1367 13.3977C17.1769 13.3405 17.1985 13.2724 17.1985 13.2026C17.1985 13.1327 17.1769 13.0646 17.1367 13.0074C17.0966 12.9503 17.0397 12.907 16.974 12.8834L16.9564 12.8794L16.0988 12.6002C15.8381 12.514 15.6012 12.3681 15.407 12.174C15.2129 11.98 15.0667 11.7432 14.9804 11.4826ZM18.0132 16.7722L18.626 16.9706L18.638 16.9738C18.6733 16.9862 18.7052 17.0067 18.7313 17.0335C18.7573 17.0604 18.7768 17.0929 18.7882 17.1285C18.7996 17.1642 18.8026 17.202 18.7969 17.239C18.7913 17.276 18.7771 17.3111 18.7556 17.3418C18.7266 17.3827 18.6854 17.4134 18.638 17.4298L18.026 17.6282C17.8398 17.6901 17.6705 17.7946 17.5317 17.9333C17.3928 18.072 17.2882 18.2412 17.226 18.4274L17.0276 19.0386C17.011 19.0858 16.9802 19.1267 16.9394 19.1557C16.8985 19.1847 16.8497 19.2002 16.7996 19.2002C16.7495 19.2002 16.7007 19.1847 16.6599 19.1557C16.619 19.1267 16.5882 19.0858 16.5716 19.0386L16.3724 18.4274C16.3107 18.2408 16.2063 18.0712 16.0676 17.9321C15.9288 17.7929 15.7596 17.6881 15.5732 17.6258L14.9612 17.4266C14.926 17.414 14.8942 17.3935 14.8682 17.3666C14.8422 17.3397 14.8228 17.3072 14.8115 17.2715C14.8002 17.2359 14.7973 17.1981 14.803 17.1612C14.8087 17.1242 14.8229 17.0891 14.8444 17.0586C14.8732 17.0178 14.9141 16.987 14.9612 16.9706L15.5732 16.7722C15.757 16.7086 15.9236 16.6035 16.0602 16.465C16.1967 16.3265 16.2995 16.1584 16.3604 15.9738L16.5596 15.3618C16.5762 15.3145 16.607 15.2736 16.6479 15.2446C16.6887 15.2156 16.7375 15.2001 16.7876 15.2001C16.8377 15.2001 16.8865 15.2156 16.9274 15.2446C16.9682 15.2736 16.999 15.3145 17.0156 15.3618L17.2148 15.9738C17.277 16.1597 17.3815 16.3286 17.5203 16.4672C17.659 16.6058 17.8272 16.7102 18.0132 16.7722Z" fill="white"/>
</svg>
