<svg width="30" height="30" viewBox="0 0 30 30" fill="none" xmlns="http://www.w3.org/2000/svg">
<path d="M15 0C6.71566 0 0 6.71566 0 15C0 23.2843 6.71566 30 15 30C23.2843 30 30 23.2843 30 15C30 6.71566 23.2843 0 15 0Z" fill="#40B3E0"/>
<path d="M22.2989 8.62901L19.6198 22.1369C19.6198 22.1369 19.2451 23.0737 18.2147 22.624L12.0321 17.884L9.78401 16.7974L5.99956 15.5234C5.99956 15.5234 5.41878 15.3174 5.36253 14.8677C5.3064 14.4181 6.01831 14.1746 6.01831 14.1746L21.0624 8.273C21.0624 8.273 22.2989 7.72971 22.2989 8.62901Z" fill="white"/>
<path d="M11.5561 21.9844C11.5561 21.9844 11.3757 21.9675 11.1508 21.2555C10.926 20.5436 9.7832 16.7966 9.7832 16.7966L18.8696 11.0263C18.8696 11.0263 19.3942 10.7078 19.3755 11.0263C19.3755 11.0263 19.4691 11.0825 19.1881 11.3447C18.9071 11.6071 12.0501 17.7708 12.0501 17.7708" fill="#D2E5F1"/>
<path d="M14.4024 19.7005L11.957 21.9302C11.957 21.9302 11.7658 22.0752 11.5566 21.9843L12.0249 17.8428" fill="#B5CFE4"/>
</svg>
