<svg width="30" height="30" viewBox="0 0 30 30" fill="none" xmlns="http://www.w3.org/2000/svg">
<g clip-path="url(#clip0_4752_73)">
<path d="M15 30C23.2843 30 30 23.2843 30 15C30 6.71573 23.2843 0 15 0C6.71573 0 0 6.71573 0 15C0 23.2843 6.71573 30 15 30Z" fill="#2787F5"/>
<path d="M17.4559 7H12.5441C8.06146 7 7 8.06146 7 12.5441V17.4559C7 21.9385 8.06146 23 12.5441 23H17.4559C21.9385 23 23 21.9385 23 17.4559V12.5441C23 8.06146 21.9272 7 17.4559 7ZM19.9174 18.4156H18.7532C18.3128 18.4156 18.1774 18.0656 17.387 17.264C16.6981 16.5987 16.3934 16.5075 16.2228 16.5075C15.9856 16.5075 15.9178 16.5741 15.9178 16.9027V17.9528C15.9178 18.2353 15.8273 18.4046 15.0822 18.4046C13.8514 18.4046 12.4852 17.6595 11.5252 16.2704C10.0799 14.2379 9.68474 12.7134 9.68474 12.3974C9.68474 12.2281 9.75127 12.0701 10.0799 12.0701H11.2442C11.5379 12.0701 11.6506 12.2055 11.7634 12.5218C12.3392 14.1817 13.2992 15.6383 13.6927 15.6383C13.8394 15.6383 13.9073 15.5718 13.9073 15.1979V13.4815C13.862 12.6911 13.4442 12.6233 13.4442 12.3412C13.4442 12.2058 13.557 12.0701 13.738 12.0701H15.5675C15.816 12.0701 15.9061 12.2055 15.9061 12.4992V14.8137C15.9061 15.0622 16.0189 15.1523 16.0867 15.1523C16.2334 15.1523 16.3578 15.0619 16.6286 14.7911C17.4642 13.8541 18.0626 12.4087 18.0626 12.4087C18.1418 12.2394 18.2772 12.0814 18.5709 12.0814H19.7351C20.0851 12.0814 20.1642 12.262 20.0851 12.5105C19.9384 13.1881 18.5157 15.1979 18.5157 15.1979C18.3916 15.4012 18.3464 15.4916 18.5157 15.7172C18.6398 15.8865 19.0479 16.2364 19.3173 16.5528C19.8143 17.1183 20.1982 17.5916 20.2996 17.9189C20.4144 18.2462 20.2447 18.4156 19.9174 18.4156Z" fill="white"/>
</g>
<defs>
<clipPath id="clip0_4752_73">
<rect width="30" height="30" fill="white"/>
</clipPath>
</defs>
</svg>
