<svg width="30" height="30" viewBox="0 0 30 30" fill="none" xmlns="http://www.w3.org/2000/svg">
<path d="M7.86602 26.1582L8.3525 26.4014C10.3795 27.6176 12.6498 28.1852 14.9201 28.1852C22.0552 28.1852 27.893 22.3474 27.893 15.2122C27.893 11.8068 26.5147 8.4825 24.0822 6.05007C21.6498 3.61764 18.4066 2.23926 14.9201 2.23926C7.78494 2.23926 1.9471 8.0771 2.02818 15.2933C2.02818 17.7257 2.75791 20.0771 3.97412 22.1041L4.29845 22.5906L3.00115 27.3744L7.86602 26.1582Z" fill="#00E676"/>
<path d="M25.4595 4.37838C22.7027 1.54054 18.8919 0 15 0C6.72973 0 0.0810811 6.72973 0.162162 14.9189C0.162162 17.5135 0.891892 20.027 2.10811 22.2973L0 30L7.86486 27.973C10.0541 29.1892 12.4865 29.7568 14.9189 29.7568C23.1081 29.7568 29.7568 23.027 29.7568 14.8378C29.7568 10.8649 28.2162 7.13514 25.4595 4.37838ZM15 27.2432C12.8108 27.2432 10.6216 26.6757 8.75676 25.5405L8.27027 25.2973L3.56757 26.5135L4.78378 21.8919L4.45946 21.4054C0.891891 15.6486 2.59459 8.02703 8.43243 4.45946C14.2703 0.891891 21.8108 2.59459 25.3784 8.43243C28.9459 14.2703 27.2432 21.8108 21.4054 25.3784C19.5405 26.5946 17.2703 27.2432 15 27.2432ZM22.1351 18.2432L21.2432 17.8378C21.2432 17.8378 19.9459 17.2703 19.1351 16.8649C19.0541 16.8649 18.973 16.7838 18.8919 16.7838C18.6486 16.7838 18.4865 16.8649 18.3243 16.9459C18.3243 16.9459 18.2432 17.027 17.1081 18.3243C17.027 18.4865 16.8649 18.5676 16.7027 18.5676H16.6216C16.5405 18.5676 16.3784 18.4865 16.2973 18.4054L15.8919 18.2432C15 17.8378 14.1892 17.3514 13.5405 16.7027C13.3784 16.5405 13.1351 16.3784 12.973 16.2162C12.4054 15.6486 11.8378 15 11.4324 14.2703L11.3514 14.1081C11.2703 14.027 11.2703 13.9459 11.1892 13.7838C11.1892 13.6216 11.1892 13.4595 11.2703 13.3784C11.2703 13.3784 11.5946 12.973 11.8378 12.7297C12 12.5676 12.0811 12.3243 12.2432 12.1622C12.4054 11.9189 12.4865 11.5946 12.4054 11.3514C12.3243 10.9459 11.3514 8.75676 11.1081 8.27027C10.9459 8.02703 10.7838 7.94595 10.5405 7.86486H10.2973C10.1351 7.86486 9.89189 7.86486 9.64865 7.86486C9.48649 7.86486 9.32432 7.94595 9.16216 7.94595L9.08108 8.02703C8.91892 8.10811 8.75676 8.27027 8.59459 8.35135C8.43243 8.51351 8.35135 8.67568 8.18919 8.83784C7.62162 9.56757 7.2973 10.4595 7.2973 11.3514C7.2973 12 7.45946 12.6486 7.7027 13.2162L7.78378 13.4595C8.51351 15 9.48649 16.3784 10.7838 17.5946L11.1081 17.9189C11.3514 18.1622 11.5946 18.3243 11.7568 18.5676C13.4595 20.027 15.4054 21.0811 17.5946 21.6486C17.8378 21.7297 18.1622 21.7297 18.4054 21.8108C18.6486 21.8108 18.973 21.8108 19.2162 21.8108C19.6216 21.8108 20.1081 21.6486 20.4324 21.4865C20.6757 21.3243 20.8378 21.3243 21 21.1622L21.1622 21C21.3243 20.8378 21.4865 20.7568 21.6486 20.5946C21.8108 20.4324 21.973 20.2703 22.0541 20.1081C22.2162 19.7838 22.2973 19.3784 22.3784 18.973C22.3784 18.8108 22.3784 18.5676 22.3784 18.4054C22.3784 18.4054 22.2973 18.3243 22.1351 18.2432Z" fill="white"/>
</svg>
