<svg width="24" height="22" viewBox="0 0 24 22" fill="none" xmlns="http://www.w3.org/2000/svg">
<path d="M6.96233 5.30761C8.42795 5.30761 9.61607 4.11946 9.61607 2.65381C9.61607 1.18815 8.42795 0 6.96233 0C5.49671 0 4.30859 1.18815 4.30859 2.65381C4.30859 4.11946 5.49671 5.30761 6.96233 5.30761Z" fill="#965EEB"/>
<path d="M18.2256 11.549C21.4147 11.549 23.9999 8.9637 23.9999 5.77452C23.9999 2.58534 21.4147 0 18.2256 0C15.0364 0 12.4512 2.58534 12.4512 5.77452C12.4512 8.9637 15.0364 11.549 18.2256 11.549Z" fill="#00AAFF"/>
<path d="M7.10324 19.9534C11.0263 19.9534 14.2065 16.7731 14.2065 12.85C14.2065 8.92689 11.0263 5.74658 7.10324 5.74658C3.18023 5.74658 0 8.92689 0 12.85C0 16.7731 3.18023 19.9534 7.10324 19.9534Z" fill="#04E061"/>
<path d="M19.4149 21.0551C21.7841 21.0551 23.7048 19.1344 23.7048 16.7651C23.7048 14.3958 21.7841 12.4751 19.4149 12.4751C17.0456 12.4751 15.125 14.3958 15.125 16.7651C15.125 19.1344 17.0456 21.0551 19.4149 21.0551Z" fill="#FF4053"/>
</svg>
