<svg width="30" height="30" viewBox="0 0 30 30" fill="none" xmlns="http://www.w3.org/2000/svg">
<g clip-path="url(#clip0_4752_77)">
<path d="M22.5096 0H7.49043C3.35358 0 0 3.35358 0 7.49043V22.5096C0 26.6464 3.35358 30 7.49043 30H22.5096C26.6464 30 30 26.6464 30 22.5096V7.49043C30 3.35358 26.6464 0 22.5096 0Z" fill="url(#paint0_linear_4752_77)"/>
<path d="M22.5096 0H7.49043C3.35358 0 0 3.35358 0 7.49043V22.5096C0 26.6464 3.35358 30 7.49043 30H22.5096C26.6464 30 30 26.6464 30 22.5096V7.49043C30 3.35358 26.6464 0 22.5096 0Z" fill="url(#paint1_radial_4752_77)"/>
<path fill-rule="evenodd" clip-rule="evenodd" d="M15.2461 26.3498C12.9959 26.3498 11.9502 26.0213 10.1325 24.7073C8.98274 26.1856 5.34191 27.3408 5.18312 25.3643C5.18312 23.8806 4.85462 22.6269 4.48232 21.2581C4.03886 19.5718 3.53516 17.6939 3.53516 14.9729C3.53516 8.47409 8.86778 3.58496 15.1859 3.58496C21.5094 3.58496 26.4643 8.71499 26.4643 15.0331C26.4855 21.2535 21.4664 26.3166 15.2461 26.3498ZM15.3392 9.20225C12.2622 9.04349 9.8642 11.1733 9.33314 14.513C8.89514 17.2778 9.67259 20.6449 10.335 20.8201C10.6526 20.8968 11.4519 20.2507 11.9502 19.7525C12.774 20.3216 13.7334 20.6634 14.7315 20.7435C17.9196 20.8968 20.6439 18.4696 20.8579 15.285C20.9825 12.0935 18.5278 9.39038 15.3392 9.20774V9.20225Z" fill="white"/>
</g>
<defs>
<linearGradient id="paint0_linear_4752_77" x1="3.53541" y1="22.8161" x2="30" y2="15" gradientUnits="userSpaceOnUse">
<stop stop-color="#44CCFF"/>
<stop offset="0.662" stop-color="#5533EE"/>
<stop offset="1" stop-color="#9933DD"/>
</linearGradient>
<radialGradient id="paint1_radial_4752_77" cx="0" cy="0" r="1" gradientUnits="userSpaceOnUse" gradientTransform="translate(-0.713724 -13.1756) rotate(51.356) scale(36.4055 15)">
<stop stop-color="#0000FF"/>
<stop offset="1" stop-opacity="0"/>
</radialGradient>
<clipPath id="clip0_4752_77">
<rect width="30" height="30" fill="white"/>
</clipPath>
</defs>
</svg>
