<svg width="15" height="22" viewBox="0 0 15 22" fill="none" xmlns="http://www.w3.org/2000/svg">
<path d="M11.625 0H2.625C1.92881 0 1.26113 0.276562 0.768845 0.768845C0.276562 1.26113 0 1.92881 0 2.625V19.125C0 19.8212 0.276562 20.4889 0.768845 20.9812C1.26113 21.4734 1.92881 21.75 2.625 21.75H11.625C12.3212 21.75 12.9889 21.4734 13.4812 20.9812C13.9734 20.4889 14.25 19.8212 14.25 19.125V2.625C14.25 1.92881 13.9734 1.26113 13.4812 0.768845C12.9889 0.276562 12.3212 0 11.625 0ZM12 19.125C12 19.2245 11.9605 19.3198 11.8902 19.3902C11.8198 19.4605 11.7245 19.5 11.625 19.5H2.625C2.52554 19.5 2.43016 19.4605 2.35983 19.3902C2.28951 19.3198 2.25 19.2245 2.25 19.125V2.625C2.25 2.52554 2.28951 2.43016 2.35983 2.35984C2.43016 2.28951 2.52554 2.25 2.625 2.25H11.625C11.7245 2.25 11.8198 2.28951 11.8902 2.35984C11.9605 2.43016 12 2.52554 12 2.625V19.125ZM10.5 4.875C10.5 5.17337 10.3815 5.45952 10.1705 5.6705C9.95952 5.88147 9.67337 6 9.375 6H4.875C4.57663 6 4.29048 5.88147 4.0795 5.6705C3.86853 5.45952 3.75 5.17337 3.75 4.875C3.75 4.57663 3.86853 4.29048 4.0795 4.0795C4.29048 3.86853 4.57663 3.75 4.875 3.75H9.375C9.67337 3.75 9.95952 3.86853 10.1705 4.0795C10.3815 4.29048 10.5 4.57663 10.5 4.875Z" fill="white"/>
</svg>
