<svg width="21" height="18" viewBox="0 0 21 18" fill="none" xmlns="http://www.w3.org/2000/svg">
<path d="M20.6709 13.0801C20.7758 13.1846 20.859 13.3088 20.9158 13.4455C20.9726 13.5823 21.0018 13.7289 21.0018 13.877C21.0018 14.025 20.9726 14.1716 20.9158 14.3084C20.859 14.4451 20.7758 14.5693 20.6709 14.6738L18.4209 16.9238C18.2096 17.1352 17.9229 17.2539 17.6241 17.2539C17.3252 17.2539 17.0385 17.1352 16.8272 16.9238C16.6158 16.7125 16.4971 16.4258 16.4971 16.127C16.4971 15.8281 16.6158 15.5414 16.8272 15.3301L17.1562 15.001H16.9603C15.8263 14.9998 14.7089 14.7285 13.7006 14.2095C12.6922 13.6906 11.822 12.939 11.1619 12.017L7.25437 6.54289C6.8028 5.91186 6.20737 5.3975 5.51742 5.04242C4.82746 4.68733 4.06284 4.50174 3.28688 4.50101H1.125C0.826631 4.50101 0.540483 4.38249 0.329505 4.17151C0.118526 3.96053 0 3.67438 0 3.37601C0 3.07765 0.118526 2.7915 0.329505 2.58052C0.540483 2.36954 0.826631 2.25101 1.125 2.25101H3.28688C4.42089 2.25227 5.5383 2.52358 6.54662 3.04249C7.55494 3.56141 8.42518 4.31301 9.08531 5.23508L12.9956 10.7091C13.4472 11.3402 14.0426 11.8545 14.7326 12.2096C15.4225 12.5647 16.1872 12.7503 16.9631 12.751H17.1562L16.8262 12.422C16.6149 12.2106 16.4962 11.924 16.4962 11.6251C16.4962 11.3262 16.6149 11.0395 16.8262 10.8282C17.0376 10.6169 17.3242 10.4981 17.6231 10.4981C17.922 10.4981 18.2087 10.6169 18.42 10.8282L20.6709 13.0801ZM11.7066 6.27195C11.9311 6.46833 12.2245 6.56749 12.5221 6.54762C12.8197 6.52776 13.0973 6.39049 13.2938 6.16601C13.7514 5.64297 14.3155 5.22382 14.9484 4.93666C15.5812 4.64949 16.2682 4.50096 16.9631 4.50101H17.1562L16.8262 4.83008C16.6149 5.04142 16.4962 5.32807 16.4962 5.62695C16.4962 5.92584 16.6149 6.21248 16.8262 6.42383C17.0376 6.63517 17.3242 6.7539 17.6231 6.7539C17.922 6.7539 18.2087 6.63517 18.42 6.42383L20.67 4.17383C20.7749 4.06931 20.8581 3.94512 20.9149 3.80837C20.9717 3.67163 21.0009 3.52502 21.0009 3.37695C21.0009 3.22889 20.9717 3.08228 20.9149 2.94553C20.8581 2.80879 20.7749 2.68459 20.67 2.58008L18.42 0.330076C18.2087 0.118732 17.922 -6.29855e-09 17.6231 0C17.3242 6.29856e-09 17.0376 0.118732 16.8262 0.330077C16.6149 0.541421 16.4962 0.828065 16.4962 1.12695C16.4962 1.42584 16.6149 1.71248 16.8262 1.92383L17.1562 2.25101H16.9603C15.9444 2.2515 14.9403 2.46925 14.0154 2.88965C13.0905 3.31006 12.2662 3.92339 11.5978 4.68851C11.4029 4.91322 11.305 5.20594 11.3254 5.50268C11.3457 5.79941 11.4828 6.076 11.7066 6.27195ZM8.54344 10.9801C8.31889 10.7837 8.02555 10.6845 7.72791 10.7044C7.43027 10.7243 7.1527 10.8615 6.95625 11.086C6.49864 11.6091 5.9345 12.0282 5.30164 12.3154C4.66878 12.6025 3.98184 12.7511 3.28688 12.751H1.125C0.826631 12.751 0.540483 12.8695 0.329505 13.0805C0.118526 13.2915 0 13.5776 0 13.876C0 14.1744 0.118526 14.4605 0.329505 14.6715C0.540483 14.8825 0.826631 15.001 1.125 15.001H3.28688C4.30283 15.0005 5.30692 14.7828 6.23181 14.3624C7.1567 13.942 7.98099 13.3286 8.64938 12.5635C8.84459 12.3392 8.94303 12.0467 8.92318 11.7499C8.90333 11.4532 8.7668 11.1764 8.54344 10.9801Z" fill="white"/>
</svg>
