<svg width="20" height="22" viewBox="0 0 20 22" fill="none" xmlns="http://www.w3.org/2000/svg">
<path d="M18.9463 5.90081C18.7869 5.98416 18.6096 6.02759 18.4297 6.02737C18.2234 6.02772 18.021 5.97131 17.8446 5.86433C17.6681 5.75736 17.5245 5.60392 17.4294 5.42081C16.7456 4.06572 15.7093 2.91993 14.4294 2.10393C14.2999 2.02734 14.1871 1.92556 14.0976 1.80459C14.0082 1.68363 13.9439 1.54595 13.9085 1.39969C13.8732 1.25344 13.8676 1.10159 13.892 0.953119C13.9164 0.804652 13.9703 0.662589 14.0506 0.535336C14.1309 0.408083 14.2359 0.298226 14.3594 0.212265C14.4828 0.126305 14.6223 0.0659886 14.7695 0.0348849C14.9167 0.00378116 15.0687 0.00252237 15.2164 0.0311829C15.3641 0.0598434 15.5045 0.117841 15.6294 0.201743C17.245 1.23421 18.5568 2.67798 19.4301 4.38487C19.4979 4.51616 19.5391 4.65953 19.5515 4.80678C19.5639 4.95403 19.5471 5.10227 19.5022 5.24305C19.4573 5.38382 19.3851 5.51437 19.2897 5.62723C19.1943 5.74009 19.0776 5.83305 18.9463 5.90081ZM2.12381 5.42081C2.80764 4.06572 3.84396 2.91993 5.12381 2.10393C5.2562 2.02896 5.372 1.92792 5.46422 1.80692C5.55644 1.68592 5.62315 1.54747 5.66033 1.39994C5.69752 1.25242 5.70439 1.09889 5.68054 0.948631C5.65669 0.798375 5.60261 0.654518 5.52157 0.525759C5.44053 0.397001 5.33422 0.286017 5.20907 0.199519C5.08391 0.113022 4.94251 0.0528083 4.79342 0.02252C4.64433 -0.00776826 4.49064 -0.00750172 4.34166 0.0233035C4.19267 0.0541087 4.05148 0.114812 3.92662 0.201743C2.31104 1.23421 0.999283 2.67798 0.126 4.38487C-0.0111356 4.64969 -0.0375101 4.95813 0.0526729 5.24239C0.142856 5.52665 0.342217 5.76347 0.606937 5.90081C0.766351 5.98416 0.94361 6.02759 1.1235 6.02737C1.32983 6.02772 1.53227 5.97131 1.7087 5.86433C1.88512 5.75736 2.02873 5.60392 2.12381 5.42081ZM18.3904 14.6411C18.602 14.9189 18.7318 15.2502 18.7653 15.5978C18.7987 15.9453 18.7344 16.2953 18.5797 16.6084C18.4249 16.9214 18.1859 17.1849 17.8894 17.3694C17.5929 17.5539 17.2508 17.6519 16.9016 17.6524H13.8838C13.7884 18.6757 13.3145 19.6265 12.5548 20.3186C11.7951 21.0108 10.8044 21.3944 9.77662 21.3944C8.7489 21.3944 7.75819 21.0108 6.99849 20.3186C6.2388 19.6265 5.76484 18.6757 5.66944 17.6524H2.65162C2.30221 17.6524 1.95975 17.5548 1.66286 17.3705C1.36597 17.1863 1.12647 16.9227 0.971381 16.6096C0.816289 16.2965 0.751774 15.9463 0.785113 15.5985C0.818452 15.2506 0.948318 14.9191 1.16006 14.6411C1.83225 13.7664 2.63475 12.1455 2.64881 9.39674C2.64956 7.5067 3.40109 5.69437 4.73808 4.35844C6.07507 3.0225 7.88799 2.2724 9.77803 2.27315C11.6681 2.2739 13.4804 3.02543 14.8163 4.36241C16.1523 5.6994 16.9024 7.51233 16.9016 9.40237C16.9157 12.1455 17.7182 13.7664 18.3904 14.6411ZM11.6141 17.6524H7.93912C8.02519 18.0762 8.25515 18.4573 8.59003 18.731C8.92491 19.0047 9.34412 19.1542 9.77662 19.1542C10.2091 19.1542 10.6283 19.0047 10.9632 18.731C11.2981 18.4573 11.5281 18.0762 11.6141 17.6524ZM16.1835 15.4024C15.4185 14.1836 14.6657 12.2552 14.6516 9.40799C14.652 8.7678 14.5263 8.1338 14.2816 7.5422C14.037 6.95059 13.6782 6.41297 13.2258 5.96002C12.7733 5.50708 12.2361 5.14768 11.6448 4.90234C11.0535 4.65701 10.4196 4.53055 9.77944 4.53018C9.13924 4.52981 8.50525 4.65554 7.91364 4.90019C7.32204 5.14484 6.78441 5.50362 6.33147 5.95605C5.87852 6.40847 5.51912 6.94568 5.27379 7.537C5.02846 8.12832 4.90199 8.76217 4.90163 9.40237C4.88756 12.2542 4.13475 14.1836 3.36975 15.4024H16.1835Z" fill="white"/>
</svg>
