<svg width="21" height="19" viewBox="0 0 21 19" fill="none" xmlns="http://www.w3.org/2000/svg">
<path d="M19.7494 6.18917L10.7494 0.189168C10.5645 0.0658245 10.3472 0 10.125 0C9.90276 0 9.6855 0.0658245 9.50063 0.189168L0.500626 6.18917C0.346384 6.29208 0.219969 6.43151 0.132628 6.59507C0.0452862 6.75863 -0.000273604 6.94125 1.23613e-06 7.12667V16.8767C1.23613e-06 17.3739 0.197545 17.8509 0.549176 18.2025C0.900807 18.5541 1.37772 18.7517 1.875 18.7517H18.375C18.8723 18.7517 19.3492 18.5541 19.7008 18.2025C20.0525 17.8509 20.25 17.3739 20.25 16.8767V7.12667C20.2503 6.94125 20.2047 6.75863 20.1174 6.59507C20.03 6.43151 19.9036 6.29208 19.7494 6.18917ZM10.125 2.47854L17.1431 7.15761L11.4009 11.2517H8.84906L3.10688 7.15761L10.125 2.47854ZM2.25 16.5017V9.31011L7.83563 13.2926C8.02714 13.4292 8.25665 13.5023 8.49188 13.5017H11.7638C11.999 13.5023 12.2285 13.4292 12.42 13.2926L18 9.31011V16.5017H2.25Z" fill="white"/>
</svg>
