<svg width="21" height="21" viewBox="0 0 21 21" fill="none" xmlns="http://www.w3.org/2000/svg">
<path d="M3.46194 1.1118C3.36315 1.00043 3.24323 0.90978 3.10914 0.845101C2.97506 0.780421 2.82946 0.742998 2.68081 0.735001C2.53215 0.727003 2.38338 0.74859 2.24313 0.798511C2.10288 0.848431 1.97393 0.925693 1.86376 1.02582C1.75358 1.12594 1.66438 1.24693 1.60131 1.38179C1.53824 1.51664 1.50257 1.66267 1.49635 1.81141C1.49014 1.96016 1.51351 2.10865 1.56511 2.2483C1.6167 2.38794 1.69551 2.51596 1.79694 2.62492L2.52913 3.43023C1.18668 4.95504 0.333967 6.84843 0.0818392 8.86427C-0.170288 10.8801 0.18983 12.9252 1.11538 14.7337L0.0981937 17.774C-0.0133512 18.105 -0.0302344 18.4605 0.049447 18.8006C0.129128 19.1406 0.302207 19.4517 0.549175 19.6986C0.796143 19.9456 1.10718 20.1187 1.44724 20.1984C1.78729 20.278 2.14284 20.2612 2.47382 20.1496L5.51413 19.1362C7.17691 19.9864 9.0423 20.3605 10.9043 20.2172C12.7664 20.074 14.5526 19.4189 16.0657 18.3243L16.7969 19.1287C16.9987 19.3453 17.2776 19.4738 17.5734 19.4861C17.8692 19.4985 18.1579 19.3938 18.377 19.1947C18.5961 18.9956 18.7278 18.7182 18.7437 18.4226C18.7597 18.127 18.6584 17.837 18.4619 17.6155L3.46194 1.1118ZM10.1294 17.9934C8.7469 17.9933 7.3888 17.6289 6.19194 16.9368C6.05391 16.8568 5.90044 16.807 5.74172 16.7909C5.58299 16.7747 5.42264 16.7925 5.27132 16.843L2.47851 17.774L3.40944 14.9812C3.45999 14.8298 3.47777 14.6695 3.46161 14.5108C3.44545 14.352 3.39571 14.1986 3.31569 14.0605C2.51239 12.6704 2.15319 11.0679 2.28623 9.4679C2.41928 7.86788 3.0382 6.34674 4.06007 5.10836L14.5451 16.6396C13.242 17.5229 11.7037 17.9945 10.1294 17.9934ZM20.2544 10.1184C20.2571 11.4847 19.9812 12.8372 19.4435 14.0934C19.3207 14.3586 19.0994 14.5656 18.8266 14.6706C18.5537 14.7755 18.2508 14.7702 17.9818 14.6556C17.7129 14.5411 17.4991 14.3264 17.3857 14.0569C17.2723 13.7875 17.2683 13.4845 17.3744 13.2121C17.9634 11.8249 18.1423 10.2979 17.8899 8.8121C17.6375 7.32631 16.9644 5.94403 15.9504 4.8291C14.9364 3.71417 13.624 2.91333 12.1688 2.5215C10.7136 2.12968 9.17648 2.16329 7.73976 2.61836C7.45677 2.70402 7.15143 2.67484 6.88979 2.53712C6.62815 2.39939 6.43124 2.16421 6.34167 1.88243C6.2521 1.60065 6.27706 1.29493 6.41115 1.03141C6.54524 0.767895 6.77768 0.567757 7.05819 0.474296C8.57552 -0.00702886 10.1849 -0.124085 11.7559 0.132615C13.3269 0.389315 14.8153 1.01255 16.1006 1.9518C17.3858 2.89106 18.4316 4.1199 19.1533 5.53875C19.875 6.9576 20.2522 8.52652 20.2544 10.1184Z" fill="white"/>
</svg>
