<svg width="18" height="21" viewBox="0 0 18 21" fill="none" xmlns="http://www.w3.org/2000/svg">
<path d="M12.75 14.2498C12.75 14.5482 12.6315 14.8343 12.4205 15.0453C12.2095 15.2563 11.9234 15.3748 11.625 15.3748H5.625C5.32663 15.3748 5.04048 15.2563 4.8295 15.0453C4.61853 14.8343 4.5 14.5482 4.5 14.2498C4.5 13.9514 4.61853 13.6653 4.8295 13.4543C5.04048 13.2433 5.32663 13.1248 5.625 13.1248H11.625C11.9234 13.1248 12.2095 13.2433 12.4205 13.4543C12.6315 13.6653 12.75 13.9514 12.75 14.2498ZM11.625 9.37479H5.625C5.32663 9.37479 5.04048 9.49332 4.8295 9.7043C4.61853 9.91528 4.5 10.2014 4.5 10.4998C4.5 10.7982 4.61853 11.0843 4.8295 11.2953C5.04048 11.5063 5.32663 11.6248 5.625 11.6248H11.625C11.9234 11.6248 12.2095 11.5063 12.4205 11.2953C12.6315 11.0843 12.75 10.7982 12.75 10.4998C12.75 10.2014 12.6315 9.91528 12.4205 9.7043C12.2095 9.49332 11.9234 9.37479 11.625 9.37479ZM17.25 3.37479V19.1248C17.25 19.6221 17.0525 20.099 16.7008 20.4506C16.3492 20.8022 15.8723 20.9998 15.375 20.9998H1.875C1.37772 20.9998 0.900806 20.8022 0.549175 20.4506C0.197544 20.099 0 19.6221 0 19.1248V3.37479C0 2.87751 0.197544 2.4006 0.549175 2.04897C0.900806 1.69734 1.37772 1.49979 1.875 1.49979H5.11219C5.5662 1.02569 6.11149 0.64839 6.71521 0.390635C7.31892 0.13288 7.96856 0 8.625 0C9.28144 0 9.93108 0.13288 10.5348 0.390635C11.1385 0.64839 11.6838 1.02569 12.1378 1.49979H15.375C15.8723 1.49979 16.3492 1.69734 16.7008 2.04897C17.0525 2.4006 17.25 2.87751 17.25 3.37479ZM6.02719 4.49979H11.2228C11.1322 3.87542 10.8198 3.30456 10.3428 2.8917C9.86571 2.47884 9.25591 2.25161 8.625 2.25161C7.99409 2.25161 7.38429 2.47884 6.90723 2.8917C6.43017 3.30456 6.11775 3.87542 6.02719 4.49979ZM15 3.74979H13.3678C13.4553 4.1184 13.4997 4.49594 13.5 4.87479V5.62479C13.5 5.92316 13.3815 6.20931 13.1705 6.42029C12.9595 6.63127 12.6734 6.74979 12.375 6.74979H4.875C4.57663 6.74979 4.29048 6.63127 4.0795 6.42029C3.86853 6.20931 3.75 5.92316 3.75 5.62479V4.87479C3.75031 4.49594 3.79467 4.1184 3.88219 3.74979H2.25V18.7498H15V3.74979Z" fill="white"/>
</svg>
