<svg width="19" height="21" viewBox="0 0 19 21" fill="none" xmlns="http://www.w3.org/2000/svg">
<path d="M16.875 14.25H1.875C1.37772 14.25 0.900806 14.4475 0.549175 14.7992C0.197544 15.1508 0 15.6277 0 16.125V18.375C0 18.8723 0.197544 19.3492 0.549175 19.7008C0.900806 20.0525 1.37772 20.25 1.875 20.25H16.875C17.3723 20.25 17.8492 20.0525 18.2008 19.7008C18.5525 19.3492 18.75 18.8723 18.75 18.375V16.125C18.75 15.6277 18.5525 15.1508 18.2008 14.7992C17.8492 14.4475 17.3723 14.25 16.875 14.25ZM16.5 18H2.25V16.5H16.5V18ZM16.875 7.125H1.875C1.37772 7.125 0.900806 7.32254 0.549175 7.67417C0.197544 8.02581 0 8.50272 0 9V11.25C0 11.7473 0.197544 12.2242 0.549175 12.5758C0.900806 12.9275 1.37772 13.125 1.875 13.125H16.875C17.3723 13.125 17.8492 12.9275 18.2008 12.5758C18.5525 12.2242 18.75 11.7473 18.75 11.25V9C18.75 8.50272 18.5525 8.02581 18.2008 7.67417C17.8492 7.32254 17.3723 7.125 16.875 7.125ZM16.5 10.875H2.25V9.375H16.5V10.875ZM6.375 3C6.375 2.70163 6.49353 2.41548 6.7045 2.2045C6.91548 1.99353 7.20163 1.875 7.5 1.875H8.25V1.125C8.25 0.826631 8.36853 0.540483 8.5795 0.329505C8.79048 0.118526 9.07663 0 9.375 0C9.67337 0 9.95952 0.118526 10.1705 0.329505C10.3815 0.540483 10.5 0.826631 10.5 1.125V1.875H11.25C11.5484 1.875 11.8345 1.99353 12.0455 2.2045C12.2565 2.41548 12.375 2.70163 12.375 3C12.375 3.29837 12.2565 3.58452 12.0455 3.7955C11.8345 4.00647 11.5484 4.125 11.25 4.125H10.5V4.875C10.5 5.17337 10.3815 5.45952 10.1705 5.6705C9.95952 5.88147 9.67337 6 9.375 6C9.07663 6 8.79048 5.88147 8.5795 5.6705C8.36853 5.45952 8.25 5.17337 8.25 4.875V4.125H7.5C7.20163 4.125 6.91548 4.00647 6.7045 3.7955C6.49353 3.58452 6.375 3.29837 6.375 3Z" fill="white"/>
</svg>
